<svg width="20" height="20" viewBox="0 0 20 20" fill="none" xmlns="http://www.w3.org/2000/svg">
<path d="M9.99967 18.3335C10.9163 18.3335 11.6663 17.5835 11.6663 16.6668H8.33301C8.33301 17.5835 9.08301 18.3335 9.99967 18.3335ZM14.9997 13.3335V9.16683C14.9997 6.6085 13.6413 4.46683 11.2497 3.90016V3.3335C11.2497 2.64183 10.6913 2.0835 9.99967 2.0835C9.30801 2.0835 8.74967 2.64183 8.74967 3.3335V3.90016C6.36634 4.46683 4.99967 6.60016 4.99967 9.16683V13.3335L3.33301 15.0002V15.8335H16.6663V15.0002L14.9997 13.3335ZM13.333 14.1668H6.66634V9.16683C6.66634 7.10016 7.92467 5.41683 9.99967 5.41683C12.0747 5.41683 13.333 7.10016 13.333 9.16683V14.1668Z" fill="#FDC500"/>
</svg>
