<svg width="20" height="20" viewBox="0 0 20 20" fill="none" xmlns="http://www.w3.org/2000/svg">
<circle cx="10.334" cy="10.3335" r="5" fill="#FFF1F1"/>
<g clip-path="url(#clip0_32_6535)">
<path d="M11.1976 17.3959C10.7741 17.7807 10.3034 18.1919 10.0009 18.2844C9.64354 18.1773 9.0605 17.6359 8.2077 16.8441C8.06289 16.7096 7.90909 16.5668 7.7454 16.4159C4.57647 13.4933 1.17657 9.21676 1.13789 5.97883C1.12464 4.87111 1.4953 3.96785 2.27098 3.21736C3.2798 2.24142 4.59604 1.70394 5.97734 1.70394C7.3343 1.70394 8.62477 2.21685 9.61118 3.1482C9.83033 3.35512 10.1729 3.35512 10.3921 3.1482C11.3787 2.21685 12.6693 1.70394 14.0263 1.70394C15.4075 1.70394 16.7238 2.24142 17.7326 3.21731C19.3296 4.76236 19.2408 7.09708 17.469 10.1566C17.3116 10.4285 17.4043 10.7764 17.6762 10.9339C17.948 11.0913 18.296 10.9986 18.4534 10.7267C21.0286 6.27982 19.913 3.74398 18.5236 2.39976C17.3013 1.21753 15.7042 0.566406 14.0262 0.566406C12.5512 0.566406 11.1407 1.06527 10.0016 1.9807C8.86263 1.06521 7.45221 0.566406 5.97728 0.566406C4.29931 0.566406 2.70216 1.21753 1.48 2.39982C0.481307 3.3661 -0.0164764 4.57478 0.000415882 5.99237C0.0545623 10.5222 5.35187 15.7558 6.97416 17.2521C7.13688 17.4022 7.28971 17.544 7.43366 17.6776C8.62255 18.7816 9.21936 19.3356 9.92747 19.4287C9.95204 19.4319 9.97684 19.4335 10.0016 19.4335C10.0263 19.4335 10.0511 19.4319 10.0756 19.4287C10.6449 19.354 11.1577 18.969 11.9625 18.2378C12.1949 18.0266 12.2122 17.6669 12.001 17.4344C11.7898 17.2019 11.4301 17.1847 11.1976 17.3959Z" fill="#D12B2F"/>
<path d="M18.0606 11.8636H16.2339V10.037C16.2339 9.72295 15.9792 9.46826 15.6651 9.46826H13.3778C13.0637 9.46826 12.809 9.72295 12.809 10.037V11.8636H10.9823C10.6682 11.8636 10.4136 12.1183 10.4136 12.4323V14.7198C10.4136 15.0339 10.6682 15.2886 10.9823 15.2886H12.809V17.1151C12.809 17.4292 13.0637 17.6839 13.3778 17.6839H15.6651C15.9792 17.6839 16.2339 17.4292 16.2339 17.1151V15.2886H18.0606C18.3747 15.2886 18.6293 15.0339 18.6293 14.7198V12.4323C18.6293 12.1182 18.3747 11.8636 18.0606 11.8636ZM17.4918 14.1511H15.6651C15.351 14.1511 15.0963 14.4058 15.0963 14.7198V16.5464H13.9466V14.7198C13.9466 14.4058 13.6919 14.1511 13.3778 14.1511H11.5511V13.0011H13.3778C13.6919 13.0011 13.9466 12.7464 13.9466 12.4323V10.6058H15.0963V12.4323C15.0963 12.7464 15.351 13.0011 15.6651 13.0011H17.4918V14.1511Z" fill="#D12B2F"/>
</g>
<defs>
<clipPath id="clip0_32_6535">
<rect width="20" height="20" fill="white"/>
</clipPath>
</defs>
</svg>
