<svg width="20" height="20" viewBox="0 0 20 20" fill="none" xmlns="http://www.w3.org/2000/svg">
<circle cx="10.334" cy="10.3335" r="5" fill="#FFF1F1"/>
<path d="M15.1788 2.14307C15.352 2.14307 15.5127 2.22655 15.6126 2.36437L15.6515 2.42668L18.5135 7.79292L18.5441 7.86607L18.5524 7.89307L18.5645 7.94828L18.5712 8.01114L18.5697 8.08214L18.5717 8.03592C18.5717 8.111 18.5562 8.1825 18.5283 8.24742L18.5077 8.28999L18.4787 8.33757L18.4411 8.3865L10.4287 17.6464C10.3572 17.7424 10.2593 17.8057 10.153 17.8361L10.1115 17.8462L10.042 17.8559L10.0001 17.8574L9.92824 17.8525L9.86746 17.841L9.79367 17.8168L9.77531 17.8081C9.71081 17.7796 9.65153 17.7371 9.60196 17.6813L1.55075 8.37614L1.50639 8.31357L1.47216 8.24707L1.44739 8.17614L1.43086 8.0825L1.43066 7.9915L1.44128 7.921L1.44813 7.893L1.47234 7.82435L1.49187 7.78385L4.34901 2.42668C4.43048 2.27393 4.57981 2.17135 4.74841 2.14809L4.8217 2.14307H15.1788ZM12.7902 8.57164H7.2081L10.001 15.8288L12.7902 8.57164ZM6.06099 8.57164H3.13527L8.40167 14.6559L6.06099 8.57164ZM16.8631 8.57164H13.9395L11.6017 14.6509L16.8631 8.57164ZM7.16024 3.21378H5.14241L2.85599 7.50021H6.0167L7.16024 3.21378ZM11.731 3.21378H8.26882L7.12527 7.50021H12.8738L11.731 3.21378ZM14.8574 3.21378H12.8395L13.9831 7.50021H17.1424L14.8574 3.21378Z" fill="#D12B2F"/>
</svg>
