<svg width="20" height="20" viewBox="0 0 20 20" fill="none" xmlns="http://www.w3.org/2000/svg">
<g clip-path="url(#clip0_32_16327)">
<path d="M17.7778 3.3335H2.2222C1.92751 3.3335 1.64489 3.45056 1.43652 3.65893C1.22815 3.86731 1.11108 4.14992 1.11108 4.44461V15.5557C1.11108 15.8504 1.22815 16.133 1.43652 16.3414C1.64489 16.5498 1.92751 16.6668 2.2222 16.6668H17.7778C18.0724 16.6668 18.3551 16.5498 18.5634 16.3414C18.7718 16.133 18.8889 15.8504 18.8889 15.5557V4.44461C18.8889 4.14992 18.7718 3.86731 18.5634 3.65893C18.3551 3.45056 18.0724 3.3335 17.7778 3.3335ZM16.9222 15.5557H3.14442L7.03331 11.5335L6.23331 10.7613L2.2222 14.9113V5.28905L9.12775 12.1613C9.33593 12.3682 9.61755 12.4844 9.91108 12.4844C10.2046 12.4844 10.4862 12.3682 10.6944 12.1613L17.7778 5.11683V14.8391L13.6889 10.7502L12.9055 11.5335L16.9222 15.5557ZM2.94997 4.44461H16.8778L9.91108 11.3724L2.94997 4.44461Z" fill="#3772FF"/>
</g>
<defs>
<clipPath id="clip0_32_16327">
<rect width="20" height="20" fill="white"/>
</clipPath>
</defs>
</svg>
