<svg width="24" height="24" viewBox="0 0 24 24" fill="none" xmlns="http://www.w3.org/2000/svg">
<g clip-path="url(#clip0_32_12688)">
<path d="M23.9518 20.8909L23.0004 17.5837C22.9777 17.5157 22.9324 17.4478 22.8871 17.4025C22.2982 15.613 20.8484 14.2312 19.0136 13.7555L18.7418 13.7102C18.3341 13.5969 17.881 13.7328 17.5865 14.0726C16.5899 15.2052 15.3213 15.2958 13.9849 15.2958C12.6484 15.2958 11.3799 15.2052 10.3832 14.0726C10.0887 13.7328 9.63568 13.5969 9.22795 13.7102L8.95612 13.7781C7.57435 14.1406 6.39644 15.024 5.64893 16.2019H2.79477C2.77212 16.2019 2.77212 16.2019 2.74947 16.1793C2.74947 16.1566 2.72681 16.134 2.72681 16.0886L3.31577 13.982C3.83676 12.3284 4.83345 11.8301 6.78153 11.3317C6.87214 11.3091 6.94009 11.2638 6.9854 11.2185C7.14396 11.3544 7.32518 11.4676 7.50639 11.5582C7.57435 11.6035 7.6423 11.6035 7.71026 11.6035C7.86883 11.6035 8.02739 11.5129 8.118 11.3544C8.23126 11.1279 8.14065 10.856 7.91413 10.7428C6.87214 10.1991 6.12462 8.65878 6.12462 7.07314C6.12462 5.66871 7.27987 4.51346 8.6843 4.51346C8.95612 4.51346 9.2053 4.55876 9.45447 4.62672C9.2053 5.23833 9.06938 5.89524 9.06938 6.59745C9.06938 10.4709 11.4025 13.7328 14.1661 13.7328C16.8843 13.7328 19.2854 10.403 19.2854 6.59745C19.2854 3.76594 16.9976 1.47809 14.1661 1.47809C12.3766 1.47809 10.7909 2.40682 9.88486 3.81125C9.49977 3.67534 9.09204 3.60738 8.6843 3.60738C7.46109 3.60738 6.37379 4.26429 5.76219 5.23833C5.71688 5.19302 5.67158 5.17037 5.62627 5.14772C5.28649 4.9665 4.94671 4.89855 4.56163 4.89855C3.29311 4.87589 2.27377 5.89524 2.27377 7.16375C2.27377 7.88861 2.47764 8.56817 2.79477 9.11182C1.75278 9.38365 0.824042 9.79138 0.393654 11.1732L0.0312212 12.487C-0.036735 12.7135 0.00856911 12.9627 0.144481 13.1439C0.280394 13.3478 0.529566 13.461 0.778738 13.461H2.52294C2.50029 13.5516 2.45499 13.6422 2.43234 13.7328L1.84338 15.8621C1.75278 16.1566 1.82073 16.4737 2.0246 16.7229C2.20582 16.9721 2.47764 17.108 2.79477 17.108H5.19589C5.12793 17.2666 5.08262 17.4251 5.03732 17.5837L4.08594 20.9135C3.99533 21.2986 4.06328 21.7064 4.31246 22.0235C4.56163 22.3406 4.92406 22.5218 5.30915 22.5218H18.9004H19.6705H22.7286C23.1136 22.5218 23.4987 22.3406 23.7252 22.0235C23.9744 21.7064 24.065 21.2986 23.9518 20.8909ZM10.4285 4.69468C10.4512 4.67203 10.4738 4.64937 10.4965 4.60407C10.5191 4.58142 10.5191 4.53611 10.5418 4.51346C11.244 3.24495 12.6031 2.38417 14.1661 2.38417C16.0462 2.38417 17.6319 3.63003 18.1755 5.32893C17.3827 5.4875 16.5446 5.17037 16.0462 4.49081C15.8876 4.28694 15.6158 4.24164 15.412 4.4002C15.3213 4.46816 15.276 4.53611 15.2534 4.62672C15.2307 4.64937 15.2307 4.67203 15.2081 4.69468C14.5738 5.98584 12.4445 6.52949 10.0208 6.0538C10.0887 5.57811 10.2246 5.12507 10.4285 4.69468ZM11.697 7.11844C13.5092 7.11844 15.0042 6.55214 15.7744 5.4875C16.3407 5.98584 17.0429 6.25767 17.7904 6.25767C17.9716 6.25767 18.1755 6.23502 18.3567 6.18971C18.3794 6.32562 18.3794 6.43888 18.3794 6.5748C18.3794 9.90464 16.4086 12.8268 14.1661 12.8268C12.0141 12.8268 10.134 10.1312 9.97546 6.95988C10.5644 7.07314 11.1534 7.11844 11.697 7.11844ZM0.959955 12.5549L1.27708 11.4223C1.54891 10.4936 2.11521 10.2218 3.24781 9.94995C3.31577 9.9273 3.38372 9.90464 3.42903 9.85934C3.54229 9.94995 3.63289 10.0179 3.76881 10.0859C3.83676 10.1312 3.90472 10.1312 3.97268 10.1312C4.13124 10.1312 4.2898 10.0406 4.38041 9.88199C4.49367 9.65547 4.40306 9.38365 4.1992 9.27039C3.61024 8.95326 3.17985 8.06983 3.17985 7.16375C3.17985 6.39358 3.79146 5.78197 4.56163 5.78197C4.8108 5.78197 5.01467 5.82728 5.21854 5.94054C5.28649 5.96319 5.3318 5.98584 5.39975 5.98584C5.28649 6.32562 5.21854 6.68806 5.21854 7.07314C5.21854 8.36431 5.64893 9.63282 6.32849 10.5162C4.96936 10.856 3.76881 11.3091 2.97599 12.5549H0.959955ZM23.023 21.4798C22.9777 21.5251 22.8871 21.6157 22.7286 21.6157H19.6705H18.9004H5.30915C5.15058 21.6157 5.05997 21.5251 5.01467 21.4798C4.94671 21.3892 4.92406 21.2533 4.94671 21.1627L5.8981 17.8555C6.35114 16.2925 7.597 15.0693 9.18264 14.6616L9.45447 14.5936C9.52242 14.571 9.63568 14.6163 9.70364 14.6842C10.9495 16.1113 12.4898 16.2246 13.9849 16.2246C15.4799 16.2246 17.0202 16.1113 18.2661 14.6842C18.3341 14.6163 18.4247 14.571 18.5379 14.5936L18.8098 14.6616C20.3727 15.0693 21.6413 16.2925 22.0943 17.8555L22.502 19.2599C22.5247 19.3279 22.5473 19.3732 22.5926 19.4185L23.091 21.1401C23.1136 21.2533 23.091 21.3892 23.023 21.4798Z" fill="#D12B2F"/>
</g>
<defs>
<clipPath id="clip0_32_12688">
<rect width="24" height="24" fill="white"/>
</clipPath>
</defs>
</svg>
