<svg width="24" height="24" viewBox="0 0 24 24" fill="none" xmlns="http://www.w3.org/2000/svg">
<g clip-path="url(#clip0_32_8570)">
<path d="M23.9518 20.8908L23.0004 17.5836C22.9777 17.5157 22.9324 17.4477 22.8871 17.4024C22.2982 15.6129 20.8484 14.2311 19.0136 13.7554L18.7418 13.7101C18.3341 13.5969 17.881 13.7328 17.5865 14.0726C16.5899 15.2052 15.3213 15.2958 13.9849 15.2958C12.6484 15.2958 11.3799 15.2052 10.3832 14.0726C10.0887 13.7328 9.63568 13.5969 9.22795 13.7101L8.95612 13.7781C7.57435 14.1405 6.39644 15.0239 5.64893 16.2018H2.79477C2.77212 16.2018 2.77212 16.2018 2.74946 16.1792C2.74946 16.1565 2.72681 16.1339 2.72681 16.0886L3.31577 13.9819C3.83676 12.3284 4.83345 11.83 6.78153 11.3317C6.87214 11.309 6.94009 11.2637 6.9854 11.2184C7.14396 11.3543 7.32518 11.4676 7.50639 11.5582C7.57435 11.6035 7.6423 11.6035 7.71026 11.6035C7.86882 11.6035 8.02739 11.5129 8.118 11.3543C8.23126 11.1278 8.14065 10.856 7.91413 10.7427C6.87214 10.1991 6.12462 8.65872 6.12462 7.07308C6.12462 5.66865 7.27987 4.5134 8.6843 4.5134C8.95612 4.5134 9.20529 4.5587 9.45447 4.62666C9.20529 5.23826 9.06938 5.89517 9.06938 6.59739C9.06938 10.4709 11.4025 13.7328 14.1661 13.7328C16.8843 13.7328 19.2854 10.4029 19.2854 6.59739C19.2854 3.76588 16.9976 1.47803 14.1661 1.47803C12.3766 1.47803 10.7909 2.40676 9.88486 3.81119C9.49977 3.67527 9.09203 3.60732 8.6843 3.60732C7.46109 3.60732 6.37379 4.26423 5.76219 5.23826C5.71688 5.19296 5.67158 5.17031 5.62627 5.14766C5.28649 4.96644 4.94671 4.89848 4.56163 4.89848C3.29311 4.87583 2.27377 5.89517 2.27377 7.16369C2.27377 7.88855 2.47764 8.56811 2.79477 9.11176C1.75278 9.38359 0.824042 9.79132 0.393654 11.1731L0.0312211 12.4869C-0.036735 12.7134 0.00856911 12.9626 0.144481 13.1438C0.280394 13.3477 0.529566 13.461 0.778738 13.461H2.52294C2.50029 13.5516 2.45499 13.6422 2.43234 13.7328L1.84338 15.8621C1.75278 16.1565 1.82073 16.4737 2.0246 16.7228C2.20582 16.972 2.47764 17.1079 2.79477 17.1079H5.19588C5.12793 17.2665 5.08262 17.4251 5.03732 17.5836L4.08594 20.9135C3.99533 21.2986 4.06328 21.7063 4.31246 22.0234C4.56163 22.3405 4.92406 22.5218 5.30914 22.5218H18.9004H19.6705H22.7286C23.1136 22.5218 23.4987 22.3405 23.7252 22.0234C23.9744 21.7063 24.065 21.2986 23.9518 20.8908ZM10.4285 4.69462C10.4512 4.67196 10.4738 4.64931 10.4965 4.60401C10.5191 4.58136 10.5191 4.53605 10.5418 4.5134C11.244 3.24489 12.6031 2.38411 14.1661 2.38411C16.0462 2.38411 17.6318 3.62997 18.1755 5.32887C17.3827 5.48744 16.5446 5.17031 16.0462 4.49075C15.8876 4.28688 15.6158 4.24158 15.412 4.40014C15.3213 4.4681 15.276 4.53605 15.2534 4.62666C15.2307 4.64931 15.2307 4.67196 15.2081 4.69462C14.5738 5.98578 12.4445 6.52943 10.0208 6.05374C10.0887 5.57805 10.2246 5.125 10.4285 4.69462ZM11.697 7.11838C13.5092 7.11838 15.0042 6.55208 15.7744 5.48744C16.3407 5.98578 17.0429 6.25761 17.7904 6.25761C17.9716 6.25761 18.1755 6.23495 18.3567 6.18965C18.3794 6.32556 18.3794 6.43882 18.3794 6.57473C18.3794 9.90458 16.4086 12.8267 14.1661 12.8267C12.0141 12.8267 10.134 10.1311 9.97546 6.95982C10.5644 7.07308 11.1534 7.11838 11.697 7.11838ZM0.959954 12.5549L1.27708 11.4223C1.54891 10.4935 2.11521 10.2217 3.24781 9.94989C3.31577 9.92724 3.38372 9.90458 3.42903 9.85928C3.54229 9.94989 3.63289 10.0178 3.76881 10.0858C3.83676 10.1311 3.90472 10.1311 3.97268 10.1311C4.13124 10.1311 4.2898 10.0405 4.38041 9.88193C4.49367 9.65541 4.40306 9.38359 4.1992 9.27033C3.61024 8.9532 3.17985 8.06977 3.17985 7.16369C3.17985 6.39352 3.79146 5.78191 4.56163 5.78191C4.8108 5.78191 5.01467 5.82722 5.21854 5.94048C5.28649 5.96313 5.3318 5.98578 5.39975 5.98578C5.28649 6.32556 5.21854 6.68799 5.21854 7.07308C5.21854 8.36425 5.64893 9.63276 6.32849 10.5162C4.96936 10.856 3.76881 11.309 2.97599 12.5549H0.959954ZM23.023 21.4798C22.9777 21.5251 22.8871 21.6157 22.7286 21.6157H19.6705H18.9004H5.30914C5.15058 21.6157 5.05997 21.5251 5.01467 21.4798C4.94671 21.3892 4.92406 21.2533 4.94671 21.1626L5.8981 17.8554C6.35114 16.2925 7.597 15.0692 9.18264 14.6615L9.45447 14.5936C9.52242 14.5709 9.63568 14.6162 9.70364 14.6842C10.9495 16.1112 12.4898 16.2245 13.9849 16.2245C15.4799 16.2245 17.0202 16.1112 18.2661 14.6842C18.3341 14.6162 18.4247 14.5709 18.5379 14.5936L18.8098 14.6615C20.3727 15.0692 21.6413 16.2925 22.0943 17.8554L22.502 19.2599C22.5247 19.3278 22.5473 19.3731 22.5926 19.4184L23.091 21.14C23.1136 21.2533 23.091 21.3892 23.023 21.4798Z" fill="#828282"/>
</g>
<defs>
<clipPath id="clip0_32_8570">
<rect width="24" height="24" fill="white"/>
</clipPath>
</defs>
</svg>
