<svg width="24" height="24" viewBox="0 0 24 24" fill="none" xmlns="http://www.w3.org/2000/svg">
<path d="M18 10.3635H15.0546L13.7455 7.4181C13.6364 7.1999 13.4728 7.09082 13.2546 7.09082C13.0364 7.09082 12.8182 7.1999 12.7637 7.4181L10.3637 12.8727L9.32731 10.6909C9.21823 10.5272 9.05459 10.3636 8.83639 10.3636H6.00003C5.67275 10.3636 5.45459 10.5818 5.45459 10.909C5.45459 11.2363 5.67279 11.4545 6.00003 11.4545H8.45459L9.87279 14.3999C9.98187 14.5635 10.1455 14.7272 10.3637 14.7272C10.5819 14.7272 10.7455 14.6181 10.8546 14.3999L13.2546 8.9999L14.2364 11.1817C14.291 11.3453 14.5092 11.4544 14.7274 11.4544H18C18.3273 11.4544 18.5455 11.2362 18.5455 10.909C18.5455 10.5817 18.3273 10.3635 18 10.3635Z" fill="#828282"/>
<path d="M19.0912 1.63636H15.8184C15.8184 1.30908 15.6002 1.09092 15.273 1.09092H13.9094C13.6912 1.09092 13.5276 0.981844 13.473 0.872719C13.1457 0.327281 12.6002 0 12.0002 0C11.4002 0 10.8548 0.327281 10.582 0.872719C10.4729 0.981797 10.3093 1.09092 10.0911 1.09092H8.72746C8.40018 1.09092 8.18203 1.30913 8.18203 1.63636V4.36364C8.18203 4.69092 8.40023 4.90908 8.72746 4.90908H15.2729C15.6002 4.90908 15.8183 4.69088 15.8183 4.36364C15.8183 4.03636 15.6001 3.8182 15.2729 3.8182H9.2729V2.1818H10.0911C10.6911 2.1818 11.2365 1.85452 11.5093 1.36359C11.7275 0.981797 12.2729 1.03631 12.4911 1.36359C12.7638 1.85452 13.3093 2.1818 13.9093 2.1818H14.7275C14.7275 2.50908 14.9457 2.72723 15.2729 2.72723H19.0912C19.4184 2.72723 19.6366 2.94544 19.6366 3.27267V22.3636C19.6366 22.6909 19.4184 22.909 19.0912 22.909H4.90931C4.58203 22.909 4.36387 22.6908 4.36387 22.3636V3.27272C4.36387 2.94544 4.58207 2.72728 4.90931 2.72728H6.00023C6.32751 2.72728 6.54567 2.50908 6.54567 2.18184C6.54567 1.85461 6.32751 1.63636 6.00023 1.63636H4.90931C3.98203 1.63636 3.27295 2.34544 3.27295 3.27272V22.3636C3.27295 23.2909 3.98203 24 4.90931 24H19.0911C20.0184 24 20.7275 23.2909 20.7275 22.3636V3.27272C20.7275 2.34544 20.0184 1.63636 19.0912 1.63636Z" fill="#828282"/>
<path d="M13.0909 17.4546H6.00003C5.67275 17.4546 5.45459 17.6728 5.45459 18C5.45459 18.3273 5.67279 18.5455 6.00003 18.5455H13.0909C13.4182 18.5455 13.6364 18.3273 13.6364 18C13.6364 17.6728 13.4182 17.4546 13.0909 17.4546Z" fill="#828282"/>
<path d="M9.81823 19.6362H6.00003C5.67275 19.6362 5.45459 19.8544 5.45459 20.1817C5.45459 20.5089 5.67279 20.7271 6.00003 20.7271H9.81823C10.1455 20.7271 10.3637 20.5089 10.3637 20.1817C10.3637 19.8544 10.1455 19.6362 9.81823 19.6362Z" fill="#828282"/>
</svg>
