<svg width="20" height="20" viewBox="0 0 20 20" fill="none" xmlns="http://www.w3.org/2000/svg">
<g clip-path="url(#clip0_32_16559)">
<path d="M17.9802 7.0882C17.5404 6.0608 16.9509 5.17565 16.2117 4.43309C15.4729 3.69045 14.5894 3.09907 13.5619 2.65926C12.5348 2.21945 11.4584 1.99951 10.3337 1.99951C9.20893 1.99951 8.13274 2.21957 7.10527 2.65926C6.07776 3.09907 5.19447 3.69034 4.45546 4.43309C3.71643 5.17565 3.12687 6.0608 2.68706 7.0882C2.24729 8.11567 2.02734 9.1955 2.02734 10.3274C2.02734 11.4594 2.24729 12.5409 2.68706 13.5719C3.12698 14.6032 3.71639 15.4898 4.45546 16.2326C5.19447 16.9753 6.07776 17.5667 7.10527 18.0062C8.13274 18.4462 9.20889 18.6661 10.3337 18.6661C11.4586 18.6661 12.5348 18.4462 13.5619 18.0062C14.5894 17.5665 15.4729 16.9753 16.2117 16.2326C16.9509 15.4898 17.5404 14.6031 17.9802 13.5719C18.4201 12.5409 18.6398 11.4593 18.6398 10.3274C18.6397 9.1955 18.4201 8.11567 17.9802 7.0882ZM5.41259 13.561C4.77087 12.5736 4.45001 11.4952 4.45016 10.3273C4.45016 9.26024 4.7134 8.27242 5.23973 7.36386C5.76595 6.45538 6.47992 5.73801 7.38109 5.21149C8.28234 4.68515 9.26655 4.42206 10.3337 4.42206C11.5236 4.42206 12.6048 4.75016 13.5784 5.40628L5.41259 13.561ZM15.7519 12.6258C15.4418 13.3576 15.0239 13.9868 14.4975 14.5132C13.971 15.0396 13.3456 15.4596 12.6209 15.7729C11.8962 16.0865 11.1337 16.2435 10.3335 16.2435C9.17991 16.2435 8.10918 15.9228 7.12133 15.2808L15.2763 7.13676C15.9039 8.10294 16.2172 9.16652 16.2172 10.3273C16.217 11.1277 16.062 11.8938 15.7519 12.6258Z" fill="#D12B2F"/>
</g>
<defs>
<clipPath id="clip0_32_16559">
<rect width="16.6667" height="16.6667" fill="white" transform="translate(2 1.99951)"/>
</clipPath>
</defs>
</svg>
