<svg width="12" height="12" viewBox="0 0 12 12" fill="none" xmlns="http://www.w3.org/2000/svg">
<path fill-rule="evenodd" clip-rule="evenodd" d="M11.7612 0.238639C11.443 -0.0795465 10.9271 -0.0795464 10.6089 0.238639L0.238639 10.6089C-0.0795463 10.9271 -0.0795464 11.443 0.238639 11.7612C0.556824 12.0793 1.0727 12.0793 1.39089 11.7612L11.7612 1.39089C12.0793 1.07271 12.0793 0.556825 11.7612 0.238639ZM11.7612 4.84765C11.443 4.52946 10.9271 4.52946 10.6089 4.84765L4.84764 10.6089C4.52945 10.9271 4.52945 11.443 4.84764 11.7612C5.16582 12.0793 5.6817 12.0793 5.99989 11.7612L11.7612 5.9999C12.0793 5.68171 12.0793 5.16583 11.7612 4.84765Z" fill="#8E90A6"/>
</svg>
