<svg width="32" height="20" viewBox="0 0 32 20" fill="none" xmlns="http://www.w3.org/2000/svg">
<path d="M11.6736 2.11377H20.3259V17.6522H11.6736V2.11377Z" fill="#FF5F00"/>
<path d="M12.2232 9.8831C12.2232 6.72605 13.7064 3.92578 15.9862 2.11383C14.3108 0.796111 12.1958 0 9.88853 0C4.42225 0 0 4.41988 0 9.8831C0 15.3462 4.42225 19.7662 9.8884 19.7662C12.1957 19.7662 14.3106 18.9701 15.9862 17.6523C13.7064 15.8678 12.2232 13.0402 12.2232 9.8831Z" fill="#EB001B"/>
<path d="M31.9999 9.8831C31.9999 15.3462 27.5776 19.7662 22.1114 19.7662C19.8042 19.7662 17.6892 18.9701 16.0137 17.6523C18.321 15.8404 19.7768 13.0402 19.7768 9.8831C19.7768 6.72605 18.2934 3.92578 16.0137 2.11383C17.6891 0.796111 19.8042 0 22.1114 0C27.5776 0 32 4.44739 32 9.8831H31.9999Z" fill="#F79E1B"/>
</svg>
