<svg width="40" height="40" viewBox="0 0 40 40" fill="none" xmlns="http://www.w3.org/2000/svg">
<path d="M20.0002 3.33325C10.7835 3.33325 3.3335 10.7833 3.3335 19.9999C3.3335 29.2166 10.7835 36.6666 20.0002 36.6666C29.2168 36.6666 36.6668 29.2166 36.6668 19.9999C36.6668 10.7833 29.2168 3.33325 20.0002 3.33325ZM27.1668 27.1666C27.0126 27.3211 26.8295 27.4437 26.6279 27.5273C26.4262 27.6109 26.2101 27.654 25.9918 27.654C25.7736 27.654 25.5574 27.6109 25.3558 27.5273C25.1542 27.4437 24.971 27.3211 24.8168 27.1666L20.0002 22.3499L15.1835 27.1666C14.8719 27.4782 14.4492 27.6533 14.0085 27.6533C13.5678 27.6533 13.1451 27.4782 12.8335 27.1666C12.5219 26.855 12.3468 26.4323 12.3468 25.9916C12.3468 25.7734 12.3898 25.5573 12.4733 25.3557C12.5568 25.1541 12.6792 24.9709 12.8335 24.8166L17.6502 19.9999L12.8335 15.1833C12.5219 14.8716 12.3468 14.449 12.3468 14.0083C12.3468 13.5675 12.5219 13.1449 12.8335 12.8333C13.1451 12.5216 13.5678 12.3466 14.0085 12.3466C14.4492 12.3466 14.8719 12.5216 15.1835 12.8333L20.0002 17.6499L24.8168 12.8333C24.9711 12.6789 25.1543 12.5565 25.3559 12.473C25.5575 12.3895 25.7736 12.3466 25.9918 12.3466C26.21 12.3466 26.4261 12.3895 26.6277 12.473C26.8293 12.5565 27.0125 12.6789 27.1668 12.8333C27.3211 12.9876 27.4435 13.1707 27.527 13.3723C27.6105 13.574 27.6535 13.79 27.6535 14.0083C27.6535 14.2265 27.6105 14.4426 27.527 14.6442C27.4435 14.8458 27.3211 15.0289 27.1668 15.1833L22.3502 19.9999L27.1668 24.8166C27.8002 25.4499 27.8002 26.5166 27.1668 27.1666Z" fill="#D12B2F"/>
</svg>
