<svg width="112" height="16" viewBox="0 0 112 16" fill="none" xmlns="http://www.w3.org/2000/svg">
<circle cx="4" cy="8" r="4" fill="#E6E8E6"/>
<g clip-path="url(#clip0_32_15734)">
<path d="M32.0007 11.513L36.1207 13.9997L35.0273 9.31301L38.6673 6.15967L33.874 5.75301L32.0007 1.33301L30.1273 5.75301L25.334 6.15967L28.974 9.31301L27.8807 13.9997L32.0007 11.513Z" fill="#E6E8E6"/>
</g>
<g clip-path="url(#clip1_32_15734)">
<path d="M50.0007 11.513L54.1207 13.9997L53.0273 9.31301L56.6673 6.15967L51.874 5.75301L50.0007 1.33301L48.1273 5.75301L43.334 6.15967L46.974 9.31301L45.8807 13.9997L50.0007 11.513Z" fill="#E6E8E6"/>
</g>
<g clip-path="url(#clip2_32_15734)">
<path d="M68.0007 11.513L72.1207 13.9997L71.0273 9.31301L74.6673 6.15967L69.874 5.75301L68.0007 1.33301L66.1273 5.75301L61.334 6.15967L64.974 9.31301L63.8807 13.9997L68.0007 11.513Z" fill="#E6E8E6"/>
</g>
<defs>
<clipPath id="clip0_32_15734">
<rect width="16" height="16" fill="white" transform="translate(24)"/>
</clipPath>
<clipPath id="clip1_32_15734">
<rect width="16" height="16" fill="white" transform="translate(42)"/>
</clipPath>
<clipPath id="clip2_32_15734">
<rect width="16" height="16" fill="white" transform="translate(60)"/>
</clipPath>
</defs>
</svg>
