<svg width="390" height="70" viewBox="0 0 390 70" fill="none" xmlns="http://www.w3.org/2000/svg">
<rect width="75" height="70" rx="15" fill="#3772FF" fill-opacity="0.15"/>
<path d="M49.25 41.52C47.375 37.9575 45.5 38.52 43.4375 38.3325C43.625 38.895 43.625 39.4575 43.625 40.2075C46.625 40.9575 47.375 44.52 47.375 46.5825V48.4575H43.625V46.5825H45.5C45.5 46.5825 45.5 41.895 42.6875 41.895C39.875 41.895 39.875 46.395 39.875 46.5825H41.75V48.4575H38V46.5825C38 44.52 38.75 40.77 41.75 40.2075C41.75 39.0825 41.5625 38.145 41.375 37.77C41 37.5825 40.625 37.2075 40.625 36.645C40.625 35.52 42.125 35.895 43.25 33.8325C43.25 33.8325 44.9375 29.52 44.375 25.77H42.5C42.5 25.395 42.6875 25.2075 42.6875 24.8325C42.6875 24.4575 42.6875 24.27 42.5 23.895H44C43.4375 22.02 41.5625 20.3325 38 20.3325C34.4375 20.3325 32.5625 22.02 31.8125 24.0825H33.3125C33.3125 24.4575 33.125 24.645 33.125 25.02C33.125 25.395 33.125 25.5825 33.3125 25.9575H31.4375C31.0625 29.7075 32.5625 34.02 32.5625 34.02C33.6875 35.895 35.1875 35.52 35.1875 36.8325C35.1875 37.77 34.25 38.145 33.125 38.3325C32.75 38.7075 32.375 39.4575 32.375 40.9575C32.375 41.7075 32.375 42.4575 32.375 43.2075C33.5 43.5825 34.25 44.7075 34.25 45.8325C34.25 47.145 32.9375 48.4575 31.4375 48.4575C29.9375 48.4575 28.625 47.145 28.625 45.645C28.625 44.3325 29.375 43.395 30.5 43.02C30.5 42.4575 30.5 41.7075 30.5 40.77C30.5 39.8325 30.6875 39.0825 30.875 38.3325C29.5625 38.52 28.0625 39.0825 26.75 41.52C25.625 43.5825 25.0625 50.3325 25.0625 50.3325H50.75C50.9375 50.3325 50.375 43.5825 49.25 41.52ZM35.1875 25.02C35.1875 23.52 36.5 22.2075 38 22.2075C39.5 22.2075 40.8125 23.52 40.8125 25.02C40.8125 26.52 39.5 27.8325 38 27.8325C36.5 27.8325 35.1875 26.52 35.1875 25.02Z" fill="#3772FF"/>
<path d="M32.375 45.645C32.375 46.1625 31.955 46.5825 31.4375 46.5825C30.92 46.5825 30.5 46.1625 30.5 45.645C30.5 45.1275 30.92 44.7075 31.4375 44.7075C31.955 44.7075 32.375 45.1275 32.375 45.645Z" fill="#3772FF"/>
<rect x="105" width="75" height="70" rx="15" fill="#FDC500" fill-opacity="0.15"/>
<g clip-path="url(#clip0_32_2213)">
<path d="M143.692 35.1949C140.653 38.234 140.436 43.0259 143.04 46.3154L154.812 34.5435C151.522 31.9395 146.731 32.1564 143.692 35.1949Z" fill="#FDC500"/>
<path d="M156.197 35.9277L144.425 47.6998C147.715 50.3046 152.506 50.0877 155.545 47.0478C158.584 44.0092 158.801 39.2174 156.197 35.9277Z" fill="#FDC500"/>
<path d="M144.869 21.8613C141.149 20.1246 136.725 21.7321 134.989 25.4525L132.562 30.6515L141.438 34.796C141.706 34.4515 141.996 34.1224 142.308 33.81C143.294 32.8238 144.446 32.0599 145.729 31.5393C146.721 31.137 147.758 30.894 148.82 30.8129C149.918 27.313 148.284 23.4555 144.869 21.8613ZM142.877 26.128C141.516 25.4925 139.891 26.083 139.255 27.4442L137.481 26.6159C138.573 24.2762 141.366 23.2614 143.705 24.3535L142.877 26.128Z" fill="#FDC500"/>
<path d="M140.036 45.0113C139.534 43.7721 139.279 42.4634 139.279 41.1213C139.279 39.7792 139.534 38.4704 140.036 37.2313C140.142 36.9703 140.259 36.715 140.385 36.4652L131.733 32.4258L128.699 38.9233C126.963 42.6437 128.571 47.0668 132.291 48.8035C135.375 50.2438 138.943 49.3845 141.062 46.9283C140.654 46.3293 140.311 45.6891 140.036 45.0113Z" fill="#FDC500"/>
</g>
<rect x="210" width="75" height="70" rx="15" fill="#D12B2F" fill-opacity="0.15"/>
<g clip-path="url(#clip1_32_2213)">
<path fill-rule="evenodd" clip-rule="evenodd" d="M236.662 23.5479H240.652V24.9712H237.828C237.457 24.975 237.102 25.1189 236.839 25.3721C236.576 25.6253 236.426 25.9678 236.422 26.3262V47.5664C236.425 47.9252 236.574 48.2684 236.838 48.5219C237.101 48.7753 237.457 48.9188 237.828 48.9214H257.172C257.544 48.9201 257.9 48.7769 258.163 48.5231C258.426 48.2693 258.574 47.9254 258.576 47.5664V26.3262C258.572 25.9678 258.423 25.625 258.161 25.3716C257.898 25.1182 257.543 24.9744 257.172 24.9712H254.348V23.5479H258.335C258.776 23.5491 259.198 23.7185 259.51 24.0189C259.822 24.3194 259.998 24.7266 260 25.1519V48.7285C259.997 49.1534 259.82 49.5599 259.509 49.86C259.197 50.1602 258.776 50.33 258.335 50.3325H236.662C236.222 50.3306 235.8 50.161 235.489 49.8606C235.178 49.5602 235.002 49.1533 235 48.7285V25.1519C235.001 24.7268 235.177 24.3196 235.488 24.0191C235.8 23.7185 236.222 23.5491 236.662 23.5479ZM247.793 28.2939H256.564V29.0972H247.781V28.2939H247.793ZM247.793 32.6689H250.804V33.4746H247.781V32.6689H247.793ZM247.793 30.3911H252.028V31.1968H247.781V30.3911H247.793ZM254.151 30.1665H254.877C254.944 30.1665 255.008 30.1922 255.056 30.238C255.103 30.2838 255.13 30.3459 255.13 30.4106V31.2236H255.972C256.04 31.2236 256.104 31.2494 256.151 31.2951C256.199 31.3409 256.225 31.403 256.225 31.4678V32.1709C256.225 32.2356 256.199 32.2977 256.151 32.3435C256.104 32.3893 256.04 32.415 255.972 32.415H255.112V33.2085C255.112 33.2732 255.086 33.3353 255.038 33.3811C254.991 33.4269 254.926 33.4526 254.859 33.4526H254.138C254.071 33.4526 254.007 33.4269 253.959 33.3811C253.912 33.3353 253.885 33.2732 253.885 33.2085V32.3979H253.048C252.981 32.3979 252.917 32.3722 252.869 32.3264C252.822 32.2807 252.795 32.2186 252.795 32.1538V31.458C252.795 31.3933 252.822 31.3312 252.869 31.2854C252.917 31.2396 252.981 31.2139 253.048 31.2139H253.89V30.4058C253.89 30.341 253.917 30.2789 253.965 30.2331C254.012 30.1873 254.076 30.1616 254.143 30.1616L254.151 30.1665ZM240.996 31.7119C241.031 31.6362 241.062 31.5508 241.082 31.4946C240.998 31.3948 240.922 31.2896 240.854 31.1797L240.616 30.8306C240.544 30.7364 240.499 30.625 240.487 30.5083C240.484 30.468 240.492 30.4276 240.51 30.3911C240.527 30.3551 240.554 30.3245 240.588 30.3032C240.606 30.2911 240.624 30.2812 240.644 30.2739C240.631 30.0617 240.631 29.8489 240.644 29.6367C240.649 29.5881 240.659 29.5399 240.672 29.4927C240.735 29.289 240.874 29.1151 241.062 29.0044C241.163 28.9415 241.274 28.8937 241.39 28.8628C241.464 28.8433 241.327 28.6187 241.403 28.6187C241.77 28.582 242.364 28.9067 242.62 29.1729C242.76 29.3239 242.84 29.5174 242.848 29.7197L242.832 30.3008C242.862 30.3073 242.89 30.322 242.911 30.3432C242.933 30.3645 242.948 30.3913 242.954 30.4204C242.968 30.5261 242.946 30.6332 242.891 30.7256L242.638 31.1455C242.54 31.2976 242.424 31.4378 242.291 31.563C242.302 31.5798 242.314 31.5961 242.326 31.6118C242.772 32.2441 243.374 31.9194 244.075 32.4126L244.052 32.4395V33.5161H239.301V32.4297C239.307 32.4159 239.317 32.4046 239.331 32.3979C239.784 32.1538 240.829 32.0586 240.988 31.7119H240.996ZM238.719 27.4272H244.641C244.775 27.4272 244.904 27.4787 244.999 27.5703C245.094 27.6618 245.147 27.786 245.147 27.9155V34.2144C245.145 34.342 245.092 34.4638 244.998 34.5537C244.905 34.6457 244.777 34.6984 244.644 34.7002H238.724C238.59 34.7002 238.461 34.6488 238.366 34.5572C238.271 34.4656 238.218 34.3414 238.218 34.2119V27.9131C238.218 27.7836 238.271 27.6594 238.366 27.5678C238.461 27.4762 238.59 27.4248 238.724 27.4248L238.719 27.4272ZM244.636 27.8423H238.724C238.705 27.8429 238.687 27.8508 238.673 27.8643C238.666 27.8702 238.66 27.8777 238.656 27.8861C238.652 27.8946 238.65 27.9038 238.651 27.9131V34.2144C238.652 34.2321 238.66 34.2487 238.673 34.2607C238.68 34.2676 238.688 34.2731 238.696 34.2769C238.705 34.2807 238.714 34.2827 238.724 34.2827H244.641C244.659 34.2811 244.677 34.2734 244.689 34.2609C244.702 34.2484 244.71 34.2319 244.712 34.2144V27.9131C244.712 27.9039 244.71 27.8948 244.706 27.8863C244.702 27.8779 244.696 27.8704 244.689 27.8643C244.677 27.8512 244.66 27.8433 244.641 27.8423H244.636ZM238.486 45.1567H252.686V45.9673H238.486V45.1689V45.1567ZM238.486 42.0928H256.504V42.8911H238.486V42.0928ZM238.486 38.4648H242.787L243.564 36.9463L245.094 39.0728L246.637 36.1626L248.234 39.1826L248.914 38.5698L249.192 38.4648H251.376L252.744 37.1025L254.009 38.4648H256.504V39.2632H253.642L252.724 38.2695L251.727 39.2632H249.354L247.983 40.4839L246.637 37.9106L245.188 40.6133L243.67 38.5063L243.283 39.2632H238.476V38.4648H238.486ZM242.956 22.5737H244.841C244.903 21.9702 245.191 21.4092 245.651 20.9964C246.111 20.5836 246.712 20.3475 247.341 20.3325C247.964 20.3468 248.561 20.5793 249.02 20.9867C249.479 21.3941 249.768 21.9486 249.835 22.5469L252.041 22.5737C252.115 22.5737 252.186 22.602 252.238 22.6524C252.29 22.7028 252.319 22.7711 252.319 22.8423V25.4082C252.319 25.4794 252.29 25.5477 252.238 25.5981C252.186 25.6485 252.115 25.6768 252.041 25.6768H242.959C242.885 25.6768 242.814 25.6485 242.762 25.5981C242.71 25.5477 242.681 25.4794 242.681 25.4082V22.8423C242.68 22.807 242.687 22.772 242.7 22.7393C242.714 22.7066 242.734 22.6768 242.76 22.6518C242.785 22.6268 242.816 22.607 242.85 22.5935C242.884 22.5801 242.92 22.5734 242.956 22.5737ZM246.306 23.6748C246.48 23.9121 246.711 24.1056 246.979 24.2388C247.198 24.2997 247.43 24.2997 247.649 24.2388C247.994 24.059 248.269 23.7764 248.434 23.4331C248.452 23.3455 248.461 23.2564 248.461 23.167C248.472 23.0185 248.45 22.8696 248.399 22.7294C248.347 22.5893 248.266 22.4609 248.16 22.3522C248.055 22.2435 247.928 22.1568 247.786 22.0976C247.645 22.0383 247.492 22.0078 247.338 22.0078C247.184 22.0078 247.031 22.0383 246.89 22.0976C246.748 22.1568 246.621 22.2435 246.516 22.3522C246.41 22.4609 246.329 22.5893 246.278 22.7294C246.226 22.8696 246.205 23.0185 246.215 23.167C246.215 23.3348 246.251 23.5008 246.319 23.6553L246.306 23.6748Z" fill="#D12B2F"/>
</g>
<rect x="315" width="75" height="70" rx="15" fill="#4C956C" fill-opacity="0.15"/>
<path d="M366.385 45.0353L358.514 30.4741V21.7996C358.514 20.9833 357.831 20.3325 357.015 20.3325H348.982C348.165 20.3325 347.493 20.9833 347.493 21.7996V30.4741L339.616 45.0353C339.015 46.1455 339.046 47.4936 339.692 48.5788C340.338 49.6627 341.51 50.3325 342.772 50.3325H363.224C364.486 50.3325 365.661 49.6627 366.307 48.5788C366.953 47.4936 366.986 46.1455 366.385 45.0353ZM354.299 38.9434C355.005 38.9434 355.576 39.5146 355.576 40.2199C355.576 40.9245 355.003 41.4964 354.299 41.4964C353.595 41.4964 353.023 40.9245 353.023 40.2199C353.023 39.5166 353.594 38.9434 354.299 38.9434ZM350.71 31.2681C351.415 31.2681 351.986 31.8399 351.986 32.5452C351.986 33.2499 351.415 33.8217 350.71 33.8217C350.004 33.8217 349.433 33.2499 349.433 32.5452C349.434 31.8399 350.004 31.2681 350.71 31.2681ZM350.71 35.7246C351.852 35.7246 352.779 36.6514 352.779 37.7931C352.779 38.9355 351.852 39.8617 350.71 39.8617C349.567 39.8617 348.641 38.9355 348.641 37.7931C348.641 36.6507 349.567 35.7246 350.71 35.7246ZM362.593 46.3368C362.327 46.789 361.841 47.0559 361.319 47.0559H344.678C344.154 47.0559 343.669 46.789 343.404 46.3368C343.138 45.8845 343.131 45.3324 343.385 44.8736L345.385 41.2782C345.671 40.7641 346.233 40.4697 346.818 40.5255C349.475 40.7786 352.46 43.0509 355.128 42.9497C356.557 42.8951 357.884 42.3745 359.147 41.6785C359.86 41.2841 360.758 41.5424 361.153 42.2549L362.612 44.8723C362.865 45.3318 362.858 45.8852 362.593 46.3368Z" fill="#4C956C"/>
<defs>
<clipPath id="clip0_32_2213">
<rect width="30" height="30" fill="white" transform="translate(128 20.3325)"/>
</clipPath>
<clipPath id="clip1_32_2213">
<rect width="25" height="30" fill="white" transform="translate(235 20.3325)"/>
</clipPath>
</defs>
</svg>
