<svg width="24" height="24" viewBox="0 0 24 24" fill="none" xmlns="http://www.w3.org/2000/svg">
<path fill-rule="evenodd" clip-rule="evenodd" d="M17.0845 7.57761C18.5275 8.50948 19.8149 9.81297 20.8071 11.3475C20.9324 11.5416 20.9993 11.7676 21 11.9987C21.0007 12.2297 20.935 12.4561 20.8109 12.651C19.8224 14.1982 18.5376 15.5066 17.0954 16.4354C15.5058 17.4588 13.7395 17.9999 11.9879 17.9999C10.1969 17.9999 8.47571 17.4749 6.87635 16.4388C5.45586 15.5197 4.18124 14.2143 3.19087 12.6645C3.06229 12.465 2.99592 12.2317 3.00019 11.9944C3.00447 11.7571 3.07919 11.5265 3.21487 11.3317C4.41674 9.6086 5.80048 8.27023 7.32784 7.35412C8.82558 6.45562 10.3934 6 11.9879 6C13.7257 6 15.4882 6.54562 17.0845 7.57761ZM10.0006 14.9932C10.5927 15.3888 11.2887 15.5999 12.0007 15.5999C12.9551 15.5988 13.8702 15.2192 14.545 14.5443C15.2199 13.8694 15.5996 12.9544 15.6007 12C15.6007 11.288 15.3895 10.5919 14.994 9.99992C14.5984 9.40791 14.0361 8.94649 13.3783 8.67402C12.7205 8.40154 11.9967 8.33025 11.2984 8.46916C10.6 8.60806 9.95858 8.95093 9.45512 9.45439C8.95165 9.95786 8.60879 10.5993 8.46988 11.2976C8.33098 11.996 8.40227 12.7198 8.67474 13.3776C8.94722 14.0354 9.40863 14.5977 10.0006 14.9932ZM14.4007 12C14.4007 13.3255 13.3262 14.4 12.0007 14.4C10.6752 14.4 9.6007 13.3255 9.6007 12C9.6007 10.6746 10.6752 9.60005 12.0007 9.60005C13.3262 9.60005 14.4007 10.6746 14.4007 12Z" fill="#8785AD"/>
</svg>
