<svg width="390" height="70" viewBox="0 0 390 70" fill="none" xmlns="http://www.w3.org/2000/svg">
<rect width="75" height="70" rx="15" fill="#3772FF" fill-opacity="0.15"/>
<path d="M23.1374 38.2876H23.2444V41.2995H25.9083L33.8238 44.4174L33.8234 43.5624L28.0783 41.2991H33.8234L33.8226 40.4433H24.0998V38.2859H34.0184V36.4034C33.8311 36.471 33.3279 36.5165 33.1211 36.5365C33.0331 36.5455 32.9521 36.5499 32.8719 36.5499C30.7385 36.5499 30.5354 35.5899 30.4088 34.3184C30.399 34.2228 30.3925 34.1307 30.3843 34.0371H23.1374C22.429 34.0371 21.8545 34.6112 21.8545 35.32V37.0039C21.8545 37.7135 22.429 38.2876 23.1374 38.2876Z" fill="#3772FF"/>
<path d="M52.861 34.0381H46.1792C46.1743 34.0906 46.1735 34.1382 46.1686 34.1916C46.0395 35.4887 45.5281 36.6059 43.5641 36.4104C43.3862 36.3925 42.861 36.3567 42.6949 36.3034L42.6904 38.2877H51.8994V40.4451H42.8569L42.8565 41.3009H47.9205L42.8565 43.2955L42.8561 44.15L50.0909 41.3009H52.7548V38.2881H52.8622C53.5707 38.2881 54.1447 37.7141 54.1447 37.0053V35.3214C54.1443 34.6121 53.5707 34.0381 52.861 34.0381Z" fill="#3772FF"/>
<path d="M52.968 52.3822V51.9156H53.6373V51.0606H52.8589L42.5499 46.9999C42.4224 47.2458 42.2604 47.4693 42.0678 47.6655L50.6885 51.0614H25.3106L34.4345 47.4677C34.2659 47.2584 34.1275 47.0255 34.0249 46.7739L23.1398 51.061H22.3618V51.9164H22.6032V52.383C22.1602 52.6151 21.8545 53.0747 21.8545 53.6097C21.8545 54.3771 22.4766 54.9996 23.2444 54.9996C24.0123 54.9996 24.6344 54.3771 24.6344 53.6097C24.6344 53.0751 24.3286 52.6163 23.8857 52.383V51.9164H51.6851V52.383C51.2422 52.6151 50.9368 53.0747 50.9368 53.6097C50.9368 54.3771 51.5585 54.9996 52.3268 54.9996C53.0942 54.9996 53.7167 54.3771 53.7167 53.6097C53.7167 53.0743 53.411 52.6155 52.968 52.3822Z" fill="#3772FF"/>
<path d="M40.1585 34.2397C39.1952 34.2397 38.4135 35.0206 38.4135 35.9847L38.4131 45.9676C38.4131 46.9313 39.1948 47.7122 40.1585 47.7122C41.1217 47.7122 41.9034 46.9313 41.9034 45.9676L41.9043 35.9847C41.9043 35.0206 41.1234 34.2397 40.1585 34.2397Z" fill="#3772FF"/>
<path d="M36.4188 34.2397C35.4551 34.2397 34.6738 35.0206 34.6738 35.9851L34.6746 45.9676C34.6746 46.9313 35.4563 47.713 36.4204 47.7122C37.3837 47.7122 38.165 46.9313 38.165 45.9668L38.1646 35.9847C38.1646 35.0206 37.3825 34.2393 36.4188 34.2397Z" fill="#3772FF"/>
<path d="M38.2706 22.6077C40.3714 22.6077 42.0745 20.9046 42.0745 18.8038C42.0745 16.703 40.3714 15 38.2706 15C36.1698 15 34.4668 16.703 34.4668 18.8038C34.4668 20.9046 36.1698 22.6077 38.2706 22.6077Z" fill="#3772FF"/>
<path d="M32.5564 35.9373C32.6049 35.9373 32.6549 35.9345 32.7054 35.9296C33.5168 35.8482 34.108 35.1239 34.0266 34.3125C33.8043 32.0847 33.9671 30.5294 34.3775 29.3719V34.628C34.3775 34.7188 34.3861 34.8063 34.3934 34.8939C34.759 34.1203 35.5403 33.5805 36.451 33.5805C37.0613 33.5805 37.6338 33.8178 38.0645 34.2482C38.1614 34.3455 38.2441 34.4509 38.3214 34.5604C38.7347 33.9697 39.4174 33.5809 40.191 33.5809C41.0337 33.5809 41.7629 34.0454 42.1582 34.7265C42.1591 34.6936 42.1643 34.6618 42.1643 34.628V29.2807C42.5988 30.4341 42.7763 31.978 42.5564 34.1785C42.475 34.99 43.0674 35.7138 43.8788 35.7953C43.9285 35.8001 43.9781 35.803 44.027 35.803C44.7765 35.803 45.4186 35.2346 45.4947 34.4725C46.1595 27.8293 42.9542 23.8154 39.2175 22.9262L38.2705 23.8805L37.3516 22.916C37.3484 22.9168 37.3447 22.9168 37.3423 22.9176C36.0704 23.3256 30.1344 25.402 31.0887 34.6077C31.1644 35.3686 31.8065 35.9373 32.5564 35.9373Z" fill="#3772FF"/>
<rect x="105" width="75" height="70" rx="15" fill="#D12B2F" fill-opacity="0.15"/>
<g clip-path="url(#clip0_32_16222)">
<path d="M155.546 21.765H152.877V17.9948C152.877 17.0013 152.068 16.1927 151.075 16.1927H145.319V15.8009C145.319 15.3585 144.96 15 144.518 15H137.01C136.568 15 136.209 15.3585 136.209 15.8009V16.1927H130.453C129.46 16.1927 128.651 17.0009 128.651 17.9948V47.6256C128.651 48.619 129.46 49.4273 130.453 49.4273H133.123V53.1979C133.123 54.1918 133.931 55 134.925 55H155.546C156.54 55 157.348 54.1918 157.348 53.1979V23.5671C157.348 22.5736 156.54 21.765 155.546 21.765ZM133.123 23.5671V47.4256H130.654V18.1952H136.209V18.4346C136.209 18.877 136.568 19.2355 137.01 19.2355H144.517C144.96 19.2355 145.318 18.877 145.318 18.4346V18.1952H150.874V21.7654H149.789V21.3732C149.789 20.9308 149.43 20.5723 148.989 20.5723H141.481C141.039 20.5723 140.68 20.9308 140.68 21.3732V21.765H134.925C133.931 21.765 133.123 22.5736 133.123 23.5671ZM155.346 52.9979H135.125V23.7671H140.681V24.0065C140.681 24.4488 141.039 24.8074 141.481 24.8074H148.989C149.431 24.8074 149.79 24.4484 149.79 24.0065V23.7671H155.345V52.9975H155.346V52.9979Z" fill="#D12B2F"/>
<path d="M152.176 39.5215H138.295V42.3245H152.176V39.5215Z" fill="#D12B2F"/>
<path d="M152.176 45.2607H138.295V48.0641H152.176V45.2607Z" fill="#D12B2F"/>
<path d="M144.001 36.5187H146.469V33.3814H149.607V30.9124H146.469V27.7759H144.001V30.9124H140.864V33.3814H144.001V36.5187Z" fill="#D12B2F"/>
</g>
<rect x="210" width="75" height="70" rx="15" fill="#FDC500" fill-opacity="0.15"/>
<path d="M252.429 30.7912H266.753L255.165 39.2108L259.592 52.8337L248.003 44.4142L236.414 52.8337L240.84 39.2108L229.252 30.7912H243.576L248.003 17.1675C249.478 21.7087 250.954 26.25 252.429 30.7912ZM248.003 27.3467V40.526L253.609 44.599L251.467 38.0089L257.073 33.9368H250.144L248.003 27.3467Z" fill="#FDC500"/>
<rect x="315" width="75" height="70" rx="15" fill="#4C956C" fill-opacity="0.15"/>
<path d="M369.339 15.1949C368.953 14.9572 368.473 14.9355 368.069 15.1376L363.435 17.4546L358.801 15.1376C358.434 14.9542 358.001 14.9542 357.634 15.1376L353 17.4545L348.366 15.1376C348 14.9542 347.567 14.9542 347.2 15.1376L342.566 17.4545L337.932 15.1376C337.528 14.9359 337.048 14.9571 336.662 15.1948C336.278 15.4326 336.044 15.852 336.044 16.3043V51.0868C336.044 51.5811 336.323 52.0324 336.765 52.2536L341.982 54.8623C342.349 55.0457 342.782 55.0457 343.149 54.8623L347.783 52.5453L352.417 54.8623C352.784 55.0457 353.217 55.0457 353.584 54.8623L358.218 52.5453L362.852 54.8623C363.035 54.954 363.236 54.9999 363.435 54.9999C363.635 54.9999 363.835 54.954 364.019 54.8623L369.236 52.2536C369.677 52.0324 369.957 51.5811 369.957 51.0868V16.3044C369.957 15.8521 369.723 15.4326 369.339 15.1949ZM342.566 22.8261H349.522C350.242 22.8261 350.827 23.4099 350.827 24.1305C350.827 24.851 350.242 25.4348 349.522 25.4348H342.566C341.846 25.4348 341.261 24.851 341.261 24.1305C341.261 23.4099 341.846 22.8261 342.566 22.8261ZM342.566 28.0435H349.522C350.242 28.0435 350.827 28.6273 350.827 29.3479C350.827 30.0684 350.242 30.6523 349.522 30.6523H342.566C341.846 30.6523 341.261 30.0684 341.261 29.3479C341.261 28.6273 341.846 28.0435 342.566 28.0435ZM342.566 33.2609H349.522C350.242 33.2609 350.827 33.8447 350.827 34.5653C350.827 35.2858 350.242 35.8696 349.522 35.8696H342.566C341.846 35.8696 341.261 35.2858 341.261 34.5653C341.261 33.8447 341.846 33.2609 342.566 33.2609ZM342.566 38.4783H349.522C350.242 38.4783 350.827 39.0621 350.827 39.7827C350.827 40.5032 350.242 41.0871 349.522 41.0871H342.566C341.846 41.0871 341.261 40.5032 341.261 39.7827C341.261 39.0621 341.846 38.4783 342.566 38.4783ZM342.566 47.174H339.957C339.237 47.174 338.653 46.5901 338.653 45.8696C338.653 45.149 339.237 44.5652 339.957 44.5652H342.566C343.286 44.5652 343.87 45.149 343.87 45.8696C343.87 46.5901 343.286 47.174 342.566 47.174ZM350.392 47.174H347.783C347.063 47.174 346.479 46.5901 346.479 45.8696C346.479 45.149 347.063 44.5652 347.783 44.5652H350.392C351.112 44.5652 351.696 45.149 351.696 45.8696C351.696 46.5901 351.112 47.174 350.392 47.174ZM358.218 47.174H355.609C354.889 47.174 354.305 46.5901 354.305 45.8696C354.305 45.149 354.889 44.5652 355.609 44.5652H358.218C358.938 44.5652 359.522 45.149 359.522 45.8696C359.522 46.5901 358.938 47.174 358.218 47.174ZM361.261 39.7826C361.261 40.5032 360.677 41.087 359.957 41.087C359.237 41.087 358.653 40.5032 358.653 39.7826V39.1624C356.649 38.5926 355.174 36.7497 355.174 34.5653C355.174 33.8447 355.759 33.2609 356.479 33.2609C357.199 33.2609 357.783 33.8447 357.783 34.5653C357.783 35.7638 358.758 36.7392 359.957 36.7392C361.156 36.7392 362.131 35.7638 362.131 34.5653C362.131 33.7119 360.716 32.9637 359.347 32.2406C357.488 31.2577 355.174 30.0344 355.174 27.6088C355.174 25.4243 356.648 23.5813 358.653 23.0116V22.3914C358.653 21.6709 359.237 21.087 359.957 21.087C360.677 21.087 361.261 21.6709 361.261 22.3914V23.0116C363.265 23.5814 364.74 25.4243 364.74 27.6088C364.74 28.3293 364.155 28.9131 363.435 28.9131C362.715 28.9131 362.131 28.3293 362.131 27.6088C362.131 26.4102 361.156 25.4348 359.957 25.4348C358.758 25.4348 357.783 26.4102 357.783 27.6088C357.783 28.4626 359.198 29.2108 360.567 29.9342C362.426 30.9167 364.74 32.1399 364.74 34.5653C364.74 36.7497 363.265 38.5926 361.261 39.1624V39.7826ZM366.044 47.174H363.435C362.715 47.174 362.131 46.5901 362.131 45.8696C362.131 45.149 362.715 44.5652 363.435 44.5652H366.044C366.764 44.5652 367.348 45.149 367.348 45.8696C367.348 46.5901 366.764 47.174 366.044 47.174Z" fill="#4C956C"/>
<defs>
<clipPath id="clip0_32_16222">
<rect width="40" height="40" fill="white" transform="translate(123 15)"/>
</clipPath>
</defs>
</svg>
