<svg width="24" height="24" viewBox="0 0 24 24" fill="none" xmlns="http://www.w3.org/2000/svg">
<circle cx="12" cy="12" r="11.75" fill="white" stroke="#C2C7D6" stroke-width="0.5"/>
<path d="M12.0003 18.6665C12.7337 18.6665 13.3337 18.0665 13.3337 17.3332H10.667C10.667 18.0665 11.267 18.6665 12.0003 18.6665ZM16.0003 14.6665V11.3332C16.0003 9.2865 14.9137 7.57317 13.0003 7.11984V6.6665C13.0003 6.11317 12.5537 5.6665 12.0003 5.6665C11.447 5.6665 11.0003 6.11317 11.0003 6.6665V7.11984C9.09366 7.57317 8.00033 9.27984 8.00033 11.3332V14.6665L6.66699 15.9998V16.6665H17.3337V15.9998L16.0003 14.6665ZM14.667 15.3332H9.33366V11.3332C9.33366 9.67984 10.3403 8.33317 12.0003 8.33317C13.6603 8.33317 14.667 9.67984 14.667 11.3332V15.3332Z" fill="#2B2A29"/>
<circle cx="20" cy="4" r="2" fill="#D12B2F"/>
</svg>
