<svg width="16" height="16" viewBox="0 0 16 16" fill="none" xmlns="http://www.w3.org/2000/svg">
<path d="M4.87414 1.92911C4.95155 1.85151 5.04351 1.78994 5.14475 1.74793C5.24599 1.70592 5.35452 1.68429 5.46413 1.68429C5.57374 1.68429 5.68228 1.70592 5.78352 1.74793C5.88476 1.78994 5.97672 1.85151 6.05412 1.92911L11.5941 7.46904C11.6559 7.53072 11.7049 7.60397 11.7383 7.68462C11.7718 7.76527 11.789 7.85172 11.789 7.93903C11.789 8.02635 11.7718 8.1128 11.7383 8.19345C11.7049 8.2741 11.6559 8.34735 11.5941 8.40903L6.05412 13.949C5.72746 14.2756 5.2008 14.2756 4.87414 13.949C4.54748 13.6223 4.54748 13.0956 4.87414 12.769L9.70074 7.9357L4.86747 3.10243C4.54748 2.78243 4.54748 2.24911 4.87414 1.92911Z" fill="#3772FF"/>
</svg>
