<svg width="20" height="20" viewBox="0 0 20 20" fill="none" xmlns="http://www.w3.org/2000/svg">
<path d="M9.9425 1.71523C10.0457 1.5861 10.1735 1.47871 10.3185 1.3993C10.4634 1.31989 10.6227 1.27002 10.7871 1.25258C10.9515 1.23514 11.1177 1.25048 11.2761 1.29771C11.4345 1.34494 11.582 1.42312 11.71 1.52773L15.7875 4.85773C16.0117 5.04082 16.1655 5.29606 16.2225 5.57989C16.2795 5.86371 16.2362 6.15852 16.1 6.41398C15.7435 6.30503 15.3728 6.24984 15 6.25023H14.625L14.9975 5.82523L12.85 4.07148L11.0787 6.25148H9.4675L11.8813 3.28148L10.9187 2.49523L7.92125 6.25023H6.32125L9.9425 1.71523ZM13.125 12.5002C12.9592 12.5002 12.8003 12.5661 12.6831 12.6833C12.5658 12.8005 12.5 12.9595 12.5 13.1252C12.5 13.291 12.5658 13.45 12.6831 13.5672C12.8003 13.6844 12.9592 13.7502 13.125 13.7502H14.375C14.5408 13.7502 14.6997 13.6844 14.8169 13.5672C14.9342 13.45 15 13.291 15 13.1252C15 12.9595 14.9342 12.8005 14.8169 12.6833C14.6997 12.5661 14.5408 12.5002 14.375 12.5002H13.125ZM3.75 6.87523C3.75 6.70947 3.81585 6.5505 3.93306 6.43329C4.05027 6.31608 4.20924 6.25023 4.375 6.25023H5.0725L6.06625 5.00023H4.375C3.87772 5.00023 3.40081 5.19777 3.04917 5.5494C2.69754 5.90103 2.5 6.37795 2.5 6.87523V14.3752C2.5 15.204 2.82924 15.9989 3.41529 16.5849C4.00134 17.171 4.7962 17.5002 5.625 17.5002H15C15.663 17.5002 16.2989 17.2368 16.7678 16.768C17.2366 16.2992 17.5 15.6633 17.5 15.0002V10.0002C17.5 9.33719 17.2366 8.7013 16.7678 8.23246C16.2989 7.76362 15.663 7.50023 15 7.50023H4.375C4.20924 7.50023 4.05027 7.43438 3.93306 7.31717C3.81585 7.19996 3.75 7.04099 3.75 6.87523ZM3.75 14.3752V8.64398C3.945 8.71273 4.15625 8.75023 4.375 8.75023H15C15.3315 8.75023 15.6495 8.88192 15.8839 9.11634C16.1183 9.35077 16.25 9.66871 16.25 10.0002V15.0002C16.25 15.3317 16.1183 15.6497 15.8839 15.8841C15.6495 16.1185 15.3315 16.2502 15 16.2502H5.625C5.12772 16.2502 4.65081 16.0527 4.29917 15.7011C3.94754 15.3494 3.75 14.8725 3.75 14.3752Z" fill="#D12B2F"/>
</svg>
