<svg width="20" height="20" viewBox="0 0 20 20" fill="none" xmlns="http://www.w3.org/2000/svg">
<path fill-rule="evenodd" clip-rule="evenodd" d="M8.49512 14.9902C4.90796 14.9902 2 12.0823 2 8.49512C2 4.90796 4.90796 2 8.49512 2C12.0823 2 14.9902 4.90796 14.9902 8.49512C14.9902 9.99608 14.4811 11.3781 13.6261 12.478L18 16.8518L16.8518 18L12.4779 13.6262C11.3781 14.4811 9.99606 14.9902 8.49512 14.9902ZM13.3665 8.49512C13.3665 11.1855 11.1855 13.3665 8.49512 13.3665C5.80475 13.3665 3.62378 11.1855 3.62378 8.49512C3.62378 5.80475 5.80475 3.62378 8.49512 3.62378C11.1855 3.62378 13.3665 5.80475 13.3665 8.49512Z" fill="#C2C7D6"/>
</svg>
