<svg width="20" height="20" viewBox="0 0 20 20" fill="none" xmlns="http://www.w3.org/2000/svg">
<path d="M12.7927 10.0572L10.2291 12.6209C10.19 12.6597 10.159 12.7058 10.1378 12.7566C10.1165 12.8074 10.1056 12.862 10.1055 12.917C10.1054 12.9721 10.1162 13.0267 10.1373 13.0775C10.1583 13.1284 10.1892 13.1747 10.2282 13.2136L10.6782 13.6636C10.7169 13.703 10.7632 13.7343 10.8142 13.7557C10.8652 13.777 10.9199 13.788 10.9752 13.7879C11.0305 13.7878 11.0852 13.7767 11.1361 13.7552C11.1871 13.7337 11.2332 13.7022 11.2718 13.6627L14.6355 10.299C14.6747 10.2602 14.7058 10.214 14.7271 10.1631C14.7484 10.1122 14.7594 10.0576 14.7595 10.0024C14.7596 9.94723 14.7488 9.89257 14.7276 9.8416C14.7065 9.79062 14.6755 9.74433 14.6364 9.7054L14.4582 9.52722C14.4496 9.51678 14.4405 9.50677 14.4309 9.49722L11.2682 6.33449C11.1883 6.25684 11.081 6.21392 10.9696 6.21511C10.8582 6.2163 10.7518 6.26151 10.6736 6.34086L10.1755 6.83904C10.0959 6.9171 10.0505 7.02354 10.0493 7.135C10.0481 7.24646 10.0912 7.35384 10.1691 7.43358L12.7927 10.0572Z" fill="#D12B2F"/>
<path d="M9.1634 10.0573L6.60068 12.6209C6.56153 12.6596 6.53041 12.7057 6.50912 12.7565C6.48783 12.8073 6.47679 12.8618 6.47662 12.9169C6.47645 12.972 6.48716 13.0265 6.50814 13.0774C6.52912 13.1284 6.55995 13.1746 6.59886 13.2136L7.04977 13.6636C7.0885 13.7029 7.13467 13.7341 7.18559 13.7554C7.2365 13.7766 7.29114 13.7876 7.34632 13.7875C7.4015 13.7874 7.45611 13.7763 7.50696 13.7549C7.55781 13.7335 7.60389 13.7021 7.6425 13.6627L11.0061 10.2991C11.0454 10.2603 11.0766 10.2142 11.098 10.1633C11.1194 10.1124 11.1305 10.0578 11.1306 10.0026C11.1308 9.94745 11.1201 9.89278 11.099 9.84178C11.0779 9.79077 11.047 9.74443 11.008 9.70544L10.8298 9.52726C10.8212 9.51682 10.8121 9.5068 10.8025 9.49726L7.63886 6.33453C7.55904 6.25715 7.4519 6.21441 7.34073 6.2156C7.22957 6.21679 7.12337 6.26182 7.04522 6.34089L6.54704 6.83908C6.46747 6.91714 6.42212 7.02357 6.42092 7.13503C6.41973 7.24649 6.4628 7.35388 6.54068 7.43362L9.16431 10.0573H9.1634Z" fill="#D12B2F"/>
</svg>
