<svg width="16" height="16" viewBox="0 0 16 16" fill="none" xmlns="http://www.w3.org/2000/svg">
<path d="M15 12V11H13.9495C13.885 10.687 13.7607 10.3894 13.5835 10.1235L14.3285 9.3785L13.6215 8.6715L12.8765 9.4165C12.6106 9.23926 12.313 9.11498 12 9.0505V8H11V9.0505C10.687 9.11498 10.3894 9.23926 10.1235 9.4165L9.3785 8.6715L8.6715 9.3785L9.4165 10.1235C9.23926 10.3894 9.11498 10.687 9.0505 11H8V12H9.0505C9.11498 12.313 9.23926 12.6106 9.4165 12.8765L8.6715 13.6215L9.3785 14.3285L10.1235 13.5835C10.3894 13.7607 10.687 13.885 11 13.9495V15H12V13.9495C12.313 13.885 12.6106 13.7607 12.8765 13.5835L13.6215 14.3285L14.3285 13.6215L13.5835 12.8765C13.7607 12.6106 13.885 12.313 13.9495 12H15ZM11.5 13C11.2033 13 10.9133 12.912 10.6666 12.7472C10.42 12.5824 10.2277 12.3481 10.1142 12.074C10.0006 11.7999 9.97094 11.4983 10.0288 11.2074C10.0867 10.9164 10.2296 10.6491 10.4393 10.4393C10.6491 10.2296 10.9164 10.0867 11.2074 10.0288C11.4983 9.97094 11.7999 10.0006 12.074 10.1142C12.3481 10.2277 12.5824 10.42 12.7472 10.6666C12.912 10.9133 13 11.2033 13 11.5C12.9996 11.8977 12.8414 12.279 12.5602 12.5602C12.279 12.8414 11.8977 12.9996 11.5 13Z" fill="#4C956C"/>
<path d="M7 13.3335L5.383 12.471C4.66268 12.0878 4.06028 11.5158 3.64046 10.8162C3.22063 10.1166 2.99923 9.31589 3 8.5V2H13V7H14V2C13.9997 1.73486 13.8943 1.48066 13.7068 1.29319C13.5193 1.10571 13.2651 1.00026 13 1H3C2.73487 1.00026 2.48067 1.10571 2.29319 1.29319C2.10571 1.48066 2.00027 1.73486 2 2V8.5C1.99889 9.49717 2.26936 10.4758 2.78239 11.3309C3.29542 12.186 4.03163 12.8852 4.912 13.3535L7 14.467V13.3335Z" fill="#4C956C"/>
</svg>
