<svg width="181" height="130" viewBox="0 0 181 130" fill="none" xmlns="http://www.w3.org/2000/svg">
<rect width="181" height="130" fill="white"/>
<path d="M135.31 31.3236C136.541 25.6994 133.306 20.0657 128.086 18.7404C122.865 17.415 117.636 20.8999 116.406 26.5241C115.175 32.1482 118.41 37.7819 123.631 39.1073C128.851 40.4326 134.08 36.9478 135.31 31.3236Z" fill="#E0E0E0"/>
<path d="M130.276 29.2502C130.163 29.2696 130.048 29.2783 129.934 29.2762L128.988 29.2944C128.189 29.2944 127.072 29.3152 125.812 29.3178H125.749V28.5716C125.749 27.0558 125.749 25.683 125.768 24.6924C125.768 24.2114 125.783 23.8162 125.788 23.5146C125.786 23.3703 125.794 23.226 125.812 23.083C125.831 23.2258 125.84 23.3703 125.836 23.5146C125.836 23.8162 125.848 24.2114 125.858 24.6924C125.858 25.683 125.875 27.0558 125.875 28.5716V29.2502L125.812 29.1826C127.072 29.1826 128.189 29.1826 128.988 29.206L129.934 29.2268C130.048 29.2249 130.163 29.2327 130.276 29.2502Z" fill="#FAFAFA"/>
<path d="M125.841 20.1841C125.907 20.4715 125.929 20.7681 125.907 21.0629C125.929 21.3577 125.907 21.6543 125.841 21.9417C125.779 21.6538 125.758 21.3575 125.778 21.0629C125.758 20.7682 125.779 20.472 125.841 20.1841Z" fill="#FAFAFA"/>
<path d="M130.267 21.5957C130.125 21.8433 129.948 22.066 129.743 22.2561C129.567 22.4767 129.36 22.667 129.13 22.8203C129.273 22.5727 129.449 22.35 129.654 22.1599C129.831 21.9393 130.037 21.7491 130.267 21.5957Z" fill="#FAFAFA"/>
<path d="M132.854 24.6401C132.65 24.8288 132.426 24.9903 132.186 25.1211C131.967 25.2904 131.73 25.4309 131.481 25.5397C131.87 25.1328 132.34 24.8254 132.854 24.6401Z" fill="#FAFAFA"/>
<path d="M134.372 29.1594C133.633 29.2495 132.886 29.2495 132.147 29.1594C132.886 29.0693 133.633 29.0693 134.372 29.1594Z" fill="#FAFAFA"/>
<path d="M118.944 29.0007C118.246 29.0908 117.542 29.0908 116.844 29.0007C117.542 28.9106 118.246 28.9106 118.944 29.0007Z" fill="#FAFAFA"/>
<path d="M120.037 32.3647C119.801 32.6568 119.534 32.9185 119.243 33.1447C118.977 33.4046 118.684 33.6297 118.369 33.8155C118.604 33.5227 118.871 33.2609 119.163 33.0355C119.428 32.7748 119.721 32.5496 120.037 32.3647Z" fill="#FAFAFA"/>
<path d="M122.728 34.9648C122.572 35.3157 122.391 35.653 122.187 35.9736C122.021 36.3194 121.829 36.6499 121.613 36.9616C121.718 36.5866 121.875 36.2307 122.079 35.906C122.249 35.5582 122.468 35.2408 122.728 34.9648Z" fill="#FAFAFA"/>
<path d="M125.842 38.3215C125.779 37.9257 125.758 37.5237 125.778 37.1229C125.758 36.7221 125.779 36.3201 125.842 35.9243C125.907 36.3198 125.929 36.722 125.907 37.1229C125.929 37.5238 125.907 37.9261 125.842 38.3215Z" fill="#FAFAFA"/>
<path d="M130.636 36.7252C130.297 36.5563 129.987 36.3269 129.719 36.0466C129.425 35.8006 129.173 35.5015 128.974 35.1626C129.263 35.4062 129.54 35.6666 129.804 35.9426C130.095 36.1862 130.373 36.4475 130.636 36.7252Z" fill="#FAFAFA"/>
<path d="M132.888 34.115C132.62 33.9156 132.377 33.6806 132.164 33.4156C131.917 33.1821 131.699 32.9156 131.515 32.6226C131.787 32.8208 132.035 33.0548 132.253 33.3194C132.495 33.5546 132.708 33.822 132.888 34.115Z" fill="#FAFAFA"/>
<path d="M119.943 25.7764C119.701 25.61 119.482 25.4068 119.294 25.1732C119.076 24.9695 118.887 24.7331 118.731 24.4712C118.975 24.6384 119.194 24.8424 119.383 25.077C119.6 25.2799 119.788 25.5155 119.943 25.7764Z" fill="#FAFAFA"/>
<path d="M122.711 22.6204C122.472 22.459 122.256 22.2601 122.071 22.0302C121.857 21.8326 121.671 21.6012 121.521 21.3438C121.76 21.5061 121.975 21.7049 122.161 21.934C122.374 22.1328 122.559 22.364 122.711 22.6204Z" fill="#FAFAFA"/>
<path d="M14.0964 53.4689H14.2508H14.6925L16.3625 53.4482L22.309 53.391L22.2583 53.4482C22.2438 50.2554 22.2245 46.4126 22.2052 42.2682L22.2679 42.3358H21.165H20.079H17.9674H14.0554L14.1109 42.2734C14.1109 45.5806 14.1109 48.3652 14.1109 50.3334C14.1109 51.3135 14.1109 52.0884 14.1109 52.6266C14.1109 52.8866 14.1109 53.0894 14.1109 53.235C14.1109 53.3026 14.1109 53.352 14.1109 53.3936C14.1132 53.4125 14.1132 53.4318 14.1109 53.4508C14.1098 53.4343 14.1098 53.4178 14.1109 53.4014C14.1109 53.3624 14.1109 53.313 14.1109 53.2506C14.1109 53.1076 14.1109 52.9073 14.1109 52.6525C14.1109 52.117 14.0988 51.3526 14.0891 50.375C14.0747 48.399 14.0529 45.6014 14.0288 42.2812V42.2188H14.0843L17.9987 42.1953H20.1104H21.1964H22.2969C22.2414 42.1355 22.3765 42.2786 22.362 42.2656C22.362 46.3996 22.3838 50.2424 22.3934 53.4456V53.5028H16.3601H14.7045H14.2726L14.0964 53.4689Z" fill="#E0E0E0"/>
<path d="M18.6215 53.2817H17.4824V53.5807H18.6215V53.2817Z" fill="#EBEBEB"/>
<path d="M19.2972 46.2695H16.8066V50.1461H19.2972V46.2695Z" fill="#E0E0E0"/>
<path d="M18.9399 42.1264L17.8008 42.1313L17.8017 42.3861L18.9408 42.3812L18.9399 42.1264Z" fill="#EBEBEB"/>
<path d="M155.283 22.7042L146.862 23.5649L147.401 29.6787L155.822 28.8179L155.283 22.7042Z" fill="white"/>
<path d="M155.819 28.8238C155.812 28.7861 155.807 28.7478 155.805 28.7094C155.805 28.6262 155.783 28.5196 155.769 28.3818C155.742 28.0906 155.701 27.6746 155.648 27.1494C155.549 26.0808 155.407 24.5494 155.231 22.7138L155.286 22.7632L146.868 23.6368L146.924 23.564V23.6082V23.6602V23.7616L146.941 23.9644L146.977 24.37C146.999 24.63 147.023 24.9056 147.047 25.1708C147.094 25.7012 147.139 26.2212 147.182 26.7308C147.271 27.7552 147.358 28.738 147.438 29.6714L147.375 29.6142L153.43 29.0266L155.17 28.8654L155.636 28.8264H155.757C155.786 28.8264 155.8 28.8264 155.8 28.8264C155.751 28.8381 155.701 28.8459 155.651 28.8498L155.197 28.9018L153.474 29.0942L147.387 29.7494H147.329V29.687C147.245 28.7562 147.158 27.7708 147.066 26.749C147.02 26.229 146.973 25.709 146.926 25.189C146.905 24.929 146.88 24.669 146.856 24.3882L146.82 23.9826L146.803 23.7798V23.6784V23.6264V23.5822L146.861 23.5068L155.281 22.6592H155.332V22.7112C155.484 24.5754 155.609 26.1094 155.699 27.1858C155.74 27.7058 155.771 28.1192 155.793 28.4104C155.793 28.543 155.81 28.647 155.817 28.7276C155.82 28.7596 155.82 28.7917 155.819 28.8238Z" fill="#E0E0E0"/>
<path d="M155.281 22.7085C155.206 22.8319 155.12 22.9477 155.025 23.0543L154.287 23.9695C153.659 24.7495 152.783 25.7895 151.801 26.9751L151.767 27.0167L151.721 26.9855L151.497 26.8321C150.208 25.9481 149.045 25.1395 148.205 24.5493L147.213 23.8447L146.948 23.6471C146.887 23.6003 146.856 23.5743 146.859 23.5691C146.894 23.5826 146.928 23.6009 146.96 23.6237L147.24 23.8005L148.251 24.4687C149.101 25.0381 150.273 25.8337 151.562 26.7177L151.787 26.8737H151.707C152.692 25.7089 153.58 24.6585 154.212 23.9201L154.979 23.0335C155.073 22.9175 155.173 22.8088 155.281 22.7085Z" fill="#E0E0E0"/>
<path d="M108.182 21.5931C108.257 21.5811 108.329 21.5518 108.392 21.5073C108.465 21.4472 108.516 21.3631 108.54 21.2681C108.554 21.1335 108.558 20.9979 108.552 20.8625C108.552 20.2281 108.552 19.3311 108.566 18.2261C108.566 17.9479 108.566 17.6567 108.566 17.3525C108.566 17.2017 108.566 17.0457 108.566 16.8871C108.572 16.8119 108.572 16.7362 108.566 16.6609C108.551 16.5917 108.52 16.528 108.475 16.4763C108.428 16.4256 108.368 16.3912 108.303 16.3775C108.229 16.3734 108.155 16.3734 108.081 16.3775H106.604H102.161C102.079 16.3818 102.001 16.4187 101.942 16.481C101.883 16.5434 101.848 16.6269 101.843 16.7155C101.843 16.9235 101.843 17.1315 101.843 17.3369C101.843 17.7503 101.843 18.1559 101.826 18.5563C101.814 19.3571 101.802 20.1163 101.79 20.8651C101.79 20.9587 101.79 21.0497 101.79 21.1407C101.784 21.2192 101.801 21.2977 101.84 21.3643C101.876 21.4305 101.931 21.4817 101.997 21.5099C102.069 21.5317 102.144 21.5397 102.219 21.5333H103.16H104.85L107.297 21.5541H107.963H108.134H108.195H108.134H107.963L107.297 21.5671L104.85 21.5879H103.16H102.219C102.131 21.5947 102.043 21.5841 101.959 21.5567C101.869 21.52 101.794 21.4523 101.744 21.3643C101.694 21.2768 101.67 21.1755 101.674 21.0731C101.674 20.9821 101.674 20.8911 101.674 20.8131C101.674 20.0747 101.693 19.3025 101.703 18.5043C101.703 18.1039 101.703 17.6957 101.717 17.2823C101.717 17.0743 101.717 16.8637 101.717 16.6531C101.726 16.5301 101.777 16.415 101.861 16.3304C101.944 16.2458 102.054 16.1977 102.168 16.1955H106.611H108.088C108.169 16.1894 108.249 16.1894 108.33 16.1955C108.415 16.2141 108.494 16.2604 108.554 16.3281C108.614 16.3947 108.654 16.4788 108.67 16.5699C108.679 16.6563 108.679 16.7435 108.67 16.8299C108.67 16.9885 108.67 17.1419 108.67 17.2953C108.67 17.5969 108.658 17.8881 108.653 18.1689C108.631 19.2713 108.612 20.1683 108.6 20.8027C108.602 20.9419 108.593 21.0811 108.573 21.2187C108.548 21.3245 108.488 21.4169 108.405 21.4787C108.355 21.5143 108.297 21.5365 108.238 21.5437C108.223 21.5641 108.204 21.581 108.182 21.5931Z" fill="#E0E0E0"/>
<path d="M105.434 18.5045L106.257 19.0427L105.415 19.5757L104.575 20.1061L104.592 19.0375L104.608 17.9663L105.434 18.5045Z" fill="#E0E0E0"/>
<path d="M36.8541 15.9434H24.8984V32.7368L36.8541 33.0592V15.9434Z" fill="#EBEBEB"/>
<path d="M35.995 16.5415H25.5356V31.7723L35.995 32.1519V16.5415Z" fill="#FAFAFA"/>
<path d="M34.2356 19.3078L27.2925 19.0244V29.6688H34.2356V19.3078Z" fill="#E0E0E0"/>
<path d="M27.2925 29.6688L34.2356 24.201L27.2925 19.0244V29.6688Z" fill="#F5F5F5"/>
<path d="M125.933 105.609C121.557 102.318 120.566 96.2053 120.739 90.7115C120.768 89.7937 120.674 88.8265 121.08 88.0231C121.485 87.2197 122.429 86.6685 123.191 87.0533C123.824 87.3757 124.099 88.1661 124.453 88.8213C124.925 89.6957 125.617 90.408 126.449 90.8753C126.992 91.1795 127.656 91.3641 128.197 91.0469C128.921 90.6101 129.017 89.5181 129.012 88.6055L128.983 83.5043C128.983 82.5943 128.983 81.6609 129.239 80.7951C129.495 79.9293 130.084 79.1259 130.89 78.8841C131.696 78.6423 132.69 79.1441 132.861 80.0333C132.893 80.4111 132.901 80.7906 132.886 81.1695C132.907 81.5465 133.071 81.9677 133.404 82.0717C133.738 82.1757 134.083 81.9209 134.336 81.6531C135.21 80.7327 135.803 79.5471 136.356 78.3667C136.909 77.1863 137.449 75.9773 138.241 74.9737C139.032 73.9701 140.13 73.1745 141.344 73.0991C142.558 73.0237 143.847 73.8323 144.153 75.1141C144.46 76.3959 143.765 77.7141 143.007 78.7541C141.883 80.2976 140.558 81.6584 139.073 82.7945C138.784 82.9657 138.553 83.2328 138.415 83.5563C138.231 84.1647 138.764 84.7679 139.322 84.9681C139.954 85.1943 140.64 85.1241 141.298 85.2073C141.957 85.2905 142.674 85.6051 142.923 86.2785C143.27 87.2093 142.546 88.1869 141.834 88.8265C140.408 90.1092 138.788 91.1171 137.044 91.8061C136.421 92.0531 135.765 92.2689 135.263 92.7395C134.761 93.2101 135.54 94.8793 135.844 95.5215C136.148 96.1637 135.844 95.5215 136.496 95.3915C137.148 95.2615 137.732 94.8715 138.354 94.6271C139.517 94.1539 141.009 94.2397 141.764 95.3239C142.247 96.0363 142.298 97.0269 142.049 97.8771C141.766 98.7132 141.33 99.4798 140.768 100.131C138.923 102.517 136.524 104.333 133.815 105.394C131.117 106.402 128.616 106.675 125.933 105.617" fill="#EBEBEB"/>
<path d="M125.868 109.684C126.104 107.135 126.567 104.617 127.251 102.164C128.097 99.1719 129.103 96.2343 130.262 93.3661C130.564 92.6017 130.866 91.8477 131.16 91.1041C131.455 90.3605 131.751 89.6247 132.08 88.9253C132.714 87.5831 133.415 86.2794 134.182 85.0201C134.906 83.8137 135.63 82.6957 136.325 81.6557C137.02 80.6157 137.676 79.6589 138.313 78.8165C139.313 77.4806 140.41 76.2322 141.593 75.0829C142.01 74.6773 142.344 74.3731 142.573 74.1703L142.833 73.9415C142.863 73.9141 142.894 73.8898 142.928 73.8687C142.901 73.8996 142.873 73.9283 142.843 73.9545L142.602 74.1963C142.38 74.4069 142.054 74.7163 141.636 75.1323C140.473 76.2968 139.392 77.5535 138.403 78.8919C137.773 79.7395 137.116 80.6963 136.431 81.7363C135.745 82.7763 135.024 83.8995 134.302 85.1163C133.542 86.3747 132.845 87.6766 132.215 89.0163C131.889 89.7131 131.597 90.4411 131.3 91.1873C131.003 91.9335 130.704 92.6849 130.402 93.4493C129.244 96.3117 128.237 99.2422 127.386 102.227C126.699 104.663 126.228 107.163 125.976 109.694" fill="#E0E0E0"/>
<path d="M132.125 88.9201C132.085 88.7944 132.058 88.6646 132.043 88.5327C131.997 88.2727 131.944 87.9139 131.886 87.4589C131.766 86.5515 131.645 85.2905 131.507 83.8995C131.37 82.5085 131.23 81.2553 131.1 80.3505C131.034 79.8981 130.979 79.5341 130.936 79.2819C130.906 79.1525 130.891 79.0199 130.89 78.8867C130.937 79.0101 130.972 79.1381 130.996 79.2689C131.056 79.5159 131.129 79.8799 131.206 80.3297C131.367 81.2319 131.527 82.4903 131.662 83.8813C131.797 85.2723 131.903 86.4943 131.995 87.4433C132.036 87.8723 132.072 88.2233 132.101 88.5223C132.123 88.6536 132.131 88.787 132.125 88.9201Z" fill="#E0E0E0"/>
<path d="M143.009 86.7257C142.866 86.76 142.721 86.7791 142.575 86.7829C142.297 86.8089 141.892 86.8453 141.395 86.9077C140.398 87.0247 139.025 87.2353 137.533 87.5421C136.042 87.8489 134.664 88.1921 133.699 88.4677C133.216 88.6029 132.822 88.7277 132.552 88.8057C132.415 88.8587 132.272 88.8961 132.127 88.9175C132.258 88.8467 132.393 88.7884 132.533 88.7433C132.798 88.6419 133.187 88.5041 133.67 88.3533C134.635 88.0439 135.986 87.6851 137.495 87.3731C138.782 87.1078 140.08 86.9125 141.385 86.7881C141.887 86.7413 142.295 86.7231 142.575 86.7179C142.72 86.7072 142.865 86.7098 143.009 86.7257Z" fill="#E0E0E0"/>
<path d="M127.383 101.949C127.353 101.904 127.328 101.856 127.308 101.806L127.122 101.382C126.963 101.013 126.743 100.472 126.483 99.8011C125.957 98.4569 125.276 96.5771 124.571 94.4919C123.867 92.4067 123.201 90.5191 122.704 89.1671C122.462 88.5093 122.257 87.9685 122.107 87.5655L121.948 87.1286C121.927 87.0789 121.911 87.0265 121.902 86.9727C121.934 87.0161 121.959 87.0643 121.977 87.1157C122.028 87.2301 122.091 87.3757 122.163 87.5395C122.325 87.9087 122.542 88.4495 122.805 89.1203C123.331 90.4645 124.012 92.3443 124.716 94.4321C125.421 96.5199 126.085 98.4023 126.584 99.7543L127.178 101.356C127.243 101.53 127.294 101.676 127.337 101.793C127.36 101.842 127.375 101.894 127.383 101.949Z" fill="#E0E0E0"/>
<path d="M141.849 96.9282C141.803 96.9548 141.754 96.9757 141.704 96.9906L141.284 97.144L139.732 97.6848C138.424 98.1398 136.626 98.795 134.638 99.5178C132.649 100.241 130.844 100.88 129.526 101.309C128.867 101.522 128.334 101.689 127.962 101.798L127.533 101.918C127.484 101.937 127.433 101.947 127.381 101.949C127.427 101.922 127.475 101.901 127.526 101.886L127.946 101.736L129.493 101.195C130.801 100.737 132.601 100.082 134.589 99.3592C136.578 98.6364 138.383 97.9968 139.701 97.5678C140.36 97.3546 140.893 97.1882 141.265 97.079L141.694 96.9594C141.744 96.94 141.796 96.9295 141.849 96.9282Z" fill="#E0E0E0"/>
<path d="M14.0552 115.786C14.0552 115.747 49.4419 115.718 93.0846 115.718C136.727 115.718 172.121 115.747 172.121 115.786C172.121 115.825 136.742 115.853 93.0846 115.853C49.4274 115.853 14.0552 115.822 14.0552 115.786Z" fill="#667499"/>
<path d="M42.0304 45.6405C42.0304 45.6405 37.5102 98.2151 46.9295 115.118L130.706 116.184C130.706 116.184 116.829 70.6109 118.031 44.2651L42.0304 45.6405Z" fill="#E0E0E0"/>
<path d="M42.0302 45.6401C42.0302 45.6401 36.7209 99.8527 53.2643 111.438H134.005C134.005 111.438 119.674 84.9729 118.545 45.6401H42.0302Z" fill="#EBEBEB"/>
<path d="M120.169 32.9629H41.6201V46.5323H120.169V32.9629Z" fill="#667499"/>
<path d="M48.6406 33.0693C48.6406 33.0693 49.4322 30.0039 52.3185 30.0039C54.7777 30.0039 55.9965 32.1307 55.9965 34.0807C55.9965 36.0307 54.8791 38.0925 52.3185 38.2407" stroke="#E0E0E0" stroke-width="3" stroke-linecap="round" stroke-linejoin="round"/>
<path d="M51.3485 32.916H47.4727V34.7802H51.3485V32.916Z" fill="#667499"/>
<path d="M63.562 33.0693C63.562 33.0693 64.3536 30.0039 67.2399 30.0039C69.6991 30.0039 70.9178 32.1307 70.9178 34.0807C70.9178 36.0307 69.8005 38.0925 67.2399 38.2407" stroke="#E0E0E0" stroke-width="3" stroke-linecap="round" stroke-linejoin="round"/>
<path d="M66.2723 32.916H62.3965V34.7802H66.2723V32.916Z" fill="#667499"/>
<path d="M78.4863 33.0693C78.4863 33.0693 79.2779 30.0039 82.1642 30.0039C84.6234 30.0039 85.8422 32.1307 85.8422 34.0807C85.8422 36.0307 84.7248 38.0925 82.1642 38.2407" stroke="#E0E0E0" stroke-width="3" stroke-linecap="round" stroke-linejoin="round"/>
<path d="M81.1942 32.916H77.3184V34.7802H81.1942V32.916Z" fill="#667499"/>
<path d="M93.4077 33.0693C93.4077 33.0693 94.1993 30.0039 97.0856 30.0039C99.5448 30.0039 100.764 32.1307 100.764 34.0807C100.764 36.0307 99.6462 38.0925 97.0856 38.2407" stroke="#E0E0E0" stroke-width="3" stroke-linecap="round" stroke-linejoin="round"/>
<path d="M96.118 32.916H92.2422V34.7802H96.118V32.916Z" fill="#667499"/>
<path d="M108.332 33.0693C108.332 33.0693 109.124 30.0039 112.01 30.0039C114.469 30.0039 115.688 32.1307 115.688 34.0807C115.688 36.0307 114.57 38.0925 112.01 38.2407" stroke="#E0E0E0" stroke-width="3" stroke-linecap="round" stroke-linejoin="round"/>
<path d="M111.04 32.916H107.164V34.7802H111.04V32.916Z" fill="#667499"/>
<path d="M41.6272 47.0366C41.6272 47.0366 40.7584 107.453 58.9356 107.453L133.602 107.481C133.602 107.481 122.93 95.7502 119.769 47.0366H41.6272Z" fill="#F5F5F5"/>
<path d="M122.949 99.9959C122.933 99.9439 122.853 99.6995 122.677 99.1691C122.501 98.6387 122.228 97.8275 121.902 96.7615C121.234 94.6425 120.3 91.5095 119.23 87.4613C117.08 79.3701 114.488 67.5791 112.473 53.0477L112.524 53.0945H49.2149H48.6115L48.6743 53.0165C49.8134 61.7629 50.9838 70.2883 52.8783 78.2729C53.7858 82.1761 54.933 86.01 56.3125 89.7493C57.6217 93.2927 59.209 96.7093 61.0571 99.9621L61.0088 99.9335L122.947 99.9959L61.0088 100.056H60.9774L60.9605 100.027C59.1061 96.773 57.5124 93.3547 56.1966 89.8091C54.8151 86.0654 53.6655 82.2272 52.7552 78.3197C50.8559 70.3247 49.6855 61.7967 48.5439 53.0477V52.9697H49.2197L112.529 52.9827H112.572V53.0295C114.578 67.5609 117.157 79.3519 119.286 87.4431C120.348 91.4939 121.27 94.6295 121.941 96.7511C122.612 98.8727 122.918 99.8893 122.949 99.9959Z" fill="#667499"/>
<path d="M116.243 76.4817C116.243 76.5207 101.985 76.5493 84.4014 76.5493C66.8179 76.5493 52.5454 76.5207 52.5454 76.4817C52.5454 76.4427 66.801 76.4141 84.4014 76.4141C102.002 76.4141 116.243 76.4401 116.243 76.4817Z" fill="#667499"/>
<path d="M119.674 89.0315C119.674 89.0679 105.412 89.0991 87.8184 89.0991C70.2252 89.0991 55.9624 89.0679 55.9624 89.0315C55.9624 88.9951 70.2204 88.9639 87.8184 88.9639C105.416 88.9639 119.674 88.9925 119.674 89.0315Z" fill="#667499"/>
<path d="M114.088 64.3889C114.088 64.4253 99.8297 64.4565 82.2461 64.4565C64.6626 64.4565 50.3901 64.4253 50.3901 64.3889C50.3901 64.3525 64.6457 64.3213 82.2461 64.3213C99.8466 64.3213 114.088 64.3499 114.088 64.3889Z" fill="#667499"/>
<path d="M71.3864 99.9959C71.3864 99.9959 71.372 99.9569 71.3478 99.8789C71.3237 99.8009 71.2875 99.6787 71.2441 99.5305C71.1523 99.2159 71.022 98.7635 70.8531 98.1863C70.5152 97.0189 70.0422 95.3263 69.4703 93.2281C68.3336 89.0317 66.8277 83.2129 65.3676 76.7285C64.6436 73.4863 63.9944 70.3845 63.4369 67.5557C62.8794 64.7269 62.4233 62.1711 62.0686 60.0157C61.8827 58.9393 61.7307 57.9643 61.5859 57.1089C61.4411 56.2535 61.3446 55.5151 61.2529 54.9119C61.1611 54.3087 61.1008 53.8433 61.055 53.5209C61.0357 53.3649 61.0188 53.2453 61.0067 53.1569C60.9946 53.0685 60.9946 53.0347 60.9946 53.0347C61.0056 53.0739 61.0145 53.1139 61.0212 53.1543C61.0357 53.2427 61.055 53.3623 61.0815 53.5157L61.3011 54.9015C61.3928 55.5047 61.5135 56.2431 61.6559 57.0959C61.7983 57.9487 61.9551 58.9159 62.1386 59.9975C62.5054 62.1477 62.9832 64.6983 63.5335 67.5375C64.0837 70.3767 64.7401 73.4629 65.4641 76.7051C66.9121 83.1869 68.4108 89.0083 69.5258 93.2099C70.0857 95.3081 70.5442 97.0059 70.87 98.1785C71.0269 98.7609 71.1499 99.2185 71.2368 99.5279L71.3285 99.8815C71.3792 99.9543 71.3864 99.9959 71.3864 99.9959Z" fill="#667499"/>
<path d="M83.7426 99.996C83.7426 99.996 83.7281 99.957 83.704 99.8764L83.6026 99.528L83.2213 98.1812C82.8907 97.0138 82.4273 95.3212 81.8626 93.2178C80.7428 89.0162 79.2272 83.2 77.7599 76.7208C76.2926 70.2416 75.127 64.3266 74.4126 60.0236C74.2292 58.9498 74.0699 57.9748 73.9444 57.1168C73.8189 56.2588 73.7031 55.523 73.6186 54.9172C73.5342 54.3114 73.4738 53.8512 73.4304 53.5262C73.4111 53.3702 73.3966 53.2506 73.3845 53.1622C73.3725 53.0738 73.3652 53.04 73.3652 53.04C73.3652 53.04 73.3652 53.079 73.3894 53.1622L73.4473 53.521C73.498 53.846 73.568 54.301 73.6597 54.9094C73.7514 55.5178 73.8672 56.251 74.0048 57.1064C74.1423 57.9618 74.304 58.9264 74.4874 60.008C75.2235 64.3032 76.3843 70.213 77.8661 76.6896C79.3479 83.1662 80.8393 88.9824 81.9374 93.1892L83.2599 98.1682C83.4144 98.7506 83.5326 99.2082 83.6171 99.5202L83.7064 99.8738C83.7211 99.9136 83.7332 99.9544 83.7426 99.996Z" fill="#667499"/>
<path d="M96.6537 99.9957C96.6382 99.9575 96.6245 99.9185 96.6127 99.8787C96.5885 99.7929 96.5524 99.6785 96.5065 99.5303L96.1131 98.1861C95.768 97.0213 95.2878 95.3261 94.7013 93.2461C93.5429 89.0549 91.9767 83.2517 90.4804 76.7751C88.9841 70.2985 87.845 64.3653 87.1886 60.0597C87.0221 58.9833 86.8749 58.0057 86.7639 57.1451C86.6529 56.2845 86.5467 55.5461 86.4815 54.9377C86.4163 54.3293 86.3608 53.8665 86.3246 53.5389C86.3077 53.3855 86.2957 53.2633 86.286 53.1749C86.2764 53.0865 86.286 53.0527 86.286 53.0527C86.286 53.0527 86.286 53.0917 86.3053 53.1749L86.356 53.5363C86.3995 53.8613 86.4598 54.3163 86.537 54.9299C86.6142 55.5435 86.718 56.2767 86.8411 57.1347C86.9642 57.9927 87.1114 58.9677 87.2827 60.0441C87.9633 64.3549 89.1024 70.2725 90.6083 76.7439C92.1142 83.2153 93.6563 89.0237 94.7954 93.2201C95.3722 95.3131 95.8404 97.0057 96.1662 98.1835C96.3255 98.7659 96.451 99.2235 96.5379 99.5355C96.5781 99.6846 96.6095 99.8016 96.632 99.8865C96.6465 99.9541 96.6537 99.9957 96.6537 99.9957Z" fill="#667499"/>
<path d="M109.565 99.996C109.55 99.9578 109.536 99.9188 109.524 99.879L109.416 99.5306C109.319 99.2186 109.174 98.7688 109.008 98.1916C108.655 97.0294 108.158 95.3316 107.56 93.2516C106.353 89.0708 104.746 83.278 103.216 76.8066C102.444 73.5722 101.768 70.473 101.237 67.6364C100.952 66.222 100.728 64.8674 100.513 63.6038C100.412 62.9694 100.314 62.3576 100.221 61.7682C100.127 61.1806 100.04 60.6138 99.9796 60.073C99.3376 55.744 99.188 53.04 99.188 53.04C99.188 53.04 99.188 53.0816 99.2049 53.1622C99.2218 53.2428 99.229 53.3702 99.2459 53.5262C99.2797 53.8538 99.3255 54.3244 99.3883 54.9276C99.451 55.5308 99.5403 56.277 99.6441 57.1376C99.7479 57.9982 99.8854 58.9784 100.037 60.0574C100.11 60.5982 100.202 61.165 100.298 61.7526C100.395 62.3402 100.494 62.9512 100.595 63.5856C100.824 64.8466 101.053 66.1986 101.338 67.6104C101.886 70.4418 102.557 73.541 103.327 76.7754C104.859 83.2416 106.464 89.037 107.637 93.223L109.051 98.176C109.218 98.7558 109.348 99.216 109.437 99.5228C109.478 99.6736 109.51 99.7828 109.534 99.8738C109.558 99.9648 109.565 99.996 109.565 99.996Z" fill="#667499"/>
<path d="M62.9445 57.6886C62.9445 57.6886 63.4875 63.3852 65.5871 66.942H77.9506C77.9506 66.942 74.946 61.1804 74.5719 57.1764L74.3016 54.9326H62.7466L62.9445 57.6886Z" fill="#455A64"/>
<path d="M73.2059 58.6872C73.2059 58.7262 71.4466 58.7548 69.2746 58.7548C67.1026 58.7548 65.3433 58.7262 65.3433 58.6872C65.3433 58.6482 67.1026 58.6196 69.2746 58.6196C71.4466 58.6196 73.2059 58.6508 73.2059 58.6872Z" fill="#FAFAFA"/>
<path d="M73.6063 60.1277C73.6063 60.1667 71.847 60.1953 69.675 60.1953C67.503 60.1953 65.7437 60.1667 65.7437 60.1277C65.7437 60.0887 67.503 60.0601 69.675 60.0601C71.847 60.0601 73.6063 60.0913 73.6063 60.1277Z" fill="#FAFAFA"/>
<path d="M73.9925 61.5681C73.9925 61.6045 72.2331 61.6357 70.0611 61.6357C67.8891 61.6357 66.125 61.6045 66.125 61.5681C66.125 61.5317 67.8843 61.5005 70.0563 61.5005C72.2283 61.5005 73.9925 61.5317 73.9925 61.5681Z" fill="#FAFAFA"/>
<path d="M74.3861 63.0085C74.3861 63.0449 72.6268 63.0761 70.4548 63.0761C68.2828 63.0761 66.5234 63.0449 66.5234 63.0085C66.5234 62.9721 68.2828 62.9409 70.4548 62.9409C72.6268 62.9409 74.3861 62.9695 74.3861 63.0085Z" fill="#FAFAFA"/>
<path d="M105.373 71.7313C105.373 71.7313 105.916 77.4279 108.016 80.9821H120.374C120.374 80.9821 117.37 75.2231 116.996 71.2191L116.725 68.9727H105.166L105.373 71.7313Z" fill="#667499"/>
<path d="M115.635 72.4436C115.635 72.4826 113.875 72.5112 111.703 72.5112C109.531 72.5112 107.772 72.4826 107.772 72.4436C107.772 72.4046 109.534 72.376 111.703 72.376C113.873 72.376 115.635 72.4072 115.635 72.4436Z" fill="#E0E0E0"/>
<path d="M116.028 73.884C116.028 73.9204 114.269 73.9516 112.097 73.9516C109.925 73.9516 108.166 73.9204 108.166 73.884C108.166 73.8476 109.925 73.8164 112.097 73.8164C114.269 73.8164 116.028 73.8398 116.028 73.884Z" fill="#E0E0E0"/>
<path d="M116.421 75.3244C116.421 75.3608 114.662 75.392 112.49 75.392C110.318 75.392 108.559 75.3608 108.559 75.3244C108.559 75.288 110.318 75.2568 112.49 75.2568C114.662 75.2568 116.421 75.288 116.421 75.3244Z" fill="#E0E0E0"/>
<path d="M116.805 76.7649C116.805 76.8013 115.046 76.8325 112.874 76.8325C110.702 76.8325 108.942 76.8013 108.942 76.7649C108.942 76.7285 110.702 76.6973 112.874 76.6973C115.046 76.6973 116.805 76.7259 116.805 76.7649Z" fill="#E0E0E0"/>
<path d="M97.3969 54.1033C97.5248 54.2151 95.9248 56.5109 93.5066 58.8873C91.0885 61.2637 88.8344 62.7873 88.7427 62.6443C88.651 62.5013 90.7047 60.7411 93.0867 58.3881C95.4687 56.0351 97.2569 53.9759 97.3969 54.1033Z" fill="#D1E1FC"/>
<path d="M99.7404 62.8602C99.639 63.0136 96.9385 61.1208 93.6129 58.7834C90.2873 56.446 87.5965 54.5402 87.6858 54.3634C87.775 54.1866 90.6204 55.8532 93.9604 58.2036C97.3005 60.554 99.8393 62.7094 99.7404 62.8602Z" fill="#D1E1FC"/>
<path d="M76.4205 61.802C76.3143 61.6538 78.093 60.0054 80.3905 58.1204C82.688 56.2354 84.6355 54.8288 84.7345 54.977C84.8334 55.1252 83.062 56.7736 80.7645 58.6586C78.467 60.5436 76.5243 61.9502 76.4205 61.802Z" fill="#D1E1FC"/>
<path d="M86.1823 62.6051C86.0713 62.7611 83.7062 60.9645 80.7016 58.9001C77.697 56.8357 75.1992 55.2601 75.2813 55.0963C75.3633 54.9325 78.0156 56.2403 81.0419 58.3307C84.0682 60.4211 86.2861 62.4647 86.1823 62.6051Z" fill="#D1E1FC"/>
<path d="M86.8631 77.7791C86.8631 77.7583 86.9862 77.7271 87.2275 77.7089C87.583 77.6966 87.9385 77.735 88.2846 77.8233C88.838 77.9615 89.3642 78.2045 89.8388 78.5409C90.4782 78.9869 91.0127 79.5868 91.4002 80.2933C91.867 81.1625 92.1126 82.1491 92.1121 83.1533C92.1161 83.7096 92.0511 84.264 91.9191 84.8017C91.7733 85.3736 91.5505 85.9193 91.2578 86.4215C90.5938 87.5346 89.6387 88.4109 88.513 88.9398C87.3873 89.4687 86.1414 89.6265 84.9325 89.3933C83.6774 89.1624 82.5164 88.5279 81.6021 87.5733C80.757 86.6695 80.1944 85.5044 79.9924 84.2401C79.802 83.106 79.9021 81.9375 80.282 80.8601C80.6142 79.9232 81.1805 79.1034 81.9182 78.4915C82.5169 77.9915 83.2056 77.6311 83.9406 77.4333C84.4915 77.2788 85.063 77.2278 85.6299 77.2825C85.7394 77.2886 85.8483 77.3034 85.9557 77.3267C86.0571 77.3449 86.1512 77.3579 86.2381 77.3813C86.4094 77.4333 86.5542 77.4697 86.6677 77.5191C86.8921 77.6179 87.0055 77.6803 86.9983 77.7011C86.979 77.7661 86.5156 77.5503 85.6179 77.5451C85.0832 77.5435 84.5516 77.6312 84.0419 77.8051C83.3689 78.0254 82.7436 78.3888 82.203 78.8737C81.5524 79.452 81.0595 80.2095 80.7767 81.0655C80.4533 82.0496 80.3816 83.1093 80.5692 84.1335C80.7619 85.2609 81.2726 86.2968 82.0316 87.1001C82.8615 87.9536 83.9098 88.5196 85.0411 88.7251C86.1689 88.9479 87.3329 88.7927 88.3763 88.2805C89.3504 87.8056 90.1802 87.0441 90.7703 86.0835C91.039 85.638 91.2463 85.1528 91.3857 84.6431C91.5143 84.1583 91.5833 83.6575 91.5909 83.1533C91.6065 82.248 91.408 81.3532 91.0141 80.5533C90.6773 79.8909 90.2073 79.3179 89.6385 78.8763C89.2076 78.5356 88.7284 78.2722 88.2194 78.0963C87.3748 77.7947 86.8607 77.8415 86.8631 77.7791Z" fill="#D1E1FC"/>
<path d="M52.5307 74.9734C52.4004 74.8564 53.9208 72.6334 56.0566 70.1114C58.1562 67.6336 60.0821 65.7252 60.2365 65.8942C60.391 66.0632 58.6413 68.0652 56.52 70.5742C54.3986 73.0832 52.6683 75.093 52.5307 74.9734Z" fill="#D1E1FC"/>
<path d="M62.3191 73.9127C62.2274 74.0713 59.7586 72.6127 56.8046 70.6393C53.8507 68.6659 51.5291 66.9473 51.6208 66.7887C51.7125 66.6301 54.1524 68.0887 57.1087 70.0621C60.065 72.0355 62.4108 73.7541 62.3191 73.9127Z" fill="#D1E1FC"/>
<path d="M85.7963 79.8408L86.7399 81.2994C86.7776 81.3596 86.8287 81.4088 86.8886 81.4424C86.9484 81.476 87.0151 81.493 87.0826 81.4918H88.7333C88.811 81.4914 88.8873 81.5144 88.9536 81.5583C89.0198 81.6021 89.0734 81.665 89.1083 81.7398C89.1431 81.8147 89.1579 81.8985 89.1509 81.982C89.1439 82.0654 89.1155 82.145 89.0687 82.212L88.072 83.629C88.0314 83.6868 88.0045 83.7545 87.9936 83.826C87.9827 83.8976 87.988 83.9709 88.0093 84.0398L88.5282 85.7272C88.5529 85.8065 88.5564 85.8918 88.5384 85.9732C88.5203 86.0546 88.4814 86.129 88.4261 86.1878C88.3708 86.2465 88.3013 86.2874 88.2254 86.3057C88.1496 86.3241 88.0705 86.3191 87.9972 86.2914L86.4382 85.709C86.3742 85.686 86.3061 85.6797 86.2394 85.6905C86.1727 85.7014 86.1093 85.7291 86.0545 85.7714L84.7247 86.827C84.6622 86.8767 84.5879 86.9064 84.5104 86.9129C84.4329 86.9193 84.3553 86.9022 84.2864 86.8635C84.2175 86.8247 84.16 86.7659 84.1206 86.6937C84.0812 86.6215 84.0614 86.5389 84.0635 86.4552L84.0949 84.6794C84.096 84.6065 84.0808 84.5344 84.0506 84.4692C84.0203 84.404 83.9759 84.3477 83.9211 84.305L82.5817 83.265C82.5209 83.2162 82.4737 83.1502 82.4454 83.0744C82.4171 82.9986 82.4087 82.9159 82.4211 82.8353C82.4336 82.7547 82.4664 82.6794 82.5161 82.6176C82.5657 82.5558 82.6301 82.5099 82.7024 82.485L84.2831 81.965C84.3475 81.9434 84.4061 81.9054 84.454 81.8543C84.5019 81.8031 84.5376 81.7403 84.5582 81.6712L85.0578 79.9786C85.0797 79.8979 85.1222 79.8255 85.1804 79.7695C85.2387 79.7135 85.3103 79.6762 85.3872 79.6619C85.4641 79.6475 85.5432 79.6567 85.6155 79.6883C85.6878 79.7199 85.7504 79.7727 85.7963 79.8408Z" fill="#D1E1FC"/>
<path d="M111.496 54.1656C111.612 54.3034 109.51 56.5368 106.8 59.1498C104.089 61.7628 101.799 63.7674 101.683 63.627C101.567 63.4866 103.669 61.2584 106.38 58.6454C109.09 56.0324 111.378 54.0252 111.496 54.1656Z" fill="#D1E1FC"/>
<path d="M113.069 62.1973C112.992 62.3637 110.045 60.9415 106.49 59.0227C102.936 57.1039 100.112 55.4087 100.192 55.2397C100.271 55.0707 103.213 56.4955 106.77 58.4169C110.328 60.3383 113.146 62.0309 113.069 62.1973Z" fill="#D1E1FC"/>
<path d="M108.559 57.1582H122.949L126.403 60.0364L123.357 62.7274L109.56 62.7118L108.559 57.1582Z" fill="#455A64"/>
<path opacity="0.2" d="M85.7963 79.8408L86.7399 81.2994C86.7776 81.3596 86.8287 81.4088 86.8886 81.4424C86.9484 81.476 87.0151 81.493 87.0826 81.4918H88.7333C88.811 81.4914 88.8873 81.5144 88.9536 81.5583C89.0198 81.6021 89.0734 81.665 89.1083 81.7398C89.1431 81.8147 89.1579 81.8985 89.1509 81.982C89.1439 82.0654 89.1155 82.145 89.0687 82.212L88.072 83.629C88.0314 83.6868 88.0045 83.7545 87.9936 83.826C87.9827 83.8976 87.988 83.9709 88.0093 84.0398L88.5282 85.7272C88.5529 85.8065 88.5564 85.8918 88.5384 85.9732C88.5203 86.0546 88.4814 86.129 88.4261 86.1878C88.3708 86.2465 88.3013 86.2874 88.2254 86.3057C88.1496 86.3241 88.0705 86.3191 87.9972 86.2914L86.4382 85.709C86.3742 85.686 86.3061 85.6797 86.2394 85.6905C86.1727 85.7014 86.1093 85.7291 86.0545 85.7714L84.7247 86.827C84.6622 86.8767 84.5879 86.9064 84.5104 86.9129C84.4329 86.9193 84.3553 86.9022 84.2864 86.8635C84.2175 86.8247 84.16 86.7659 84.1206 86.6937C84.0812 86.6215 84.0614 86.5389 84.0635 86.4552L84.0949 84.6794C84.096 84.6065 84.0808 84.5344 84.0506 84.4692C84.0203 84.404 83.9759 84.3477 83.9211 84.305L82.5817 83.265C82.5209 83.2162 82.4737 83.1502 82.4454 83.0744C82.4171 82.9986 82.4087 82.9159 82.4211 82.8353C82.4336 82.7547 82.4664 82.6794 82.5161 82.6176C82.5657 82.5558 82.6301 82.5099 82.7024 82.485L84.2831 81.965C84.3475 81.9434 84.4061 81.9054 84.454 81.8543C84.5019 81.8031 84.5376 81.7403 84.5582 81.6712L85.0578 79.9786C85.0797 79.8979 85.1222 79.8255 85.1804 79.7695C85.2387 79.7135 85.3103 79.6762 85.3872 79.6619C85.4641 79.6475 85.5432 79.6567 85.6155 79.6883C85.6878 79.7199 85.7504 79.7727 85.7963 79.8408Z" fill="white"/>
<path d="M146.47 114.478L146.482 112.289H150.288L150.303 115.49L150.061 115.508C149.011 115.57 144.718 115.752 144.028 115.523C143.239 115.263 146.47 114.478 146.47 114.478Z" fill="#D1E1FC"/>
<g opacity="0.6">
<path d="M148.927 115.508C148.982 115.162 149.154 114.851 149.409 114.634C149.66 114.419 149.977 114.312 150.298 114.335V115.482L148.927 115.508Z" fill="white"/>
</g>
<g opacity="0.6">
<path d="M144.897 114.92C144.897 114.92 143.765 115.274 143.907 115.474C144.05 115.674 148.391 115.669 150.308 115.474V115.383L145.24 115.437C145.24 115.437 145.119 114.92 144.897 114.92Z" fill="white"/>
</g>
<path d="M150.329 115.362H150.264H150.076L149.383 115.393C148.799 115.417 147.993 115.438 147.1 115.44C146.207 115.443 145.411 115.425 144.817 115.404L144.127 115.375L143.939 115.362H143.874H144.127L144.82 115.378C145.404 115.378 146.21 115.401 147.1 115.399C147.991 115.396 148.789 115.38 149.383 115.367L150.076 115.349H150.317L150.329 115.362Z" fill="#667499"/>
<path d="M145.234 115.526C145.204 115.403 145.16 115.284 145.104 115.172C145.033 115.068 144.952 114.972 144.863 114.886C144.981 114.934 145.079 115.026 145.138 115.146C145.213 115.256 145.247 115.391 145.234 115.526Z" fill="#667499"/>
<path d="M146.429 114.816C146.429 114.816 146.364 114.754 146.309 114.658C146.253 114.561 146.217 114.483 146.229 114.476C146.241 114.468 146.292 114.538 146.347 114.632C146.387 114.686 146.415 114.749 146.429 114.816Z" fill="#667499"/>
<path d="M146.731 114.639C146.731 114.639 146.661 114.606 146.596 114.543C146.531 114.481 146.485 114.421 146.492 114.411C146.499 114.4 146.56 114.444 146.627 114.507C146.695 114.569 146.745 114.629 146.731 114.639Z" fill="#667499"/>
<path d="M146.931 114.252C146.931 114.267 146.842 114.278 146.734 114.28C146.625 114.283 146.533 114.28 146.533 114.257C146.597 114.232 146.666 114.223 146.734 114.231C146.8 114.222 146.868 114.229 146.931 114.252Z" fill="#667499"/>
<path d="M146.999 113.979C146.933 114.026 146.855 114.05 146.776 114.049C146.695 114.064 146.611 114.053 146.535 114.018C146.609 114.003 146.684 113.997 146.76 113.999C146.838 113.984 146.918 113.977 146.999 113.979Z" fill="#667499"/>
<path d="M146.299 114.457C146.219 114.472 146.137 114.472 146.058 114.457C145.969 114.445 145.882 114.424 145.797 114.395C145.745 114.379 145.695 114.357 145.647 114.33C145.618 114.312 145.596 114.282 145.587 114.247C145.583 114.227 145.585 114.207 145.592 114.188C145.599 114.17 145.61 114.154 145.626 114.143C145.718 114.093 145.824 114.08 145.925 114.106C146.026 114.132 146.115 114.194 146.178 114.283C146.216 114.334 146.244 114.394 146.258 114.457C146.27 114.504 146.258 114.53 146.258 114.53C146.234 114.448 146.196 114.372 146.147 114.304C146.09 114.236 146.017 114.186 145.937 114.158C145.89 114.142 145.84 114.135 145.79 114.139C145.74 114.143 145.692 114.158 145.647 114.182C145.609 114.213 145.623 114.262 145.667 114.288C145.71 114.315 145.756 114.336 145.804 114.351C145.882 114.382 145.963 114.405 146.045 114.421C146.207 114.45 146.299 114.45 146.299 114.457Z" fill="#667499"/>
<path d="M146.248 114.47C146.218 114.415 146.208 114.35 146.219 114.288C146.228 114.219 146.251 114.153 146.287 114.096C146.308 114.057 146.337 114.024 146.373 114.001C146.408 113.977 146.448 113.963 146.49 113.96C146.515 113.966 146.536 113.982 146.55 114.005C146.564 114.028 146.569 114.056 146.564 114.083C146.561 114.125 146.547 114.165 146.523 114.2C146.492 114.258 146.454 114.312 146.41 114.361C146.372 114.408 146.324 114.445 146.27 114.467C146.27 114.467 146.318 114.421 146.386 114.335C146.424 114.286 146.458 114.234 146.487 114.179C146.521 114.122 146.543 114.023 146.487 114.01C146.432 113.997 146.364 114.07 146.326 114.122C146.292 114.173 146.269 114.231 146.258 114.293C146.249 114.352 146.246 114.411 146.248 114.47Z" fill="#667499"/>
<path d="M150.351 114.317C150.351 114.317 150.242 114.317 150.071 114.33C149.848 114.354 149.636 114.444 149.458 114.59C149.284 114.743 149.151 114.944 149.074 115.172C149.016 115.349 149.012 115.466 149.002 115.466C148.999 115.438 148.999 115.41 149.002 115.383C149.01 115.308 149.023 115.234 149.043 115.162C149.112 114.921 149.246 114.708 149.428 114.551C149.611 114.394 149.833 114.299 150.066 114.28C150.136 114.273 150.206 114.273 150.276 114.28C150.303 114.288 150.328 114.3 150.351 114.317Z" fill="#667499"/>
<path d="M149.958 112.484C149.996 113.045 150.003 113.607 149.98 114.169C149.942 113.608 149.934 113.045 149.958 112.484Z" fill="#667499"/>
<path d="M148.519 114.975C148.338 115.021 148.151 115.041 147.964 115.035C147.778 115.046 147.591 115.03 147.409 114.988C147.409 114.972 147.651 114.988 147.964 114.988C148.278 114.988 148.519 114.959 148.519 114.975Z" fill="#667499"/>
<path d="M149.265 114.972C149.265 114.972 149.246 115.029 149.222 115.091C149.197 115.154 149.18 115.206 149.168 115.206C149.156 115.206 149.149 115.141 149.168 115.071C149.188 115 149.258 114.961 149.265 114.972Z" fill="#667499"/>
<path d="M149.548 114.595C149.548 114.595 149.531 114.647 149.492 114.691C149.453 114.735 149.412 114.761 149.405 114.751C149.397 114.741 149.419 114.699 149.458 114.655C149.497 114.611 149.538 114.585 149.548 114.595Z" fill="#667499"/>
<path d="M149.948 114.423C149.948 114.436 149.895 114.436 149.839 114.457C149.784 114.478 149.743 114.512 149.733 114.501C149.723 114.491 149.755 114.436 149.825 114.41C149.895 114.384 149.953 114.4 149.948 114.423Z" fill="#667499"/>
<path d="M150.236 114.34C150.236 114.353 150.219 114.374 150.187 114.388C150.156 114.401 150.124 114.403 150.119 114.388C150.114 114.372 150.139 114.353 150.17 114.34C150.202 114.327 150.231 114.327 150.236 114.34Z" fill="#667499"/>
<path d="M133.568 42.2266L167.061 43.68V52L133.074 50.6558L133.568 42.2266Z" fill="#D1E1FC"/>
<path d="M127.588 45.3205C127.588 45.3205 125.682 45.0761 125.23 45.9601C125.23 45.9601 125.617 47.0833 127.506 47.0001L127.588 45.3205Z" fill="#D1E1FC"/>
<path d="M127.424 44.9332L127.233 47.2342L129.528 47.476C129.528 47.476 130.472 47.5592 131.561 48.8202C132.649 50.0812 133.078 50.6558 133.078 50.6558L133.573 42.2266L132.065 43.7502C131.765 44.0513 131.421 44.2965 131.046 44.4756C130.593 44.7162 130.112 44.8911 129.615 44.9956C128.884 45.0275 128.152 45.0066 127.424 44.9332Z" fill="#667499"/>
<path d="M167.061 43.6802C167.061 43.6802 169.081 44.9256 168.677 48.1444C168.332 50.9186 167.061 52.0028 167.061 52.0028V43.6802Z" fill="#667499"/>
<path opacity="0.4" d="M133.409 45.2998L167.061 46.6258V48.8774L133.284 47.4292L133.409 45.2998Z" fill="white"/>
<g opacity="0.3">
<path d="M152.764 43.5996C153.288 43.6412 153.638 44.1872 154.099 44.4602C154.56 44.7332 155.107 44.7202 155.547 44.9984C155.742 45.1184 155.908 45.2856 156.033 45.4869C156.158 45.6882 156.237 45.918 156.265 46.1581C156.293 46.3982 156.269 46.642 156.195 46.8704C156.12 47.0987 155.998 47.3052 155.836 47.4736C155.443 47.8766 154.808 48.0976 154.692 48.6696C154.642 48.9296 154.608 49.3144 154.369 49.2728C154.236 49.252 154.171 49.0908 154.074 48.992C153.869 48.7788 153.512 48.8724 153.307 49.0856C153.12 49.3203 152.958 49.5767 152.824 49.85C152.758 49.9854 152.659 50.0994 152.538 50.1807C152.417 50.2619 152.279 50.3075 152.137 50.3128C152.137 50.656 152.137 51.0694 152.137 51.4126L150.486 51.3242L150.672 44.0832L152.764 43.5996Z" fill="black"/>
</g>
<path d="M158.131 114.608V112.421H154.313L154.299 115.622L154.54 115.638C155.59 115.703 159.881 115.882 160.573 115.653C161.363 115.396 158.131 114.608 158.131 114.608Z" fill="#D1E1FC"/>
<g opacity="0.6">
<path d="M155.674 115.64C155.62 115.294 155.448 114.982 155.192 114.764C154.941 114.548 154.624 114.442 154.304 114.468V115.612L155.674 115.64Z" fill="white"/>
</g>
<g opacity="0.6">
<path d="M159.705 115.05C159.705 115.05 160.837 115.404 160.695 115.604C160.552 115.804 156.211 115.799 154.294 115.617V115.523L159.362 115.578C159.362 115.578 159.483 115.061 159.705 115.05Z" fill="white"/>
</g>
<path d="M154.272 115.492C154.294 115.496 154.316 115.496 154.338 115.492H154.526L155.218 115.526C155.803 115.549 156.609 115.57 157.502 115.573C158.394 115.575 159.191 115.557 159.785 115.536L160.475 115.505H160.663H160.728H160.487L159.794 115.518C159.21 115.531 158.404 115.542 157.514 115.539C156.623 115.536 155.824 115.523 155.231 115.508L154.538 115.492H154.35H154.272Z" fill="#667499"/>
<path d="M159.367 115.658C159.397 115.534 159.441 115.415 159.497 115.302C159.568 115.198 159.649 115.102 159.739 115.016C159.621 115.065 159.524 115.157 159.464 115.276C159.388 115.386 159.354 115.522 159.367 115.658Z" fill="#667499"/>
<path d="M158.173 114.946C158.173 114.946 158.238 114.884 158.293 114.79C158.349 114.697 158.385 114.613 158.373 114.606C158.361 114.598 158.31 114.668 158.255 114.762C158.199 114.855 158.161 114.938 158.173 114.946Z" fill="#667499"/>
<path d="M157.864 114.769C157.864 114.769 157.934 114.738 157.999 114.673C158.064 114.608 158.11 114.551 158.102 114.541C158.095 114.53 158.032 114.574 157.967 114.637C157.902 114.699 157.856 114.762 157.864 114.769Z" fill="#667499"/>
<path d="M157.67 114.384C157.734 114.409 157.801 114.418 157.868 114.41C157.937 114.424 158.007 114.42 158.073 114.4C158.073 114.384 157.984 114.374 157.873 114.371C157.762 114.369 157.67 114.369 157.67 114.384Z" fill="#667499"/>
<path d="M157.603 114.111C157.67 114.155 157.747 114.179 157.825 114.179C157.903 114.194 157.983 114.184 158.054 114.148C157.981 114.137 157.906 114.134 157.832 114.14C157.757 114.122 157.68 114.112 157.603 114.111Z" fill="#667499"/>
<path d="M158.315 114.59C158.395 114.605 158.476 114.605 158.556 114.59C158.645 114.577 158.732 114.557 158.817 114.53C158.869 114.513 158.919 114.49 158.967 114.462C158.996 114.445 159.017 114.416 159.027 114.382C159.031 114.362 159.029 114.341 159.022 114.322C159.015 114.303 159.003 114.287 158.988 114.275C158.895 114.226 158.789 114.213 158.689 114.238C158.588 114.264 158.498 114.327 158.436 114.415C158.398 114.468 158.37 114.528 158.354 114.592C158.348 114.615 158.348 114.639 158.354 114.662C158.377 114.581 158.415 114.505 158.465 114.439C158.52 114.369 158.593 114.318 158.675 114.293C158.722 114.275 158.772 114.268 158.821 114.271C158.871 114.275 158.92 114.29 158.964 114.314C159.003 114.345 158.988 114.395 158.945 114.423C158.901 114.449 158.855 114.47 158.807 114.486C158.728 114.515 158.648 114.538 158.566 114.556C158.395 114.579 158.315 114.582 158.315 114.59Z" fill="#667499"/>
<path d="M158.365 114.603C158.394 114.547 158.404 114.482 158.394 114.418C158.385 114.35 158.362 114.284 158.327 114.226C158.306 114.187 158.277 114.154 158.242 114.131C158.206 114.108 158.166 114.095 158.124 114.093C158.099 114.098 158.077 114.114 158.063 114.136C158.048 114.158 158.043 114.186 158.047 114.213C158.053 114.256 158.068 114.297 158.09 114.332C158.123 114.39 158.161 114.443 158.204 114.491C158.242 114.538 158.29 114.575 158.344 114.598C158.344 114.598 158.295 114.551 158.228 114.468C158.189 114.419 158.155 114.366 158.126 114.309C158.093 114.252 158.071 114.153 158.126 114.14C158.182 114.127 158.249 114.2 158.288 114.254C158.322 114.305 158.345 114.362 158.356 114.423C158.363 114.483 158.366 114.543 158.365 114.603Z" fill="#667499"/>
<path d="M154.249 114.45C154.249 114.45 154.357 114.45 154.528 114.45C154.751 114.474 154.963 114.564 155.141 114.71C155.316 114.864 155.449 115.066 155.525 115.295C155.553 115.39 155.577 115.487 155.595 115.586C155.595 115.586 155.595 115.557 155.595 115.503C155.587 115.428 155.573 115.354 155.552 115.282C155.484 115.041 155.351 114.828 155.168 114.671C154.986 114.514 154.764 114.421 154.531 114.403C154.461 114.394 154.391 114.394 154.321 114.403C154.295 114.414 154.27 114.43 154.249 114.45Z" fill="#667499"/>
<path d="M154.644 112.614C154.619 112.894 154.608 113.175 154.611 113.456C154.599 113.737 154.603 114.018 154.623 114.299C154.661 113.738 154.668 113.175 154.644 112.614Z" fill="#667499"/>
<path d="M156.08 115.105C156.262 115.151 156.448 115.171 156.635 115.165C156.822 115.176 157.01 115.16 157.193 115.118C157.193 115.105 156.951 115.118 156.638 115.118C156.324 115.118 156.082 115.092 156.08 115.105Z" fill="#667499"/>
<path d="M155.334 115.102C155.334 115.102 155.356 115.159 155.381 115.222C155.405 115.284 155.422 115.339 155.434 115.336C155.446 115.334 155.453 115.271 155.434 115.201C155.415 115.131 155.344 115.094 155.334 115.102Z" fill="#667499"/>
<path d="M155.054 114.725C155.054 114.725 155.071 114.78 155.11 114.821C155.149 114.863 155.188 114.891 155.197 114.881C155.207 114.871 155.183 114.829 155.144 114.787C155.105 114.746 155.064 114.717 155.054 114.725Z" fill="#667499"/>
<path d="M154.654 114.553C154.654 114.566 154.707 114.566 154.762 114.587C154.818 114.608 154.859 114.642 154.868 114.631C154.878 114.621 154.847 114.566 154.777 114.54C154.707 114.514 154.649 114.54 154.654 114.553Z" fill="#667499"/>
<path d="M154.367 114.473C154.367 114.486 154.384 114.507 154.415 114.52C154.447 114.533 154.478 114.533 154.481 114.52C154.483 114.507 154.464 114.486 154.432 114.473C154.401 114.46 154.372 114.46 154.367 114.473Z" fill="#667499"/>
<path d="M144.407 53.2795C144.407 53.2795 138.506 55.9679 138.318 55.8795C138.13 55.7911 137.992 50.8641 137.992 50.8641L135.048 50.7471C135.048 50.7471 134.498 58.2507 136.255 59.4675C138.668 61.1315 144.527 57.6709 144.527 57.6709L144.407 53.2795Z" fill="#FFBE9D"/>
<path d="M147.378 51.5191C147.378 50.7235 147.378 50.0319 147.378 50.0319C147.378 50.0319 145.889 49.8629 145.797 48.2717C145.705 46.6805 145.797 43.0119 145.797 43.0119L148.51 41.5845L151.493 44.0181L151.179 51.5919C151.156 52.117 150.947 52.6127 150.594 52.9759C150.242 53.339 149.772 53.5418 149.284 53.5419C148.783 53.5453 148.3 53.3343 147.943 52.9551C147.586 52.5759 147.382 52.0595 147.378 51.5191Z" fill="#FFBE9D"/>
<path d="M146.104 45.6872C146.103 45.728 146.114 45.7681 146.135 45.8023C146.155 45.8364 146.185 45.8632 146.22 45.879C146.255 45.8949 146.294 45.8992 146.331 45.8914C146.368 45.8835 146.402 45.8639 146.429 45.835C146.456 45.8061 146.474 45.7693 146.481 45.7292C146.489 45.6891 146.485 45.6476 146.47 45.61C146.455 45.5723 146.43 45.5403 146.399 45.5179C146.367 45.4956 146.33 45.4839 146.292 45.4844C146.242 45.4844 146.194 45.5058 146.159 45.5438C146.123 45.5818 146.104 45.6334 146.104 45.6872Z" fill="#667499"/>
<path d="M145.92 45.4638C145.944 45.4924 146.084 45.3624 146.289 45.352C146.495 45.3416 146.644 45.4456 146.666 45.417C146.688 45.3884 146.651 45.3546 146.584 45.3052C146.494 45.2419 146.387 45.2118 146.28 45.2194C146.173 45.2253 146.071 45.2692 145.99 45.3442C145.93 45.4014 145.908 45.4534 145.92 45.4638Z" fill="#667499"/>
<path d="M148.295 45.6872C148.295 45.7273 148.306 45.7665 148.327 45.7998C148.347 45.8332 148.377 45.8592 148.411 45.8745C148.446 45.8899 148.483 45.8939 148.52 45.8861C148.556 45.8783 148.59 45.8589 148.616 45.8306C148.643 45.8022 148.661 45.7661 148.668 45.7267C148.675 45.6874 148.671 45.6466 148.657 45.6096C148.643 45.5725 148.619 45.5408 148.588 45.5186C148.557 45.4963 148.52 45.4844 148.483 45.4844C148.433 45.4844 148.385 45.5057 148.35 45.5438C148.315 45.5818 148.295 45.6334 148.295 45.6872Z" fill="#667499"/>
<path d="M148.179 45.4636C148.203 45.4922 148.343 45.3622 148.546 45.3518C148.748 45.3414 148.903 45.4454 148.925 45.4168C148.946 45.3882 148.908 45.3544 148.843 45.305C148.752 45.2423 148.646 45.2122 148.539 45.2193C148.431 45.2263 148.329 45.27 148.247 45.344C148.179 45.4012 148.164 45.4532 148.179 45.4636Z" fill="#667499"/>
<path d="M147.455 47.3199C147.346 47.3522 147.232 47.3637 147.119 47.3537C147.088 47.3571 147.056 47.3571 147.025 47.3537C147.003 47.3481 146.983 47.3369 146.966 47.321C146.95 47.3052 146.937 47.2851 146.929 47.2627C146.908 47.1824 146.914 47.0969 146.946 47.0209L147.076 46.5633C147.176 46.1661 147.313 45.781 147.486 45.4141C147.431 45.8214 147.334 46.2208 147.197 46.6049L147.045 47.0599C147.02 47.1093 147.009 47.1652 147.013 47.2211C147.013 47.2497 147.057 47.2627 147.11 47.2653C147.315 47.2757 147.455 47.2965 147.455 47.3199Z" fill="#667499"/>
<path d="M148.42 47.424C148.42 47.606 148.683 47.736 148.997 47.7438C149.311 47.7516 149.574 47.632 149.581 47.4526C149.588 47.2732 149.34 47.0964 149.004 47.0886C148.669 47.0808 148.42 47.2446 148.42 47.424Z" fill="#EB996E"/>
<path d="M148.114 47.5226C148.321 47.377 147.546 47.8892 147.131 47.8892C147.206 48.0004 147.312 48.0812 147.435 48.1185C147.557 48.1558 147.687 48.1474 147.805 48.0946C148.239 47.897 148.114 47.5226 148.114 47.5226Z" fill="white"/>
<path d="M147.295 50.0317C147.997 50.0007 148.675 49.7534 149.25 49.3193C149.25 49.3193 148.806 50.4893 147.32 50.4217L147.295 50.0317Z" fill="#EB996E"/>
<path d="M153.662 45.3441V45.6275C153.63 45.3337 153.553 44.6629 153.51 44.4809C152.704 41.1633 149.998 40.5445 149.463 40.5445C148.888 40.5445 147.884 40.2065 146.419 41.8445C146.005 42.2731 145.721 42.827 145.604 43.4331C145.487 44.0391 145.543 44.6691 145.765 45.2401L146.007 44.9957L148.179 44.3951C148.007 43.7685 148.258 42.9885 148.401 42.6271L148.415 42.6115C148.845 44.9931 151.28 45.2401 151.28 45.2401L151.075 49.6601C153.971 49.0023 153.662 45.3441 153.662 45.3441Z" fill="#667499"/>
<path d="M153.59 45.1829C153.586 44.9916 153.643 44.8048 153.751 44.6528C153.859 44.5008 154.011 44.3926 154.183 44.3457C154.533 44.2623 154.9 44.3245 155.209 44.5199C155.373 44.5964 155.519 44.7113 155.637 44.856C155.754 45.0008 155.841 45.1719 155.89 45.3571C155.972 45.8147 155.697 46.2515 155.421 46.6155C155.263 46.8494 155.07 47.0533 154.849 47.2187C154.738 47.3003 154.611 47.3541 154.478 47.3762C154.345 47.3982 154.209 47.3879 154.08 47.3461C153.869 47.2483 153.698 47.0732 153.597 46.8521C153.412 46.4772 153.35 46.0466 153.418 45.6287C153.487 45.2109 153.683 44.8297 153.976 44.5459" fill="#667499"/>
<path d="M148.273 41.3868C148.049 41.4827 147.82 41.5643 147.588 41.6312C147.052 41.8354 146.57 42.1761 146.183 42.6243C145.796 43.0725 145.515 43.6149 145.365 44.2052C145.242 44.6576 145.227 44.9592 145.186 44.9566C145.145 44.954 145.109 44.6524 145.186 44.161C145.3 43.5168 145.58 42.9203 145.995 42.4404C146.409 41.9605 146.941 41.6169 147.53 41.4492C147.984 41.3244 148.273 41.3556 148.273 41.3868Z" fill="#667499"/>
<path d="M151.661 47.2501C151.639 46.9871 151.665 46.722 151.738 46.4701C151.778 46.3439 151.849 46.2316 151.943 46.1447C152.036 46.0578 152.15 45.9996 152.272 45.9761C152.413 45.97 152.552 46.0194 152.662 46.115C152.772 46.2106 152.846 46.346 152.87 46.4961C152.886 46.6479 152.859 46.8013 152.795 46.9372C152.73 47.0731 152.629 47.1855 152.506 47.2605C152.38 47.3313 152.24 47.3704 152.098 47.3749C151.956 47.3794 151.815 47.3492 151.685 47.2865" fill="#FFBE9D"/>
<path d="M152.096 47.125C152.096 47.1042 152.154 47.0834 152.224 47.0158C152.268 46.9746 152.305 46.9242 152.331 46.8674C152.357 46.8107 152.372 46.7488 152.376 46.6856C152.375 46.6223 152.362 46.5598 152.338 46.5021C152.314 46.4444 152.279 46.3927 152.236 46.3502C152.168 46.28 152.108 46.254 152.113 46.2332C152.117 46.2124 152.187 46.2072 152.289 46.2722C152.355 46.3155 152.409 46.3766 152.446 46.4495C152.483 46.5223 152.502 46.6044 152.5 46.6875C152.499 46.7706 152.477 46.8518 152.438 46.9231C152.398 46.9944 152.342 47.0533 152.274 47.0938C152.171 47.1536 152.096 47.1406 152.096 47.125Z" fill="#EB996E"/>
<path d="M147.568 45.5861C147.568 45.5861 147.568 45.5601 147.568 45.5081C147.566 45.4303 147.574 45.3525 147.59 45.2767C147.647 44.9922 147.794 44.7382 148.007 44.5591C148.167 44.4254 148.355 44.337 148.554 44.302C148.754 44.2671 148.958 44.2866 149.149 44.3589C149.386 44.4473 149.592 44.6131 149.737 44.8333C149.883 45.0535 149.961 45.3171 149.961 45.5874C149.961 45.8577 149.883 46.1213 149.737 46.3415C149.592 46.5616 149.386 46.7275 149.149 46.8159C148.958 46.8882 148.754 46.9077 148.554 46.8727C148.355 46.8377 148.167 46.7494 148.007 46.6157C147.794 46.4365 147.647 46.1826 147.59 45.8981C147.574 45.8222 147.566 45.7445 147.568 45.6667C147.568 45.6147 147.568 45.5861 147.568 45.5861C147.568 45.5861 147.568 45.6979 147.628 45.8851C147.699 46.1481 147.848 46.3785 148.053 46.5403C148.217 46.6719 148.412 46.7518 148.616 46.771C148.819 46.7903 149.024 46.7481 149.207 46.6493C149.39 46.5504 149.543 46.3987 149.651 46.2112C149.758 46.0237 149.815 45.8077 149.815 45.5874C149.815 45.3671 149.758 45.1511 149.651 44.9635C149.543 44.776 149.39 44.6244 149.207 44.5255C149.024 44.4266 148.819 44.3845 148.616 44.4037C148.412 44.423 148.217 44.5029 148.053 44.6345C147.848 44.7963 147.699 45.0267 147.628 45.2897C147.58 45.4769 147.58 45.5887 147.568 45.5861Z" fill="#667499"/>
<path d="M144.902 45.5861C144.902 45.5861 144.902 45.5601 144.902 45.5081C144.9 45.4303 144.907 45.3525 144.923 45.2767C144.98 44.9922 145.128 44.7382 145.341 44.5591C145.5 44.4254 145.688 44.337 145.888 44.302C146.087 44.2671 146.292 44.2866 146.482 44.3589C146.719 44.4473 146.925 44.6131 147.071 44.8333C147.216 45.0535 147.294 45.3171 147.294 45.5874C147.294 45.8577 147.216 46.1213 147.071 46.3415C146.925 46.5616 146.719 46.7275 146.482 46.8159C146.292 46.8882 146.087 46.9077 145.888 46.8727C145.688 46.8377 145.5 46.7494 145.341 46.6157C145.128 46.4365 144.98 46.1826 144.923 45.8981C144.907 45.8222 144.9 45.7445 144.902 45.6667C144.902 45.6147 144.902 45.5861 144.902 45.5861C144.902 45.5861 144.902 45.6979 144.962 45.8851C145.032 46.1475 145.181 46.3777 145.384 46.5403C145.533 46.6583 145.707 46.7346 145.891 46.7622C146.074 46.7899 146.261 46.7682 146.434 46.6989C146.645 46.6147 146.826 46.463 146.955 46.2643C147.083 46.0656 147.152 45.8294 147.152 45.5874C147.152 45.3454 147.083 45.1091 146.955 44.9104C146.826 44.7117 146.645 44.5601 146.434 44.4759C146.261 44.4066 146.074 44.3848 145.891 44.4125C145.707 44.4402 145.533 44.5165 145.384 44.6345C145.181 44.7971 145.032 45.0273 144.962 45.2897C144.911 45.4769 144.914 45.5887 144.902 45.5861Z" fill="#667499"/>
<path d="M147.213 45.6277C147.213 45.5887 147.308 45.5601 147.426 45.5601C147.544 45.5601 147.638 45.5887 147.638 45.6277C147.638 45.6667 147.542 45.6953 147.426 45.6953C147.31 45.6953 147.213 45.6641 147.213 45.6277Z" fill="#667499"/>
<path d="M149.844 45.8486C150.194 45.8547 150.541 45.9053 150.88 45.9994C151.227 46.0499 151.567 46.1451 151.893 46.2828C151.543 46.2784 151.194 46.2278 150.855 46.132C150.509 46.0813 150.17 45.9862 149.844 45.8486Z" fill="#667499"/>
<path d="M143.154 71.6819L145.003 113.732L150.928 113.867L149.39 77.5293L153.401 113.713L159.452 113.875L154.717 71.2217" fill="#667499"/>
<path d="M147.793 113.797C147.759 113.797 147.332 104.4 146.842 92.807C146.352 81.2136 145.98 71.8146 146.017 71.812C146.053 71.8094 146.49 81.2058 146.972 92.8018C147.455 104.398 147.829 113.794 147.793 113.797Z" fill="#455A64"/>
<path d="M156.638 113.456C156.601 113.456 155.537 104.336 154.258 93.0749C152.979 81.8143 151.97 72.6805 152.006 72.6753C152.043 72.6701 153.104 81.7961 154.383 93.0593C155.663 104.323 156.671 113.454 156.638 113.456Z" fill="#455A64"/>
<path d="M156.227 61.8932L159.263 57.8034L155.532 53.75C154.815 52.944 153.933 52.3289 152.957 51.9534C152.482 51.7718 151.984 51.6641 151.48 51.6336V51.3086L149.844 51.3424C149.844 51.3424 149.76 51.6206 149.67 51.9352C149.583 52.1952 149.54 52.6996 149.429 52.6996C149.318 52.6996 149.159 52.1796 148.999 51.9196L148.719 51.3138L147.209 51.2358V51.644C146.22 51.7822 145.258 52.0921 144.361 52.5618L138.789 54.9954L140.574 60.302L144.354 58.9318C144.33 59.0046 144.303 59.0774 144.284 59.1528C144.168 59.5968 144.163 60.066 144.271 60.5124C144.379 60.9588 144.595 61.3663 144.897 61.693L144.824 65.9726L143.135 71.6718L154.697 71.8018L153.382 65.6476L153.98 59.548L156.227 61.8932Z" fill="#455A64"/>
<path d="M148.688 51.3838C148.683 51.5136 148.656 51.6414 148.608 51.7608L148.49 52.1534C148.463 52.2288 148.444 52.3016 148.41 52.39C148.392 52.4452 148.356 52.4915 148.309 52.52C148.281 52.5345 148.25 52.5409 148.219 52.5386C148.188 52.5363 148.159 52.5254 148.133 52.507C147.787 52.2834 147.464 52.022 147.167 51.727C147.533 51.9106 147.879 52.1336 148.203 52.3926C148.292 52.4836 148.336 52.2522 148.391 52.117L148.536 51.7322C148.568 51.6078 148.62 51.49 148.688 51.3838Z" fill="#667499"/>
<path d="M151.615 51.7169C151.361 52.1497 151.023 52.5192 150.626 52.8011L150.541 52.8661L150.491 52.9051L150.455 52.8479C150.19 52.4668 150.005 52.0287 149.912 51.5635C149.945 51.5635 150.153 52.1329 150.558 52.7725L150.472 52.7543L150.551 52.6919C151.179 52.2083 151.586 51.6909 151.615 51.7169Z" fill="#667499"/>
<path d="M148.956 71.7603C148.945 71.6969 148.94 71.6324 148.942 71.5679C148.942 71.4275 148.942 71.2429 148.925 71.0115C148.925 70.5305 148.925 69.8311 148.925 68.9679C148.954 67.2415 149.029 64.8599 149.123 62.2287C149.217 59.5975 149.299 57.2289 149.364 55.4921C149.383 54.6393 149.4 53.9321 149.412 53.4485C149.412 53.218 149.412 53.0334 149.412 52.8947C149.41 52.8294 149.414 52.764 149.424 52.6997C149.424 52.6997 149.424 52.7673 149.439 52.8921C149.453 53.0169 149.439 53.2171 149.456 53.4485C149.456 53.9321 149.456 54.6315 149.456 55.4921C149.427 57.2185 149.352 59.6027 149.255 62.2339C149.159 64.8651 149.082 67.2337 149.014 68.9705C148.992 69.8207 148.975 70.5149 148.963 71.0115C148.963 71.2429 148.963 71.4275 148.963 71.5679C148.966 71.6321 148.964 71.6965 148.956 71.7603Z" fill="#667499"/>
<path d="M150.402 55.8378C150.402 55.8222 150.501 55.804 150.59 55.9288C150.616 55.9652 150.634 56.0076 150.642 56.0527C150.651 56.0978 150.649 56.1443 150.638 56.1888C150.622 56.2457 150.59 56.2963 150.547 56.3341C150.504 56.372 150.452 56.3956 150.397 56.402C150.343 56.4123 150.288 56.4055 150.238 56.3824C150.187 56.3593 150.145 56.3209 150.114 56.272C150.093 56.2331 150.08 56.1898 150.076 56.1448C150.071 56.0999 150.076 56.0546 150.09 56.012C150.143 55.8664 150.247 55.8508 150.247 55.8664C150.247 55.882 150.192 55.9288 150.177 56.038C150.168 56.0969 150.18 56.1572 150.211 56.207C150.231 56.2322 150.257 56.2513 150.286 56.2622C150.316 56.2732 150.347 56.2756 150.377 56.2694C150.409 56.2664 150.439 56.2541 150.464 56.2339C150.489 56.2137 150.508 56.1864 150.52 56.155C150.537 56.0982 150.532 56.0367 150.508 55.9834C150.472 55.8794 150.397 55.8586 150.402 55.8378Z" fill="#667499"/>
<path d="M150.44 60.1431C150.44 60.1275 150.527 60.1119 150.609 60.2159C150.632 60.2471 150.648 60.2832 150.657 60.3218C150.665 60.3604 150.666 60.4005 150.66 60.4395C150.648 60.4898 150.623 60.5353 150.587 60.57C150.551 60.6047 150.507 60.6272 150.459 60.6345C150.413 60.6424 150.365 60.6356 150.322 60.6148C150.28 60.594 150.243 60.5602 150.218 60.5175C150.2 60.4817 150.19 60.4414 150.19 60.4005C150.19 60.3596 150.2 60.3193 150.218 60.2835C150.286 60.1613 150.387 60.1795 150.38 60.1977C150.372 60.2159 150.322 60.2367 150.298 60.3225C150.288 60.3448 150.285 60.3695 150.288 60.3938C150.291 60.4181 150.301 60.4409 150.315 60.4596C150.33 60.4784 150.349 60.4923 150.371 60.4998C150.392 60.5072 150.416 60.508 150.438 60.5019C150.461 60.4977 150.483 60.4874 150.501 60.4719C150.52 60.4563 150.535 60.4361 150.544 60.4129C150.554 60.3897 150.558 60.3643 150.556 60.339C150.554 60.3137 150.547 60.2893 150.534 60.2679C150.498 60.1873 150.438 60.1639 150.44 60.1431Z" fill="#667499"/>
<path d="M141.501 59.912C141.386 59.6689 141.287 59.4169 141.207 59.158C141.024 58.651 140.792 58.0218 140.538 57.325L139.839 55.505C139.729 55.2589 139.637 55.0043 139.563 54.7432C139.702 54.9719 139.821 55.2139 139.918 55.466C140.121 55.921 140.386 56.5606 140.654 57.286C140.922 58.0114 141.137 58.6588 141.291 59.1398C141.384 59.3894 141.454 59.648 141.501 59.912Z" fill="#667499"/>
<path d="M158.798 57.2496C158.822 57.2756 158.074 58.1596 157.108 59.2204C156.548 59.8779 155.956 60.5044 155.337 61.0976C155.868 60.4099 156.432 59.7521 157.026 59.1268C157.977 58.066 158.771 57.2236 158.798 57.2496Z" fill="#667499"/>
<path d="M147.966 69.4135L147.733 68.2015C147.638 67.7112 147.633 67.2054 147.72 66.7133C147.807 66.2212 147.983 65.7524 148.239 65.3338C148.494 64.9153 148.824 64.5553 149.209 64.2745C149.594 63.9937 150.027 63.7977 150.482 63.6977L158.145 61.9927L159.804 70.65L152.142 72.355C151.689 72.4573 151.221 72.4623 150.765 72.3699C150.31 72.2774 149.876 72.0893 149.488 71.8161C149.101 71.543 148.766 71.1902 148.505 70.778C148.244 70.3658 148.06 69.9021 147.966 69.4135Z" fill="#D1E1FC"/>
<path d="M164.348 60.6059L152.021 63.3515C151.971 63.0908 152.019 62.8195 152.155 62.5971C152.291 62.3748 152.503 62.2197 152.745 62.1659L163.25 59.8259C163.492 59.7721 163.744 59.8241 163.95 59.9704C164.156 60.1166 164.3 60.3452 164.35 60.6059H164.348Z" fill="#D1E1FC"/>
<g opacity="0.4">
<path d="M158.3 61.9502C158.086 62.0367 157.865 62.1019 157.639 62.1452C157.229 62.2518 156.659 62.3844 156.029 62.5274C155.4 62.6704 154.823 62.7874 154.408 62.868C154.185 62.9248 153.958 62.9597 153.729 62.972C153.943 62.8839 154.163 62.8178 154.388 62.7744C154.801 62.6704 155.371 62.5352 156 62.3948C156.63 62.2544 157.207 62.1348 157.62 62.0542C157.843 61.9974 158.071 61.9626 158.3 61.9502Z" fill="black"/>
</g>
<g opacity="0.3">
<path d="M158.764 65.3665C158.735 65.1611 158.706 64.9557 158.679 64.7529C157.239 66.0101 155.912 67.4098 154.714 68.9337C154.35 69.3472 154.054 69.8247 153.838 70.3455C153.731 70.6069 153.682 70.8912 153.693 71.1766C153.704 71.462 153.776 71.7407 153.903 71.9913L157.106 71.2113L158.764 65.3665Z" fill="black"/>
</g>
<path d="M161.966 67.244C162.555 66.5155 162.877 65.5815 162.874 64.6159C162.871 63.6503 162.542 62.7188 161.95 61.9946L158.87 58.2402L156.425 61.5032C156.534 61.5812 159.061 64.813 159.061 64.813L155.199 69.9948C154.606 70.7956 154.282 71.9188 154.591 72.8886L155.105 74.0508C155.284 74.4522 155.601 74.7625 155.989 74.9159C156.377 75.0693 156.806 75.0537 157.183 74.8724L158.108 74.4252C158.16 74.4002 158.206 74.3611 158.241 74.3118C158.276 74.2624 158.299 74.2043 158.308 74.1428C158.317 74.0814 158.311 74.0186 158.291 73.9602C158.271 73.9019 158.238 73.8499 158.194 73.809L157.968 73.5984C157.886 73.5211 157.791 73.4627 157.687 73.4269C157.584 73.3911 157.475 73.3787 157.367 73.3904L156.191 73.5204L156.136 73.2864L161.966 67.244Z" fill="#FFBE9D"/>
<path d="M158.296 73.9725C158.175 74.033 158.051 74.0834 157.924 74.1233C157.625 74.2644 157.304 74.3455 156.978 74.3625C156.788 74.344 156.612 74.2515 156.481 74.1025C156.375 73.9886 156.288 73.8557 156.225 73.7099C156.153 73.583 156.122 73.4341 156.136 73.2861C156.157 73.2861 156.179 73.4447 156.302 73.6657C156.372 73.7939 156.459 73.9104 156.56 74.0115C156.675 74.1352 156.824 74.2139 156.985 74.2351C157.296 74.2127 157.602 74.1471 157.897 74.0401C158.023 73.9835 158.16 73.9603 158.296 73.9725Z" fill="#EB996E"/>
<path d="M157.967 73.5801C157.688 73.7361 157.39 73.849 157.082 73.9155C156.855 73.9831 156.613 73.9591 156.401 73.8479C156.242 73.7517 156.196 73.6295 156.208 73.6243C156.22 73.6191 156.292 73.6997 156.449 73.7621C156.648 73.8363 156.862 73.8435 157.065 73.7829C157.356 73.6739 157.66 73.6058 157.967 73.5801Z" fill="#EB996E"/>
<path d="M27.91 68.5516C27.799 68.5204 25.6053 71.9914 25.5329 74.9788C25.5271 75.2712 25.5367 75.5638 25.5619 75.855C25.6563 76.9004 25.8895 77.9257 26.2545 78.8996C28.1079 83.9462 30.0217 89.9314 30.0531 91.2938C30.1496 95.4954 31.8365 114.356 31.8365 114.356L35.5362 114.46L36.125 91.2964L34.8122 68.3618L27.91 68.5516Z" fill="#FFBE9D"/>
<path d="M34.9741 71.5312C34.9741 71.5312 39.977 89.024 39.6632 94.6712C39.3495 100.318 35.5364 114.379 35.5364 114.379L34.9741 71.5312Z" fill="#EB996E"/>
<path d="M26.4117 68.5776C26.4117 68.5776 23.6267 72.4412 25.5815 78.52C27.5122 84.5546 26.1293 91.9256 26.1293 91.9256C26.1293 91.9256 28.5934 89.934 30.3406 90.8128C32.3292 91.8138 33.6541 93.0098 36.1326 91.8528C38.7076 90.6412 40.7541 89.96 43.1071 92.3312L39.4678 78.6552L37.3634 69.9478L26.4117 68.5776Z" fill="#667499"/>
<path d="M41.0098 64.0563C40.3992 63.9965 39.3012 57.9619 39.3012 57.9619L34.7882 59.5869C34.7882 59.5869 34.6531 60.5047 37.3705 66.3469C37.3705 66.3469 38.9705 69.4149 40.9688 69.2745L41.0098 64.0563Z" fill="#EB996E"/>
<path d="M34.5106 52.1898C34.5106 52.1898 37.9279 51.8284 39.5183 56.3004L39.5328 56.342C39.5617 56.4252 39.5883 56.511 39.6172 56.602L40.947 60.6346L37.2835 62.6028V63.05L37.6817 71.1386L25.9964 68.7596L26.94 67.2958C27.8474 65.9464 27.6423 64.051 27.2706 62.4338L27.1451 61.8826L25.562 62.7744C24.8434 61.0068 24.5495 59.0728 24.7076 57.1506C24.7076 57.1012 24.7076 57.0544 24.7076 57.0076C24.8336 55.5367 25.4891 54.1773 26.5337 53.2205C27.5783 52.2637 28.9291 51.7855 30.2969 51.8882L34.5106 52.1898Z" fill="#D1E1FC"/>
<g opacity="0.3">
<path d="M28.9116 56.8545C29.556 59.4779 30.7458 62.1013 31.9428 64.4855C32.0586 64.7169 32.312 64.9769 32.4954 64.8079C32.6354 64.6805 32.5606 64.4361 32.4761 64.2619L28.9116 56.8545Z" fill="black"/>
</g>
<path d="M36.9917 58.2817C37.0899 58.4776 37.1708 58.6831 37.233 58.8953C37.3609 59.2801 37.5419 59.8053 37.7157 60.4085C37.8 60.6965 37.8303 60.9996 37.805 61.3003C37.7739 61.5435 37.7046 61.7791 37.5999 61.9971C37.5152 62.2013 37.4039 62.3912 37.2692 62.5613C37.3385 62.3553 37.4191 62.1539 37.5106 61.9581C37.6 61.7456 37.6578 61.5192 37.6819 61.2873C37.7002 61.0027 37.6683 60.7168 37.5878 60.4449C37.4237 59.8755 37.2741 59.3607 37.1462 58.9239C37.0731 58.7166 37.0213 58.5012 36.9917 58.2817Z" fill="#667499"/>
<path d="M36.0285 44.8867C36.0291 45.411 36.1542 45.9264 36.3921 46.3838C36.6299 46.8412 36.9725 47.2254 37.3872 47.4997C37.6191 47.627 37.8432 47.7703 38.0581 47.9287C38.1654 48.0093 38.2539 48.1155 38.3167 48.2391C38.3795 48.3627 38.4149 48.5003 38.4201 48.6411C38.4032 49.0805 37.9905 49.3613 37.6261 49.5615C37.7339 49.66 37.8213 49.7817 37.8828 49.9187C37.9442 50.0558 37.9783 50.2053 37.9829 50.3574C37.9874 50.5096 37.9623 50.6611 37.9092 50.8021C37.8561 50.9432 37.7761 51.0707 37.6744 51.1764C37.5727 51.2821 37.4516 51.3637 37.3189 51.4159C37.1861 51.4681 37.0447 51.4897 36.9037 51.4794C36.7627 51.4691 36.6253 51.427 36.5003 51.356C36.3754 51.285 36.2656 51.1865 36.1781 51.0669C36.1487 51.479 36.0016 51.8711 35.757 52.1896C35.5124 52.508 35.1824 52.737 34.8122 52.8453C34.4397 52.9436 34.0516 52.9514 33.6759 52.8682C33.3003 52.785 32.9465 52.6129 32.6402 52.3643C32.029 51.8621 31.552 51.1947 31.2573 50.4299" fill="#667499"/>
<path d="M38.0099 46.5636C38.0099 46.5636 38.0582 46.6208 38.0558 46.7534C38.0515 46.8454 38.0275 46.9351 37.9856 47.0154C37.9438 47.0957 37.8852 47.1644 37.8145 47.2162C37.7022 47.2845 37.5754 47.3205 37.4464 47.3205C37.3175 47.3205 37.1907 47.2845 37.0784 47.2162C36.8096 47.0623 36.5882 46.8274 36.4413 46.5402C36.1681 46.0386 35.9932 45.482 35.9272 44.9048C35.8895 44.6691 35.8895 44.4281 35.9272 44.1924C35.9465 44.1924 35.9538 44.4524 36.0262 44.8918C36.119 45.4472 36.3003 45.9811 36.5619 46.47C36.6894 46.7403 36.8841 46.9672 37.1242 47.1252C37.2204 47.1844 37.3285 47.2173 37.4392 47.2209C37.5499 47.2245 37.6597 47.1988 37.759 47.146C37.8223 47.1041 37.8766 47.0481 37.9183 46.9817C37.9599 46.9153 37.9879 46.8402 38.0003 46.7612C38.022 46.6338 37.9979 46.5662 38.0099 46.5636Z" fill="#667499"/>
<path d="M34.1485 52.4008C34.2016 51.4024 34.2668 50.4118 34.2668 50.4118C34.2668 50.4118 35.7485 50.2428 35.8378 48.6594C35.9271 47.076 35.8378 43.4308 35.8378 43.4308L33.1397 42.0112L30.1665 44.4318L30.4706 52.3696C30.4889 52.8598 30.6756 53.3252 30.9945 53.6754C31.3133 54.0256 31.7416 54.2358 32.1961 54.265C32.4382 54.2823 32.6811 54.2476 32.9107 54.163C33.1403 54.0784 33.352 53.9455 33.5336 53.7721C33.7152 53.5987 33.8631 53.3883 33.9686 53.1529C34.0742 52.9175 34.1353 52.6619 34.1485 52.4008Z" fill="#FFBE9D"/>
<path d="M35.5435 46.0905C35.5435 46.1306 35.5324 46.1698 35.5117 46.2032C35.4911 46.2365 35.4617 46.2625 35.4273 46.2779C35.3929 46.2932 35.355 46.2972 35.3185 46.2894C35.282 46.2816 35.2485 46.2623 35.2221 46.2339C35.1958 46.2055 35.1779 46.1694 35.1706 46.1301C35.1633 46.0907 35.1671 46.0499 35.1813 46.0129C35.1956 45.9758 35.2197 45.9442 35.2507 45.9219C35.2816 45.8996 35.318 45.8877 35.3552 45.8877C35.4052 45.8877 35.453 45.9091 35.4883 45.9471C35.5236 45.9851 35.5435 46.0367 35.5435 46.0905Z" fill="#667499"/>
<path d="M35.7174 45.8694C35.6933 45.8954 35.5557 45.768 35.353 45.7576C35.1503 45.7472 34.9982 45.8486 34.9765 45.82C34.9548 45.7914 34.991 45.7602 35.0586 45.7108C35.148 45.6481 35.2537 45.618 35.3602 45.625C35.4667 45.632 35.5682 45.6758 35.6498 45.7498C35.7174 45.807 35.7367 45.8564 35.7174 45.8694Z" fill="#667499"/>
<path d="M33.3643 46.0905C33.3646 46.117 33.36 46.1433 33.3509 46.1679C33.3417 46.1925 33.328 46.2149 33.3107 46.2337C33.2934 46.2526 33.2729 46.2676 33.2501 46.2778C33.2274 46.288 33.2031 46.2933 33.1785 46.2933C33.1285 46.2933 33.0807 46.2719 33.0454 46.2339C33.0101 46.1959 32.9902 46.1443 32.9902 46.0905C32.9902 46.0367 33.0101 45.9851 33.0454 45.9471C33.0807 45.9091 33.1285 45.8877 33.1785 45.8877C33.2031 45.8877 33.2274 45.893 33.2501 45.9032C33.2729 45.9134 33.2934 45.9284 33.3107 45.9472C33.328 45.9661 33.3417 45.9885 33.3509 46.0131C33.36 46.0377 33.3646 46.064 33.3643 46.0905Z" fill="#667499"/>
<path d="M33.4825 45.8694C33.4584 45.8954 33.3184 45.768 33.1157 45.7576C32.913 45.7472 32.7634 45.8486 32.7416 45.82C32.7199 45.7914 32.7561 45.7602 32.8237 45.7108C32.9131 45.6481 33.0188 45.618 33.1253 45.625C33.2318 45.632 33.3333 45.6758 33.415 45.7498C33.4753 45.807 33.4946 45.8564 33.4825 45.8694Z" fill="#667499"/>
<path d="M34.2115 47.6972C34.3195 47.667 34.4306 47.6522 34.5421 47.653C34.5928 47.653 34.6459 47.653 34.658 47.601C34.6655 47.5411 34.6553 47.4801 34.629 47.4268C34.5831 47.2786 34.5373 47.133 34.4914 46.977C34.3949 46.6598 34.3104 46.3686 34.2501 46.158C34.2118 46.0457 34.1866 45.9286 34.1753 45.8096C34.2296 45.913 34.2725 46.023 34.3032 46.1372C34.3732 46.3452 34.4649 46.6338 34.5614 46.9536C34.6049 47.107 34.6483 47.2552 34.6942 47.4034C34.7242 47.4743 34.7302 47.5544 34.7111 47.6296C34.6931 47.6599 34.6674 47.684 34.6369 47.6987C34.6065 47.7135 34.5727 47.7184 34.5397 47.7128C34.4301 47.7199 34.3201 47.7147 34.2115 47.6972Z" fill="#667499"/>
<path d="M33.5451 47.9158C33.3424 47.7702 34.1122 48.2798 34.5249 48.2798C34.4509 48.3904 34.3443 48.4708 34.2226 48.5081C34.1008 48.5454 33.971 48.5373 33.854 48.4852C33.4196 48.2876 33.5451 47.9158 33.5451 47.9158Z" fill="white"/>
<path d="M34.2694 50.4115C33.5715 50.3791 32.8967 50.1328 32.3242 49.7017C32.3242 49.7017 32.7659 50.8639 34.238 50.7989L34.2694 50.4115Z" fill="#EB996E"/>
<path d="M35.2199 42.2684C33.7719 40.6408 32.7655 40.9684 32.1936 40.9684C31.5654 41.0442 30.9586 41.2591 30.4113 41.5996C29.8639 41.9401 29.3878 42.3988 29.0128 42.947C28.6074 43.402 28.0282 44.884 27.9606 45.4066C27.9341 45.9342 27.9389 46.4631 27.9751 46.99C27.9751 47.51 27.8592 48.0872 27.4924 48.4382C27.2511 48.6592 26.9325 48.7866 26.7925 49.0856C26.7283 49.2687 26.7254 49.4703 26.7845 49.6554C26.8435 49.8406 26.9608 49.9977 27.1159 50.0996C27.4342 50.2922 27.8003 50.3731 28.1633 50.331C28.1339 50.7247 28.2409 51.1161 28.4638 51.4297C28.6867 51.7433 29.0095 51.9567 29.37 52.0288C29.7375 52.081 30.1096 51.9776 30.4077 51.7402C30.6543 51.9982 30.9154 52.2396 31.1896 52.463C31.2508 50.1611 31.2057 47.8601 31.0545 45.56C32.0343 45.3728 33.7912 44.8034 34.0977 43.1134C34.4887 44.0754 35.0823 44.6006 35.8715 45.3286C35.8763 45.3312 36.6824 43.8986 35.2199 42.2684Z" fill="#667499"/>
<path d="M31.168 44.9515C31.3675 44.9245 31.5694 44.9245 31.7689 44.9515C32.2395 45.0071 32.7157 44.9467 33.1614 44.7747C33.3969 44.6702 33.599 44.494 33.743 44.2677C33.8603 44.0785 33.9422 43.8666 33.9843 43.6437C34.0543 43.2615 34.0205 43.0119 34.0422 43.0093C34.1037 43.2204 34.1153 43.4447 34.076 43.6619C34.0466 43.9018 33.9701 44.1323 33.8516 44.3379C33.6991 44.5906 33.4797 44.7881 33.2217 44.9047C32.7586 45.0861 32.26 45.1363 31.7737 45.0503C31.5694 45.0379 31.3666 45.0049 31.168 44.9515Z" fill="#667499"/>
<path d="M27.3452 48.8229C27.427 48.825 27.5085 48.8127 27.5865 48.7865C27.6883 48.7432 27.7783 48.6728 27.8479 48.5819C27.9175 48.4909 27.9646 48.3824 27.9847 48.2665C28.0243 47.9134 27.9619 47.5557 27.8062 47.2421C27.722 47.0429 27.6526 46.8369 27.5986 46.6259C27.5472 46.3936 27.5333 46.1535 27.5576 45.9161C27.6072 45.4601 27.757 45.0234 27.9944 44.6421C28.1853 44.3352 28.4079 44.0526 28.6581 43.7997C28.868 43.5813 29.049 43.4201 29.1745 43.3109C29.2353 43.2475 29.3044 43.1941 29.3797 43.1523C29.3941 43.1705 29.1383 43.4279 28.7232 43.8699C28.4881 44.1262 28.2779 44.4076 28.0958 44.7097C27.8757 45.0778 27.7354 45.4946 27.6855 45.9291C27.6645 46.1517 27.6767 46.3764 27.7217 46.5947C27.773 46.799 27.8383 46.9989 27.9172 47.1927C28.0776 47.5308 28.1326 47.9156 28.074 48.2899C28.0468 48.4168 27.9889 48.5336 27.9063 48.6286C27.8237 48.7236 27.7192 48.7933 27.6034 48.8307C27.54 48.8469 27.4739 48.8469 27.4104 48.8307C27.3645 48.8385 27.3452 48.8281 27.3452 48.8229Z" fill="#667499"/>
<path d="M35.4131 114.975V114.455L31.5977 114.377V115.981L31.839 115.997C32.8888 116.062 37.1797 116.241 37.8723 116.012C38.6446 115.763 35.4131 114.975 35.4131 114.975Z" fill="#D1E1FC"/>
<g opacity="0.6">
<path d="M32.9586 116.007C32.9025 115.662 32.7308 115.351 32.476 115.133C32.2245 114.917 31.9066 114.81 31.5854 114.834V115.978L32.9586 116.007Z" fill="white"/>
</g>
<g opacity="0.6">
<path d="M36.9869 115.419C36.9869 115.419 38.1187 115.77 37.9787 115.973C37.8388 116.176 33.4924 116.166 31.5762 115.973V115.882L36.6442 115.934C36.6442 115.934 36.7648 115.44 36.9869 115.419Z" fill="white"/>
</g>
<path d="M31.5566 115.859H31.6218L31.81 115.872L32.5003 115.906C33.0843 115.929 33.8927 115.95 34.7833 115.952C35.6738 115.955 36.4726 115.937 37.0663 115.916L37.7589 115.885H37.9472H38.0123H37.7565L37.0663 115.898C36.4823 115.898 35.6738 115.921 34.7833 115.921C33.8927 115.921 33.0939 115.903 32.5003 115.887L31.81 115.872H31.6218L31.5566 115.859Z" fill="#667499"/>
<path d="M36.649 116.025C36.6801 115.901 36.7238 115.782 36.7793 115.669C36.849 115.564 36.93 115.468 37.0206 115.383C36.9027 115.431 36.805 115.523 36.7455 115.643C36.6723 115.754 36.6381 115.889 36.649 116.025Z" fill="#667499"/>
<path d="M35.4542 115.313C35.4663 115.313 35.5194 115.25 35.5749 115.157C35.6149 115.103 35.6429 115.04 35.6569 114.972C35.6448 114.972 35.5918 115.035 35.5362 115.131C35.4807 115.227 35.4445 115.305 35.4542 115.313Z" fill="#667499"/>
<path d="M35.1477 115.139C35.1477 115.139 35.2153 115.105 35.2804 115.042C35.3456 114.98 35.3939 114.918 35.3842 114.907C35.3746 114.897 35.3167 114.941 35.2515 115.003C35.1863 115.066 35.1381 115.128 35.1477 115.139Z" fill="#667499"/>
<path d="M34.9521 114.751C35.0163 114.776 35.0847 114.785 35.1525 114.777C35.219 114.787 35.2867 114.779 35.3503 114.757C35.287 114.732 35.2195 114.723 35.1525 114.728C35.0414 114.728 34.9521 114.736 34.9521 114.751Z" fill="#667499"/>
<path d="M34.8872 114.478C34.9531 114.525 35.0304 114.549 35.1092 114.548C35.1863 114.562 35.2655 114.551 35.3361 114.514C35.2618 114.503 35.1867 114.498 35.1116 114.499C35.0376 114.485 34.9625 114.478 34.8872 114.478Z" fill="#667499"/>
<path d="M35.5845 114.957C35.6643 114.972 35.746 114.972 35.8258 114.957C35.9143 114.946 36.0016 114.926 36.0864 114.897C36.1386 114.881 36.1888 114.858 36.2361 114.829C36.2651 114.812 36.2868 114.783 36.2964 114.749C36.3 114.729 36.2986 114.709 36.2922 114.69C36.2858 114.671 36.2747 114.655 36.2602 114.642C36.1669 114.593 36.0606 114.579 35.9593 114.605C35.8581 114.631 35.7682 114.693 35.7051 114.782C35.6673 114.835 35.6401 114.895 35.6255 114.959C35.6207 114.982 35.6207 115.006 35.6255 115.029C35.6517 114.949 35.69 114.873 35.7389 114.806C35.793 114.736 35.8653 114.685 35.9465 114.66C36.0425 114.625 36.1475 114.633 36.2385 114.681C36.2771 114.712 36.2626 114.762 36.2192 114.79C36.1749 114.815 36.1289 114.836 36.0816 114.853C35.999 114.883 35.9143 114.907 35.8282 114.923C35.6786 114.949 35.5845 114.949 35.5845 114.957Z" fill="#667499"/>
<path d="M35.6471 114.97C35.6785 114.915 35.6889 114.85 35.6761 114.788C35.6688 114.719 35.6465 114.653 35.6109 114.595C35.5907 114.555 35.5611 114.522 35.5251 114.498C35.4891 114.474 35.448 114.461 35.4058 114.46C35.3809 114.466 35.3591 114.482 35.3451 114.504C35.331 114.527 35.326 114.555 35.331 114.582C35.3373 114.624 35.3512 114.664 35.372 114.699C35.4038 114.757 35.4428 114.811 35.4878 114.858C35.5258 114.905 35.5738 114.942 35.6278 114.964C35.6278 114.964 35.5796 114.918 35.512 114.834C35.4723 114.786 35.4376 114.732 35.4082 114.676C35.3768 114.621 35.3527 114.52 35.4082 114.509C35.4637 114.499 35.5313 114.567 35.5675 114.621C35.6023 114.672 35.6262 114.731 35.6375 114.793C35.6458 114.851 35.649 114.91 35.6471 114.97Z" fill="#667499"/>
<path d="M31.5303 114.816C31.5303 114.816 31.6389 114.816 31.8126 114.816C32.0362 114.845 32.2481 114.94 32.4256 115.089C32.6003 115.242 32.7323 115.445 32.8069 115.674C32.8648 115.848 32.8697 115.968 32.8793 115.965C32.884 115.939 32.884 115.911 32.8793 115.885C32.873 115.81 32.8593 115.735 32.8383 115.664C32.7683 115.423 32.635 115.21 32.4546 115.05C32.2705 114.896 32.0476 114.806 31.815 114.79C31.7453 114.782 31.6749 114.782 31.6051 114.79C31.5791 114.795 31.5538 114.803 31.5303 114.816Z" fill="#667499"/>
<path d="M33.3643 115.474C33.7315 115.549 34.1082 115.554 34.4768 115.487C34.4768 115.471 34.2355 115.487 33.9193 115.487C33.6032 115.487 33.3667 115.458 33.3643 115.474Z" fill="#667499"/>
<path d="M32.6187 115.471C32.6187 115.471 32.6381 115.526 32.6648 115.588C32.6915 115.651 32.7036 115.705 32.7157 115.703C32.7279 115.7 32.7376 115.638 32.7157 115.568C32.6939 115.497 32.6259 115.461 32.6187 115.471Z" fill="#667499"/>
<path d="M32.3384 115.094C32.3384 115.094 32.3529 115.146 32.3918 115.188C32.4306 115.23 32.4718 115.258 32.4816 115.25C32.4913 115.243 32.4646 115.196 32.4257 115.154C32.3869 115.113 32.3384 115.084 32.3384 115.094Z" fill="#667499"/>
<path d="M31.9356 114.92C31.9356 114.936 31.9887 114.933 32.0442 114.957C32.0997 114.98 32.1408 115.009 32.1504 115.001C32.1601 114.993 32.1287 114.933 32.0611 114.907C31.9935 114.881 31.9332 114.92 31.9356 114.92Z" fill="#667499"/>
<path d="M31.6509 114.84C31.6509 114.853 31.6679 114.874 31.6994 114.887C31.731 114.9 31.7601 114.9 31.7649 114.887C31.7698 114.874 31.7479 114.853 31.7164 114.84C31.6849 114.827 31.6557 114.827 31.6509 114.84Z" fill="#667499"/>
<path opacity="0.3" d="M27.3862 66.313C27.3862 66.313 27.8206 69.9192 31.0786 69.7892C33.2578 69.6835 35.428 69.4229 37.5753 69.0092L37.5415 68.3254L27.3862 66.313Z" fill="black"/>
<path d="M46.2587 64.0225C45.9691 63.5207 43.9781 64.7167 43.8019 64.8025C43.6257 64.8883 43.5027 64.6179 43.6644 64.5425C43.9057 64.4411 46.319 63.3179 46.0463 62.8239C45.8919 62.5639 45.4623 62.8941 45.4623 62.8941C45.4623 62.8941 43.2613 64.1265 43.1382 63.8873C43.0152 63.6481 44.2798 62.8759 44.7238 62.6497C45.1679 62.4235 45.2451 62.1089 44.9893 61.9815C44.8179 61.8957 43.4399 62.5561 43.0055 62.7901C42.5711 63.0241 41.3862 63.6949 41.7216 62.8551C42.0571 62.0153 42.0185 61.2327 41.8712 61.0351C41.8331 60.992 41.7833 60.9628 41.729 60.9517C41.6747 60.9405 41.6185 60.9479 41.5683 60.9728C41.518 60.9977 41.4763 61.0389 41.4488 61.0906C41.4214 61.1423 41.4096 61.202 41.4151 61.2613C41.3935 61.5687 41.3326 61.8714 41.2341 62.1609C41.1632 62.3971 41.0554 62.6187 40.9156 62.8161C40.7515 63.0475 40.6042 63.2347 40.4739 63.3907C39.2045 63.8691 35.5821 65.0781 32.1986 64.7453C31.5856 64.6855 30.0266 60.2759 30.0266 60.2759L25.8129 62.6159C25.8129 62.6159 25.7357 62.8629 27.6567 66.8903C30.2728 72.3737 42.0909 66.6849 42.0909 66.6849V66.6719C42.9872 66.4803 43.8733 66.2373 44.7455 65.9439C45.9329 65.4811 45.8967 65.3641 45.8219 65.2263C45.624 64.8493 43.703 65.9543 43.9877 65.4577C44.2725 64.9611 46.4807 64.4047 46.2587 64.0225Z" fill="#FFBE9D"/>
</svg>
