<svg width="181" height="182" viewBox="0 0 181 182" fill="none" xmlns="http://www.w3.org/2000/svg">
<rect width="181" height="182" fill="white"/>
<path d="M39.2009 86.8101C37.2853 89.3996 34.6491 91.3598 31.6257 92.4429C28.6022 93.5259 25.3273 93.6832 22.215 92.8947C19.1026 92.1063 16.2927 90.4075 14.1405 88.0133C11.9883 85.6191 10.5904 82.637 10.1237 79.444C9.65696 76.251 10.1423 72.9905 11.5184 70.0749C12.8945 67.1592 15.0994 64.7193 17.8545 63.0637C20.6096 61.4081 23.791 60.6112 26.9965 60.7736C30.2021 60.9361 33.2877 62.0507 35.8633 63.9764L35.8958 64.0019C39.3417 66.586 41.6256 70.4406 42.2454 74.7178C42.8652 78.9951 41.7701 83.3447 39.2009 86.8101Z" fill="#EBEBEB"/>
<path d="M36.1095 84.4843C34.6514 86.4587 32.6438 87.9541 30.3406 88.7813C28.0373 89.6084 25.5418 89.7302 23.1697 89.1313C20.7976 88.5323 18.6553 87.2395 17.0139 85.4164C15.3725 83.5932 14.3056 81.3215 13.9482 78.8886C13.5908 76.4558 13.9588 73.9709 15.0059 71.7484C16.0529 69.5259 17.7318 67.6655 19.8304 66.4024C21.929 65.1393 24.3529 64.5304 26.7956 64.6526C29.2384 64.7747 31.5902 65.6225 33.5538 67.0887H33.5755C36.2031 69.0553 37.9462 71.9909 38.4215 75.2497C38.8967 78.5086 38.065 81.8237 36.1095 84.4661V84.4843Z" fill="#F5F5F5"/>
<path d="M36.3371 84.1713C36.2755 84.1276 36.5579 83.6617 36.967 82.7772C37.5424 81.5409 37.9223 80.2219 38.0928 78.8678C38.3453 76.8713 38.1079 74.8431 37.4014 72.9601C36.9828 71.8619 36.4138 70.8278 35.7108 69.8879C35.3376 69.3926 34.926 68.9276 34.48 68.4974C33.5628 67.6079 32.5107 66.8707 31.3632 66.3134C30.2681 65.7768 29.0991 65.4087 27.8952 65.2214C27.3286 65.1337 26.7563 65.0874 26.183 65.0831C25.1197 65.0692 24.0589 65.1915 23.0264 65.4471C22.1268 65.6814 21.2553 66.0133 20.4272 66.4372C19.2233 67.0639 18.1241 67.8757 17.1692 68.8432C16.485 69.5312 16.1447 69.9607 16.0832 69.9352C16.0217 69.9098 16.2751 69.4002 16.8941 68.6139C17.7887 67.5106 18.8801 66.5848 20.1123 65.8839C21.5853 65.0386 23.2136 64.5028 24.8986 64.3088C26.5837 64.1149 28.2903 64.2668 29.9152 64.7555C30.5547 64.9484 31.1781 65.1918 31.7795 65.4835C32.3978 65.7854 32.992 66.1346 33.5569 66.5282C34.1175 66.9282 34.6475 67.3699 35.1425 67.8495C35.6206 68.3186 36.0612 68.825 36.4602 69.3638C37.4692 70.7291 38.1933 72.2855 38.5889 73.9394C38.9846 75.5933 39.0436 77.3105 38.7625 78.9879C38.5303 80.3954 38.0393 81.7471 37.3145 82.9737C36.7715 83.8073 36.3841 84.204 36.3371 84.1713Z" fill="#E0E0E0"/>
<path d="M22.9069 83.8253L21.6435 85.5761L20.0869 84.4477L21.3177 82.7442C19.8444 81.5248 18.7149 79.9633 18.3457 78.6638L20.5792 77.3789C21.0199 78.6582 21.7848 79.7999 22.7983 80.6913L24.6843 78.0777C23.258 76.3961 21.7449 74.4086 23.3594 72.17C24.5576 70.5102 26.7839 69.9605 29.4482 71.4711L30.7008 69.7349L32.2574 70.8705L31.0266 72.5741C32.0974 73.4534 32.9449 74.5764 33.499 75.8501L31.327 77.2078C30.8989 76.2455 30.2835 75.3791 29.517 74.6598L27.5984 77.3206C29.0464 78.9877 30.5161 80.9606 28.9233 83.1446C27.7686 84.7644 25.5676 85.3104 22.9069 83.8253ZM26.3423 75.77L27.9459 73.5459C26.9866 73.131 26.3314 73.3494 25.9586 73.8663C25.5857 74.3831 25.8138 75.0493 26.3423 75.77ZM26.2988 81.4957C26.6934 80.9461 26.4581 80.32 25.9586 79.5956L24.3983 81.7578C25.3033 82.1545 25.9368 81.9944 26.2988 81.4957Z" fill="#E0E0E0"/>
<path d="M136.648 133.158C134.985 135.405 132.698 137.106 130.074 138.046C127.451 138.986 124.609 139.123 121.908 138.439C119.208 137.754 116.769 136.28 114.902 134.203C113.034 132.125 111.821 129.538 111.416 126.767C111.011 123.996 111.432 121.167 112.627 118.637C113.821 116.107 115.734 113.99 118.125 112.553C120.515 111.117 123.276 110.425 126.058 110.566C128.839 110.707 131.517 111.675 133.752 113.346L133.781 113.368C136.77 115.61 138.751 118.955 139.289 122.666C139.827 126.377 138.877 130.151 136.648 133.158Z" fill="#EBEBEB"/>
<path d="M133.965 131.142C132.698 132.853 130.954 134.148 128.955 134.863C126.955 135.578 124.79 135.68 122.733 135.157C120.675 134.635 118.818 133.511 117.396 131.927C115.974 130.343 115.051 128.371 114.744 126.259C114.437 124.148 114.759 121.993 115.67 120.065C116.581 118.138 118.04 116.526 119.862 115.433C121.684 114.339 123.788 113.814 125.907 113.922C128.026 114.031 130.066 114.769 131.768 116.043H131.786C132.916 116.89 133.869 117.952 134.591 119.17C135.312 120.387 135.787 121.736 135.99 123.138C136.192 124.541 136.118 125.969 135.77 127.343C135.423 128.716 134.81 130.007 133.965 131.142Z" fill="#F5F5F5"/>
<path d="M134.165 130.869C134.11 130.829 134.357 130.425 134.708 129.657C135.207 128.584 135.537 127.439 135.685 126.264C135.783 125.46 135.793 124.647 135.714 123.84C135.621 122.916 135.409 122.008 135.084 121.139C134.911 120.67 134.703 120.215 134.462 119.778C134.215 119.319 133.933 118.881 133.618 118.467C133.293 118.038 132.936 117.634 132.55 117.259C132.148 116.877 131.722 116.523 131.272 116.2C130.818 115.884 130.341 115.602 129.846 115.355C128.896 114.89 127.882 114.572 126.838 114.412C126.345 114.336 125.848 114.296 125.35 114.292C123.614 114.271 121.9 114.68 120.358 115.482C119.312 116.026 118.356 116.73 117.524 117.568C116.93 118.165 116.633 118.536 116.582 118.496C116.532 118.456 116.749 118.034 117.285 117.353C118.06 116.39 119.008 115.582 120.079 114.969C120.821 114.54 121.611 114.201 122.432 113.961C123.381 113.685 124.363 113.541 125.35 113.531C125.884 113.523 126.418 113.557 126.946 113.633C127.501 113.711 128.048 113.833 128.583 113.997C130.288 114.51 131.844 115.43 133.119 116.68C133.532 117.089 133.914 117.528 134.262 117.994C134.597 118.444 134.894 118.92 135.153 119.417C135.404 119.886 135.619 120.372 135.797 120.873C136.126 121.813 136.327 122.792 136.395 123.785C136.451 124.644 136.407 125.507 136.261 126.355C136.055 127.577 135.624 128.75 134.99 129.813C134.538 130.552 134.201 130.894 134.165 130.869Z" fill="#E0E0E0"/>
<path d="M122.512 130.567L121.426 132.088L120.072 131.102L121.14 129.62C119.862 128.565 118.885 127.207 118.562 126.082L120.499 124.968C120.883 126.078 121.546 127.069 122.425 127.844L124.061 125.572C122.827 124.116 121.527 122.391 122.914 120.447C123.953 118.991 125.886 118.529 128.195 119.843L129.281 118.333L130.632 119.319L129.564 120.8C130.493 121.558 131.229 122.528 131.71 123.629L129.828 124.804C129.462 123.969 128.933 123.217 128.271 122.591L126.606 124.903C127.851 126.359 129.14 128.051 127.757 129.966C126.726 131.382 124.818 131.855 122.512 130.567ZM125.491 123.578L126.881 121.649C126.049 121.285 125.48 121.477 125.155 121.925C124.829 122.373 125.031 122.955 125.491 123.578ZM125.451 128.546C125.795 128.07 125.589 127.527 125.155 126.897L123.804 128.772C124.586 129.136 125.14 128.98 125.451 128.546Z" fill="#E0E0E0"/>
<path d="M51.5122 35.8684C51.183 37.6779 50.3276 39.3485 49.054 40.6691C47.7805 41.9896 46.1461 42.9008 44.3576 43.2873C42.5691 43.6738 40.7067 43.5184 39.0061 42.8405C37.3054 42.1627 35.8428 40.993 34.8033 39.4794C33.7638 37.9657 33.1941 36.1761 33.1661 34.3369C33.1382 32.4976 33.6533 30.6913 34.6463 29.1464C35.6393 27.6015 37.0656 26.3874 38.7449 25.6577C40.4242 24.9279 42.2809 24.7153 44.0804 25.0467H44.1021C45.2954 25.2679 46.4337 25.7232 47.4519 26.3868C48.4701 27.0504 49.3484 27.9092 50.0365 28.9141C50.7246 29.919 51.2091 31.0504 51.4624 32.2437C51.7156 33.4369 51.7325 34.6686 51.5122 35.8684Z" fill="#EBEBEB"/>
<path d="M49.348 35.4645C49.0968 36.8433 48.4446 38.1162 47.4738 39.1222C46.5031 40.1282 45.2575 40.8222 43.8946 41.1164C42.5316 41.4106 41.1125 41.2918 39.8166 40.775C38.5208 40.2581 37.4066 39.3665 36.6147 38.2129C35.8228 37.0593 35.389 35.6955 35.368 34.2939C35.347 32.8923 35.7398 31.516 36.4968 30.3389C37.2537 29.1618 38.3408 28.2369 39.6205 27.6811C40.9003 27.1253 42.3152 26.9635 43.6864 27.2163C45.5214 27.5568 47.1469 28.6163 48.2052 30.1617C49.2635 31.7071 49.6681 33.6119 49.3299 35.4573L49.348 35.4645Z" fill="#F5F5F5"/>
<path d="M49.3875 35.246C49.3452 34.9568 49.3355 34.6638 49.3585 34.3724C49.342 33.5951 49.2052 32.8251 48.9531 32.0901C48.7799 31.5806 48.5504 31.0922 48.2689 30.6341C47.9472 30.1177 47.5603 29.6454 47.1177 29.2291C46.6311 28.7684 46.0798 28.3821 45.4815 28.0825C45.1659 27.9251 44.8392 27.7913 44.5041 27.6821C44.1581 27.5731 43.8049 27.4892 43.447 27.4309C43.0873 27.3788 42.7245 27.3521 42.361 27.3509C42.0083 27.3545 41.6562 27.3837 41.3076 27.4382C40.9715 27.4916 40.6399 27.5707 40.3157 27.6748C40.004 27.7724 39.7002 27.8941 39.4071 28.0388C38.3752 28.5407 37.4824 29.2908 36.808 30.2228C36.3416 30.8473 35.9752 31.5412 35.722 32.2794C35.6561 32.5631 35.5602 32.8389 35.436 33.1021C35.4001 32.8058 35.4285 32.5053 35.5192 32.2212C35.7003 31.428 36.0255 30.6752 36.4785 30.0008C37.1524 28.9847 38.0783 28.1629 39.1646 27.6166C39.4784 27.4559 39.8039 27.3196 40.1384 27.2089C40.4857 27.0919 40.8415 27.0018 41.2026 26.9395C41.5831 26.874 41.9679 26.8363 42.3538 26.8267C42.7451 26.8255 43.1359 26.8534 43.5231 26.9104C43.9095 26.9721 44.2907 27.0634 44.6634 27.1834C45.0252 27.3029 45.3774 27.4501 45.7168 27.6239C46.0445 27.7906 46.3581 27.9842 46.6544 28.2026C46.94 28.4074 47.2088 28.635 47.458 28.8833C47.9214 29.3383 48.3219 29.8537 48.649 30.4157C48.9283 30.907 49.1518 31.4284 49.3151 31.97C49.5461 32.7495 49.6308 33.5654 49.5648 34.3761C49.5644 34.6751 49.504 34.9709 49.3875 35.246Z" fill="#E0E0E0"/>
<path d="M42.4339 38.4711L42.2275 39.6905L41.1415 39.5048L41.3406 38.3182C40.3891 38.1222 39.5112 37.6619 38.8066 36.9896L39.6248 35.7665C40.1707 36.3089 40.8484 36.698 41.5904 36.8949L41.8981 35.0749C40.7506 34.5763 39.48 33.9429 39.7442 32.3886C39.9397 31.2384 40.9388 30.3939 42.68 30.4922L42.8828 29.2837L43.9688 29.4693L43.766 30.656C44.5314 30.8321 45.2446 31.1876 45.8475 31.6934L45.0801 32.9383C44.622 32.5541 44.0931 32.2647 43.5235 32.0865L43.2086 33.9356C44.3597 34.4234 45.6086 35.0531 45.348 36.5819C45.1525 37.7212 44.1642 38.5584 42.4339 38.4711ZM42.1696 33.4879L42.4339 31.9445C41.8366 31.9773 41.5578 32.2539 41.4963 32.6143C41.4348 32.9747 41.7207 33.2513 42.1696 33.4879ZM43.585 36.4254C43.6502 36.0614 43.3715 35.7847 42.9334 35.5445L42.68 37.0405C43.2411 37.0114 43.5271 36.7639 43.585 36.4217V36.4254Z" fill="#E0E0E0"/>
<path d="M171.089 161.208C171.089 161.263 137.607 161.307 96.3177 161.307C55.028 161.307 21.543 161.252 21.543 161.208C21.543 161.165 55.0135 161.114 96.3177 161.114C137.622 161.114 171.089 161.157 171.089 161.208Z" fill="#263238"/>
<path d="M65.7421 46.614C65.7421 46.614 66.057 30.3032 52.6377 22.0186H95.1691C95.1691 22.0186 107.329 31.9266 107.43 46.614H65.7421Z" fill="#EBEBEB"/>
<path d="M91.9261 27.9662C91.9261 28.0208 87.068 28.0645 81.0661 28.0645C75.0641 28.0645 70.2061 28.0208 70.2061 27.9662C70.2061 27.9116 75.0641 27.8716 81.0661 27.8716C87.068 27.8716 91.9261 27.9153 91.9261 27.9662Z" fill="#455A64"/>
<path d="M96.5665 30.9186C96.5665 30.9696 90.1301 31.0132 82.1914 31.0132C74.2528 31.0132 67.8164 30.9696 67.8164 30.9186C67.8164 30.8676 74.2528 30.8203 82.1914 30.8203C90.1301 30.8203 96.5665 30.864 96.5665 30.9186Z" fill="#263238"/>
<path d="M98.9851 38.3803C98.9851 38.4312 92.5487 38.4749 84.6101 38.4749C76.6714 38.4749 70.2314 38.4312 70.2314 38.3803C70.2314 38.3293 76.6678 38.2856 84.6101 38.2856C92.5524 38.2856 98.9851 38.3293 98.9851 38.3803Z" fill="#263238"/>
<path d="M83.9624 34.3144C83.7683 34.344 83.5722 34.3574 83.376 34.3544L81.7687 34.3835C80.4112 34.4017 78.5396 34.4126 76.469 34.4126C74.3984 34.4126 72.5268 34.4126 71.1693 34.3835L69.562 34.3544C69.3658 34.3574 69.1696 34.344 68.9756 34.3144C69.1697 34.2859 69.3659 34.2738 69.562 34.278L71.1693 34.2488C72.5268 34.2488 74.3984 34.2197 76.469 34.2197C78.5396 34.2197 80.4112 34.2197 81.7687 34.2488L83.376 34.278C83.5721 34.2738 83.7682 34.2859 83.9624 34.3144Z" fill="#263238"/>
<path d="M96.567 34.3144C96.4242 34.3441 96.2785 34.3575 96.1326 34.3544L94.9453 34.3835C93.9462 34.4017 92.5597 34.4126 91.0321 34.4126C89.5044 34.4126 88.118 34.4126 87.1188 34.3835L85.9315 34.3544C85.7856 34.3575 85.6399 34.3441 85.4971 34.3144C85.6403 34.2878 85.7858 34.2756 85.9315 34.278L87.1188 34.2488C88.118 34.2488 89.5044 34.2197 91.0321 34.2197C92.5597 34.2197 93.9281 34.2197 94.9453 34.2488L96.1326 34.278C96.2783 34.2738 96.424 34.286 96.567 34.3144Z" fill="#263238"/>
<path d="M86.6301 42.3808C86.4348 42.4105 86.2375 42.4239 86.04 42.4208L84.4363 42.4499C83.0789 42.4499 81.2037 42.4791 79.1367 42.4791C77.0697 42.4791 75.1909 42.4791 73.8334 42.4499L72.2297 42.4208C72.0323 42.4239 71.8349 42.4105 71.6396 42.3808C71.835 42.3522 72.0324 42.3401 72.2297 42.3444L73.8334 42.3153C75.1909 42.3153 77.066 42.2861 79.1367 42.2861C81.2073 42.2861 83.0789 42.2861 84.4363 42.3153L86.04 42.3444C86.2374 42.3401 86.4347 42.3522 86.6301 42.3808Z" fill="#263238"/>
<path d="M99.2347 42.3808C99.0919 42.4105 98.9461 42.4239 98.8003 42.4208L97.613 42.4499C96.6102 42.4499 95.2274 42.4791 93.6997 42.4791C92.1721 42.4791 90.8037 42.4791 89.7829 42.4499L88.5955 42.4208C88.4497 42.4239 88.304 42.4105 88.1611 42.3808C88.3044 42.3542 88.4499 42.342 88.5955 42.3444L89.7829 42.3153C90.7856 42.3153 92.1685 42.2861 93.6997 42.2861C95.231 42.2861 96.5957 42.2861 97.613 42.3153L98.8003 42.3444C98.946 42.342 99.0915 42.3542 99.2347 42.3808Z" fill="#263238"/>
<path d="M57.0473 46.1519H119.796L123.214 155.461C123.237 156.194 123.116 156.925 122.858 157.612C122.6 158.298 122.211 158.927 121.711 159.461C121.211 159.996 120.612 160.427 119.947 160.728C119.282 161.03 118.564 161.197 117.834 161.22H52.4101C51.4883 161.22 50.6017 160.863 49.9339 160.224C49.2661 159.586 48.8682 158.713 48.8227 157.787L45.8072 96.0635C45.8072 96.0635 27.1968 89.2713 27.5118 68.5488C27.5118 68.5488 28.3588 46.1519 57.0473 46.1519Z" fill="#263238"/>
<path d="M60.4535 161.056L57.7168 46.1519H122.073L123.235 156.222C123.275 157.503 122.808 158.747 121.935 159.682C121.063 160.616 119.857 161.164 118.583 161.205H118.417L60.4535 161.056Z" fill="#455A64"/>
<path d="M63.0352 52.8091L64.3384 106.31H116.752L116.046 52.8091H63.0352Z" fill="#263238"/>
<path d="M68.8345 59.7328C71.3939 60.428 74.6265 60.1332 77.2546 60.0058C77.4467 60.0058 77.6308 59.9291 77.7666 59.7925C77.9024 59.656 77.9786 59.4709 77.9786 59.2778C77.9786 59.0847 77.9024 58.8995 77.7666 58.763C77.6308 58.6265 77.4467 58.5498 77.2546 58.5498C74.6265 58.4187 71.3902 58.1239 68.8345 58.8228C68.7122 58.8591 68.6091 58.9427 68.548 59.0553C68.487 59.1679 68.4728 59.3003 68.5087 59.4234C68.532 59.5007 68.574 59.5711 68.6308 59.6282C68.6876 59.6853 68.7576 59.7275 68.8345 59.751V59.7328Z" fill="#E0E0E0"/>
<path d="M81.728 59.6268C84.2403 60.2711 87.4874 60.1546 90.054 59.9071C90.246 59.9071 90.4302 59.8304 90.566 59.6939C90.7017 59.5573 90.778 59.3722 90.778 59.1791C90.778 58.986 90.7017 58.8008 90.566 58.6643C90.4302 58.5278 90.246 58.4511 90.054 58.4511C87.4874 58.1999 84.2403 58.0871 81.728 58.7314C81.6693 58.7493 81.6146 58.7786 81.5672 58.8178C81.5198 58.8569 81.4805 58.9051 81.4516 58.9595C81.4227 59.0139 81.4047 59.0736 81.3987 59.135C81.3927 59.1964 81.3988 59.2584 81.4167 59.3174C81.4387 59.3915 81.4787 59.4588 81.533 59.5135C81.5874 59.5681 81.6544 59.6083 81.728 59.6305V59.6268Z" fill="#E0E0E0"/>
<path d="M94.4494 59.3977C95.7128 59.7835 97.0775 59.718 98.388 59.7398C99.7261 59.8199 101.068 59.7944 102.403 59.6634C103.058 59.5687 103.058 58.4221 102.403 58.3311C101.069 58.1971 99.7262 58.1703 98.388 58.2511C97.0775 58.2729 95.7128 58.2074 94.4494 58.5932C94.3627 58.6184 94.2864 58.6712 94.2321 58.7438C94.1778 58.8163 94.1484 58.9046 94.1484 58.9954C94.1484 59.0862 94.1778 59.1746 94.2321 59.2471C94.2864 59.3197 94.3627 59.3725 94.4494 59.3977Z" fill="#E0E0E0"/>
<path d="M106.235 59.4706C107.189 59.6101 108.15 59.6843 109.113 59.6926C110.069 59.7145 111.101 59.871 112.027 59.6053C112.158 59.5657 112.272 59.485 112.353 59.3752C112.434 59.2654 112.477 59.1323 112.477 58.9956C112.477 58.8588 112.434 58.7257 112.353 58.6159C112.272 58.5061 112.158 58.4255 112.027 58.3859C111.101 58.1202 110.069 58.2767 109.113 58.2985C108.15 58.3063 107.188 58.3817 106.235 58.5242C106.135 58.5553 106.047 58.6181 105.984 58.7032C105.921 58.7884 105.888 58.8915 105.888 58.9974C105.888 59.1033 105.921 59.2064 105.984 59.2916C106.047 59.3767 106.135 59.4395 106.235 59.4706Z" fill="#E0E0E0"/>
<path d="M79.546 112.673H64.3564V123.589H79.546V112.673Z" fill="#E9EAED"/>
<path d="M67.104 112.673H64.3564V123.589H67.104V112.673Z" fill="#263238"/>
<path d="M98.1456 112.673H82.9561V123.589H98.1456V112.673Z" fill="#E9EAED"/>
<path d="M85.5474 112.673H82.7998V123.589H85.5474V112.673Z" fill="#263238"/>
<path d="M116.748 112.673H101.559V123.589H116.748V112.673Z" fill="#E9EAED"/>
<path d="M103.872 112.673H101.124V123.589H103.872V112.673Z" fill="#263238"/>
<path d="M116.748 127.196H101.559V138.113H116.748V127.196Z" fill="#E9EAED"/>
<path d="M104.389 127.196H101.559V138.113H104.389V127.196Z" fill="#263238"/>
<path d="M79.546 127.196H64.3564V138.113H79.546V127.196Z" fill="#E9EAED"/>
<path d="M67.104 127.174H64.3564V138.091H67.104V127.174Z" fill="#263238"/>
<path d="M79.546 141.574H64.3564V152.491H79.546V141.574Z" fill="#E9EAED"/>
<path opacity="0.3" d="M79.546 141.574H64.3564V152.491H79.546V141.574Z" fill="black"/>
<path d="M67.104 141.574H64.3564V152.491H67.104V141.574Z" fill="#263238"/>
<path d="M98.0616 127.196H82.8721V138.113H98.0616V127.196Z" fill="#E9EAED"/>
<path d="M85.6197 127.174H82.8721V138.091H85.6197V127.174Z" fill="#263238"/>
<path d="M98.1456 141.574H82.9561V152.491H98.1456V141.574Z" fill="#E9EAED"/>
<path opacity="0.3" d="M98.1456 141.574H82.9561V152.491H98.1456V141.574Z" fill="black"/>
<path d="M85.7036 141.574H82.9561V152.491H85.7036V141.574Z" fill="#263238"/>
<path d="M116.748 141.574H101.559V152.491H116.748V141.574Z" fill="#E0E0E0"/>
<path d="M104.306 141.574H101.559V152.491H104.306V141.574Z" fill="#263238"/>
<path d="M55.4397 161.223C55.1791 161.223 54.227 135.474 53.3112 103.711C52.3953 71.9486 51.8632 46.1665 52.1238 46.1592C52.3845 46.1519 53.3365 71.9013 54.2524 103.671C55.1682 135.441 55.7004 161.216 55.4397 161.223Z" fill="#455A64"/>
<path d="M116.672 100.217V102.179L122.681 103.682L122.648 100.657L116.672 100.217Z" fill="#455A64"/>
<path d="M43.7254 96.2818C43.3965 96.1507 43.0434 96.0924 42.6901 96.1107C42.3344 96.1442 41.9856 96.23 41.6547 96.3655L37.5424 97.7487L29.506 100.464L14.302 105.56C13.7021 105.732 13.1865 106.121 12.854 106.652C12.5245 107.172 12.4017 107.797 12.5101 108.403C12.5766 108.704 12.6637 108.999 12.7708 109.288L13.064 110.168C13.2595 110.754 13.4513 111.333 13.6468 111.912C14.4094 114.215 15.1527 116.451 15.8767 118.62C17.3247 122.952 18.6569 126.992 19.8841 130.665C22.3239 138.029 24.3041 143.991 25.6761 148.112C26.3566 150.172 26.8815 151.77 27.2435 152.844C27.4173 153.386 27.5548 153.797 27.6453 154.078C27.7358 154.358 27.7757 154.5 27.7757 154.5C27.8241 154.639 27.886 154.773 27.9603 154.9C28.169 155.28 28.4705 155.599 28.8363 155.829C29.1327 156.013 29.4638 156.134 29.8088 156.184C30.1539 156.235 30.5056 156.213 30.8418 156.12C31.6309 155.865 32.5359 155.545 33.5604 155.202L48.6775 150.077L32.5541 99.445L40.6194 96.7259L55.1827 141.596L54.5455 125.988C51.6133 117.205 48.4459 107.708 45.1336 97.796C45.0212 97.4565 44.8372 97.1454 44.5942 96.884C44.3511 96.6227 44.0548 96.4172 43.7254 96.2818ZM25.1403 119.348L21.542 107.897L22.762 107.508L26.3602 118.959L25.1403 119.348ZM27.6381 113.04L25.5385 106.365L26.7584 105.979L28.858 112.651L27.6381 113.04ZM30.4545 121.507L28.3585 114.831L29.5784 114.445L31.6744 121.118L30.4545 121.507ZM31.1784 123.298L32.3984 122.908L38.1904 141.392L36.9704 141.778L31.1784 123.298ZM38.7804 147.482L37.5388 143.533L38.7587 143.143L40.0004 147.096L38.7804 147.482ZM43.8014 145.385L42.5814 145.771L34.9179 121.383L36.1379 120.997L43.8014 145.385ZM35.5116 118.664L34.2917 119.05L29.8463 104.916L31.0662 104.526L35.5116 118.664Z" fill="#E9EAED"/>
<path opacity="0.3" d="M43.7254 96.2818C43.3965 96.1507 43.0434 96.0924 42.6901 96.1107C42.3344 96.1442 41.9856 96.23 41.6547 96.3655L37.5424 97.7487L29.506 100.464L14.302 105.56C13.7021 105.732 13.1865 106.121 12.854 106.652C12.5245 107.172 12.4017 107.797 12.5101 108.403C12.5766 108.704 12.6637 108.999 12.7708 109.288L13.064 110.168C13.2595 110.754 13.4513 111.333 13.6468 111.912C14.4094 114.215 15.1527 116.451 15.8767 118.62C17.3247 122.952 18.6569 126.992 19.8841 130.665C22.3239 138.029 24.3041 143.991 25.6761 148.112C26.3566 150.172 26.8815 151.77 27.2435 152.844C27.4173 153.386 27.5548 153.797 27.6453 154.078C27.7358 154.358 27.7757 154.5 27.7757 154.5C27.8241 154.639 27.886 154.773 27.9603 154.9C28.169 155.28 28.4705 155.599 28.8363 155.829C29.1327 156.013 29.4638 156.134 29.8088 156.184C30.1539 156.235 30.5056 156.213 30.8418 156.12C31.6309 155.865 32.5359 155.545 33.5604 155.202L48.6775 150.077L32.5541 99.445L40.6194 96.7259L55.1827 141.596L54.5455 125.988C51.6133 117.205 48.4459 107.708 45.1336 97.796C45.0212 97.4565 44.8372 97.1454 44.5942 96.884C44.3511 96.6227 44.0548 96.4172 43.7254 96.2818ZM25.1403 119.348L21.542 107.897L22.762 107.508L26.3602 118.959L25.1403 119.348ZM27.6381 113.04L25.5385 106.365L26.7584 105.979L28.858 112.651L27.6381 113.04ZM30.4545 121.507L28.3585 114.831L29.5784 114.445L31.6744 121.118L30.4545 121.507ZM31.1784 123.298L32.3984 122.908L38.1904 141.392L36.9704 141.778L31.1784 123.298ZM38.7804 147.482L37.5388 143.533L38.7587 143.143L40.0004 147.096L38.7804 147.482ZM43.8014 145.385L42.5814 145.771L34.9179 121.383L36.1379 120.997L43.8014 145.385ZM35.5116 118.664L34.2917 119.05L29.8463 104.916L31.0662 104.526L35.5116 118.664Z" fill="black"/>
<path d="M48.6885 150.147L48.6704 150.088L33.5533 155.213C32.5289 155.556 31.6239 155.876 30.8347 156.131C30.4985 156.223 30.1468 156.246 29.8017 156.195C29.4567 156.145 29.1256 156.024 28.8292 155.839C28.4634 155.61 28.1619 155.291 27.9532 154.911C27.812 154.656 27.7794 154.507 27.7686 154.511L27.8048 154.616C27.9945 155.134 28.3481 155.574 28.8111 155.869C29.1096 156.061 29.4449 156.188 29.7953 156.242C30.1457 156.296 30.5035 156.275 30.8456 156.182C31.642 155.931 32.547 155.617 33.575 155.275L50.9257 149.451L55.0416 148.068L55.4398 147.864L48.6885 150.147Z" fill="#263238"/>
<path d="M27.6384 154.085C27.5479 153.805 27.4104 153.393 27.2366 152.851C26.8746 151.759 26.3497 150.165 25.6692 148.119C24.3044 143.999 22.3243 138.036 19.8772 130.673C18.65 126.993 17.3106 122.959 15.8698 118.628C15.1458 116.463 14.4025 114.227 13.6399 111.919C13.4444 111.341 13.2526 110.762 13.0571 110.176L12.7639 109.295C12.6568 109.006 12.5697 108.711 12.5032 108.41C12.4002 107.802 12.5295 107.176 12.8652 106.66C13.1977 106.129 13.7133 105.74 14.3132 105.568L29.5172 100.472L37.5536 97.7634L41.6659 96.3802C41.9968 96.2447 42.3456 96.1588 42.7013 96.1254C43.2361 96.0968 43.7655 96.2456 44.2081 96.5487C44.6508 96.8518 44.9824 97.2926 45.152 97.8034C48.4571 107.715 51.6246 117.212 54.564 125.995L54.5387 125.406C51.6644 116.771 48.5584 107.46 45.3258 97.7415C45.2039 97.378 45.0053 97.0453 44.7435 96.7664C44.4816 96.4874 44.1628 96.2687 43.809 96.1254C43.4563 95.9833 43.0769 95.9212 42.6976 95.9434C42.3249 95.9775 41.9591 96.0657 41.6116 96.2054L37.5029 97.5923L29.4665 100.3L14.2625 105.426C13.6265 105.601 13.0774 106.007 12.7204 106.565C12.3724 107.12 12.2433 107.786 12.3584 108.432C12.4273 108.74 12.5168 109.043 12.6263 109.339C12.724 109.633 12.8254 109.925 12.9231 110.219C13.115 110.802 13.3105 111.384 13.5023 111.959C14.2746 114.265 15.0215 116.501 15.7431 118.668L19.7649 130.698L25.604 148.126C26.299 150.179 26.8348 151.766 27.2004 152.858C27.385 153.397 27.5262 153.808 27.6203 154.089L27.7688 154.507C27.7688 154.507 27.7289 154.365 27.6384 154.085Z" fill="#263238"/>
<path d="M36.1257 121.003L34.9072 121.391L42.5723 145.776L43.7908 145.389L36.1257 121.003Z" fill="#FAFAFA"/>
<path d="M31.0651 104.526L29.8467 104.914L34.2924 119.057L35.5108 118.67L31.0651 104.526Z" fill="#FAFAFA"/>
<path d="M26.7595 105.977L25.541 106.364L27.6389 113.038L28.8574 112.651L26.7595 105.977Z" fill="#FAFAFA"/>
<path d="M22.5354 107.164L21.3203 107.55L24.9054 118.962L26.1205 118.576L22.5354 107.164Z" fill="#FAFAFA"/>
<path d="M38.7731 143.14L37.5547 143.527L38.7962 147.477L40.0147 147.09L38.7731 143.14Z" fill="#FAFAFA"/>
<path d="M29.5759 114.445L28.3574 114.832L30.4553 121.506L31.6738 121.119L29.5759 114.445Z" fill="#FAFAFA"/>
<path d="M32.3845 122.918L31.166 123.306L36.9754 141.787L38.1939 141.4L32.3845 122.918Z" fill="#FAFAFA"/>
<path d="M32.5547 99.4452L48.6709 150.088L48.689 150.147L55.4403 147.872L55.1833 141.589L40.62 96.7261L32.5547 99.4452Z" fill="#FAFAFA"/>
<path d="M48.5986 153.171L55.1436 150.856L55.0024 147.97L48.6891 150.146L48.5986 153.171Z" fill="#263238"/>
<path d="M131.12 69.3824C131.12 69.4334 130.917 69.4661 130.664 69.4552C130.411 69.4443 130.215 69.3933 130.219 69.3387C130.222 69.2841 130.425 69.255 130.675 69.2659C130.925 69.2769 131.124 69.3278 131.12 69.3824Z" fill="#263238"/>
<path d="M134.664 69.2292C134.386 69.3467 134.086 69.4026 133.785 69.393C133.488 69.4483 133.184 69.4396 132.891 69.3675C133.466 69.1964 134.07 69.1493 134.664 69.2292Z" fill="#263238"/>
<path d="M138.176 68.5996C137.915 68.7521 137.625 68.8476 137.325 68.8799C137.038 68.9713 136.735 69.0035 136.435 68.9745C136.983 68.7305 137.576 68.6065 138.176 68.6105V68.5996Z" fill="#263238"/>
<path d="M141.56 67.5112C141.322 67.6961 141.049 67.8288 140.756 67.9007C140.485 68.0321 140.189 68.1041 139.888 68.1118C140.125 67.9255 140.399 67.7927 140.691 67.7224C140.964 67.5943 141.259 67.5225 141.56 67.5112Z" fill="#263238"/>
<path d="M144.772 65.9717C144.308 66.3537 143.771 66.635 143.193 66.798C143.406 66.583 143.66 66.4134 143.939 66.2993C144.191 66.1332 144.475 66.0216 144.772 65.9717Z" fill="#263238"/>
<path d="M147.729 63.9875C147.761 64.0276 147.465 64.2969 147.063 64.5881C146.838 64.7897 146.574 64.9422 146.288 65.0358C146.259 64.9922 146.556 64.7228 146.954 64.4316C147.352 64.1404 147.696 63.9438 147.729 63.9875Z" fill="#263238"/>
<path d="M150.343 61.5634C150.383 61.5998 150.129 61.9274 149.782 62.2623C149.434 62.5972 149.119 62.8665 149.087 62.8265C149.054 62.7864 149.3 62.4625 149.648 62.1276C149.996 61.7927 150.303 61.5161 150.343 61.5634Z" fill="#263238"/>
<path d="M152.504 58.728C152.551 58.7535 152.355 59.092 152.073 59.5142C151.79 59.9365 151.526 60.2422 151.486 60.1949C151.576 59.9053 151.722 59.6367 151.917 59.405C152.199 59.0046 152.46 58.6989 152.504 58.728Z" fill="#263238"/>
<path d="M154.096 55.5322C153.973 56.1237 153.726 56.6821 153.372 57.1702C153.487 56.5762 153.735 56.0162 154.096 55.5322Z" fill="#263238"/>
<path d="M155.038 52.0884C155.065 52.3897 155.029 52.6934 154.933 52.9802C154.898 53.2816 154.799 53.5719 154.644 53.8319C154.65 53.2292 154.785 52.6348 155.038 52.0884Z" fill="#263238"/>
<path d="M155.4 48.5322C155.492 49.1279 155.453 49.7365 155.288 50.3158C155.214 50.0231 155.202 49.7182 155.252 49.4204C155.241 49.1173 155.291 48.8152 155.4 48.5322Z" fill="#263238"/>
<path d="M155.222 44.9653C155.402 45.5403 155.455 46.1476 155.378 46.7453C155.262 46.4664 155.204 46.1666 155.208 45.8644C155.153 45.5668 155.158 45.261 155.222 44.9653Z" fill="#263238"/>
<path d="M154.502 41.4634C154.66 41.7207 154.765 42.0082 154.809 42.3079C154.911 42.5933 154.953 42.897 154.932 43.1997C154.773 42.9423 154.669 42.6549 154.625 42.3552C154.524 42.0692 154.483 41.7659 154.502 41.4634Z" fill="#263238"/>
<path d="M153.213 38.1328C153.413 38.3586 153.565 38.6239 153.658 38.9118C153.809 39.1751 153.902 39.4681 153.93 39.7708C153.731 39.5425 153.579 39.2764 153.484 38.9882C153.337 38.7248 153.244 38.4336 153.213 38.1328Z" fill="#263238"/>
<path d="M151.316 35.1079C151.356 35.0751 151.617 35.3773 151.903 35.7849C152.099 36.0142 152.246 36.2819 152.334 36.5712C152.29 36.6003 152.026 36.2945 151.747 35.8941C151.551 35.6649 151.404 35.3971 151.316 35.1079Z" fill="#263238"/>
<path d="M148.851 32.5452C148.884 32.5052 149.213 32.7236 149.575 33.0621C149.937 33.4006 150.183 33.721 150.147 33.7574C150.111 33.7938 149.807 33.5353 149.449 33.2004C149.09 32.8656 148.819 32.5853 148.851 32.5452Z" fill="#263238"/>
<path d="M146.639 31.0092C146.665 30.9655 146.86 31.0347 147.074 31.1657C147.287 31.2967 147.436 31.4387 147.41 31.4824C147.385 31.526 147.186 31.4569 146.976 31.3295C146.766 31.2021 146.61 31.0565 146.639 31.0092Z" fill="#263238"/>
<path d="M136.822 40.0001C143.747 40.0001 149.362 34.3549 149.362 27.3912C149.362 20.4275 143.747 14.7822 136.822 14.7822C129.896 14.7822 124.282 20.4275 124.282 27.3912C124.282 34.3549 129.896 40.0001 136.822 40.0001Z" fill="#E9EAED"/>
<path d="M129.404 28.312L131.345 26.3609L135.088 29.7061L142.436 22.5972L144.239 24.5482L134.813 33.4698L129.404 28.312Z" fill="#FAFAFA"/>
<path d="M144.138 82.3657L142.292 75.5625C142.292 75.5625 133.604 77.8375 133.05 77.1314C129.897 73.2111 128.304 67.8239 127.808 65.8911C127.877 65.6144 127.971 65.2905 128.097 64.9119C128.208 64.5879 128.372 64.2851 128.583 64.0165C128.832 63.6743 129.127 63.3681 129.459 63.1065C129.549 63.0552 129.615 62.9701 129.643 62.8698C129.671 62.7695 129.658 62.6621 129.607 62.5714C129.581 62.5207 129.544 62.4768 129.498 62.4433C129.452 62.4097 129.399 62.3875 129.343 62.3785C128.981 62.353 128.069 62.9063 127.384 63.9582C126.7 65.0102 126.494 63.0446 126.407 62.3311C126.32 61.6177 125.94 59.4191 125.701 59.2626C125.339 59.0479 125.053 59.3864 125.158 60.0998C125.263 60.8133 125.426 62.9754 125.049 63.0118C124.673 63.0482 124.275 59.3718 124.275 59.3718C124.275 59.3718 124.315 58.5783 123.877 58.5965C123.084 58.6293 123.797 62.4804 123.877 62.848C123.931 63.0992 123.515 63.1465 123.478 62.8699C123.442 62.5932 123.16 59.2299 122.356 59.2299C121.737 59.2517 122.91 62.4039 122.581 63.1356C122.251 63.8672 121.933 60.6531 121.343 60.6968C121.125 60.6968 120.962 60.755 121.411 62.575C121.789 63.8724 122.236 65.1482 122.751 66.397H122.718C122.718 66.397 125.94 85.4051 134.302 84.3422C143.204 83.2357 144.138 82.3657 144.138 82.3657Z" fill="#FFBE9D"/>
<path d="M131.522 101.225L78.4633 97.3409C77.7441 97.2904 77.0739 96.9559 76.5992 96.4103C76.1244 95.8647 75.8836 95.1524 75.9293 94.4289L78.304 61.6507C78.3542 60.9275 78.6869 60.2536 79.2295 59.7762C79.7721 59.2989 80.4805 59.0567 81.2 59.1027L134.302 62.972C135.025 63.0233 135.698 63.3612 136.173 63.9114C136.648 64.4615 136.887 65.179 136.836 65.9059L134.461 98.6841C134.436 99.0438 134.341 99.3951 134.181 99.7179C134.021 100.041 133.8 100.329 133.529 100.565C133.259 100.802 132.944 100.983 132.604 101.097C132.264 101.211 131.905 101.257 131.547 101.232L131.522 101.225Z" fill="#E9EAED"/>
<path d="M131.522 101.225C131.685 101.225 131.844 101.225 132.007 101.225C132.482 101.174 132.935 100.995 133.318 100.708C133.627 100.477 133.884 100.183 134.071 99.8447C134.258 99.5064 134.372 99.1319 134.404 98.7461C134.469 97.8215 134.545 96.755 134.628 95.5575L136.076 75.2572C136.228 73.1144 136.389 70.871 136.558 68.5268C136.601 67.9444 136.641 67.3511 136.684 66.7578C136.786 66.1698 136.771 65.5674 136.641 64.9851C136.477 64.4051 136.119 63.8998 135.627 63.5546C135.381 63.379 135.106 63.2462 134.816 63.1615C134.517 63.0924 134.211 63.0522 133.904 63.0413L117.9 61.8802L81.2331 59.1829C80.8406 59.1541 80.4466 59.214 80.0802 59.3582C79.7137 59.5025 79.3841 59.7274 79.1154 60.0165C78.8468 60.3039 78.6464 60.6486 78.5289 61.0248C78.4273 61.4097 78.3738 61.8059 78.3696 62.2041C78.249 63.8203 78.1283 65.4243 78.0076 67.0162C77.7663 70.2024 77.5395 73.3377 77.3271 76.422C76.8782 82.5881 76.4438 88.5395 76.0311 94.2034C75.9364 94.8912 76.1074 95.5894 76.509 96.1544C76.9043 96.7108 77.4985 97.0917 78.1669 97.2173C79.5172 97.352 80.8855 97.4248 82.2177 97.534L89.9826 98.1055L103.927 99.1392L124.112 100.646L129.596 101.068L131.044 101.192L131.529 101.236C131.529 101.236 131.366 101.236 131.044 101.21L129.596 101.116L124.108 100.734L103.916 99.2775L89.9826 98.2802L82.2141 97.716C80.8783 97.6104 79.5353 97.5413 78.1452 97.4029C77.4335 97.2704 76.8004 96.866 76.3786 96.2745C75.9558 95.6759 75.7735 94.9387 75.8682 94.2107C76.2773 88.5432 76.7081 82.5954 77.1533 76.4256C77.3754 73.3413 77.601 70.2061 77.8303 67.0199C77.9461 65.4255 78.0668 63.8215 78.1923 62.2078C78.1989 61.7949 78.2548 61.3843 78.3588 60.9847C78.5508 60.3765 78.9409 59.851 79.4664 59.4931C79.9918 59.1351 80.6218 58.9656 81.2548 59.0119L117.922 61.7055L133.922 62.8848C134.239 62.8961 134.555 62.9387 134.863 63.0122C135.322 63.1452 135.74 63.3914 136.079 63.7284C136.419 64.0653 136.669 64.4823 136.807 64.9414C136.895 65.2413 136.93 65.554 136.912 65.866C136.912 66.1717 136.872 66.4666 136.851 66.7687C136.807 67.362 136.764 67.9553 136.72 68.5377C136.549 70.8795 136.385 73.1217 136.228 75.2645C135.595 83.833 135.081 90.7672 134.726 95.5648C134.635 96.7623 134.556 97.8216 134.487 98.7498C134.451 99.1431 134.332 99.5241 134.137 99.867C133.942 100.21 133.676 100.507 133.357 100.737C132.969 101.025 132.509 101.2 132.029 101.243C131.908 101.254 131.787 101.254 131.667 101.243L131.522 101.225Z" fill="#263238"/>
<path d="M81.9321 83.72L81.6968 86.996L81.3637 86.9706L81.5773 84.004L80.8135 83.9494L80.8352 83.6509L81.9321 83.72Z" fill="#FAFAFA"/>
<path d="M85.0699 86.9416L85.0446 87.2401L82.7676 87.0727V86.8361L84.2156 85.6058C84.6065 85.2672 84.6934 85.0561 84.7079 84.8304C84.7369 84.4664 84.4871 84.2007 83.9839 84.1643C83.8193 84.1405 83.6514 84.155 83.4932 84.2068C83.3351 84.2585 83.1908 84.3461 83.0717 84.4628L82.8508 84.2408C83.0075 84.0927 83.1951 83.9815 83.3998 83.9154C83.6046 83.8493 83.8214 83.8299 84.0346 83.8586C84.6934 83.9059 85.088 84.2735 85.0482 84.8195C85.0246 85.0181 84.9579 85.2091 84.8528 85.379C84.7477 85.5488 84.6068 85.6933 84.44 85.8023L83.2599 86.8106L85.0699 86.9416Z" fill="#FAFAFA"/>
<path d="M88.5166 86.6321L87.8686 86.5848L87.8034 87.4438L87.4704 87.4184L87.5319 86.5593L85.7002 86.4283V86.1844L87.579 84.146L87.941 84.1715L86.131 86.1589L87.5428 86.2645L87.5971 85.5074L87.9229 85.5292L87.8686 86.2863L88.5166 86.3336V86.6321Z" fill="#FAFAFA"/>
<path d="M93.4941 86.9959L92.8461 86.9486L92.7809 87.8076L92.4479 87.7821L92.5095 86.9267L90.6777 86.792V86.5482L92.5565 84.5098L92.9185 84.5389L91.1085 86.5227L92.5203 86.6282L92.5746 85.8711L92.9004 85.8966L92.8425 86.6501L93.4941 86.6974V86.9959Z" fill="#FAFAFA"/>
<path d="M96.339 87.1013C96.2992 87.6583 95.8829 88.0623 95.0901 88.0041C94.6615 87.9891 94.2554 87.8078 93.957 87.4981L94.138 87.247C94.3905 87.5188 94.7387 87.6808 95.1082 87.6983C95.6584 87.7383 95.9698 87.4872 95.9987 87.0904C96.0277 86.6937 95.7888 86.3916 94.9634 86.3297L94.272 86.2787L94.558 84.6553L96.3354 84.7863L96.3137 85.0848L94.8295 84.9756L94.6412 86.0057L95.0611 86.0385C96.0385 86.1076 96.3824 86.5226 96.339 87.1013Z" fill="#FAFAFA"/>
<path d="M99.5505 87.3237C99.5284 87.5917 99.4018 87.8399 99.1984 88.0145C98.9949 88.189 98.7312 88.2757 98.4645 88.2555H98.3777C97.5125 88.1937 97.0889 87.5567 97.165 86.5265C97.2446 85.4163 97.889 84.8813 98.7722 84.9468C99.0407 84.9542 99.3022 85.0347 99.5288 85.1797L99.3732 85.4418C99.1904 85.3163 98.9754 85.2467 98.7541 85.2416C98.0518 85.1907 97.5704 85.6056 97.5052 86.4938V86.7631C97.6112 86.5896 97.7653 86.4509 97.9486 86.3643C98.1319 86.2776 98.3364 86.2467 98.5369 86.2754C98.7947 86.2665 99.0457 86.36 99.2354 86.5358C99.4251 86.7116 99.5383 86.9554 99.5505 87.2145C99.5542 87.2508 99.5542 87.2874 99.5505 87.3237ZM99.2211 87.3237C99.2537 86.8942 98.9569 86.5957 98.4573 86.5593C98.3601 86.5408 98.2602 86.5418 98.1633 86.5622C98.0665 86.5826 97.9746 86.622 97.8929 86.6781C97.8112 86.7342 97.7413 86.806 97.6872 86.8893C97.6331 86.9726 97.5959 87.0658 97.5776 87.1635C97.5776 87.1635 97.5776 87.1963 97.5776 87.2109C97.5487 87.5749 97.8238 87.9389 98.3849 87.9753C98.4788 87.9914 98.575 87.9888 98.6678 87.9675C98.7607 87.9463 98.8485 87.9068 98.9262 87.8513C99.0039 87.7959 99.07 87.7255 99.1206 87.6444C99.1712 87.5632 99.2053 87.4728 99.2211 87.3783C99.2229 87.3553 99.2229 87.3322 99.2211 87.3091V87.3237Z" fill="#FAFAFA"/>
<path d="M103.992 87.6874C103.952 88.2334 103.529 88.6229 102.743 88.5647C102.313 88.5499 101.906 88.3686 101.606 88.0587L101.787 87.8075C102.044 88.0786 102.394 88.2402 102.765 88.2589C103.304 88.2953 103.619 88.066 103.648 87.6619C103.677 87.2579 103.42 86.9922 102.819 86.9339L102.587 86.9157L102.606 86.6682L103.587 85.6017L101.925 85.4816L101.947 85.1831L104.035 85.336L104.017 85.5726L103.015 86.6646C103.71 86.7701 104.028 87.1633 103.992 87.6874Z" fill="#FAFAFA"/>
<path d="M107.25 87.888C107.229 88.1573 107.104 88.4074 106.9 88.5835C106.696 88.7596 106.432 88.8472 106.164 88.8272C106.131 88.8307 106.099 88.8307 106.066 88.8272C105.205 88.7653 104.777 88.1283 104.853 87.0982C104.933 86.0062 105.577 85.4529 106.461 85.5184C106.729 85.5258 106.991 85.6063 107.217 85.7514L107.062 86.0134C106.88 85.8863 106.664 85.8166 106.443 85.8132C105.74 85.7623 105.259 86.1772 105.194 87.0654V87.3348C105.3 87.1612 105.454 87.0225 105.637 86.9359C105.82 86.8492 106.025 86.8183 106.225 86.847C106.486 86.8361 106.74 86.9297 106.932 87.1071C107.124 87.2846 107.239 87.5314 107.25 87.7934C107.253 87.8249 107.253 87.8566 107.25 87.888ZM106.92 87.888C106.953 87.4585 106.656 87.16 106.157 87.1236C106.059 87.1052 105.959 87.1062 105.863 87.1266C105.766 87.147 105.674 87.1863 105.592 87.2424C105.511 87.2986 105.441 87.3703 105.387 87.4536C105.332 87.5369 105.295 87.6301 105.277 87.7279C105.277 87.7279 105.277 87.7606 105.277 87.7752C105.248 88.1392 105.523 88.5032 106.084 88.5396C106.178 88.5558 106.274 88.5531 106.367 88.5319C106.46 88.5106 106.548 88.4711 106.626 88.4157C106.703 88.3602 106.769 88.2899 106.82 88.2087C106.87 88.1275 106.905 88.0371 106.92 87.9426C106.922 87.9196 106.922 87.8965 106.92 87.8735V87.888Z" fill="#FAFAFA"/>
<path d="M110.411 85.8167L110.393 86.0533L108.814 88.9653L108.452 88.9398L110.005 86.0715L108.336 85.9478L108.289 86.5593L107.96 86.5374L108.029 85.6274L110.411 85.8167Z" fill="#FAFAFA"/>
<path d="M115.047 86.1551L115.029 86.3953L113.451 89.3073L113.089 89.2819L114.638 86.4135L112.97 86.2898L112.926 86.9013L112.597 86.8758L112.662 85.9658L115.047 86.1551Z" fill="#FAFAFA"/>
<path d="M118.07 88.7469C118.03 89.3257 117.516 89.646 116.741 89.5914C115.967 89.5368 115.514 89.14 115.558 88.5613C115.57 88.3759 115.644 88.2002 115.768 88.0628C115.893 87.9253 116.059 87.8342 116.242 87.8042C116.093 87.7467 115.968 87.6418 115.885 87.5056C115.802 87.3695 115.766 87.2096 115.782 87.0507C115.822 86.5192 116.296 86.2208 116.984 86.2681C117.672 86.3154 118.106 86.6867 118.07 87.2181C118.062 87.3786 118.002 87.5321 117.898 87.6545C117.795 87.777 117.654 87.8616 117.498 87.8952C117.675 87.9513 117.828 88.0661 117.932 88.2207C118.035 88.3754 118.084 88.5609 118.07 88.7469ZM117.73 88.7178C117.759 88.3138 117.433 88.0371 116.857 87.9898C116.282 87.9425 115.927 88.1718 115.898 88.5758C115.869 88.9799 116.187 89.2565 116.763 89.3038C117.339 89.3512 117.701 89.1218 117.73 88.7178ZM116.875 87.7241C117.382 87.7605 117.701 87.553 117.726 87.1999C117.751 86.8468 117.447 86.5811 116.962 86.5484C116.477 86.5156 116.144 86.7122 116.119 87.0762C116.093 87.4402 116.372 87.6913 116.875 87.7241Z" fill="#FAFAFA"/>
<path d="M121.271 88.2264C121.191 89.3366 120.547 89.8717 119.663 89.8062C119.395 89.7953 119.135 89.7151 118.907 89.5732L119.059 89.3111C119.243 89.4362 119.459 89.5057 119.681 89.5113C120.38 89.5623 120.862 89.1473 120.927 88.2555V87.9898C120.821 88.164 120.666 88.3031 120.482 88.3898C120.298 88.4765 120.093 88.507 119.891 88.4776C119.631 88.4884 119.377 88.3949 119.185 88.2174C118.992 88.04 118.878 87.7932 118.867 87.5312C118.863 87.4936 118.863 87.4559 118.867 87.4183C118.89 87.1507 119.017 86.903 119.22 86.7287C119.423 86.5543 119.687 86.4673 119.953 86.4865H120.036C120.93 86.5593 121.354 87.1963 121.271 88.2264ZM120.858 87.5421C120.883 87.1781 120.612 86.8141 120.051 86.7813C119.862 86.7486 119.667 86.7927 119.51 86.904C119.354 87.0152 119.247 87.1845 119.214 87.3747C119.213 87.394 119.213 87.4135 119.214 87.4329C119.182 87.8624 119.479 88.1609 119.978 88.1973C120.174 88.237 120.377 88.1973 120.543 88.0868C120.709 87.9762 120.825 87.8039 120.865 87.6076V87.5421H120.858Z" fill="#FAFAFA"/>
<path d="M105.572 91.1811L105.47 92.6006L131.483 94.5031L131.586 93.0836L105.572 91.1811Z" fill="#FAFAFA"/>
<path d="M118.043 94.9428L117.94 96.3623L131.281 97.338L131.384 95.9185L118.043 94.9428Z" fill="#FAFAFA"/>
<path d="M80.6044 74.3889L80.2712 78.985C80.1991 79.9795 80.9424 80.8444 81.9314 80.9169L89.2641 81.4545C90.2532 81.527 91.1134 80.7796 91.1855 79.7851L91.5187 75.1891C91.5908 74.1946 90.8475 73.3297 89.8585 73.2571L82.5258 72.7196C81.5368 72.6471 80.6765 73.3945 80.6044 74.3889Z" fill="#455A64"/>
<path d="M80.3096 78.511L80.3494 77.9868L85.9676 78.3982C86.1219 78.4142 86.2778 78.3995 86.4264 78.3549C86.575 78.3103 86.7134 78.2368 86.8338 78.1384C86.9541 78.0401 87.054 77.9188 87.1278 77.7817C87.2015 77.6445 87.2477 77.494 87.2636 77.3389C87.2795 77.1838 87.2649 77.0271 87.2206 76.8776C87.1763 76.7282 87.1031 76.589 87.0053 76.468C86.9075 76.347 86.7869 76.2465 86.6505 76.1724C86.514 76.0982 86.3644 76.0518 86.2102 76.0358H86.1559L80.5376 75.6245L80.5738 75.0967L86.1957 75.508C86.6354 75.5551 87.0397 75.7722 87.3233 76.1134C87.6068 76.4545 87.7475 76.8931 87.7155 77.3366C87.6836 77.7801 87.4816 78.1937 87.1521 78.4903C86.8226 78.7868 86.3914 78.943 85.9495 78.926L80.3096 78.511Z" fill="#E9EAED"/>
<path d="M87.5093 77.0508L87.4707 77.5771L91.3264 77.8632L91.365 77.3368L87.5093 77.0508Z" fill="#E9EAED"/>
<path d="M82.5135 65.9262L82.3379 68.3477L110.409 70.4056L110.584 67.9841L82.5135 65.9262Z" fill="#FAFAFA"/>
<path d="M147.508 59.5503C146.759 60.8061 146.835 62.3822 147.045 63.8346C147.255 65.2869 147.58 66.7684 147.258 68.2026C147.045 69.1453 146.534 70.0881 146.78 71.0236C146.943 71.6897 147.439 72.2138 147.685 72.8436C148.047 73.7536 147.841 74.7655 147.722 75.7337C147.602 76.702 147.609 77.783 148.247 78.5147C149.039 79.4247 150.498 79.3846 151.584 78.8787C152.67 78.3727 153.532 77.4736 154.538 76.8148C155.544 76.156 156.855 75.7228 157.937 76.247C158.437 76.4872 158.868 76.9167 159.418 76.975C160.189 77.0332 160.797 76.3234 161.543 76.1159C162.184 75.9412 162.868 76.156 163.527 76.0795C164.87 75.9303 165.861 74.4743 165.673 73.1311C165.548 72.4603 165.218 71.845 164.731 71.3699C164.244 70.8948 163.622 70.583 162.951 70.4776C162.383 70.3829 161.698 70.3684 161.387 69.8806C160.924 69.1526 161.749 68.239 161.594 67.3981C161.492 66.7939 160.92 66.3898 160.359 66.1423C159.798 65.8948 159.179 65.731 158.745 65.3015C157.966 64.5371 158.053 63.2849 157.814 62.2148C157.42 60.453 155.78 56.8458 152.21 56.4927" fill="#263238"/>
<path d="M145.854 159.796L145.923 157.226L150.712 157.324L150.651 161.084H150.354C149.032 161.132 143.624 161.23 142.752 160.943C141.767 160.633 145.854 159.796 145.854 159.796Z" fill="#E9EAED"/>
<path d="M148.916 161.008C148.996 160.605 149.22 160.245 149.546 159.996C149.867 159.749 150.269 159.632 150.672 159.669L150.646 161.012L148.916 161.008Z" fill="#E9EAED"/>
<path d="M143.856 160.273C143.856 160.273 142.408 160.659 142.596 160.899C142.784 161.139 148.236 161.263 150.65 161.081V160.975L144.276 160.903C144.276 160.903 144.134 160.291 143.856 160.273Z" fill="#E9EAED"/>
<path d="M150.719 160.972H150.4L149.531 160.994H146.657C145.535 160.994 144.518 160.932 143.783 160.892L142.914 160.837L142.679 160.819H142.914L143.786 160.852C144.51 160.881 145.535 160.917 146.657 160.939C147.779 160.961 148.793 160.964 149.528 160.961H150.719V160.972Z" fill="#263238"/>
<path d="M144.269 160.979C144.233 160.833 144.181 160.691 144.113 160.557C144.029 160.432 143.932 160.318 143.823 160.215C143.966 160.282 144.084 160.391 144.164 160.528C144.243 160.664 144.28 160.822 144.269 160.979Z" fill="#263238"/>
<path d="M145.694 160.284C145.638 160.228 145.588 160.165 145.546 160.098C145.477 159.989 145.434 159.887 145.448 159.88C145.463 159.873 145.528 159.956 145.597 160.065C145.665 160.175 145.709 160.277 145.694 160.284Z" fill="#263238"/>
<path d="M146.086 160.087C146.025 160.056 145.969 160.017 145.919 159.971C145.836 159.894 145.782 159.821 145.792 159.811C145.803 159.8 145.879 159.851 145.959 159.927C146.039 160.003 146.096 160.076 146.086 160.087Z" fill="#263238"/>
<path d="M146.338 159.635C146.338 159.653 146.226 159.664 146.089 159.664C145.951 159.664 145.839 159.664 145.839 159.632C145.919 159.604 146.005 159.595 146.089 159.607C146.173 159.598 146.258 159.608 146.338 159.635Z" fill="#263238"/>
<path d="M146.429 159.319C146.346 159.373 146.249 159.399 146.15 159.395C146.052 159.41 145.952 159.394 145.864 159.348C145.958 159.341 146.053 159.341 146.147 159.348C146.239 159.326 146.334 159.317 146.429 159.319Z" fill="#263238"/>
<path d="M145.525 159.862C145.423 159.88 145.319 159.88 145.217 159.862C145.106 159.845 144.997 159.818 144.891 159.782C144.827 159.761 144.765 159.734 144.707 159.702C144.671 159.679 144.644 159.644 144.631 159.603C144.627 159.58 144.63 159.556 144.638 159.534C144.647 159.512 144.662 159.493 144.681 159.48C144.8 159.425 144.934 159.413 145.061 159.446C145.188 159.479 145.299 159.555 145.376 159.662C145.423 159.722 145.456 159.793 145.47 159.869V159.953C145.442 159.857 145.397 159.767 145.336 159.687C145.268 159.604 145.178 159.542 145.076 159.509C145.017 159.487 144.955 159.478 144.893 159.481C144.831 159.484 144.77 159.5 144.714 159.527C144.663 159.563 144.681 159.622 144.736 159.654C144.791 159.683 144.847 159.709 144.906 159.731C145.008 159.77 145.113 159.801 145.221 159.822C145.323 159.83 145.424 159.843 145.525 159.862Z" fill="#263238"/>
<path d="M145.459 159.876C145.423 159.811 145.413 159.734 145.43 159.662C145.441 159.578 145.473 159.499 145.525 159.432C145.551 159.386 145.589 159.347 145.634 159.32C145.68 159.294 145.732 159.279 145.785 159.279C145.815 159.289 145.841 159.308 145.857 159.335C145.874 159.362 145.881 159.394 145.876 159.425C145.867 159.473 145.848 159.519 145.821 159.56C145.78 159.628 145.73 159.69 145.673 159.745C145.623 159.8 145.561 159.842 145.492 159.869C145.546 159.822 145.597 159.77 145.644 159.716C145.695 159.661 145.738 159.6 145.774 159.534C145.818 159.469 145.85 159.352 145.774 159.338C145.698 159.323 145.615 159.403 145.568 159.465C145.522 159.523 145.491 159.592 145.477 159.665C145.466 159.735 145.46 159.806 145.459 159.876Z" fill="#263238"/>
<path d="M150.647 159.654C150.526 159.642 150.405 159.642 150.285 159.654C150.002 159.679 149.731 159.785 149.506 159.959C149.28 160.133 149.108 160.368 149.011 160.637C148.935 160.841 148.924 160.979 148.913 160.979C148.909 160.946 148.909 160.913 148.913 160.881C148.957 160.541 149.118 160.229 149.368 159.997C149.618 159.765 149.942 159.63 150.281 159.614C150.368 159.607 150.455 159.607 150.542 159.614C150.578 159.623 150.614 159.636 150.647 159.654Z" fill="#263238"/>
<path d="M150.191 157.641C150.22 157.97 150.227 158.301 150.213 158.631C150.22 158.96 150.208 159.29 150.176 159.618C150.138 158.959 150.138 158.299 150.176 157.641H150.191Z" fill="#263238"/>
<path d="M148.323 160.524C148.092 160.574 147.856 160.592 147.621 160.578C147.386 160.584 147.151 160.561 146.922 160.509C146.922 160.509 147.237 160.509 147.624 160.509C148.011 160.509 148.319 160.524 148.323 160.524Z" fill="#263238"/>
<path d="M149.261 160.546C149.242 160.592 149.222 160.637 149.199 160.681C149.163 160.75 149.148 160.819 149.13 160.815C149.112 160.812 149.108 160.739 149.148 160.659C149.188 160.579 149.25 160.524 149.261 160.546Z" fill="#263238"/>
<path d="M149.622 160.109C149.606 160.15 149.581 160.188 149.549 160.218C149.499 160.266 149.452 160.298 149.441 160.287C149.43 160.276 149.459 160.226 149.51 160.178C149.56 160.131 149.611 160.098 149.622 160.109Z" fill="#263238"/>
<path d="M150.133 159.916C150.133 159.934 150.064 159.916 149.995 159.956C149.926 159.996 149.872 160.014 149.861 160.003C149.85 159.993 149.89 159.927 149.977 159.898C150.064 159.869 150.136 159.902 150.133 159.916Z" fill="#263238"/>
<path d="M150.494 159.829C150.48 159.853 150.459 159.872 150.433 159.883C150.406 159.891 150.377 159.891 150.35 159.883C150.363 159.858 150.385 159.838 150.411 159.829C150.451 159.814 150.487 159.814 150.494 159.829Z" fill="#263238"/>
<path d="M159.44 159.796L159.508 157.226L164.294 157.324L164.233 161.084H163.936C162.614 161.132 157.21 161.23 156.334 160.943C155.353 160.633 159.44 159.796 159.44 159.796Z" fill="#E9EAED"/>
<path d="M162.498 161.008C162.578 160.604 162.803 160.243 163.132 159.996C163.452 159.748 163.854 159.63 164.257 159.669L164.228 161.012L162.498 161.008Z" fill="#E9EAED"/>
<path d="M157.442 160.273C157.442 160.273 155.994 160.659 156.178 160.899C156.363 161.139 161.818 161.263 164.233 161.081V160.975L157.854 160.903C157.854 160.903 157.721 160.291 157.442 160.273Z" fill="#E9EAED"/>
<path d="M164.304 160.972H163.986L163.113 160.994H160.239C159.117 160.994 158.1 160.932 157.368 160.892L156.496 160.837L156.261 160.819H156.5L157.368 160.852C158.092 160.881 159.117 160.917 160.239 160.939C161.361 160.961 162.379 160.964 163.113 160.961H164.304V160.972Z" fill="#263238"/>
<path d="M157.851 160.979C157.816 160.833 157.765 160.691 157.699 160.557C157.615 160.432 157.518 160.318 157.409 160.215C157.551 160.282 157.669 160.391 157.748 160.528C157.827 160.664 157.863 160.822 157.851 160.979Z" fill="#263238"/>
<path d="M159.28 160.284C159.225 160.228 159.176 160.166 159.136 160.098C159.07 159.989 159.023 159.887 159.038 159.88C159.052 159.873 159.117 159.956 159.183 160.065C159.224 160.134 159.257 160.207 159.28 160.284Z" fill="#263238"/>
<path d="M159.671 160.087C159.611 160.057 159.554 160.018 159.505 159.971C159.425 159.894 159.367 159.821 159.378 159.811C159.389 159.8 159.462 159.851 159.545 159.927C159.628 160.003 159.682 160.076 159.671 160.087Z" fill="#263238"/>
<path d="M159.924 159.635C159.924 159.653 159.812 159.664 159.675 159.664C159.537 159.664 159.425 159.664 159.425 159.632C159.505 159.604 159.59 159.595 159.675 159.607C159.759 159.598 159.844 159.608 159.924 159.635Z" fill="#263238"/>
<path d="M160.004 159.319C159.919 159.371 159.821 159.397 159.722 159.395C159.624 159.411 159.523 159.394 159.436 159.348C159.53 159.341 159.624 159.341 159.718 159.348C159.812 159.326 159.908 159.316 160.004 159.319Z" fill="#263238"/>
<path d="M159.124 159.862C159.023 159.88 158.918 159.88 158.817 159.862C158.706 159.845 158.597 159.818 158.491 159.782C158.425 159.763 158.362 159.736 158.303 159.702C158.267 159.679 158.241 159.644 158.23 159.603C158.226 159.58 158.229 159.557 158.237 159.535C158.245 159.513 158.259 159.494 158.277 159.48C158.396 159.425 158.53 159.413 158.657 159.446C158.784 159.479 158.895 159.555 158.972 159.662C159.019 159.723 159.053 159.794 159.07 159.869C159.077 159.896 159.077 159.925 159.07 159.953C159.04 159.857 158.994 159.767 158.933 159.687C158.867 159.603 158.777 159.541 158.676 159.509C158.557 159.467 158.427 159.474 158.314 159.527C158.266 159.563 158.285 159.622 158.335 159.654C158.39 159.687 158.448 159.713 158.509 159.731C158.611 159.77 158.717 159.801 158.824 159.822C159.005 159.851 159.124 159.851 159.124 159.862Z" fill="#263238"/>
<path d="M159.045 159.876C159.007 159.811 158.996 159.734 159.012 159.661C159.024 159.58 159.055 159.502 159.103 159.436C159.13 159.391 159.167 159.353 159.212 159.327C159.257 159.3 159.308 159.285 159.36 159.283C159.391 159.291 159.418 159.31 159.435 159.337C159.453 159.364 159.46 159.397 159.454 159.428C159.445 159.477 159.426 159.523 159.396 159.563C159.356 159.632 159.306 159.694 159.248 159.749C159.2 159.804 159.139 159.847 159.07 159.872C159.122 159.824 159.172 159.773 159.219 159.72C159.269 159.664 159.314 159.603 159.353 159.538C159.396 159.472 159.425 159.356 159.353 159.341C159.28 159.326 159.197 159.406 159.146 159.468C159.104 159.529 159.073 159.597 159.056 159.669C159.045 159.737 159.041 159.807 159.045 159.876Z" fill="#263238"/>
<path d="M164.233 159.654C164.112 159.642 163.991 159.642 163.871 159.654C163.588 159.68 163.317 159.786 163.092 159.96C162.866 160.134 162.695 160.368 162.596 160.637C162.52 160.841 162.509 160.979 162.499 160.979C162.491 160.947 162.491 160.913 162.499 160.881C162.509 160.793 162.528 160.706 162.557 160.622C162.647 160.34 162.82 160.093 163.053 159.913C163.287 159.733 163.569 159.628 163.863 159.614C163.951 159.607 164.04 159.607 164.128 159.614C164.165 159.62 164.201 159.634 164.233 159.654Z" fill="#263238"/>
<path d="M163.776 157.641C163.815 158.299 163.815 158.959 163.776 159.618C163.747 159.29 163.74 158.96 163.754 158.631C163.742 158.301 163.749 157.97 163.776 157.641Z" fill="#263238"/>
<path d="M161.905 160.524C161.676 160.574 161.441 160.592 161.206 160.578C160.972 160.586 160.737 160.563 160.508 160.509C160.508 160.509 160.823 160.509 161.206 160.509C161.59 160.509 161.905 160.524 161.905 160.524Z" fill="#263238"/>
<path d="M162.843 160.546C162.843 160.546 162.817 160.611 162.785 160.681C162.752 160.75 162.73 160.819 162.716 160.815C162.701 160.812 162.694 160.739 162.716 160.659C162.738 160.579 162.835 160.524 162.843 160.546Z" fill="#263238"/>
<path d="M163.208 160.109C163.192 160.15 163.168 160.188 163.136 160.218C163.085 160.266 163.034 160.298 163.024 160.287C163.013 160.276 163.045 160.226 163.096 160.178C163.147 160.131 163.194 160.098 163.208 160.109Z" fill="#263238"/>
<path d="M163.715 159.916C163.715 159.934 163.65 159.916 163.577 159.956C163.505 159.996 163.458 160.014 163.443 160.003C163.429 159.993 163.472 159.927 163.559 159.898C163.646 159.869 163.722 159.902 163.715 159.916Z" fill="#263238"/>
<path d="M164.076 159.829C164.062 159.853 164.041 159.872 164.015 159.883C163.988 159.891 163.959 159.891 163.932 159.883C163.932 159.883 163.957 159.843 163.997 159.829C164.037 159.814 164.073 159.814 164.076 159.829Z" fill="#263238"/>
<path d="M144.887 93.748L142.592 128.15V159.173H151.765C151.765 159.173 152.152 132.419 151.91 130.669C151.91 130.669 153.408 103.871 153.578 104.253C153.94 105.036 153.919 127.815 154.433 130.636C154.947 133.457 157.329 159.173 157.329 159.173H166.158L163.19 129.689C163.128 126.137 162.219 94.9383 162.219 94.9383L144.887 93.748Z" fill="#263238"/>
<path d="M165.96 157.412C165.86 157.484 165.742 157.526 165.619 157.532C165.288 157.562 164.954 157.507 164.649 157.372C164.226 157.161 163.78 157 163.321 156.892C162.803 156.815 162.264 157.088 161.75 157.434C161.277 157.809 160.722 158.066 160.131 158.184C159.642 158.23 159.148 158.17 158.683 158.005C158.375 157.902 158.073 157.781 157.778 157.641C157.667 157.598 157.563 157.538 157.471 157.463C157.471 157.43 157.945 157.652 158.72 157.885C159.169 158.023 159.642 158.068 160.11 158.016C160.672 157.897 161.199 157.648 161.648 157.288C161.906 157.113 162.18 156.965 162.466 156.844C162.744 156.734 163.046 156.696 163.342 156.735C163.818 156.847 164.278 157.019 164.711 157.248C164.995 157.386 165.307 157.456 165.623 157.456C165.837 157.448 165.952 157.394 165.96 157.412Z" fill="#455A64"/>
<path d="M151.841 157.197C151.75 157.111 151.654 157.032 151.552 156.961C151.258 156.795 150.914 156.744 150.585 156.815C150.097 156.954 149.64 157.185 149.238 157.496C148.981 157.67 148.707 157.819 148.42 157.94C148.101 158.072 147.751 158.113 147.41 158.06C146.715 157.94 146.165 157.576 145.6 157.452C145.108 157.346 144.597 157.369 144.116 157.517C143.283 157.769 142.795 158.027 142.78 157.991C142.882 157.911 142.994 157.844 143.113 157.794C143.424 157.633 143.748 157.497 144.08 157.386C144.581 157.212 145.12 157.175 145.64 157.281C146.23 157.408 146.788 157.769 147.425 157.874C148.062 157.98 148.645 157.649 149.126 157.346C149.549 157.032 150.03 156.807 150.542 156.684C150.901 156.618 151.272 156.695 151.577 156.899C151.695 156.966 151.788 157.071 151.841 157.197Z" fill="#455A64"/>
<path d="M161.601 100.883C161.441 100.988 161.256 101.051 161.065 101.065C160.609 101.133 160.144 101.104 159.701 100.978C159.257 100.853 158.845 100.634 158.491 100.337C158.223 100.107 158.104 99.9218 158.129 99.9072C158.599 100.322 159.156 100.625 159.758 100.792C160.361 100.959 160.993 100.986 161.608 100.872L161.601 100.883Z" fill="#455A64"/>
<path d="M146.371 99.5396C146.393 99.5396 146.393 99.7252 146.299 99.9946C146.171 100.347 145.958 100.662 145.68 100.912C145.4 101.16 145.064 101.337 144.702 101.429C144.423 101.491 144.246 101.469 144.246 101.447C144.732 101.336 145.182 101.103 145.554 100.769C145.925 100.436 146.207 100.013 146.371 99.5396Z" fill="#455A64"/>
<path d="M124.692 86.8612L124.453 90.1372L124.12 90.1153L124.333 87.1487L123.569 87.0905L123.591 86.792L124.692 86.8612Z" fill="#FAFAFA"/>
<path d="M127.815 90.0717L127.794 90.3702L125.517 90.2064V89.9661L126.965 88.7358C127.356 88.4009 127.442 88.1862 127.461 87.9605C127.486 87.5965 127.24 87.3308 126.737 87.2944C126.572 87.2727 126.405 87.2883 126.247 87.3399C126.089 87.3916 125.945 87.478 125.824 87.5929L125.614 87.3599C125.771 87.2118 125.959 87.1007 126.163 87.0346C126.368 86.9684 126.585 86.949 126.798 86.9777C127.457 87.025 127.852 87.3927 127.812 87.9387C127.79 88.2517 127.671 88.5247 127.204 88.9215L126.023 89.9334L127.815 90.0717Z" fill="#FAFAFA"/>
<path d="M130.772 89.6497C130.732 90.192 130.309 90.5852 129.527 90.5269C129.096 90.5123 128.688 90.3311 128.387 90.021L128.568 89.7662C128.694 89.9026 128.845 90.0126 129.014 90.0901C129.182 90.1675 129.364 90.2108 129.549 90.2175C130.084 90.2576 130.399 90.0283 130.432 89.6242C130.465 89.2202 130.204 88.9545 129.599 88.8962H129.368L129.386 88.6487L130.37 87.5822L128.709 87.4621L128.731 87.1636L130.816 87.3165V87.5531L129.813 88.6451C130.49 88.7324 130.812 89.1255 130.772 89.6497Z" fill="#FAFAFA"/>
<path d="M147.877 57.6284C147.553 57.9591 147.304 58.3558 147.146 58.7916C146.988 59.2274 146.925 59.6921 146.961 60.1546C147.041 61.0796 147.34 61.972 147.833 62.7572" fill="#263238"/>
<path d="M155.78 71.8572L156.272 60.4531L151.722 56.9878L147.588 59.0189C147.588 59.0189 147.45 64.2387 147.588 66.5028C147.725 68.7668 149.995 69.0071 149.995 69.0071C149.995 69.0071 149.93 70.2556 149.857 71.5551C149.817 72.336 150.083 73.1016 150.598 73.6875C151.113 74.2734 151.836 74.633 152.612 74.6891C153.396 74.7441 154.17 74.4836 154.764 73.9648C155.357 73.446 155.721 72.7114 155.776 71.9227C155.776 71.9009 155.78 71.879 155.78 71.8572Z" fill="#FFBE9D"/>
<path d="M148.326 62.8264C148.326 62.884 148.343 62.9402 148.375 62.9881C148.407 63.036 148.452 63.0733 148.505 63.0954C148.558 63.1174 148.616 63.1232 148.672 63.112C148.728 63.1007 148.78 63.073 148.821 63.0323C148.861 62.9915 148.889 62.9397 148.9 62.8832C148.911 62.8267 148.905 62.7681 148.883 62.7149C148.861 62.6617 148.824 62.6162 148.777 62.5842C148.729 62.5522 148.673 62.5352 148.616 62.5352C148.578 62.5352 148.54 62.5427 148.505 62.5573C148.47 62.572 148.438 62.5934 148.411 62.6204C148.384 62.6475 148.363 62.6796 148.348 62.7149C148.334 62.7502 148.326 62.7881 148.326 62.8264Z" fill="#263238"/>
<path d="M147.761 62.5096C147.797 62.546 148.011 62.364 148.318 62.3458C148.626 62.3276 148.861 62.4805 148.894 62.4405C148.927 62.4004 148.872 62.3531 148.771 62.2803C148.634 62.1904 148.471 62.1482 148.308 62.1602C148.145 62.1679 147.989 62.2308 147.866 62.3385C147.772 62.4186 147.743 62.4914 147.761 62.5096Z" fill="#263238"/>
<path d="M151.679 62.8266C151.679 62.9028 151.709 62.976 151.762 63.0299C151.816 63.0838 151.889 63.1141 151.965 63.1141C152.022 63.1148 152.078 63.0985 152.126 63.0671C152.174 63.0357 152.212 62.9906 152.234 62.9377C152.257 62.8848 152.263 62.8263 152.253 62.7697C152.243 62.7131 152.216 62.6608 152.176 62.6196C152.136 62.5784 152.084 62.55 152.028 62.5381C151.972 62.5261 151.914 62.5312 151.861 62.5525C151.808 62.5739 151.762 62.6106 151.73 62.6581C151.697 62.7056 151.679 62.7617 151.679 62.8193V62.8266Z" fill="#263238"/>
<path d="M151.2 62.5097C151.237 62.5461 151.45 62.3641 151.758 62.3459C152.066 62.3277 152.301 62.4806 152.333 62.4405C152.366 62.4005 152.312 62.3532 152.21 62.2804C152.072 62.1919 151.91 62.1498 151.747 62.1603C151.583 62.1707 151.427 62.2332 151.302 62.3386C151.211 62.4187 151.182 62.4915 151.2 62.5097Z" fill="#263238"/>
<path d="M151.102 65.4399C150.629 65.6804 150.124 65.8544 149.604 65.9568C149.718 66.1132 149.882 66.2269 150.068 66.2802C150.254 66.3335 150.452 66.3235 150.632 66.2517C150.713 66.2336 150.791 66.1994 150.859 66.1512C150.928 66.1029 150.986 66.0414 151.031 65.9704C151.076 65.8993 151.106 65.82 151.12 65.7371C151.134 65.6542 151.132 65.5693 151.113 65.4873L151.102 65.4399Z" fill="#FAFAFA"/>
<path d="M149.995 69.007C151.065 68.9625 152.1 68.6114 152.978 67.9951C152.978 67.9951 152.301 69.6586 150.046 69.564L149.995 69.007Z" fill="#EB996E"/>
<path d="M150.078 65.1561C149.912 65.1155 149.742 65.0947 149.571 65.0942C149.492 65.0942 149.416 65.0942 149.398 65.0214C149.388 64.9337 149.404 64.8449 149.445 64.7666C149.51 64.5628 149.582 64.348 149.655 64.1223C149.803 63.6601 149.93 63.2451 150.017 62.9393C150.077 62.7781 150.115 62.609 150.129 62.437C150.046 62.5867 149.98 62.7455 149.933 62.9102C149.825 63.2087 149.684 63.6382 149.535 64.0823C149.466 64.3116 149.398 64.5264 149.332 64.7339C149.289 64.836 149.278 64.9495 149.303 65.0578C149.314 65.0858 149.332 65.1108 149.355 65.1304C149.377 65.1501 149.405 65.1639 149.434 65.1707C149.478 65.1779 149.523 65.1779 149.568 65.1707C149.738 65.1895 149.909 65.1846 150.078 65.1561Z" fill="#263238"/>
<path d="M155.939 64.5083C155.904 64.1312 155.945 63.7509 156.062 63.3908C156.12 63.211 156.226 63.0506 156.369 62.9268C156.511 62.8031 156.684 62.7206 156.869 62.6883C157.084 62.6768 157.295 62.7444 157.464 62.8784C157.633 63.0124 157.747 63.2037 157.785 63.4163C157.812 63.6335 157.773 63.8538 157.673 64.0485C157.574 64.2432 157.419 64.4034 157.228 64.5083C157.035 64.6077 156.822 64.6622 156.605 64.6679C156.388 64.6736 156.173 64.6302 155.975 64.541" fill="#FFBE9D"/>
<path d="M156.598 64.1771C156.598 64.1516 156.717 64.2098 156.877 64.1589C156.976 64.1245 157.062 64.0596 157.122 63.9733C157.183 63.8871 157.215 63.7839 157.213 63.6784C157.223 63.6253 157.221 63.5706 157.207 63.5183C157.194 63.466 157.169 63.4175 157.134 63.3763C157.063 63.3226 156.976 63.2967 156.888 63.3035C156.721 63.3035 156.602 63.3617 156.591 63.3362C156.58 63.3108 156.667 63.2307 156.869 63.1724C156.931 63.1578 156.996 63.1568 157.058 63.1693C157.121 63.1819 157.18 63.2078 157.231 63.2452C157.291 63.3023 157.336 63.3726 157.363 63.4504C157.39 63.5282 157.398 63.6113 157.387 63.693C157.378 63.848 157.319 63.9959 157.221 64.1152C157.135 64.2125 157.016 64.2747 156.888 64.2899C156.681 64.3118 156.576 64.1916 156.598 64.1771Z" fill="#EB996E"/>
<path d="M147.62 57.8505C146.621 59.099 147.953 59.8853 148.616 60.3985C149.126 60.7989 150.632 61.8545 151.953 61.3559C151.486 60.7261 150.954 60.4495 150.748 59.8489C151.287 60.6133 151.855 61.1921 152.782 61.3049C152.598 60.7625 152.337 59.6596 152.536 59.6159C152.782 61.7708 154.791 63.5835 156.174 62.8919C156.433 62.214 156.529 61.4844 156.455 60.7621C156.381 60.0399 156.138 59.3454 155.747 58.7351C155.346 58.1315 154.824 57.6183 154.215 57.228C153.606 56.8376 152.924 56.5786 152.21 56.4673C151.391 56.3421 150.554 56.4011 149.761 56.6403C148.967 56.8795 148.236 57.2929 147.62 57.8505Z" fill="#263238"/>
<path d="M157.108 64.7156C157.108 64.6938 157.278 64.8576 157.209 65.167C157.188 65.2562 157.147 65.3394 157.089 65.4106C157.032 65.4817 156.959 65.539 156.876 65.5783C156.773 65.6256 156.661 65.6479 156.548 65.6435C156.434 65.6391 156.324 65.608 156.225 65.5528C156.128 65.4938 156.045 65.4138 155.983 65.3188C155.92 65.2238 155.879 65.116 155.863 65.0032C155.841 64.8217 155.887 64.6385 155.993 64.4899C156.174 64.2424 156.377 64.2169 156.377 64.2351C156.269 64.329 156.178 64.4396 156.105 64.5627C156.036 64.6891 156.012 64.8355 156.037 64.9777C156.05 65.0617 156.082 65.1418 156.128 65.2127C156.175 65.2836 156.236 65.3437 156.308 65.389C156.382 65.4302 156.463 65.4545 156.547 65.4602C156.631 65.4658 156.715 65.4527 156.793 65.4218C156.858 65.3951 156.916 65.355 156.964 65.3042C157.012 65.2534 157.049 65.193 157.072 65.1269C157.111 64.9936 157.123 64.8538 157.108 64.7156Z" fill="#E9EAED"/>
<path d="M141.459 83.469L144.855 82.7592L145.886 88.5031C145.014 91.4472 144.289 94.4333 143.714 97.4503L151.678 102.448L152.905 100.104L154.871 101.982L163.345 97.4503C162.299 91.9903 159.657 90.5634 159.657 89.6752C159.657 87.1272 159.295 89.6024 161.42 81.1613C163.545 72.7201 155.791 71.8574 155.791 71.8574C155.791 71.8574 155.964 73.0368 149.796 71.912C147.537 71.5007 138.52 76.2618 138.52 76.2618L141.459 83.469Z" fill="#E9EAED"/>
<path d="M149.785 71.9119C149.785 71.9119 149.712 78.1582 151.193 77.7359C152.674 77.3137 155.656 74.6456 155.779 71.8428L149.785 71.9119Z" fill="#FFBE9D"/>
<path d="M150.161 82.8576C150.144 82.1176 150.186 81.3775 150.288 80.6444C150.33 79.9085 150.437 79.1777 150.606 78.4604C150.625 79.2017 150.581 79.9432 150.476 80.6772C150.433 81.4117 150.327 82.1411 150.161 82.8576Z" fill="#263238"/>
<path d="M151.106 82.3515C150.998 81.7672 150.95 81.173 150.965 80.5788C150.919 79.9854 150.935 79.3889 151.012 78.7988C151.121 79.3844 151.168 79.9797 151.153 80.5751C151.203 81.1672 151.187 81.7629 151.106 82.3515Z" fill="#263238"/>
<path d="M149.778 83.4689C149.727 83.4689 149.691 83.3087 149.778 83.1304C149.865 82.952 150.006 82.8719 150.039 82.912C150.071 82.952 150.013 83.0685 149.952 83.2068C149.89 83.3451 149.832 83.4725 149.778 83.4689Z" fill="#263238"/>
<path d="M149.981 83.4687C149.93 83.4687 149.912 83.3376 149.937 83.1957C149.962 83.0537 150.031 82.9518 150.082 82.9627C150.133 82.9736 150.151 83.0938 150.125 83.2357C150.1 83.3777 150.031 83.4796 149.981 83.4687Z" fill="#263238"/>
<path d="M150.173 83.4726C150.122 83.4726 150.068 83.367 150.053 83.2251C150.039 83.0831 150.071 82.9666 150.126 82.963C150.18 82.9593 150.231 83.0685 150.241 83.2069C150.252 83.3452 150.231 83.4653 150.173 83.4726Z" fill="#263238"/>
<path d="M150.487 83.5708C150.433 83.5708 150.393 83.3888 150.299 83.2068C150.205 83.0248 150.096 82.8646 150.132 82.8209C150.168 82.7773 150.36 82.8865 150.472 83.1267C150.585 83.3669 150.538 83.5744 150.487 83.5708Z" fill="#263238"/>
<path d="M151.143 82.9121C151.096 82.9303 150.998 82.7738 150.998 82.5481C150.998 82.3224 151.096 82.1841 151.143 82.1841C151.19 82.1841 151.186 82.3552 151.186 82.5481C151.186 82.741 151.194 82.8939 151.143 82.9121Z" fill="#263238"/>
<path d="M151.338 82.8099C151.288 82.8099 151.233 82.6934 151.219 82.5406C151.204 82.3877 151.219 82.2567 151.288 82.253C151.357 82.2494 151.393 82.3695 151.407 82.5224C151.422 82.6753 151.389 82.8063 151.338 82.8099Z" fill="#263238"/>
<path d="M151.646 82.7592C151.606 82.792 151.494 82.7156 151.396 82.5882C151.298 82.4608 151.251 82.3334 151.295 82.3042C151.338 82.2751 151.447 82.3479 151.544 82.4717C151.642 82.5955 151.678 82.7265 151.646 82.7592Z" fill="#263238"/>
<path d="M151.747 82.657C151.7 82.6789 151.609 82.5842 151.493 82.4823C151.377 82.3804 151.276 82.3039 151.294 82.253C151.312 82.202 151.475 82.2093 151.62 82.3403C151.765 82.4714 151.794 82.6279 151.747 82.657Z" fill="#263238"/>
<path d="M149.333 72.5999C149.333 72.578 149.442 72.5234 149.568 72.6399C149.62 72.7013 149.646 72.781 149.64 72.8614C149.634 72.9419 149.596 73.0166 149.536 73.0694C149.506 73.0963 149.471 73.1167 149.433 73.1297C149.395 73.1426 149.355 73.1477 149.315 73.1446C149.275 73.1416 149.236 73.1304 149.201 73.1119C149.165 73.0933 149.134 73.0677 149.109 73.0367C149.091 73.0185 149.076 72.9976 149.065 72.9748C149.048 72.9266 149.043 72.875 149.05 72.8243C149.057 72.7737 149.076 72.7254 149.105 72.6836C149.21 72.5453 149.337 72.578 149.329 72.5999C149.284 72.6437 149.247 72.6955 149.221 72.7527C149.185 72.851 149.221 72.9821 149.369 72.9639C149.518 72.9457 149.528 72.8183 149.471 72.7273C149.413 72.6363 149.337 72.629 149.333 72.5999Z" fill="#263238"/>
<path d="M149.478 73.7757C149.445 73.8158 149.344 73.7757 149.246 73.7248C149.148 73.6738 149.094 73.5646 149.123 73.5209C149.152 73.4773 149.257 73.4991 149.355 73.5719C149.452 73.6447 149.507 73.7321 149.478 73.7757Z" fill="#263238"/>
<path d="M149.572 74.023C149.615 74.0558 149.572 74.1832 149.427 74.2378C149.282 74.2924 149.163 74.2378 149.174 74.1832C149.184 74.1286 149.268 74.0995 149.358 74.0631C149.449 74.0267 149.532 73.9903 149.572 74.023Z" fill="#263238"/>
<path d="M149.579 74.6384C149.619 74.6711 149.579 74.7658 149.524 74.8495C149.47 74.9332 149.365 74.9769 149.325 74.9405C149.286 74.9041 149.307 74.8131 149.38 74.7294C149.452 74.6457 149.535 74.6202 149.579 74.6384Z" fill="#263238"/>
<path d="M149.423 75.3044C149.423 75.2826 149.568 75.2316 149.738 75.3881C149.786 75.4341 149.82 75.4923 149.838 75.5564C149.855 75.6206 149.854 75.6883 149.836 75.7521C149.812 75.8363 149.761 75.9104 149.692 75.9641C149.623 76.0177 149.539 76.048 149.452 76.0506C149.367 76.0442 149.285 76.0104 149.22 75.954C149.155 75.8977 149.109 75.8218 149.09 75.7376C149.074 75.6674 149.082 75.5938 149.111 75.5281C149.14 75.4625 149.19 75.4082 149.253 75.3736C149.463 75.2571 149.615 75.3736 149.579 75.3918C149.49 75.4011 149.404 75.4324 149.329 75.4828C149.297 75.5062 149.273 75.5392 149.261 75.5771C149.248 75.615 149.248 75.6559 149.26 75.6939C149.275 75.739 149.303 75.7787 149.341 75.8079C149.378 75.837 149.423 75.8544 149.47 75.8577C149.503 75.8559 149.535 75.8475 149.564 75.8331C149.594 75.8187 149.62 75.7985 149.642 75.7737C149.663 75.749 149.68 75.7202 149.69 75.689C149.7 75.6578 149.704 75.6248 149.702 75.592C149.698 75.542 149.681 75.494 149.651 75.4537C149.543 75.3481 149.42 75.3481 149.423 75.3044Z" fill="#263238"/>
<path d="M149.829 76.3634C149.854 76.4107 149.774 76.498 149.687 76.5963C149.6 76.6946 149.528 76.7856 149.477 76.7674C149.427 76.7492 149.434 76.6036 149.546 76.4726C149.658 76.3415 149.807 76.316 149.829 76.3634Z" fill="#263238"/>
<path d="M150.031 77.0224C150.078 77.0406 150.071 77.1862 149.959 77.3172C149.847 77.4482 149.702 77.4737 149.677 77.43C149.651 77.3864 149.731 77.2917 149.818 77.1934C149.905 77.0952 149.981 77.0042 150.031 77.0224Z" fill="#263238"/>
<path d="M150.14 78.0887C150.089 78.0887 150.035 77.9722 150.024 77.8157C150.013 77.6592 150.024 77.5354 150.093 77.5281C150.162 77.5209 150.198 77.6446 150.209 77.8011C150.22 77.9577 150.194 78.0851 150.14 78.0887Z" fill="#263238"/>
<path d="M151.899 78.2601C151.873 78.3038 151.772 78.2965 151.674 78.2601C151.577 78.2237 151.519 78.1218 151.544 78.0745C151.569 78.0272 151.671 78.0381 151.768 78.0745C151.866 78.1109 151.924 78.1946 151.899 78.2601Z" fill="#263238"/>
<path d="M152.511 77.532C152.547 77.5684 152.486 77.6885 152.377 77.8014C152.269 77.9142 152.146 77.9761 152.109 77.9397C152.073 77.9033 152.131 77.7832 152.243 77.6703C152.356 77.5575 152.471 77.4993 152.511 77.532Z" fill="#263238"/>
<path d="M153.01 77.1242C153.01 77.0951 153.105 77.0805 153.242 77.0842H153.26L153.286 77.106C153.318 77.1385 153.341 77.1783 153.355 77.2221C153.368 77.2659 153.37 77.3123 153.362 77.3572C153.352 77.4145 153.323 77.4668 153.281 77.5063C153.238 77.5458 153.184 77.5701 153.126 77.5756C153.065 77.5811 153.003 77.5668 152.951 77.5347C152.898 77.5026 152.857 77.4545 152.833 77.3972C152.814 77.3518 152.809 77.3015 152.82 77.2534C152.83 77.2052 152.855 77.1614 152.891 77.1279C153.01 77.0187 153.123 77.0733 153.108 77.0951C153.094 77.1169 153.036 77.1315 152.996 77.2116C152.985 77.2292 152.98 77.2493 152.98 77.2698C152.98 77.2903 152.985 77.3105 152.996 77.3281C153.009 77.3476 153.027 77.3634 153.048 77.3736C153.069 77.3839 153.092 77.3882 153.115 77.3863C153.191 77.3863 153.228 77.2516 153.188 77.2043L153.231 77.2261C153.09 77.1897 153.007 77.1679 153.01 77.1242Z" fill="#263238"/>
<path d="M153.528 77.0261C153.477 77.0261 153.456 76.8914 153.485 76.7531C153.514 76.6147 153.579 76.5092 153.629 76.5165C153.68 76.5237 153.698 76.6511 153.669 76.7895C153.64 76.9278 153.579 77.037 153.528 77.0261Z" fill="#263238"/>
<path d="M154.321 76.4653C154.303 76.5126 154.184 76.5053 154.057 76.4653C153.93 76.4252 153.847 76.3233 153.869 76.276C153.89 76.2287 154.01 76.2359 154.133 76.276C154.256 76.316 154.343 76.4179 154.321 76.4653Z" fill="#263238"/>
<path d="M154.411 75.774C154.433 75.774 154.429 75.8395 154.473 75.8869C154.516 75.9342 154.571 75.9451 154.61 75.8869C154.65 75.8286 154.61 75.7849 154.552 75.7631C154.51 75.7517 154.465 75.7517 154.422 75.7631C154.4 75.7631 154.422 75.6612 154.545 75.6357C154.584 75.6285 154.623 75.6314 154.66 75.6442C154.697 75.6569 154.73 75.6791 154.755 75.7085C154.788 75.7475 154.808 75.7962 154.811 75.8474C154.815 75.8986 154.801 75.9495 154.773 75.9924C154.748 76.037 154.709 76.0723 154.662 76.0933C154.615 76.1142 154.563 76.1197 154.513 76.1089C154.475 76.1 154.44 76.0812 154.412 76.0543C154.384 76.0274 154.364 75.9935 154.353 75.956C154.317 75.8177 154.393 75.7558 154.411 75.774Z" fill="#263238"/>
<path d="M154.966 75.1986C154.933 75.1934 154.903 75.1795 154.878 75.1584C154.853 75.1374 154.834 75.1099 154.824 75.079C154.813 75.048 154.811 75.0147 154.817 74.9826C154.824 74.9505 154.839 74.9207 154.861 74.8965C154.897 74.8965 154.973 74.9329 155.002 75.0166C155.031 75.1003 155.013 75.184 154.966 75.1986Z" fill="#263238"/>
<path d="M155.483 74.6892C155.457 74.7329 155.356 74.7256 155.258 74.6674C155.16 74.6092 155.103 74.5291 155.131 74.4854C155.16 74.4417 155.255 74.449 155.352 74.5036C155.45 74.5582 155.508 74.6419 155.483 74.6892Z" fill="#263238"/>
<path d="M155.837 73.9248C155.859 73.9758 155.772 74.0595 155.649 74.1141C155.526 74.1687 155.403 74.176 155.381 74.1141C155.36 74.0522 155.446 73.9831 155.57 73.9285C155.61 73.9049 155.656 73.8923 155.703 73.8916C155.75 73.891 155.796 73.9024 155.837 73.9248Z" fill="#263238"/>
<path d="M156.001 73.0109C156.001 72.9927 156.07 72.9235 156.193 72.9891C156.229 73.009 156.259 73.0379 156.28 73.073C156.302 73.108 156.314 73.1481 156.316 73.1893C156.316 73.2428 156.3 73.2952 156.269 73.3393C156.239 73.3835 156.196 73.4174 156.147 73.4367C156.097 73.456 156.043 73.4597 155.991 73.4474C155.939 73.4351 155.892 73.4073 155.856 73.3676C155.83 73.3357 155.812 73.2974 155.805 73.2565C155.798 73.2156 155.802 73.1736 155.816 73.1347C155.863 73.0073 155.965 73 155.968 73.0255C155.972 73.0509 155.939 73.091 155.947 73.1601C155.954 73.2293 155.997 73.2912 156.077 73.2621C156.157 73.2329 156.157 73.1601 156.109 73.0983C156.062 73.0364 156.023 73.0364 156.001 73.0109Z" fill="#263238"/>
<path d="M156.496 72.2141C156.496 72.2651 156.417 72.3306 156.29 72.3597C156.163 72.3888 156.055 72.3597 156.044 72.3197C156.033 72.2796 156.123 72.2032 156.25 72.1741C156.377 72.1449 156.485 72.1631 156.496 72.2141Z" fill="#263238"/>
<path d="M155.989 71.9483L156.188 71.7954L155.989 71.9483Z" fill="#263238"/>
<path d="M139.548 77.1387C139.501 77.1387 139.483 77.0332 139.516 76.9385C139.548 76.8439 139.61 76.782 139.657 76.7966C139.704 76.8111 139.722 76.9021 139.693 76.9968C139.664 77.0914 139.599 77.1678 139.548 77.1387Z" fill="#263238"/>
<path d="M139.982 77.6669C139.982 77.645 140.047 77.5759 140.178 77.6341C140.223 77.6541 140.261 77.6868 140.287 77.7281C140.314 77.7695 140.328 77.8177 140.328 77.8671C140.328 77.9164 140.314 77.9647 140.287 78.0061C140.261 78.0474 140.223 78.0801 140.178 78.1C140.129 78.1265 140.074 78.1372 140.02 78.1306C139.965 78.1241 139.914 78.1007 139.874 78.0636C139.844 78.0344 139.821 77.9981 139.809 77.9581C139.796 77.9181 139.794 77.8756 139.801 77.8343C139.827 77.6924 139.931 77.6705 139.939 77.6924C139.946 77.7142 139.917 77.7652 139.939 77.838C139.96 77.9108 140.011 77.9763 140.102 77.9326C140.192 77.8889 140.174 77.8088 140.102 77.747C140.029 77.6851 139.993 77.6924 139.982 77.6669Z" fill="#263238"/>
<path d="M140.521 78.8572C140.5 78.9045 140.387 78.9045 140.268 78.8572C140.148 78.8099 140.072 78.7298 140.091 78.6825C140.109 78.6351 140.224 78.6351 140.344 78.6825C140.463 78.7298 140.539 78.8099 140.521 78.8572Z" fill="#263238"/>
<path d="M140.655 79.5847C140.637 79.6357 140.55 79.6503 140.456 79.6211C140.362 79.592 140.3 79.5265 140.315 79.4755C140.329 79.4246 140.42 79.41 140.514 79.4428C140.608 79.4755 140.669 79.5374 140.655 79.5847Z" fill="#263238"/>
<path d="M140.877 80.0801C140.92 80.1056 140.909 80.2111 140.848 80.313C140.786 80.415 140.703 80.4805 140.659 80.4514C140.616 80.4222 140.627 80.3203 140.685 80.2184C140.702 80.1804 140.728 80.1476 140.762 80.1233C140.796 80.099 140.835 80.0841 140.877 80.0801Z" fill="#263238"/>
<path d="M141.007 80.586C140.982 80.586 141.068 80.4513 141.253 80.5022C141.306 80.5169 141.355 80.5445 141.394 80.5826C141.434 80.6207 141.464 80.6681 141.481 80.7206C141.502 80.794 141.494 80.8726 141.459 80.9403C141.424 81.008 141.365 81.0597 141.293 81.0846C141.228 81.111 141.157 81.1177 141.088 81.1042C141.019 81.0906 140.956 81.0573 140.906 81.0082C140.865 80.9612 140.843 80.9011 140.843 80.8389C140.843 80.7768 140.865 80.7167 140.906 80.6697C140.935 80.6399 140.976 80.6232 141.018 80.6232C141.06 80.6232 141.1 80.6399 141.13 80.6697C141.17 80.717 141.152 80.7534 141.13 80.7534C141.12 80.7546 141.11 80.7532 141.1 80.7494C141.091 80.7456 141.082 80.7394 141.076 80.7316C141.069 80.7273 141.061 80.7247 141.053 80.7239C141.045 80.7231 141.037 80.7241 141.029 80.7269C141.021 80.7297 141.014 80.7342 141.009 80.74C141.003 80.7459 140.999 80.7529 140.996 80.7607C140.987 80.7832 140.986 80.8079 140.992 80.8314C140.997 80.8549 141.01 80.876 141.029 80.8917C141.056 80.9114 141.088 80.9238 141.122 80.9276C141.155 80.9314 141.189 80.9266 141.221 80.9136C141.369 80.859 141.307 80.6915 141.199 80.6369C141.09 80.5823 141.025 80.6078 141.007 80.586Z" fill="#263238"/>
<path d="M141.542 81.5362C141.578 81.5726 141.542 81.6563 141.477 81.7218C141.412 81.7873 141.321 81.8019 141.285 81.7655C141.249 81.7291 141.285 81.6417 141.35 81.5798C141.415 81.518 141.495 81.4889 141.542 81.5362Z" fill="#263238"/>
<path d="M141.738 82.1622C141.778 82.1986 141.738 82.2896 141.677 82.366C141.615 82.4424 141.514 82.4788 141.474 82.4424C141.434 82.406 141.474 82.315 141.539 82.2386C141.604 82.1622 141.702 82.1258 141.738 82.1622Z" fill="#263238"/>
<path d="M145.433 98.3711C145.39 98.3966 145.292 98.3129 145.224 98.1818C145.155 98.0508 145.129 97.927 145.173 97.9015C145.216 97.8761 145.314 97.9598 145.386 98.0908C145.459 98.2219 145.481 98.3456 145.433 98.3711Z" fill="#263238"/>
<path d="M145.749 98.3709C145.702 98.3927 145.615 98.3053 145.557 98.1743C145.499 98.0433 145.492 97.9231 145.557 97.9013C145.622 97.8795 145.691 97.9668 145.749 98.0979C145.807 98.2289 145.796 98.349 145.749 98.3709Z" fill="#263238"/>
<path d="M146.194 98.6075V98.724C146.194 98.7786 146.248 98.8004 146.299 98.7713C146.349 98.7422 146.346 98.7021 146.299 98.6548C146.252 98.6075 146.215 98.6148 146.201 98.5893C146.187 98.5638 146.244 98.4983 146.36 98.5347C146.414 98.5523 146.459 98.5903 146.485 98.6406C146.512 98.6909 146.517 98.7495 146.501 98.804C146.483 98.8592 146.444 98.9049 146.393 98.9314C146.354 98.9599 146.307 98.9752 146.259 98.9752C146.211 98.9752 146.164 98.9599 146.125 98.9314C146.098 98.9068 146.078 98.8761 146.066 98.8418C146.054 98.8075 146.051 98.7708 146.056 98.7349C146.096 98.6002 146.187 98.582 146.194 98.6075Z" fill="#263238"/>
<path d="M147.309 98.8442C147.342 98.8842 147.273 98.9898 147.157 99.0772C147.041 99.1645 146.925 99.2009 146.893 99.1572C146.86 99.1136 146.929 99.0116 147.045 98.9243C147.161 98.8369 147.28 98.8005 147.309 98.8442Z" fill="#263238"/>
<path d="M147.675 99.2081C147.697 99.2554 147.646 99.3282 147.563 99.3719C147.48 99.4155 147.385 99.4119 147.364 99.3719C147.342 99.3318 147.389 99.2517 147.476 99.2081C147.563 99.1644 147.653 99.1644 147.675 99.2081Z" fill="#263238"/>
<path d="M148.188 99.7871C148.134 99.7871 148.083 99.7179 148.065 99.616C148.047 99.5141 148.083 99.4267 148.134 99.4194C148.185 99.4121 148.239 99.4886 148.254 99.5905C148.268 99.6924 148.239 99.7798 148.188 99.7871Z" fill="#263238"/>
<path d="M149.018 99.776C149.006 99.8226 149.006 99.8714 149.018 99.918C149.04 99.9908 149.087 100.042 149.166 99.9944C149.246 99.9471 149.224 99.8779 149.166 99.827C149.108 99.776 149.05 99.7906 149.036 99.7687C149.022 99.7469 149.079 99.6668 149.217 99.7032C149.257 99.7144 149.294 99.7356 149.324 99.7649C149.353 99.7941 149.375 99.8305 149.387 99.8706C149.402 99.9392 149.39 100.011 149.353 100.07C149.315 100.13 149.256 100.172 149.188 100.187C149.149 100.197 149.109 100.197 149.07 100.188C149.031 100.179 148.995 100.162 148.964 100.136C148.933 100.108 148.91 100.073 148.897 100.033C148.884 99.9939 148.88 99.9517 148.888 99.9107C148.906 99.7687 149.011 99.736 149.018 99.776Z" fill="#263238"/>
<path d="M150.003 100.158C150.039 100.198 149.985 100.3 149.883 100.387C149.782 100.475 149.673 100.515 149.641 100.475C149.608 100.435 149.659 100.333 149.76 100.246C149.862 100.158 149.97 100.118 150.003 100.158Z" fill="#263238"/>
<path d="M150.653 100.548C150.69 100.584 150.632 100.697 150.498 100.759C150.364 100.821 150.237 100.788 150.234 100.733C150.23 100.679 150.317 100.631 150.418 100.584C150.519 100.537 150.614 100.508 150.653 100.548Z" fill="#263238"/>
<path d="M151.146 101.258C151.095 101.276 151.03 101.218 151.001 101.13C150.972 101.043 151.001 100.959 151.037 100.945C151.073 100.93 151.153 100.985 151.182 101.072C151.211 101.159 151.193 101.243 151.146 101.258Z" fill="#263238"/>
<path d="M151.703 100.923C151.682 100.923 151.725 100.813 151.863 100.821C151.912 100.823 151.959 100.842 151.996 100.875C152.034 100.907 152.059 100.95 152.07 100.999C152.08 101.047 152.074 101.098 152.053 101.143C152.032 101.187 151.997 101.224 151.953 101.247C151.906 101.278 151.85 101.292 151.794 101.284C151.738 101.277 151.686 101.249 151.649 101.207C151.624 101.172 151.609 101.131 151.606 101.089C151.603 101.047 151.612 101.004 151.631 100.966C151.7 100.842 151.816 100.868 151.805 100.893C151.779 100.929 151.763 100.97 151.758 101.014C151.758 101.079 151.787 101.123 151.855 101.083C151.924 101.043 151.899 100.992 151.834 100.952C151.769 100.912 151.725 100.941 151.703 100.923Z" fill="#263238"/>
<path d="M152.225 100.413C152.182 100.442 152.106 100.413 152.055 100.336C152.004 100.26 152.001 100.18 152.055 100.151C152.109 100.122 152.174 100.151 152.225 100.227C152.276 100.304 152.269 100.384 152.225 100.413Z" fill="#263238"/>
<path d="M152.482 99.9944C152.445 100.031 152.369 100.016 152.311 99.958C152.254 99.8998 152.235 99.8233 152.272 99.7869C152.308 99.7505 152.387 99.7651 152.445 99.8233C152.503 99.8816 152.518 99.958 152.482 99.9944Z" fill="#263238"/>
<path d="M152.764 99.1938C152.739 99.1938 152.793 99.0955 152.905 99.1355C152.938 99.1476 152.967 99.1691 152.989 99.1976C153.01 99.2261 153.022 99.2602 153.025 99.2957C153.02 99.352 152.993 99.4043 152.951 99.4411C152.908 99.4779 152.853 99.4963 152.796 99.4922C152.764 99.4906 152.732 99.4811 152.704 99.4647C152.675 99.4482 152.651 99.4252 152.634 99.3976C152.618 99.3693 152.609 99.3373 152.609 99.3048C152.609 99.2723 152.618 99.2403 152.634 99.212C152.677 99.1173 152.757 99.1137 152.764 99.1355C152.768 99.1718 152.768 99.2084 152.764 99.2447C152.764 99.2551 152.767 99.2653 152.771 99.2746C152.775 99.284 152.782 99.2924 152.789 99.2993H152.862V99.2593C152.862 99.2593 152.793 99.212 152.764 99.1938Z" fill="#263238"/>
<path d="M153.344 99.787C153.317 99.7757 153.296 99.7549 153.284 99.7287C153.272 99.7024 153.27 99.6726 153.279 99.6451C153.28 99.6312 153.284 99.6177 153.291 99.6054C153.297 99.5931 153.306 99.5822 153.317 99.5734C153.328 99.5646 153.34 99.5581 153.353 99.5541C153.367 99.5502 153.381 99.5489 153.395 99.5504C153.421 99.561 153.442 99.5811 153.454 99.6068C153.466 99.6324 153.468 99.6617 153.46 99.6887C153.455 99.7164 153.441 99.7415 153.42 99.7596C153.399 99.7776 153.372 99.7874 153.344 99.787Z" fill="#263238"/>
<path d="M153.608 100.1C153.588 100.08 153.573 100.055 153.566 100.027C153.558 100 153.558 99.9712 153.564 99.9435C153.564 99.9145 153.573 99.8863 153.59 99.8628C153.607 99.8392 153.631 99.8217 153.658 99.8125C153.709 99.8125 153.77 99.8744 153.752 99.9763C153.734 100.078 153.647 100.133 153.608 100.1Z" fill="#263238"/>
<path d="M153.973 100.522C153.954 100.544 153.928 100.56 153.9 100.568C153.872 100.575 153.842 100.575 153.814 100.566C153.785 100.565 153.756 100.556 153.733 100.538C153.709 100.52 153.692 100.496 153.684 100.467C153.684 100.416 153.749 100.358 153.85 100.376C153.951 100.395 153.999 100.464 153.973 100.522Z" fill="#263238"/>
<path d="M154.27 100.879C154.252 100.861 154.299 100.788 154.411 100.806C154.446 100.814 154.478 100.829 154.505 100.852C154.533 100.875 154.554 100.904 154.567 100.937C154.583 100.993 154.576 101.052 154.548 101.103C154.52 101.153 154.474 101.19 154.419 101.207C154.381 101.217 154.342 101.218 154.305 101.208C154.267 101.198 154.233 101.179 154.205 101.152C154.184 101.121 154.173 101.085 154.173 101.048C154.173 101.011 154.184 100.975 154.205 100.944C154.263 100.835 154.364 100.864 154.354 100.89C154.336 100.919 154.327 100.954 154.328 100.988C154.328 101.035 154.328 101.035 154.35 101.035H154.386C154.422 101.035 154.411 101.014 154.415 101.003C154.411 100.981 154.4 100.962 154.383 100.948C154.328 100.901 154.285 100.901 154.27 100.879Z" fill="#263238"/>
<path d="M154.733 101.599C154.706 101.592 154.683 101.574 154.668 101.55C154.653 101.525 154.648 101.496 154.654 101.468C154.653 101.454 154.655 101.44 154.661 101.427C154.666 101.414 154.673 101.403 154.683 101.393C154.693 101.383 154.705 101.375 154.718 101.37C154.731 101.365 154.745 101.362 154.759 101.363C154.772 101.365 154.785 101.371 154.797 101.378C154.808 101.386 154.818 101.396 154.826 101.407C154.833 101.419 154.839 101.432 154.842 101.445C154.844 101.459 154.844 101.473 154.842 101.487C154.841 101.516 154.829 101.543 154.809 101.564C154.789 101.585 154.762 101.598 154.733 101.599Z" fill="#263238"/>
<path d="M155.436 101.225C155.436 101.276 155.335 101.301 155.233 101.276C155.132 101.25 155.06 101.192 155.07 101.141C155.081 101.09 155.175 101.068 155.277 101.09C155.378 101.112 155.447 101.192 155.436 101.225Z" fill="#263238"/>
<path d="M155.7 101.097C155.671 101.094 155.644 101.079 155.624 101.057C155.605 101.035 155.595 101.007 155.595 100.977C155.595 100.904 155.624 100.839 155.678 100.835C155.732 100.831 155.776 100.886 155.783 100.959C155.79 101.032 155.754 101.094 155.7 101.097Z" fill="#263238"/>
<path d="M156.193 100.704C156.142 100.704 156.099 100.646 156.099 100.573C156.099 100.501 156.142 100.442 156.193 100.442C156.243 100.442 156.287 100.501 156.287 100.573C156.287 100.646 156.247 100.704 156.193 100.704Z" fill="#263238"/>
<path d="M156.573 100.169C156.573 100.151 156.638 100.078 156.758 100.151C156.793 100.173 156.821 100.204 156.838 100.242C156.855 100.279 156.861 100.321 156.855 100.362C156.846 100.417 156.816 100.466 156.771 100.5C156.727 100.534 156.672 100.55 156.616 100.544C156.567 100.548 156.517 100.535 156.477 100.506C156.436 100.477 156.407 100.434 156.395 100.385C156.383 100.337 156.388 100.286 156.41 100.241C156.432 100.196 156.469 100.16 156.515 100.14C156.638 100.078 156.714 100.162 156.692 100.18C156.671 100.198 156.627 100.18 156.591 100.249C156.582 100.26 156.575 100.272 156.57 100.285C156.566 100.298 156.564 100.312 156.566 100.326C156.581 100.342 156.602 100.352 156.624 100.355C156.66 100.355 156.678 100.355 156.685 100.329C156.689 100.304 156.689 100.278 156.685 100.253C156.685 100.227 156.584 100.191 156.573 100.169Z" fill="#263238"/>
<path d="M157.554 99.8633C157.514 99.9033 157.445 99.8924 157.376 99.8851C157.308 99.8778 157.235 99.856 157.214 99.8087C157.192 99.7613 157.271 99.674 157.405 99.6958C157.539 99.7177 157.59 99.8305 157.554 99.8633Z" fill="#263238"/>
<path d="M158.049 99.6014C158.024 99.6487 157.922 99.6451 157.814 99.6269C157.705 99.6087 157.611 99.5759 157.604 99.5213C157.597 99.4667 157.709 99.4121 157.846 99.4376C157.984 99.4631 158.074 99.5577 158.049 99.6014Z" fill="#263238"/>
<path d="M158.332 99.3721C158.281 99.3721 158.245 99.3029 158.248 99.2301C158.252 99.1573 158.303 99.1027 158.357 99.11C158.411 99.1173 158.444 99.1755 158.437 99.2483C158.437 99.2782 158.426 99.3073 158.407 99.33C158.388 99.3528 158.361 99.3677 158.332 99.3721Z" fill="#263238"/>
<path d="M158.759 98.6986C158.74 98.6986 158.795 98.6003 158.925 98.6258C158.965 98.6362 159.002 98.6583 159.029 98.6894C159.057 98.7205 159.075 98.7592 159.081 98.8005C159.088 98.8535 159.077 98.9074 159.05 98.9536C159.023 98.9997 158.982 99.0355 158.932 99.0553C158.88 99.0716 158.824 99.0689 158.774 99.0476C158.723 99.0263 158.682 98.9877 158.657 98.9388C158.636 98.8998 158.63 98.8545 158.639 98.8111C158.648 98.7677 158.673 98.7291 158.708 98.7022C158.824 98.6185 158.907 98.7022 158.889 98.7022C158.871 98.7022 158.827 98.735 158.802 98.786C158.777 98.8369 158.802 98.8296 158.802 98.8406C158.809 98.8489 158.818 98.8556 158.828 98.86C158.838 98.8644 158.849 98.8665 158.86 98.866C158.87 98.8591 158.879 98.85 158.886 98.8393C158.893 98.8287 158.898 98.8167 158.9 98.8042C158.901 98.7922 158.898 98.7802 158.893 98.7694C158.888 98.7585 158.881 98.7492 158.871 98.7423C158.831 98.7132 158.773 98.7204 158.759 98.6986Z" fill="#263238"/>
<path d="M159.378 98.6803C159.35 98.6682 159.328 98.6463 159.315 98.6188C159.302 98.5913 159.3 98.5601 159.309 98.531C159.309 98.5156 159.312 98.5003 159.318 98.4861C159.324 98.4719 159.333 98.4591 159.344 98.4486C159.356 98.438 159.369 98.4298 159.383 98.4246C159.398 98.4194 159.413 98.4172 159.428 98.4182C159.479 98.4182 159.508 98.4946 159.494 98.5674C159.479 98.6402 159.428 98.6912 159.378 98.6803Z" fill="#263238"/>
<path d="M159.903 98.2366C159.876 98.2289 159.853 98.2111 159.838 98.1868C159.823 98.1625 159.818 98.1335 159.824 98.1055C159.821 98.0928 159.822 98.0798 159.825 98.0673C159.828 98.0548 159.834 98.0431 159.842 98.0329C159.85 98.0227 159.859 98.0142 159.871 98.0079C159.882 98.0016 159.894 97.9977 159.907 97.9963C159.92 97.9943 159.933 97.9948 159.945 97.9979C159.958 98.0011 159.97 98.0067 159.98 98.0145C159.991 98.0223 160 98.0321 160.006 98.0434C160.013 98.0546 160.017 98.0671 160.019 98.0801C160.022 98.0956 160.022 98.1118 160.019 98.1274C160.017 98.157 160.004 98.1848 159.983 98.2051C159.961 98.2254 159.933 98.2366 159.903 98.2366Z" fill="#263238"/>
<path d="M160.642 97.8069C160.613 97.8506 160.522 97.8433 160.428 97.8069C160.334 97.7705 160.251 97.7523 160.244 97.6977C160.236 97.6431 160.341 97.5921 160.472 97.6213C160.602 97.6504 160.671 97.7632 160.642 97.8069Z" fill="#263238"/>
<path d="M160.997 97.552C160.949 97.5738 160.877 97.5047 160.906 97.41C160.935 97.3154 161.029 97.2972 161.058 97.3409C161.07 97.3588 161.079 97.379 161.083 97.4002C161.087 97.4214 161.088 97.4434 161.083 97.4646C161.076 97.4846 161.064 97.5027 161.049 97.5178C161.034 97.5329 161.016 97.5445 160.997 97.552Z" fill="#263238"/>
<path d="M161.424 97.1336C161.396 97.1259 161.373 97.1081 161.358 97.0838C161.343 97.0595 161.338 97.0305 161.344 97.0026C161.344 96.9884 161.347 96.9744 161.352 96.9613C161.358 96.9483 161.366 96.9365 161.376 96.9266C161.386 96.9168 161.398 96.9091 161.411 96.904C161.425 96.8989 161.439 96.8965 161.453 96.897C161.48 96.904 161.503 96.921 161.518 96.9447C161.533 96.9684 161.538 96.997 161.532 97.0244C161.531 97.0528 161.519 97.0796 161.499 97.0997C161.479 97.1198 161.452 97.1319 161.424 97.1336Z" fill="#263238"/>
<path d="M156.203 77.7976L153.803 80.2255L159.616 85.973C159.616 85.973 160.8 82.5078 161.626 79.4574C162.208 77.3026 156.203 77.7976 156.203 77.7976Z" fill="#E9EAED"/>
<path d="M155.265 80.444C155.215 80.444 155.161 80.3385 155.146 80.2002C155.132 80.0618 155.164 79.9417 155.215 79.9381C155.265 79.9344 155.32 80.04 155.334 80.182C155.349 80.3239 155.316 80.444 155.265 80.444Z" fill="#263238"/>
<path d="M155.82 80.557C155.82 80.608 155.729 80.6517 155.617 80.6517C155.505 80.6517 155.418 80.608 155.418 80.557C155.418 80.5061 155.508 80.4624 155.617 80.4624C155.726 80.4624 155.82 80.5024 155.82 80.557Z" fill="#263238"/>
<path d="M155.971 81.365C155.924 81.3359 155.928 81.2522 155.928 81.1612C155.928 81.0702 155.928 80.9901 155.971 80.961C156.015 80.9319 156.116 81.012 156.116 81.1612C156.116 81.3104 156.022 81.3978 155.971 81.365Z" fill="#263238"/>
<path d="M156.449 81.4451C156.428 81.4451 156.511 81.3286 156.667 81.3796C156.714 81.3948 156.756 81.4223 156.789 81.4595C156.822 81.4966 156.845 81.5419 156.855 81.5907C156.862 81.6567 156.846 81.7232 156.81 81.7786C156.773 81.834 156.718 81.8747 156.655 81.8938C156.592 81.9128 156.524 81.9089 156.463 81.8828C156.403 81.8567 156.353 81.81 156.323 81.7509C156.306 81.7022 156.304 81.6496 156.317 81.5998C156.33 81.5499 156.357 81.505 156.395 81.4706C156.418 81.4481 156.445 81.4311 156.475 81.421C156.505 81.4109 156.537 81.408 156.569 81.4124C156.616 81.4124 156.63 81.4488 156.623 81.456C156.571 81.4749 156.526 81.5108 156.497 81.558C156.449 81.638 156.475 81.7436 156.602 81.7108C156.728 81.6781 156.696 81.5616 156.602 81.5034C156.507 81.4451 156.464 81.467 156.449 81.4451Z" fill="#263238"/>
<path d="M157.076 82.4277C157.029 82.4277 157.011 82.3295 157.036 82.2457C157.061 82.162 157.126 82.1074 157.177 82.122C157.228 82.1365 157.246 82.2203 157.217 82.304C157.188 82.3877 157.126 82.4423 157.076 82.4277Z" fill="#263238"/>
<path d="M157.619 82.3221C157.669 82.3221 157.687 82.475 157.658 82.6424C157.629 82.8098 157.564 82.9409 157.514 82.93C157.463 82.919 157.445 82.7771 157.474 82.6096C157.503 82.4422 157.568 82.3148 157.619 82.3221Z" fill="#263238"/>
<path d="M158.194 82.992C158.194 83.0429 158.104 83.0975 157.977 83.1121C157.85 83.1266 157.749 83.0939 157.742 83.0429C157.734 82.992 157.832 82.9374 157.959 82.9228C158.085 82.9082 158.194 82.9301 158.194 82.992Z" fill="#263238"/>
<path d="M158.429 83.2687C158.429 83.2468 158.506 83.1886 158.643 83.2468C158.685 83.2646 158.722 83.292 158.752 83.3268C158.781 83.3615 158.802 83.4027 158.813 83.447C158.825 83.5078 158.818 83.571 158.791 83.6269C158.764 83.6827 158.72 83.7282 158.665 83.7564C158.609 83.7901 158.542 83.8009 158.478 83.7867C158.414 83.7725 158.358 83.7344 158.321 83.68C158.297 83.6342 158.289 83.5819 158.299 83.5311C158.308 83.4804 158.333 83.4342 158.372 83.3997C158.395 83.3752 158.425 83.3581 158.457 83.3503C158.49 83.3425 158.525 83.3445 158.556 83.356C158.6 83.3742 158.607 83.3997 158.6 83.407C158.574 83.41 158.55 83.4197 158.53 83.4351C158.51 83.4504 158.494 83.4708 158.484 83.4943C158.444 83.5817 158.484 83.6399 158.589 83.5963C158.694 83.5526 158.658 83.4361 158.589 83.3706C158.52 83.3051 158.433 83.2978 158.429 83.2687Z" fill="#263238"/>
<path d="M159.037 84.5537C158.987 84.5537 158.943 84.4154 158.943 84.2479C158.943 84.0805 158.987 83.9458 159.037 83.9458C159.088 83.9458 159.132 84.0805 159.132 84.2479C159.132 84.4154 159.092 84.5537 159.037 84.5537Z" fill="#263238"/>
<path d="M158.162 75.3081C158.025 75.5919 157.849 75.8552 157.64 76.0907C157.278 76.5493 156.779 77.1827 156.192 77.827C155.606 78.4713 155.07 79.0791 154.676 79.5014C154.473 79.7405 154.249 79.9599 154.006 80.1566C154.17 79.8895 154.361 79.6395 154.574 79.4104C154.936 78.9699 155.472 78.3657 156.051 77.7032L157.535 76.0033C157.728 75.7572 157.937 75.5249 158.162 75.3081Z" fill="#263238"/>
<path d="M162.227 97.0899C162.227 97.1409 162.118 97.1591 162.01 97.1336C161.901 97.1081 161.825 97.0426 161.836 96.9916C161.847 96.9407 161.948 96.9225 162.053 96.948C162.158 96.9734 162.238 97.039 162.227 97.0899Z" fill="#263238"/>
<path d="M162.502 96.6457C162.502 96.6275 162.524 96.5693 162.629 96.562C162.663 96.5624 162.697 96.5729 162.725 96.5924C162.753 96.6118 162.775 96.6392 162.788 96.6712C162.799 96.6912 162.805 96.7131 162.807 96.7356C162.809 96.7581 162.806 96.7808 162.799 96.8022C162.792 96.8236 162.78 96.8434 162.765 96.8603C162.75 96.8772 162.732 96.8909 162.712 96.9005H162.676C162.495 96.9478 162.339 96.7695 162.419 96.6312C162.43 96.6103 162.448 96.5936 162.469 96.5831C162.491 96.5727 162.515 96.5692 162.538 96.5729C162.544 96.5726 162.549 96.5736 162.554 96.5759C162.559 96.5782 162.563 96.5817 162.566 96.586C162.569 96.5903 162.572 96.5954 162.572 96.6007C162.573 96.6061 162.573 96.6115 162.571 96.6166C162.56 96.6248 162.551 96.6359 162.545 96.6486C162.539 96.6614 162.537 96.6755 162.538 96.6894C162.538 96.6894 162.593 96.7294 162.625 96.7185C162.626 96.7109 162.625 96.703 162.621 96.6963C162.617 96.6896 162.611 96.6846 162.603 96.6821C162.564 96.6712 162.513 96.6712 162.502 96.6457Z" fill="#263238"/>
<path d="M131.692 83.7419C131.486 83.0539 128.89 81.6416 129.281 81.2594C129.788 80.7571 131.924 82.8537 132.116 83.0175C132.308 83.1813 132.543 82.901 132.362 82.7627C132.101 82.5625 129.401 80.4076 129.897 79.9126C130.172 79.6359 130.621 80.1929 130.621 80.1929C130.621 80.1929 133.003 82.4023 133.231 82.1585C133.459 81.9146 132.101 80.5678 131.613 80.1492C131.124 79.7306 131.127 79.3265 131.482 79.261C131.721 79.2137 133.249 80.4659 133.719 80.8954C134.19 81.3249 135.475 82.5188 135.305 81.4013V81.3504C135.109 80.2584 135.305 79.3447 135.558 79.1263C135.612 79.0727 135.68 79.0371 135.755 79.0245C135.829 79.012 135.906 79.0232 135.973 79.0564C136.041 79.0897 136.097 79.1435 136.133 79.2102C136.169 79.2769 136.183 79.3532 136.174 79.4285C136.185 79.4825 136.185 79.5382 136.174 79.5923V79.6723C136.163 80.0537 136.188 80.4352 136.25 80.8117C136.3 81.15 136.406 81.4774 136.565 81.7799C136.749 82.1439 136.927 82.4205 137.071 82.6644C138.805 83.6254 143.797 86.1625 148.797 86.5483C149.702 86.6175 154.281 80.6624 154.281 80.6624L158.773 85.0996C158.165 86.1443 157.952 86.3845 154.9 90.5814C149.922 97.4283 134.266 86.0897 134.266 86.0897L134.121 86.0169C132.932 85.4332 131.776 84.7818 130.66 84.0658C129.314 83.1158 129.393 82.992 129.527 82.8464C129.831 82.4642 131.902 84.448 131.692 83.7419Z" fill="#FFBE9D"/>
</svg>
