<svg width="24" height="24" viewBox="0 0 24 24" fill="none" xmlns="http://www.w3.org/2000/svg">
<g clip-path="url(#clip0_32_15469)">
<path d="M22.5098 12.7845V21.911H5.00177V12.7845H22.5098ZM23.9999 11.2944H3.51172V23.4011H23.9999V11.2944Z" fill="white"/>
<path d="M18.4121 11.2944L20.5094 13.3917C20.4935 13.469 20.4628 13.5407 20.4628 13.6226C20.4628 14.2904 21.0039 14.8305 21.6716 14.8305C21.7535 14.8305 21.8243 14.7998 21.9016 14.7849L23.9998 16.8821V11.2944H18.4121Z" fill="white"/>
<path d="M19.8094 18.5568C20.477 18.5568 21.0182 18.0156 21.0182 17.348C21.0182 16.6804 20.477 16.1392 19.8094 16.1392C19.1418 16.1392 18.6006 16.6804 18.6006 17.348C18.6006 18.0156 19.1418 18.5568 19.8094 18.5568Z" fill="white"/>
<path d="M13.7558 20.5272C15.7751 20.5272 17.412 19.1038 17.412 17.3478C17.412 15.5919 15.7751 14.1685 13.7558 14.1685C11.7365 14.1685 10.0996 15.5919 10.0996 17.3478C10.0996 19.1038 11.7365 20.5272 13.7558 20.5272Z" fill="white"/>
<path d="M7.70201 18.5554C8.3691 18.5554 8.90988 18.0146 8.90988 17.3475C8.90988 16.6804 8.3691 16.1396 7.70201 16.1396C7.03492 16.1396 6.49414 16.6804 6.49414 17.3475C6.49414 18.0146 7.03492 18.5554 7.70201 18.5554Z" fill="white"/>
<path d="M3.51172 16.8821L5.60896 14.7849C5.68626 14.8007 5.75796 14.8314 5.83992 14.8314C6.50764 14.8314 7.04779 14.2904 7.04779 13.6226C7.04779 13.5407 7.01705 13.4699 7.00122 13.3926L9.09939 11.2944H3.51172V16.8821Z" fill="white"/>
<path d="M7.04872 21.073C7.04872 20.4052 6.50764 19.8651 5.83992 19.8651C5.75796 19.8651 5.68719 19.8958 5.60989 19.9107L3.51172 17.8135V23.4012H9.09939L7.00215 21.3039C7.01799 21.2266 7.04872 21.154 7.04872 21.073Z" fill="white"/>
<path d="M21.6716 19.8642C21.0039 19.8642 20.4637 20.4052 20.4637 21.073C20.4637 21.1549 20.4945 21.2257 20.5103 21.303L18.4121 23.4012H23.9998V17.8135L21.9025 19.9107C21.8252 19.8949 21.7535 19.8642 21.6716 19.8642Z" fill="white"/>
<path d="M17.204 9.12814C17.871 9.12814 18.4118 8.58736 18.4118 7.92027C18.4118 7.25318 17.871 6.7124 17.204 6.7124C16.5369 6.7124 15.9961 7.25318 15.9961 7.92027C15.9961 8.58736 16.5369 9.12814 17.204 9.12814Z" fill="white"/>
<path d="M2.11494 11.2944C2.11494 10.5233 2.74076 9.89746 3.51185 9.89746H4.2755L4.30996 9.77825L15.0914 3.87394L15.9156 4.11421C15.9388 4.18871 15.9472 4.26694 15.9873 4.33865C16.3076 4.92536 17.0415 5.13862 17.6282 4.81826C17.699 4.77915 17.7474 4.71861 17.8061 4.66739L18.6321 4.90952L20.5105 8.3385L20.2693 9.16361C20.1957 9.18596 20.1175 9.19434 20.0458 9.23346C19.7729 9.38246 19.5913 9.62646 19.4954 9.89746H23.0631L20.6548 5.49902H20.6558L17.9709 0.598633L13.0686 3.28258H13.0696L4.90132 7.75551L0 10.4395L2.11494 14.3015V11.2944Z" fill="white"/>
<path d="M10.3664 8.04031C9.55528 8.4836 8.97137 9.15598 8.64355 9.89728H15.3795C15.3255 9.61324 15.2445 9.33478 15.101 9.0731C14.2564 7.53276 12.1377 7.07084 10.3664 8.04031Z" fill="white"/>
</g>
<defs>
<clipPath id="clip0_32_15469">
<rect width="24" height="24" fill="white"/>
</clipPath>
</defs>
</svg>
