<svg width="32" height="32" viewBox="0 0 32 32" fill="none" xmlns="http://www.w3.org/2000/svg">
<path d="M11 18L12.41 19.41L15 16.83V29H17V16.83L19.59 19.41L21 18L16 13L11 18Z" fill="#D12B2F"/>
<path d="M23.4999 22.0001H22.9999V20.0001H23.4999C24.6933 20.0478 25.8569 19.6195 26.7346 18.8093C27.6122 17.9992 28.1321 16.8735 28.1799 15.6801C28.2276 14.4866 27.7993 13.323 26.9891 12.4454C26.179 11.5677 25.0533 11.0478 23.8599 11.0001H22.9999L22.8999 10.1801C22.678 8.49651 21.8517 6.951 20.575 5.83144C19.2982 4.71188 17.658 4.09461 15.9599 4.09461C14.2618 4.09461 12.6215 4.71188 11.3448 5.83144C10.068 6.951 9.24172 8.49651 9.01986 10.1801L8.99986 11.0001H8.13986C6.94638 11.0478 5.82076 11.5677 5.0106 12.4454C4.20044 13.323 3.77212 14.4866 3.81986 15.6801C3.8676 16.8735 4.38749 17.9992 5.26516 18.8093C6.14283 19.6195 7.30638 20.0478 8.49986 20.0001H8.99986V22.0001H8.49986C6.89626 21.9899 5.35302 21.3873 4.16684 20.3082C2.98066 19.229 2.23528 17.7494 2.07399 16.1539C1.9127 14.5584 2.3469 12.9596 3.29311 11.6649C4.23932 10.3702 5.63074 9.47094 7.19986 9.14006C7.63157 7.12658 8.74069 5.32203 10.3422 4.02753C11.9437 2.73302 13.9406 2.02686 15.9999 2.02686C18.0591 2.02686 20.0561 2.73302 21.6575 4.02753C23.259 5.32203 24.3682 7.12658 24.7999 9.14006C26.369 9.47094 27.7604 10.3702 28.7066 11.6649C29.6528 12.9596 30.087 14.5584 29.9257 16.1539C29.7644 17.7494 29.0191 19.229 27.8329 20.3082C26.6467 21.3873 25.1035 21.9899 23.4999 22.0001Z" fill="#D12B2F"/>
</svg>
