<svg width="20" height="20" viewBox="0 0 20 20" fill="none" xmlns="http://www.w3.org/2000/svg">
<g clip-path="url(#clip0_32_2260)">
<path d="M18.441 7.90819L13.9099 1.27257C13.4716 0.630486 12.8065 0.19695 12.0377 0.0519509C11.2689 -0.0934134 10.4917 0.0687518 9.84957 0.507401C9.20748 0.94605 8.77395 1.61078 8.62895 2.3796C8.48395 3.14843 8.64575 3.92565 9.0844 4.56774L13.6155 11.2034C14.0538 11.8454 14.7189 12.279 15.4877 12.424C15.6714 12.4587 15.8559 12.4758 16.0385 12.4758C16.6203 12.4758 17.1872 12.3024 17.6759 11.9685C19.0061 11.0606 19.3494 9.23875 18.441 7.90819ZM9.34664 2.51511C9.45548 1.93803 9.78017 1.43912 10.2612 1.11077C10.6268 0.86095 11.0519 0.731291 11.488 0.731291C11.6254 0.731291 11.7641 0.744075 11.9022 0.770006C12.4793 0.878847 12.9782 1.20354 13.3065 1.68456L15.1601 4.399L11.5406 6.87056L9.68704 4.15575C9.35869 3.6751 9.2378 3.09218 9.34664 2.51511ZM17.2639 11.3659C16.7825 11.6942 16.1992 11.8148 15.6229 11.7067C15.0458 11.5978 14.5469 11.2731 14.2185 10.7921L11.953 7.47429L15.5725 5.00273L17.838 8.32055C18.5192 9.31801 18.2617 10.6844 17.2639 11.3659Z" fill="#4C956C"/>
<path d="M15.2755 14.1767L10.2976 13.5839L11.4091 12.2818C12.4551 11.0564 12.309 9.20835 11.0836 8.16231C10.4923 7.65755 9.73701 7.41431 8.95686 7.47494C8.17671 7.53666 7.46925 7.89642 6.96413 8.48774L1.74745 14.5992C1.24269 15.1909 0.998715 15.9462 1.06007 16.726C1.1218 17.5062 1.48156 18.2136 2.07288 18.7187C2.6043 19.1724 3.26793 19.4156 3.96298 19.4156C4.0415 19.4156 4.12039 19.4123 4.19965 19.4061C4.78147 19.3601 5.32275 19.1483 5.7698 18.798C6.03606 18.9167 6.31583 18.9952 6.60546 19.0296L14.5844 19.9795C14.7013 19.9934 14.8171 20.0004 14.9318 20.0004C16.3898 20.0004 17.6546 18.9065 17.831 17.4236C18.022 15.8235 16.8752 14.367 15.2755 14.1767ZM7.52002 8.96218C7.89804 8.51915 8.42873 8.2496 9.01457 8.20322C9.0741 8.19847 9.13363 8.19591 9.19244 8.19591C9.71399 8.19591 10.2114 8.37817 10.6092 8.71784C11.5285 9.50236 11.6377 10.8884 10.8532 11.8074L8.71909 14.3074L5.38557 11.4619L7.52002 8.96218ZM2.54732 18.1629C1.62802 17.3783 1.51881 15.9926 2.30334 15.0737L4.9115 12.0181L8.24501 14.8637L5.63686 17.9192L5.63649 17.9196C5.58244 17.9828 5.52509 18.0412 5.46593 18.0968L5.463 18.0997C4.65948 18.8484 3.40197 18.8922 2.54732 18.1629ZM6.3319 18.2297L9.72751 14.2515L11.1994 14.4269L10.6815 18.779L6.69203 18.3038C6.56967 18.2896 6.44951 18.2648 6.3319 18.2297ZM17.106 17.3371C16.9632 18.5369 15.8726 19.3985 14.671 19.2542L11.4072 18.8656L11.9251 14.5134L15.1893 14.902C15.7678 14.9707 16.2864 15.2629 16.6498 15.7242C17.0133 16.1855 17.1751 16.7585 17.106 17.3371Z" fill="#4C956C"/>
</g>
<defs>
<clipPath id="clip0_32_2260">
<rect width="20" height="20" fill="white"/>
</clipPath>
</defs>
</svg>
