<svg width="16" height="16" viewBox="0 0 16 16" fill="none" xmlns="http://www.w3.org/2000/svg">
<g clip-path="url(#clip0_32_2292)">
<path d="M5.92432 14.2222C6.4766 14.2222 6.92432 13.7745 6.92432 13.2222C6.92432 12.6699 6.4766 12.2222 5.92432 12.2222C5.37203 12.2222 4.92432 12.6699 4.92432 13.2222C4.92432 13.7745 5.37203 14.2222 5.92432 14.2222Z" fill="#2B2A29"/>
<path d="M12 14.2222C12.5523 14.2222 13 13.7745 13 13.2222C13 12.6699 12.5523 12.2222 12 12.2222C11.4477 12.2222 11 12.6699 11 13.2222C11 13.7745 11.4477 14.2222 12 14.2222Z" fill="#2B2A29"/>
<path d="M14.7021 2.38644C14.6608 2.33546 14.6086 2.29427 14.5494 2.26584C14.4903 2.23741 14.4255 2.22243 14.3599 2.222H5.10655L5.39544 3.11089H13.7777L12.591 8.44422H5.92433L3.89322 2.01311C3.87125 1.94487 3.8331 1.88296 3.78202 1.83265C3.73094 1.78235 3.66845 1.74515 3.59989 1.72422L1.77766 1.16422C1.72163 1.147 1.66276 1.14099 1.60441 1.14653C1.54605 1.15206 1.48936 1.16903 1.43756 1.19648C1.33296 1.25191 1.25466 1.34662 1.21989 1.45978C1.18511 1.57294 1.19672 1.69527 1.25214 1.79988C1.30757 1.90448 1.40228 1.98278 1.51544 2.01755L3.111 2.50644L5.151 8.95089L4.42211 9.54644L4.36433 9.60422C4.18404 9.81199 4.08184 10.0761 4.07535 10.3512C4.06886 10.6262 4.15848 10.8948 4.32878 11.1109C4.44991 11.2582 4.60385 11.3751 4.77826 11.4523C4.95267 11.5295 5.14273 11.5648 5.33322 11.5553H12.751C12.8689 11.5553 12.9819 11.5085 13.0653 11.4252C13.1486 11.3418 13.1954 11.2288 13.1954 11.1109C13.1954 10.993 13.1486 10.88 13.0653 10.7966C12.9819 10.7133 12.8689 10.6664 12.751 10.6664H5.26211C5.21093 10.6647 5.16107 10.6498 5.11733 10.6231C5.0736 10.5965 5.03748 10.559 5.01246 10.5143C4.98744 10.4697 4.97437 10.4193 4.9745 10.3681C4.97463 10.3169 4.98797 10.2665 5.01322 10.222L6.08433 9.33311H12.9466C13.0493 9.33562 13.1497 9.30245 13.2308 9.23924C13.3118 9.17604 13.3684 9.0867 13.391 8.98644L14.7999 2.76422C14.8134 2.69796 14.8116 2.62949 14.7947 2.56403C14.7777 2.49856 14.7461 2.43783 14.7021 2.38644Z" fill="#2B2A29"/>
</g>
<defs>
<clipPath id="clip0_32_2292">
<rect width="16" height="16" fill="white"/>
</clipPath>
</defs>
</svg>
