<svg width="16" height="16" viewBox="0 0 16 16" fill="none" xmlns="http://www.w3.org/2000/svg">
<g clip-path="url(#clip0_32_10176)">
<path d="M14.904 2.27652C13.8856 1.14351 12.6804 0.544922 11.4187 0.544922C10.0117 0.544922 8.74278 1.40259 8.00025 2.8197C7.2593 1.40259 5.99998 0.544922 4.60713 0.544922C3.34513 0.544922 2.17323 1.127 1.12313 2.27493C-0.107715 3.62139 -0.802521 6.67922 1.61592 8.96601C2.73184 10.0209 7.76914 15.3191 7.81979 15.3724C7.87015 15.4252 7.93998 15.4553 8.01276 15.4553H8.01301C8.08576 15.4553 8.15533 15.4255 8.2057 15.3729C8.2566 15.3196 13.3075 10.0331 14.4122 8.96385C16.7843 6.66722 16.1079 3.6158 14.904 2.27652Z" fill="#E0E0E0"/>
</g>
<defs>
<clipPath id="clip0_32_10176">
<rect width="16" height="16" fill="white"/>
</clipPath>
</defs>
</svg>
