<svg width="16" height="16" viewBox="0 0 16 16" fill="none" xmlns="http://www.w3.org/2000/svg">
<path d="M12.6667 9.33317V3.99984C12.6667 3.2665 12.0667 2.6665 11.3334 2.6665H2.00008C1.26675 2.6665 0.666748 3.2665 0.666748 3.99984V9.33317C0.666748 10.0665 1.26675 10.6665 2.00008 10.6665H11.3334C12.0667 10.6665 12.6667 10.0665 12.6667 9.33317ZM11.3334 9.33317H2.00008V3.99984H11.3334V9.33317ZM6.66675 4.6665C5.56008 4.6665 4.66675 5.55984 4.66675 6.6665C4.66675 7.77317 5.56008 8.6665 6.66675 8.6665C7.77342 8.6665 8.66675 7.77317 8.66675 6.6665C8.66675 5.55984 7.77342 4.6665 6.66675 4.6665ZM15.3334 4.6665V11.9998C15.3334 12.7332 14.7334 13.3332 14.0001 13.3332H2.66675V11.9998H14.0001V4.6665H15.3334Z" fill="#3772FF"/>
</svg>
