<svg width="16" height="16" viewBox="0 0 16 16" fill="none" xmlns="http://www.w3.org/2000/svg">
<path d="M6.50001 8.08377C7.45901 8.08027 8.31751 7.65177 8.89651 6.97627L8.90001 6.97177C9.36501 7.52227 10.056 7.86977 10.828 7.86977C12.219 7.86977 13.346 6.74227 13.346 5.35177C13.346 3.96127 12.2185 2.83377 10.828 2.83377C10.2425 2.83377 9.70401 3.03377 9.27601 3.36877L9.28151 3.36477C8.72851 2.37527 7.68801 1.71777 6.49351 1.71777C4.73551 1.71777 3.31051 3.14277 3.31051 4.90077C3.31051 6.65877 4.73551 8.08377 6.49351 8.08377C6.49601 8.08377 6.49801 8.08377 6.50051 8.08377H6.50001ZM9.57601 4.08577C9.89751 3.76427 10.342 3.56577 10.8325 3.56577C11.8145 3.56577 12.6105 4.36177 12.6105 5.34377C12.6105 6.32577 11.8145 7.12177 10.8325 7.12177C10.2105 7.12177 9.66301 6.80227 9.34551 6.31877L9.34151 6.31227C9.55751 5.90027 9.68601 5.41227 9.68951 4.89477V4.89377C9.68551 4.60277 9.64251 4.32327 9.56601 4.05827L9.57151 4.08027L9.57601 4.08577ZM6.50001 2.45427C7.84751 2.45427 8.93951 3.54677 8.93951 4.89377C8.93951 6.24077 7.84701 7.33327 6.50001 7.33327C5.15301 7.33327 4.06051 6.24077 4.06051 4.89377C4.06051 4.89377 4.06051 4.89377 4.06051 4.89327C4.06201 3.54627 5.15351 2.45527 6.50051 2.45377L6.50001 2.45427ZM15.366 12.4978C14.897 10.3878 13.042 8.83377 10.8235 8.83377C9.96101 8.83377 9.15351 9.06877 8.46101 9.47827L8.48251 9.46627C7.89251 9.24927 7.21101 9.12277 6.50001 9.12177H6.49951C3.64301 9.13377 1.25551 11.1283 0.641012 13.7998L0.633012 13.8403C0.627512 13.8643 0.624512 13.8918 0.624512 13.9203C0.624512 14.1273 0.792512 14.2953 0.999512 14.2953C1.17801 14.2953 1.32751 14.1703 1.36501 14.0028L1.36551 14.0003C1.90101 11.6218 3.99601 9.87127 6.49951 9.87127C9.00301 9.87127 11.0975 11.6213 11.6265 13.9653L11.633 14.0003C11.671 14.1703 11.82 14.2953 11.999 14.2953H11.9995C12.028 14.2953 12.0555 14.2918 12.082 14.2858L12.0795 14.2863C12.2495 14.2483 12.3745 14.0988 12.3745 13.9198C12.3745 13.8913 12.3715 13.8638 12.3655 13.8373L12.366 13.8398C11.971 12.1128 10.8755 10.6973 9.40151 9.88177L9.37051 9.86627C9.80201 9.68727 10.3025 9.58327 10.828 9.58327C12.688 9.58327 14.243 10.8878 14.629 12.6318L14.634 12.6578C14.672 12.8278 14.821 12.9528 15 12.9528H15.0005C15.029 12.9528 15.0565 12.9493 15.083 12.9433L15.0805 12.9438C15.2505 12.9058 15.3755 12.7563 15.3755 12.5773C15.3755 12.5488 15.3725 12.5213 15.3665 12.4948L15.367 12.4973L15.366 12.4978Z" fill="#3772FF"/>
</svg>
