<svg width="16" height="16" viewBox="0 0 16 16" fill="none" xmlns="http://www.w3.org/2000/svg">
<path d="M13.3333 1.3335C13.5101 1.3335 13.6797 1.40373 13.8047 1.52876C13.9298 1.65378 14 1.82335 14 2.00016V14.0002C14 14.177 13.9298 14.3465 13.8047 14.4716C13.6797 14.5966 13.5101 14.6668 13.3333 14.6668H4C3.82319 14.6668 3.65362 14.5966 3.5286 14.4716C3.40357 14.3465 3.33333 14.177 3.33333 14.0002V12.6668H2V11.3335H3.33333V10.0002H2V8.66683H3.33333V7.3335H2V6.00016H3.33333V4.66683H2V3.3335H3.33333V2.00016C3.33333 1.82335 3.40357 1.65378 3.5286 1.52876C3.65362 1.40373 3.82319 1.3335 4 1.3335H13.3333ZM12.6667 2.66683H4.66667V13.3335H12.6667V2.66683ZM9.33333 5.3335V7.3335H11.3333V8.66683H9.33267L9.33333 10.6668H8L7.99933 8.66683H6V7.3335H8V5.3335H9.33333Z" fill="#D12B2F"/>
</svg>
