<svg width="50" height="50" viewBox="0 0 50 50" fill="none" xmlns="http://www.w3.org/2000/svg">
<path d="M9.01683 4.8835C9.01683 2.7835 10.7335 1.0835 12.8335 1.0835C14.9335 1.0835 16.6502 2.76683 16.6502 4.8835C16.6502 7.00016 14.9335 8.70016 12.8335 8.70016C10.7335 8.70016 9.01683 6.9835 9.01683 4.8835ZM24.6668 23.1668H20.9335C20.1668 23.1668 19.4835 22.8668 19.0002 22.3335V33.5002H17.6668V47.0835C17.6668 48.2335 16.7335 49.1668 15.5835 49.1668C14.4335 49.1668 13.5002 48.2335 13.5002 47.0835V33.5002H12.1668V47.0835C12.1668 48.2335 11.2335 49.1668 10.0835 49.1668C8.9335 49.1668 8.00016 48.2335 8.00016 47.0835V33.5002H6.66683V28.0168C6.26683 28.4168 5.70016 28.6668 5.0835 28.6668C3.85016 28.6668 2.8335 27.6502 2.8335 26.4168V14.5002C2.8335 11.8335 5.00016 9.66683 7.66683 9.66683H10.0335L12.0002 12.7668V9.66683H13.6668V12.7668L15.6335 9.66683H18.0002C20.6668 9.66683 22.8335 11.8335 22.8335 14.5002V18.6668H24.6668V16.1668H27.5002V18.6668H28.2335C29.4835 18.6668 30.5002 19.6835 30.5002 20.9335C30.5002 22.4835 29.1502 23.2002 28.2335 23.2002H27.5002V24.4335C27.5002 25.2168 26.8668 25.8502 26.0835 25.8502C25.3002 25.8502 24.6668 25.2168 24.6668 24.4335V23.1668ZM27.5002 21.8502H28.2335C28.7502 21.8502 29.1668 21.4835 29.1668 20.9168C29.1668 20.4002 28.7502 19.9835 28.2335 19.9835L27.5002 20.0002V21.8502ZM24.6668 21.8502V20.0002H21.5002V14.5002C21.5002 12.5668 19.9335 11.0002 18.0002 11.0002H16.3668L12.8335 16.5835L9.30016 11.0002H7.66683C5.7335 11.0002 4.16683 12.5668 4.16683 14.5002V26.4168C4.16683 26.9168 4.5835 27.3335 5.0835 27.3335C5.5835 27.3335 6.00016 26.9168 6.00016 26.4168V16.1668L8.00016 16.1835V32.1835H17.6668V16.1835H19.6668V20.6002C19.6668 21.3002 20.2335 21.8502 20.9335 21.8502H24.6668ZM43.1668 29.1668V27.1668H38.1502C36.8335 26.5002 36.0168 25.4835 36.0168 24.4002C36.0168 23.2668 36.9335 22.1835 38.4002 21.5168L39.6168 23.6168L41.7168 22.4002L38.0335 16.0335L35.9335 17.2502L37.5668 20.0668C35.5668 21.0168 34.3668 22.6168 34.3668 24.4002C34.3668 25.4002 34.7668 26.3502 35.4668 27.1668H33.8335V29.1668H24.6668V31.1668H47.1668V29.1668H43.1668ZM39.8668 25.4668L43.1335 23.5835L42.6502 22.7335L39.3835 24.6168L39.8668 25.4668Z" fill="#3772FF"/>
</svg>
