<svg width="24" height="24" viewBox="0 0 24 24" fill="none" xmlns="http://www.w3.org/2000/svg">
<path d="M11.0999 8.76835C10.9079 8.98915 10.7999 9.29395 10.7999 9.59995C10.7999 9.75908 10.7367 9.91169 10.6242 10.0242C10.5117 10.1367 10.359 10.1999 10.1999 10.1999C10.0408 10.1999 9.88817 10.1367 9.77565 10.0242C9.66313 9.91169 9.59991 9.75908 9.59991 9.59995C9.59991 9.03235 9.79311 8.43595 10.1999 7.97515C10.6163 7.50235 11.2319 7.19995 11.9999 7.19995C12.7679 7.19995 13.3835 7.50235 13.7999 7.97515C14.2067 8.43715 14.3999 9.03115 14.3999 9.59995C14.3999 10.1879 14.2607 10.6439 14.0375 11.0279C13.8419 11.3627 13.5863 11.6279 13.3835 11.8403L13.3331 11.8919C13.1099 12.1259 12.9383 12.3167 12.8123 12.5567C12.6923 12.7859 12.5999 13.0895 12.5999 13.5515C12.5999 13.7107 12.5367 13.8633 12.4242 13.9758C12.3117 14.0883 12.159 14.1515 11.9999 14.1515C11.8408 14.1515 11.6882 14.0883 11.5756 13.9758C11.4631 13.8633 11.3999 13.7107 11.3999 13.5515C11.3999 12.9131 11.5319 12.4151 11.7491 11.9999C11.9615 11.5955 12.2411 11.2991 12.4667 11.0627L12.4931 11.0351C12.7187 10.7987 12.8795 10.6307 13.0007 10.4231C13.1147 10.2275 13.1999 9.98035 13.1999 9.59995C13.1999 9.29395 13.0931 8.98795 12.8999 8.76835C12.7163 8.56075 12.4319 8.39995 11.9999 8.39995C11.5679 8.39995 11.2835 8.56075 11.0999 8.76835ZM11.9999 17.0543C12.1128 17.0586 12.2254 17.0401 12.331 16.9998C12.4365 16.9595 12.5329 16.8984 12.6143 16.82C12.6957 16.7417 12.7604 16.6477 12.8046 16.5437C12.8489 16.4398 12.8717 16.3279 12.8717 16.2149C12.8717 16.102 12.8489 15.9901 12.8046 15.8862C12.7604 15.7822 12.6957 15.6882 12.6143 15.6099C12.5329 15.5315 12.4365 15.4704 12.331 15.4301C12.2254 15.3898 12.1128 15.3713 11.9999 15.3755C11.7771 15.3755 11.5635 15.464 11.4059 15.6216C11.2484 15.7791 11.1599 15.9928 11.1599 16.2155C11.1599 16.4383 11.2484 16.652 11.4059 16.8095C11.5635 16.967 11.7771 17.0555 11.9999 17.0555V17.0543ZM2.39991 11.9999C2.40044 9.90214 3.0881 7.86224 4.35774 6.19226C5.62737 4.52227 7.40907 3.31413 9.43034 2.75263C11.4516 2.19112 13.6012 2.30715 15.5502 3.08298C17.4993 3.8588 19.1406 5.25171 20.2231 7.04867C21.3056 8.84562 21.7697 10.9477 21.5444 13.0334C21.3191 15.119 20.4168 17.0735 18.9755 18.5978C17.5343 20.1222 15.6334 21.1324 13.5636 21.4741C11.4938 21.8158 9.36904 21.4702 7.51431 20.49L3.14631 21.5819C3.04578 21.6072 2.94042 21.606 2.8405 21.5784C2.74057 21.5509 2.6495 21.4979 2.57614 21.4247C2.50278 21.3514 2.44965 21.2604 2.42192 21.1606C2.39419 21.0607 2.39281 20.9553 2.41791 20.8547L3.50991 16.4855C2.77875 15.1036 2.39762 13.5634 2.39991 11.9999ZM11.9999 3.59995C10.534 3.5995 9.09343 3.9827 7.82146 4.71147C6.54949 5.44024 5.49039 6.48919 4.74941 7.75408C4.00843 9.01897 3.61138 10.4558 3.59772 11.9216C3.58405 13.3875 3.95425 14.8315 4.67151 16.1099C4.74684 16.2433 4.76831 16.4005 4.73151 16.5491L3.82431 20.1755L7.45071 19.2683C7.5994 19.2316 7.75654 19.253 7.88991 19.3284C9.00982 19.9557 10.2586 20.3181 11.5404 20.3876C12.8222 20.4571 14.1029 20.232 15.2841 19.7294C16.4653 19.2268 17.5156 18.4602 18.3543 17.4884C19.193 16.5167 19.7979 15.3656 20.1224 14.1236C20.447 12.8817 20.4826 11.5819 20.2264 10.324C19.9703 9.06613 19.4293 7.8837 18.645 6.86751C17.8607 5.85133 16.8539 5.02841 15.702 4.46198C14.55 3.89554 13.2836 3.60065 11.9999 3.59995Z" fill="#828282"/>
</svg>
