<svg width="20" height="20" viewBox="0 0 20 20" fill="none" xmlns="http://www.w3.org/2000/svg">
<g clip-path="url(#clip0_32_8951)">
<path d="M6.29352 9.60889C5.24537 9.60889 4.39258 10.4617 4.39258 11.5098C4.39258 12.558 5.24537 13.4108 6.29352 13.4108C7.34167 13.4108 8.19446 12.558 8.19446 11.5098C8.19446 10.4617 7.34167 9.60889 6.29352 9.60889ZM6.29352 12.0798C5.97924 12.0798 5.72362 11.8242 5.72362 11.5099C5.72362 11.1957 5.97924 10.9401 6.29352 10.9401C6.6078 10.9401 6.86342 11.1957 6.86342 11.5099C6.86342 11.8242 6.6078 12.0798 6.29352 12.0798Z" fill="#FDC500"/>
<path d="M7.94079 6.58887C7.19533 6.58887 6.58887 7.1954 6.58887 7.94079C6.58887 8.68617 7.19533 9.29271 7.94079 9.29271C8.68617 9.29271 9.29271 8.68617 9.29271 7.94079C9.29271 7.1954 8.68617 6.58887 7.94079 6.58887ZM7.94079 7.96153C7.92934 7.96153 7.91998 7.95217 7.91998 7.94072C7.91998 7.92927 7.92934 7.91991 7.94079 7.91991C7.95223 7.91991 7.96159 7.92927 7.96159 7.94072C7.96153 7.95223 7.95223 7.96153 7.94079 7.96153Z" fill="#FDC500"/>
<path d="M18.2363 2.1963H10.5389V1.33111H11.2249C11.5925 1.33111 11.8905 1.03313 11.8905 0.665589C11.8905 0.298047 11.5925 0 11.2249 0H3.11538C2.74784 0 2.44979 0.298047 2.44979 0.665589C2.44979 1.03313 2.74784 1.33111 3.11538 1.33111H3.80138V2.19636H1.76373C1.39619 2.19636 1.09814 2.49441 1.09814 2.86195C1.09814 3.2295 1.39619 3.52754 1.76373 3.52754H3.80138V6.42788C2.12468 7.54896 1.09814 9.44983 1.09814 11.4784C1.09814 14.8265 3.82198 17.5503 7.17006 17.5503C10.5181 17.5503 13.2421 14.8265 13.2421 11.4784C13.2421 9.44983 12.2156 7.54902 10.5388 6.42788V3.52754H17.5707V18.669H2.86192C2.49437 18.669 2.19633 18.967 2.19633 19.3345C2.19633 19.7021 2.49437 20.0001 2.86192 20.0001H18.2363C18.6039 20.0001 18.9019 19.7021 18.9019 19.3345V2.86189C18.9018 2.49434 18.6039 2.1963 18.2363 2.1963ZM5.13249 1.33111H9.20784V2.19636H5.13249V1.33111ZM9.53996 7.37306C11.0025 8.21939 11.911 9.79246 11.911 11.4783C11.911 14.0924 9.78427 16.2191 7.17013 16.2191C4.55612 16.2191 2.42939 14.0924 2.42939 11.4783C2.42939 9.79246 3.33788 8.21946 4.80037 7.37306C5.00596 7.25408 5.13256 7.03455 5.13256 6.79697V3.52748H9.20791V6.79704C9.20777 7.03455 9.33437 7.25408 9.53996 7.37306Z" fill="#FDC500"/>
</g>
<defs>
<clipPath id="clip0_32_8951">
<rect width="20" height="20" fill="white"/>
</clipPath>
</defs>
</svg>
