<svg width="16" height="16" viewBox="0 0 16 16" fill="none" xmlns="http://www.w3.org/2000/svg">
<path fill-rule="evenodd" clip-rule="evenodd" d="M5.54978 3.10856L5.56812 3.02856C5.60312 2.8799 5.66045 2.66123 5.77878 2.4459C5.89945 2.22656 6.08645 2.00423 6.37978 1.8579C6.67212 1.71223 7.03845 1.6579 7.49145 1.7179C7.99145 1.78456 8.99578 1.9499 9.88312 2.40123C10.7755 2.85523 11.6115 3.63623 11.6115 4.9369C11.6115 5.6089 11.3515 6.3299 11.0995 6.7999C10.9785 7.0259 10.8348 7.2419 10.6908 7.35823C10.6578 7.3849 10.6108 7.41823 10.5525 7.44156C10.3924 7.96742 10.0739 8.43102 9.64044 8.76898C9.20696 9.10694 8.67967 9.30277 8.13067 9.32969C7.58167 9.35661 7.03776 9.21331 6.57329 8.91938C6.10882 8.62545 5.74647 8.19524 5.53578 7.68756L5.52778 7.6889L5.40945 7.54523L5.66678 7.33323L5.40945 7.54523L5.40912 7.54456L5.40845 7.5439L5.40678 7.54156L5.40112 7.5349C5.37259 7.49939 5.34514 7.46304 5.31878 7.4259C5.24681 7.32606 5.17897 7.22331 5.11545 7.1179C4.95878 6.85856 4.76978 6.48923 4.64878 6.05823C4.52812 5.62723 4.47278 5.1219 4.59945 4.60056C4.72278 4.09323 5.01378 3.5939 5.54078 3.1479L5.54978 3.10856ZM6.10978 7.32123C6.25435 7.73698 6.53197 8.09345 6.89964 8.33545C7.26731 8.57745 7.70452 8.69147 8.14354 8.65984C8.58257 8.62822 8.99892 8.45272 9.32811 8.16052C9.6573 7.86832 9.88096 7.47574 9.96445 7.04356L10.0021 7.05623C10.0008 7.03737 10.0001 7.01847 10.0001 6.99956C10.0001 6.4479 9.92345 6.0629 9.85212 5.8229C9.83819 5.77618 9.82274 5.72993 9.80578 5.68423L9.79212 5.6849H9.77878C9.52953 5.69028 9.28035 5.6713 9.03478 5.62823C8.46245 5.53156 7.68745 5.29023 6.77478 4.73123C6.75478 4.7759 6.73478 4.82623 6.71478 4.88223C6.64945 5.06723 6.59578 5.2869 6.54945 5.5189C6.50845 5.72323 6.47478 5.9289 6.44278 6.12156L6.43045 6.19756C6.39612 6.40423 6.36178 6.60723 6.32178 6.75423C6.25178 7.00956 6.18045 7.1909 6.10978 7.3209V7.32123ZM5.64312 6.70023C5.49256 6.4418 5.37434 6.16584 5.29112 5.87856C5.19145 5.52323 5.15478 5.13856 5.24745 4.75823C5.33745 4.38823 5.55512 3.99923 6.00278 3.63056C6.08345 3.5759 6.12012 3.50256 6.13012 3.4829V3.48256C6.14762 3.44652 6.16168 3.40891 6.17212 3.37023C6.18278 3.33223 6.19445 3.28023 6.20545 3.23356L6.21712 3.18123C6.24878 3.0469 6.28978 2.90056 6.36312 2.7669C6.43445 2.63756 6.53212 2.5269 6.67745 2.45456C6.82345 2.38156 7.04945 2.33156 7.40345 2.3789C7.88778 2.44323 8.79878 2.59756 9.58078 2.99556C10.3575 3.39056 10.9448 3.98856 10.9448 4.9369C10.9448 5.37356 10.7981 5.87023 10.6215 6.2619C10.5881 6.00656 10.5401 5.7979 10.4908 5.63256C10.4564 5.5144 10.4135 5.39887 10.3625 5.2869C10.3432 5.2454 10.3221 5.2048 10.2991 5.16523L10.2935 5.15623L10.2915 5.1529L10.2905 5.15123L10.2898 5.15023L10.0098 5.33023L10.2898 5.15023L10.1665 4.9589L9.94578 5.00323L9.94112 5.00423L9.90878 5.00856C9.85918 5.01409 9.80935 5.01743 9.75945 5.01856C9.55393 5.02253 9.34852 5.00646 9.14612 4.97056C8.60845 4.8799 7.81845 4.6329 6.85878 3.9939L6.62545 3.83823L6.43245 4.04156C6.27345 4.2089 6.16545 4.43723 6.08645 4.65956C6.00578 4.8879 5.94478 5.1429 5.89578 5.38756C5.85516 5.59577 5.81826 5.8047 5.78512 6.01423L5.77245 6.0889C5.73678 6.3059 5.70778 6.47156 5.67845 6.5789C5.66751 6.61958 5.65573 6.66003 5.64312 6.70023ZM10.2701 6.8409L10.2715 6.84023L10.2701 6.8409ZM10.2715 6.84023L10.2701 6.8409L10.2711 6.84023H10.2715Z" fill="#3772FF"/>
<path fill-rule="evenodd" clip-rule="evenodd" d="M5.97133 9.6184C5.90067 9.47773 5.81367 9.30407 5.66667 9.33773C3.86533 9.74773 2 10.9314 2 12.1901V14.0001H14V12.1901C14 11.1987 12.8427 10.2537 11.471 9.69673L11.4693 9.6934C11.4678 9.69039 11.4663 9.68738 11.4647 9.6844L11.4537 9.68973C11.0893 9.54307 10.71 9.42307 10.3333 9.33773C10.1657 9.2994 9.99233 9.53007 9.91667 9.6744H6C5.99067 9.65707 5.98133 9.63773 5.97133 9.6184ZM10.4677 10.0584C10.6133 10.0987 10.7583 10.1441 10.9013 10.1941C10.9053 10.3081 10.8967 10.4427 10.878 10.5801C10.859 10.7223 10.8287 10.8627 10.7873 11.0001H10.3333C10.2714 11.0001 10.2108 11.0174 10.1582 11.0499C10.1055 11.0825 10.063 11.129 10.0353 11.1844L9.702 11.8511C9.67882 11.8973 9.66672 11.9483 9.66667 12.0001V12.6667C9.66667 12.7551 9.70179 12.8399 9.7643 12.9024C9.82681 12.9649 9.91159 13.0001 10 13.0001H10.6667V12.3334H10.3333V12.0787L10.5393 11.6667H11.4607L11.6667 12.0787V12.3334H11.3333V13.0001H12C12.0884 13.0001 12.1732 12.9649 12.2357 12.9024C12.2982 12.8399 12.3333 12.7551 12.3333 12.6667V12.0001C12.3333 11.9483 12.3212 11.8973 12.298 11.8511L11.9647 11.1844C11.937 11.129 11.8945 11.0825 11.8418 11.0499C11.7892 11.0174 11.7286 11.0001 11.6667 11.0001H11.478C11.5192 10.8237 11.5468 10.6444 11.5607 10.4637C11.8857 10.6174 12.1877 10.7937 12.4493 10.9844C13.09 11.4517 13.3333 11.8891 13.3333 12.1901V13.3334H2.66667V12.1901C2.66667 11.8891 2.91 11.4517 3.55067 10.9844C3.87267 10.7494 4.257 10.5367 4.669 10.3607C4.68044 10.6264 4.72307 10.8897 4.796 11.1454L4.79867 11.1547C4.59939 11.2808 4.45107 11.4732 4.37991 11.6981C4.30875 11.9229 4.31933 12.1656 4.40977 12.3834C4.50022 12.6011 4.66471 12.78 4.8742 12.8882C5.08369 12.9965 5.3247 13.0272 5.55466 12.975C5.78461 12.9228 5.98873 12.791 6.13095 12.6029C6.27317 12.4148 6.34434 12.1825 6.3319 11.9471C6.31946 11.7116 6.2242 11.4881 6.06296 11.316C5.90171 11.144 5.68484 11.0344 5.45067 11.0067C5.40807 10.8673 5.37686 10.7246 5.35733 10.5801C5.33878 10.4508 5.33108 10.3203 5.33433 10.1897C5.3353 10.1648 5.33697 10.1399 5.33933 10.1151C5.37933 10.1027 5.41933 10.0907 5.45933 10.0794L5.59767 10.3414H10.319L10.4677 10.0587V10.0584ZM5.33333 12.3387C5.51267 12.3387 5.66667 12.1921 5.66667 12.0004C5.66667 11.8091 5.51267 11.6621 5.33333 11.6621C5.154 11.6621 5 11.8087 5 12.0004C5 12.1917 5.154 12.3387 5.33333 12.3387Z" fill="#3772FF"/>
</svg>
