<svg width="77" height="13" viewBox="0 0 77 13" fill="none" xmlns="http://www.w3.org/2000/svg">
<path d="M11.5288 4.48282L8.30549 4.01436L6.86457 1.09317C6.82521 1.01319 6.76047 0.948442 6.68049 0.909087C6.4799 0.810063 6.23615 0.892583 6.13586 1.09317L4.69494 4.01436L1.4716 4.48282C1.38273 4.49551 1.30148 4.53741 1.23928 4.60088C1.16407 4.67818 1.12263 4.78217 1.12406 4.89001C1.12549 4.99785 1.16967 5.1007 1.24689 5.17598L3.57902 7.44971L3.02805 10.6604C3.01513 10.735 3.02339 10.8119 3.0519 10.8821C3.08042 10.9523 3.12804 11.0131 3.18936 11.0577C3.25069 11.1022 3.32327 11.1287 3.39888 11.1341C3.47448 11.1395 3.55008 11.1236 3.61711 11.0882L6.50021 9.57237L9.38332 11.0882C9.46203 11.1301 9.55344 11.144 9.64104 11.1288C9.86193 11.0907 10.0105 10.8813 9.97238 10.6604L9.42141 7.44971L11.7535 5.17598C11.817 5.11377 11.8589 5.03252 11.8716 4.94366C11.9059 4.72149 11.751 4.51583 11.5288 4.48282Z" fill="#FCC210"/>
<path d="M27.5288 4.48282L24.3055 4.01436L22.8646 1.09317C22.8252 1.01319 22.7605 0.948442 22.6805 0.909087C22.4799 0.810063 22.2362 0.892583 22.1359 1.09317L20.6949 4.01436L17.4716 4.48282C17.3827 4.49551 17.3015 4.53741 17.2393 4.60088C17.1641 4.67818 17.1226 4.78217 17.1241 4.89001C17.1255 4.99785 17.1697 5.1007 17.2469 5.17598L19.579 7.44971L19.028 10.6604C19.0151 10.735 19.0234 10.8119 19.0519 10.8821C19.0804 10.9523 19.128 11.0131 19.1894 11.0577C19.2507 11.1022 19.3233 11.1287 19.3989 11.1341C19.4745 11.1395 19.5501 11.1236 19.6171 11.0882L22.5002 9.57237L25.3833 11.0882C25.462 11.1301 25.5534 11.144 25.641 11.1288C25.8619 11.0907 26.0105 10.8813 25.9724 10.6604L25.4214 7.44971L27.7535 5.17598C27.817 5.11377 27.8589 5.03252 27.8716 4.94366C27.9059 4.72149 27.751 4.51583 27.5288 4.48282Z" fill="#FCC210"/>
<path d="M43.5288 4.48282L40.3055 4.01436L38.8646 1.09317C38.8252 1.01319 38.7605 0.948442 38.6805 0.909087C38.4799 0.810063 38.2362 0.892583 38.1359 1.09317L36.6949 4.01436L33.4716 4.48282C33.3827 4.49551 33.3015 4.53741 33.2393 4.60088C33.1641 4.67818 33.1226 4.78217 33.1241 4.89001C33.1255 4.99785 33.1697 5.1007 33.2469 5.17598L35.579 7.44971L35.028 10.6604C35.0151 10.735 35.0234 10.8119 35.0519 10.8821C35.0804 10.9523 35.128 11.0131 35.1894 11.0577C35.2507 11.1022 35.3233 11.1287 35.3989 11.1341C35.4745 11.1395 35.5501 11.1236 35.6171 11.0882L38.5002 9.57237L41.3833 11.0882C41.462 11.1301 41.5534 11.144 41.641 11.1288C41.8619 11.0907 42.0105 10.8813 41.9724 10.6604L41.4214 7.44971L43.7535 5.17598C43.817 5.11377 43.8589 5.03252 43.8716 4.94366C43.9059 4.72149 43.751 4.51583 43.5288 4.48282Z" fill="#FCC210"/>
<path d="M59.5288 4.48282L56.3055 4.01436L54.8646 1.09317C54.8252 1.01319 54.7605 0.948442 54.6805 0.909087C54.4799 0.810063 54.2362 0.892583 54.1359 1.09317L52.6949 4.01436L49.4716 4.48282C49.3827 4.49551 49.3015 4.53741 49.2393 4.60088C49.1641 4.67818 49.1226 4.78217 49.1241 4.89001C49.1255 4.99785 49.1697 5.1007 49.2469 5.17598L51.579 7.44971L51.028 10.6604C51.0151 10.735 51.0234 10.8119 51.0519 10.8821C51.0804 10.9523 51.128 11.0131 51.1894 11.0577C51.2507 11.1022 51.3233 11.1287 51.3989 11.1341C51.4745 11.1395 51.5501 11.1236 51.6171 11.0882L54.5002 9.57237L57.3833 11.0882C57.462 11.1301 57.5534 11.144 57.641 11.1288C57.8619 11.0907 58.0105 10.8813 57.9724 10.6604L57.4214 7.44971L59.7535 5.17598C59.817 5.11377 59.8589 5.03252 59.8716 4.94366C59.9059 4.72149 59.751 4.51583 59.5288 4.48282Z" fill="#FCC210"/>
<path d="M75.5288 4.48282L72.3055 4.01436L70.8646 1.09317C70.8252 1.01319 70.7605 0.948442 70.6805 0.909087C70.4799 0.810063 70.2362 0.892583 70.1359 1.09317L68.6949 4.01436L65.4716 4.48282C65.3827 4.49551 65.3015 4.53741 65.2393 4.60088C65.1641 4.67818 65.1226 4.78217 65.1241 4.89001C65.1255 4.99785 65.1697 5.1007 65.2469 5.17598L67.579 7.44971L67.028 10.6604C67.0151 10.735 67.0234 10.8119 67.0519 10.8821C67.0804 10.9523 67.128 11.0131 67.1894 11.0577C67.2507 11.1022 67.3233 11.1287 67.3989 11.1341C67.4745 11.1395 67.5501 11.1236 67.6171 11.0882L70.5002 9.57237L73.3833 11.0882C73.462 11.1301 73.5534 11.144 73.641 11.1288C73.8619 11.0907 74.0105 10.8813 73.9724 10.6604L73.4214 7.44971L75.7535 5.17598C75.817 5.11377 75.8589 5.03252 75.8716 4.94366C75.9059 4.72149 75.751 4.51583 75.5288 4.48282Z" fill="#E0E0E0"/>
</svg>
