<svg width="16" height="16" viewBox="0 0 16 16" fill="none" xmlns="http://www.w3.org/2000/svg">
<path d="M14.8266 9.70002L14.9646 8.94602C15.0294 8.57018 14.9983 8.18407 14.8742 7.82344C14.7501 7.46282 14.537 7.13936 14.2546 6.88302C12.8826 5.62302 10.7396 4.99602 7.82456 5.00002C4.91456 5.00402 2.83656 5.63602 1.59056 6.89502C1.06256 7.42802 0.87056 8.21902 1.08556 8.97002L1.30156 9.72402C1.50356 10.428 2.18556 10.899 2.89556 10.824L4.31956 10.675C4.61558 10.6459 4.89369 10.5198 5.11068 10.3164C5.32768 10.1129 5.47142 9.84354 5.51956 9.55002L5.79356 7.94602C6.48195 7.62386 7.22973 7.44816 7.98956 7.43002C8.77656 7.40602 9.49756 7.53302 10.1516 7.81202L10.5936 9.52602C10.671 9.82714 10.8383 10.0975 11.0732 10.3012C11.3081 10.5049 11.5995 10.6321 11.9086 10.666L13.3406 10.81C13.6828 10.8486 14.027 10.7553 14.3028 10.549C14.5787 10.3428 14.7657 10.0392 14.8256 9.70002H14.8266Z" fill="white"/>
</svg>
