<svg width="24" height="24" viewBox="0 0 24 24" fill="none" xmlns="http://www.w3.org/2000/svg">
<path d="M12.6078 3.99292C12.5759 3.40478 12.0871 2.94775 11.505 2.94775C11.4849 2.94775 11.4648 2.94827 11.4444 2.94935L9.87886 3.03443L9.88636 3.17214C9.91083 3.62219 9.75853 4.0548 9.4576 4.39028C9.15666 4.72572 8.74313 4.92391 8.29313 4.94842L4.3945 5.1603C4.36384 5.16198 4.33286 5.16278 4.30225 5.16278C3.40656 5.16278 2.66683 4.46186 2.61822 3.56716L2.61072 3.42944L1.04514 3.51452C0.750395 3.5306 0.479505 3.66039 0.282443 3.8801C0.0853811 4.09985 -0.0143218 4.38316 0.00166249 4.67791L0.794458 19.27C0.810442 19.5648 0.940333 19.8357 1.16004 20.0327C1.37974 20.2298 1.66328 20.3291 1.95785 20.3135L5.79095 20.1052L3.38111 14.2097C3.2568 13.9057 3.40253 13.5583 3.70661 13.434C4.01069 13.3098 4.35803 13.4554 4.48234 13.7595L7.04841 20.0368L9.74503 19.8902V9.8814C9.74503 9.72366 9.80775 9.57235 9.91927 9.46079L12.751 6.62903L12.6078 3.99292Z" fill="white"/>
<path d="M23.8741 5.97333H16.2703V10.7143C16.2703 11.0428 16.004 11.3091 15.6755 11.3091H10.9346V22.6914C10.9346 22.7607 10.991 22.8171 11.0602 22.8171H23.8741C23.9433 22.8171 23.9997 22.7607 23.9997 22.6914V6.09905C23.9998 6.02972 23.9433 5.97333 23.8741 5.97333ZM21.3521 19.2605H13.5822C13.2537 19.2605 12.9874 18.9941 12.9874 18.6657C12.9874 18.3372 13.2538 18.0709 13.5822 18.0709H21.3521C21.6806 18.0709 21.947 18.3372 21.947 18.6657C21.947 18.9941 21.6806 19.2605 21.3521 19.2605ZM21.3521 16.6061H13.5822C13.2537 16.6061 12.9874 16.3397 12.9874 16.0113C12.9874 15.6828 13.2538 15.4164 13.5822 15.4164H21.3521C21.6806 15.4164 21.947 15.6828 21.947 16.0113C21.947 16.3397 21.6806 16.6061 21.3521 16.6061ZM21.3521 13.9516H13.5822C13.2537 13.9516 12.9874 13.6852 12.9874 13.3568C12.9874 13.0283 13.2538 12.7619 13.5822 12.7619H21.3521C21.6806 12.7619 21.947 13.0283 21.947 13.3568C21.947 13.6852 21.6806 13.9516 21.3521 13.9516Z" fill="white"/>
<path d="M15.0809 10.1194V6.09235L11.0537 10.1194H15.0809Z" fill="white"/>
<path d="M3.62573 3.59928C3.64851 4.01867 4.00701 4.34018 4.4264 4.3174L8.15633 4.11471C8.57576 4.09193 8.89728 3.73348 8.8745 3.31404L8.79781 1.90217C8.77503 1.48273 8.41658 1.16122 7.99709 1.184L4.26716 1.38669C3.84772 1.40947 3.52621 1.76792 3.54899 2.18741L3.62573 3.59928Z" fill="white"/>
</svg>
