<svg width="24" height="24" viewBox="0 0 24 24" fill="none" xmlns="http://www.w3.org/2000/svg">
<path d="M14.7122 10.0171H12.3849V7.68994C12.3849 7.36412 12.1208 7.10001 11.795 7.10001H9.00934C8.68359 7.10001 8.41942 7.36412 8.41942 7.68994V10.0171H6.09211C5.76636 10.0171 5.50219 10.2812 5.50219 10.607V13.3929C5.50219 13.7187 5.76636 13.9828 6.09211 13.9828H8.41942V16.3101C8.41942 16.6359 8.68359 16.9 9.00934 16.9H11.795C12.1208 16.9 12.3849 16.6359 12.3849 16.3101V13.9828H14.7122C15.038 13.9828 15.3022 13.7187 15.3022 13.3929V10.607C15.3022 10.2812 15.0381 10.0171 14.7122 10.0171ZM14.1223 12.803H11.795C11.4693 12.803 11.2051 13.0671 11.2051 13.3929V15.7201H9.59926V13.3929C9.59926 13.0671 9.3351 12.803 9.00934 12.803H6.68204V11.197H9.00934C9.3351 11.197 9.59926 10.9329 9.59926 10.607V8.27986H11.2051V10.607C11.2051 10.9329 11.4693 11.197 11.795 11.197H14.1223V12.803ZM22.7458 8.28835C22.7459 8.28452 22.7459 8.28063 22.7459 8.27679C22.7459 8.27296 22.7459 8.26906 22.7458 8.26523V0.589923C22.7458 0.264108 22.4816 0 22.1559 0C21.8301 0 21.566 0.264108 21.566 0.589923V7.68687H19.55V5.0521C19.55 3.83904 18.5631 2.85216 17.3501 2.85216H3.45439C2.24134 2.85216 1.25439 3.83904 1.25439 5.0521V18.9478C1.25439 20.1609 2.24128 21.1478 3.45439 21.1478H17.3501C18.5631 21.1478 19.55 20.1609 19.55 18.9478V16.313H21.566V23.4101C21.566 23.7359 21.8301 24 22.1559 24C22.4816 24 22.7458 23.7359 22.7458 23.4101V15.7347C22.7459 15.7309 22.7459 15.727 22.7459 15.7231C22.7459 15.7193 22.7459 15.7154 22.7458 15.7116V8.28835ZM18.3701 18.9478C18.3701 19.5103 17.9125 19.9679 17.3501 19.9679H3.45439C2.8919 19.9679 2.43424 19.5103 2.43424 18.9478V5.0521C2.43424 4.48961 2.8919 4.032 3.45439 4.032H17.3501C17.9125 4.032 18.3701 4.48961 18.3701 5.0521V18.9478ZM21.566 15.1332H19.55V8.86671H21.566V15.1332Z" fill="#828282"/>
</svg>
