<svg width="50" height="50" viewBox="0 0 50 50" fill="none" xmlns="http://www.w3.org/2000/svg">
<path d="M17.9062 32.1875L15.5 28.0234" stroke="#D12B2F" stroke-width="1.5" stroke-linecap="round" stroke-linejoin="round"/>
<path d="M17.9062 23.8516H22.7187L25.125 28.0234" stroke="#D12B2F" stroke-width="1.5" stroke-linecap="round" stroke-linejoin="round"/>
<path d="M23.7266 30.4531L25.1328 28.0234H29.9453L31.4453 30.625" stroke="#D12B2F" stroke-width="1.5" stroke-linecap="round" stroke-linejoin="round"/>
<path d="M17.9062 39.4375L15.5 36.3594L17.9062 32.1875" stroke="#D12B2F" stroke-width="1.5" stroke-linecap="round" stroke-linejoin="round"/>
<path d="M10.6875 28.0234H15.5L17.9062 32.1875L15.5 36.3594H10.6875" stroke="#D12B2F" stroke-width="1.5" stroke-linecap="round" stroke-linejoin="round"/>
<path d="M29.1641 19.6797H25.1328L22.7266 15.5156L25.1328 11.3438H29.9453L32.0547 15" stroke="#D12B2F" stroke-width="1.5" stroke-linecap="round" stroke-linejoin="round"/>
<path d="M29.9453 28.0234H25.1328L22.7266 23.8516" stroke="#D12B2F" stroke-width="1.5" stroke-linecap="round" stroke-linejoin="round"/>
<path d="M22.7266 23.8516H17.9062" stroke="#D12B2F" stroke-width="1.5" stroke-linecap="round" stroke-linejoin="round"/>
<path d="M15.5 28.0234H10.6875L8.28125 23.8516" stroke="#D12B2F" stroke-width="1.5" stroke-linecap="round" stroke-linejoin="round"/>
<path d="M23.9531 22.4688C24.3846 22.4688 24.7344 22.119 24.7344 21.6875C24.7344 21.256 24.3846 20.9062 23.9531 20.9062C23.5217 20.9062 23.1719 21.256 23.1719 21.6875C23.1719 22.119 23.5217 22.4688 23.9531 22.4688Z" fill="#D12B2F"/>
<path d="M24.7344 39.8047C25.1658 39.8047 25.5156 39.4549 25.5156 39.0234C25.5156 38.592 25.1658 38.2422 24.7344 38.2422C24.3029 38.2422 23.9531 38.592 23.9531 39.0234C23.9531 39.4549 24.3029 39.8047 24.7344 39.8047Z" fill="#D12B2F"/>
<path d="M16.5781 26.7656C17.0096 26.7656 17.3594 26.4158 17.3594 25.9844C17.3594 25.5529 17.0096 25.2031 16.5781 25.2031C16.1467 25.2031 15.7969 25.5529 15.7969 25.9844C15.7969 26.4158 16.1467 26.7656 16.5781 26.7656Z" fill="#D12B2F"/>
<path d="M34.4609 16.9061L36.5156 14.8436C36.8361 14.5218 37.2257 14.2771 37.6548 14.1282C38.0839 13.9794 38.5412 13.9301 38.9922 13.9842C39.6674 14.0562 40.2969 14.3598 40.7734 14.8436C41.2556 15.3244 41.5589 15.9557 41.6328 16.6326C41.6328 16.7472 41.6328 16.8618 41.6328 16.9764C41.6357 17.3722 41.5598 17.7645 41.4096 18.1307C41.2593 18.4969 41.0378 18.8295 40.7578 19.1092L37.3281 22.5467C36.9277 22.95 36.4212 23.2316 35.8673 23.3589C35.3134 23.4862 34.7348 23.454 34.1984 23.266C33.6621 23.0779 33.19 22.7418 32.8369 22.2965C32.4838 21.8511 32.264 21.3149 32.2031 20.7498" stroke="#D12B2F" stroke-width="1.5" stroke-linecap="round" stroke-linejoin="round"/>
<path d="M34.867 23.4375L33.3592 24.9219C33.2041 25.075 32.995 25.1609 32.7771 25.1609C32.5592 25.1609 32.3501 25.075 32.1951 24.9219L30.7185 23.4375C30.5654 23.2825 30.4795 23.0734 30.4795 22.8555C30.4795 22.6376 30.5654 22.4284 30.7185 22.2734L32.2263 20.7656C32.2938 21.4461 32.5928 22.0828 33.0735 22.5692C33.5542 23.0555 34.1873 23.3621 34.867 23.4375Z" stroke="#D12B2F" stroke-width="1.5" stroke-linecap="round" stroke-linejoin="round"/>
<path d="M41.6484 12.5L43.125 13.9766C43.2781 14.1316 43.364 14.3407 43.364 14.5586C43.364 14.7765 43.2781 14.9856 43.125 15.1406L41.6406 16.6328" stroke="#D12B2F" stroke-width="1.5" stroke-linecap="round" stroke-linejoin="round"/>
<path d="M38.9922 20.9141L41.1953 23.1016C44.9531 26.7109 42.0859 31.0313 39.6328 33.4609L36.2422 36.8516" stroke="#D12B2F" stroke-width="1.5" stroke-linecap="round" stroke-linejoin="round"/>
<path d="M33.25 36.625H20.8906C20.4996 36.625 20.1244 36.4708 19.8465 36.1958C19.5686 35.9208 19.4104 35.5472 19.4062 35.1562V35C19.4083 34.607 19.5654 34.2306 19.8433 33.9527C20.1212 33.6747 20.4976 33.5177 20.8906 33.5156H32.4688" stroke="#D12B2F" stroke-width="1.5" stroke-linecap="round" stroke-linejoin="round"/>
<path d="M36.2656 36.8359C36.5503 36.9874 36.7894 37.212 36.9584 37.4866C37.1273 37.7613 37.2199 38.0761 37.2266 38.3984V38.5703C37.2245 39.047 37.0348 39.5036 36.6985 39.8414C36.3622 40.1792 35.9063 40.3709 35.4297 40.375H19.5312C19.0546 40.3709 18.5988 40.1792 18.2624 39.8414C17.9261 39.5036 17.7364 39.047 17.7344 38.5703V38.3984C17.7445 37.9272 17.9378 37.4785 18.2733 37.1474C18.6087 36.8163 19.0599 36.629 19.5312 36.625H21.4687" stroke="#D12B2F" stroke-width="1.5" stroke-linecap="round" stroke-linejoin="round"/>
<path d="M33.1016 19.1172C33.533 19.1172 33.8828 18.7674 33.8828 18.3359C33.8828 17.9045 33.533 17.5547 33.1016 17.5547C32.6701 17.5547 32.3203 17.9045 32.3203 18.3359C32.3203 18.7674 32.6701 19.1172 33.1016 19.1172Z" fill="#D12B2F"/>
<path d="M34.9609 34.2969C35.3924 34.2969 35.7422 33.9471 35.7422 33.5156C35.7422 33.0842 35.3924 32.7344 34.9609 32.7344C34.5295 32.7344 34.1797 33.0842 34.1797 33.5156C34.1797 33.9471 34.5295 34.2969 34.9609 34.2969Z" fill="#D12B2F"/>
<path d="M17.883 17.4219C17.7563 17.8302 17.5694 18.2173 17.3283 18.5703C17.2168 18.7348 17.0941 18.8914 16.9611 19.0391C16.7499 19.2796 16.5113 19.4947 16.2502 19.6797C15.7087 20.0767 15.0832 20.344 14.422 20.461C14.1647 20.5116 13.9031 20.5377 13.6408 20.5391C13.3793 20.5438 13.1178 20.5255 12.8595 20.4844C12.194 20.3855 11.5603 20.1342 11.008 19.75C10.5758 19.4641 10.1998 19.1014 9.8986 18.6797C9.49885 18.1398 9.23127 17.5137 9.11735 16.8516C9.06251 16.5947 9.03372 16.333 9.03141 16.0703C9.02394 15.8088 9.04226 15.5471 9.0861 15.2891C9.18938 14.6309 9.43754 14.0038 9.81266 13.4532C10.0313 13.1198 10.2941 12.8175 10.5939 12.5547C10.6759 12.4765 10.7648 12.4059 10.8595 12.3438C11.1597 12.1216 11.4881 11.9403 11.8361 11.8047C11.8983 11.7719 11.9637 11.7457 12.0314 11.7266C12.2435 11.6465 12.4635 11.5888 12.6877 11.5547C13.2042 11.4603 13.7336 11.4603 14.2502 11.5547C14.8324 11.6412 15.3907 11.8459 15.8908 12.1563L16.0861 12.2813C16.5178 12.5736 16.8958 12.9383 17.2033 13.3594L17.258 13.4297C17.6282 13.955 17.8789 14.555 17.9923 15.1875C18.0429 15.4449 18.0691 15.7065 18.0705 15.9688C18.0789 16.2304 18.0606 16.4922 18.0158 16.75C18.011 16.8968 17.9953 17.0431 17.9689 17.1875C17.9484 17.2684 17.9196 17.3469 17.883 17.4219Z" stroke="#D12B2F" stroke-width="1.5" stroke-linecap="round" stroke-linejoin="round"/>
<path d="M13.6084 17.8442C14.6136 17.8287 15.416 17.0013 15.4006 15.9961C15.3851 14.9909 14.5577 14.1885 13.5525 14.204C12.5473 14.2194 11.7449 15.0468 11.7604 16.052C11.7758 17.0572 12.6032 17.8596 13.6084 17.8442Z" stroke="#D12B2F" stroke-width="1.5" stroke-linecap="round" stroke-linejoin="round"/>
<path d="M14.0208 9.08025L12.9272 9.09704C12.677 9.10089 12.4772 9.30685 12.4811 9.55708L12.5068 11.2288C12.5106 11.479 12.7166 11.6787 12.9668 11.6749L14.0604 11.6581C14.3106 11.6542 14.5104 11.4483 14.5065 11.198L14.4808 9.52636C14.477 9.27613 14.271 9.0764 14.0208 9.08025Z" fill="#D12B2F"/>
<path d="M10.8438 12.5701L10.7813 12.6482L10.1563 13.2811C10.0783 13.3615 9.97738 13.4161 9.86729 13.4373C9.78361 13.4538 9.69716 13.4497 9.61546 13.4252C9.53377 13.4006 9.4593 13.3565 9.39854 13.2967L8.3126 12.2498C8.25965 12.1995 8.21749 12.1389 8.18868 12.0717C8.15987 12.0046 8.14502 11.9323 8.14502 11.8592C8.14502 11.7861 8.15987 11.7138 8.18868 11.6467C8.21749 11.5795 8.25965 11.5189 8.3126 11.4686L8.48447 11.2967L8.96104 10.8045C9.01079 10.7505 9.07118 10.7074 9.13841 10.678C9.20565 10.6485 9.27825 10.6333 9.35166 10.6333C9.42507 10.6333 9.49767 10.6485 9.56491 10.678C9.63214 10.7074 9.69254 10.7505 9.74229 10.8045L10.8204 11.8514C10.8823 11.9126 10.9282 11.988 10.9541 12.0711C10.98 12.1542 10.985 12.2424 10.9688 12.3279C10.9508 12.4188 10.9075 12.5028 10.8438 12.5701Z" fill="#D12B2F"/>
<path d="M6.63347 15.5783L6.65027 16.6719C6.65411 16.9222 6.86007 17.1219 7.1103 17.118L8.78198 17.0924C9.0322 17.0885 9.23193 16.8826 9.22809 16.6323L9.21129 15.5387C9.20745 15.2885 9.00148 15.0888 8.75126 15.0926L7.07958 15.1183C6.82936 15.1221 6.62963 15.3281 6.63347 15.5783Z" fill="#D12B2F"/>
<path d="M8.35846 20.6182L9.14351 21.3798C9.32314 21.5541 9.61001 21.5497 9.78426 21.3701L10.9484 20.1701C11.1226 19.9904 11.1183 19.7036 10.9386 19.5293L10.1536 18.7678C9.97396 18.5935 9.68709 18.5979 9.51284 18.7775L8.34873 19.9775C8.17448 20.1571 8.17884 20.444 8.35846 20.6182Z" fill="#D12B2F"/>
<path d="M14.6563 20.9061V22.4139C14.6573 22.4837 14.6446 22.553 14.6188 22.6178C14.5931 22.6827 14.5548 22.7418 14.5062 22.7919C14.4576 22.8419 14.3996 22.8819 14.3355 22.9096C14.2715 22.9372 14.2026 22.9519 14.1328 22.953H13.2031C13.1334 22.954 13.0641 22.9413 12.9992 22.9155C12.9344 22.8898 12.8752 22.8515 12.8252 22.8029C12.7751 22.7543 12.7351 22.6963 12.7075 22.6322C12.6798 22.5682 12.6651 22.4993 12.6641 22.4295V20.9217C12.6637 20.8359 12.6841 20.7513 12.7236 20.6751C12.763 20.5989 12.8203 20.5334 12.8906 20.4842C12.9777 20.4167 13.0852 20.3809 13.1953 20.3827H14.125C14.2342 20.3786 14.3416 20.4117 14.4297 20.4764C14.4989 20.5248 14.5556 20.5891 14.595 20.6638C14.6344 20.7386 14.6554 20.8216 14.6563 20.9061Z" fill="#D12B2F"/>
<path d="M18.8829 20.5154L18.5704 20.8357L18.2345 21.1873C18.1847 21.2413 18.1243 21.2844 18.0571 21.3138C17.9899 21.3433 17.9173 21.3585 17.8439 21.3585C17.7705 21.3585 17.6979 21.3433 17.6306 21.3138C17.5634 21.2844 17.503 21.2413 17.4532 21.1873L16.4064 20.1482C16.3443 20.0886 16.2976 20.0148 16.2704 19.9331C16.2432 19.8515 16.2362 19.7644 16.2501 19.6795C16.2627 19.5699 16.3123 19.468 16.3907 19.3904L16.9611 18.8123L17.047 18.7264C17.1237 18.6442 17.2252 18.5893 17.3361 18.5701C17.4197 18.5555 17.5057 18.5607 17.587 18.5851C17.6684 18.6095 17.743 18.6525 17.8048 18.7107L18.8907 19.7654C18.9889 19.866 19.0433 20.0015 19.0418 20.142C19.0403 20.2826 18.9832 20.4169 18.8829 20.5154Z" fill="#D12B2F"/>
<path d="M20.5242 16.4647L20.5074 15.371C20.5036 15.1208 20.2976 14.9211 20.0474 14.9249L18.3757 14.9506C18.1255 14.9544 17.9258 15.1604 17.9296 15.4106L17.9464 16.5043C17.9503 16.7545 18.1562 16.9542 18.4065 16.9504L20.0781 16.9247C20.3284 16.9208 20.5281 16.7149 20.5242 16.4647Z" fill="#D12B2F"/>
<path d="M18.8017 11.4218L18.0166 10.6602C17.837 10.486 17.5501 10.4903 17.3759 10.67L16.2118 11.87C16.0375 12.0496 16.0419 12.3365 16.2215 12.5107L17.0066 13.2723C17.1862 13.4465 17.4731 13.4422 17.6473 13.2625L18.8114 12.0625C18.9857 11.8829 18.9813 11.596 18.8017 11.4218Z" fill="#D12B2F"/>
</svg>
