<svg width="386" height="388" viewBox="0 0 386 388" fill="none" xmlns="http://www.w3.org/2000/svg">
<path d="M386 296.743H0V296.939H386V296.743Z" fill="#EBEBEB"/>
<path d="M66.0677 304.13H40.499V304.326H66.0677V304.13Z" fill="#EBEBEB"/>
<path d="M168.211 302.027H132.12V302.223H168.211V302.027Z" fill="#EBEBEB"/>
<path d="M101.897 310.128H87.082V310.324H101.897V310.128Z" fill="#EBEBEB"/>
<path d="M264.441 306.761H241.119V306.957H264.441V306.761Z" fill="#EBEBEB"/>
<path d="M286.227 306.761H271.312V306.957H286.227V306.761Z" fill="#EBEBEB"/>
<path d="M347.33 310.036H302.122V310.232H347.33V310.036Z" fill="#EBEBEB"/>
<path d="M182.964 262.133H33.8984C32.7307 262.131 31.6114 261.663 30.7864 260.832C29.9614 260.002 29.498 258.876 29.498 257.702V47.0723C29.5082 45.9053 29.9761 44.7893 30.8 43.967C31.6239 43.1446 32.7373 42.6822 33.8984 42.6802H182.964C184.133 42.6802 185.254 43.147 186.081 43.978C186.908 44.8089 187.372 45.936 187.372 47.1111V257.702C187.372 258.877 186.908 260.004 186.081 260.835C185.254 261.666 184.133 262.133 182.964 262.133ZM33.8984 42.8354C32.7819 42.8374 31.7117 43.2847 30.9229 44.0791C30.1341 44.8735 29.691 45.95 29.691 47.0723V257.702C29.691 258.824 30.1341 259.901 30.9229 260.695C31.7117 261.49 32.7819 261.937 33.8984 261.939H182.964C184.081 261.937 185.152 261.49 185.942 260.696C186.732 259.902 187.177 258.825 187.179 257.702V47.0723C187.177 45.9493 186.732 44.8728 185.942 44.0786C185.152 43.2845 184.081 42.8374 182.964 42.8354H33.8984Z" fill="#EBEBEB"/>
<path d="M349.955 262.133H200.882C199.713 262.131 198.593 261.663 197.767 260.833C196.941 260.002 196.476 258.877 196.474 257.702V47.0723C196.486 45.9045 196.955 44.7886 197.781 43.9665C198.606 43.1443 199.72 42.6822 200.882 42.6802H349.955C351.115 42.6842 352.226 43.1475 353.048 43.9697C353.871 44.7918 354.337 45.9066 354.348 47.0723V257.702C354.348 258.874 353.885 259.999 353.062 260.83C352.239 261.66 351.121 262.129 349.955 262.133ZM200.882 42.8354C199.764 42.8374 198.694 43.2845 197.903 44.0786C197.113 44.8728 196.669 45.9493 196.667 47.0723V257.702C196.669 258.825 197.113 259.902 197.903 260.696C198.694 261.49 199.764 261.937 200.882 261.939H349.955C351.072 261.937 352.143 261.49 352.933 260.696C353.723 259.902 354.168 258.825 354.17 257.702V47.0723C354.168 45.9493 353.723 44.8728 352.933 44.0786C352.143 43.2845 351.072 42.8374 349.955 42.8354H200.882Z" fill="#EBEBEB"/>
<path d="M69.1022 190.291L252.784 190.291V74.7524L69.1022 74.7524V190.291Z" fill="#F0F0F0"/>
<path d="M249.187 184.859V80.1841L72.6919 80.1841V184.859H249.187Z" fill="#FAFAFA"/>
<path d="M225.957 184.859L207.846 80.1841H194.498L212.601 184.859H225.957Z" fill="white"/>
<path d="M209.521 184.859L191.418 80.1841H185.45L203.554 184.859H209.521Z" fill="white"/>
<path d="M180.309 184.859L162.205 80.1841H148.857L166.961 184.859H180.309Z" fill="white"/>
<path d="M146.657 184.859L128.546 80.1841H122.578L140.682 184.859H146.657Z" fill="white"/>
<path d="M202.812 184.859V80.1841H201.902V184.859H202.812Z" fill="#E0E0E0"/>
<path d="M249.187 184.867V80.1919H248.276V184.867H249.187Z" fill="#E0E0E0"/>
<path d="M206.409 184.859V80.1841H202.812V184.859H206.409Z" fill="#F0F0F0"/>
<path d="M158.26 184.859V80.1841H157.349V184.859H158.26Z" fill="#E0E0E0"/>
<path d="M161.85 184.859V80.1841H158.252V184.859H161.85Z" fill="#F0F0F0"/>
<path d="M113.677 184.859V80.1841H112.766V184.859H113.677Z" fill="#E0E0E0"/>
<path d="M117.274 184.867V80.1919H113.677V184.867H117.274Z" fill="#F0F0F0"/>
<path d="M69.0938 190.291V74.7524H68.1828V190.291H69.0938Z" fill="#E0E0E0"/>
<path d="M50.4349 66.8216H260.936C261.254 66.8216 261.559 66.6951 261.785 66.4697C262.011 66.2444 262.138 65.9385 262.14 65.6188C262.14 65.2977 262.014 64.9898 261.788 64.7628C261.562 64.5357 261.256 64.4082 260.936 64.4082H50.4349C50.1168 64.4103 49.8125 64.5387 49.5883 64.7655C49.3641 64.9923 49.2383 65.299 49.2383 65.6188C49.2403 65.9371 49.367 66.2419 49.591 66.467C49.815 66.6922 50.1182 66.8195 50.4349 66.8216Z" fill="#E0E0E0"/>
<g opacity="0.6">
<path d="M178.124 272.896H257.995V62.0801H178.124L178.124 272.896Z" fill="#F5F5F5"/>
<path d="M226.69 274.619H233.384L231.508 63.8027H228.512L226.69 274.619Z" fill="#E6E6E6"/>
<path d="M241.459 274.619H244.694L243.783 63.8027H242.339L241.459 274.619Z" fill="#E6E6E6"/>
<path d="M207.282 274.619H210.509L209.606 63.8027H208.162L207.282 274.619Z" fill="#E6E6E6"/>
<path d="M190.839 274.619H194.066L193.163 63.8027H191.719L190.839 274.619Z" fill="#E6E6E6"/>
</g>
<g opacity="0.6">
<path d="M54.5576 272.896H94.4932L94.4932 62.0801H54.5576L54.5576 272.896Z" fill="#F5F5F5"/>
<path d="M78.8447 274.619H82.1875L81.2534 63.8027H79.7557L78.8447 274.619Z" fill="#E6E6E6"/>
<path d="M86.2246 274.619H87.8381L87.3903 63.8027H86.6646L86.2246 274.619Z" fill="#E6E6E6"/>
<path d="M69.1406 274.619H70.7541L70.2986 63.8027H69.5807L69.1406 274.619Z" fill="#E6E6E6"/>
<path d="M60.9189 274.619H62.5324L62.0769 63.8027H61.3513L60.9189 274.619Z" fill="#E6E6E6"/>
</g>
<path d="M331.752 94.6724H278.77V161.145H331.752V94.6724Z" fill="#E6E6E6"/>
<path d="M334.083 94.6724H279.564V161.145H334.083V94.6724Z" fill="#F5F5F5"/>
<path d="M329.906 156.426V99.3901H283.748V156.426H329.906Z" fill="#FAFAFA"/>
<path d="M329.906 156.426V99.3901H329.474V156.426H329.906Z" fill="#E6E6E6"/>
<path d="M322.096 124.16C324.7 121.542 324.7 117.297 322.096 114.679C319.491 112.06 315.268 112.06 312.663 114.679C310.058 117.297 310.058 121.542 312.663 124.16C315.268 126.779 319.491 126.779 322.096 124.16Z" fill="#F0F0F0"/>
<path d="M316.31 139.112C321.604 133.79 321.604 125.162 316.31 119.841C311.016 114.519 302.433 114.519 297.138 119.841C291.844 125.162 291.844 133.79 297.139 139.112C302.433 144.433 311.016 144.433 316.31 139.112Z" fill="white"/>
<path d="M303.197 120.949C304.043 117.346 301.823 113.735 298.238 112.884C294.652 112.033 291.06 114.265 290.214 117.869C289.368 121.473 291.588 125.084 295.173 125.935C298.759 126.785 302.351 124.553 303.197 120.949Z" fill="#F0F0F0"/>
<path d="M277.194 217.56H269.953V291.761H277.194V217.56Z" fill="#F0F0F0"/>
<path d="M345.253 213.121H268.192V217.559H345.253V213.121Z" fill="#F0F0F0"/>
<path d="M340.537 291.761H272.902V296.743H340.537V291.761Z" fill="#F0F0F0"/>
<path d="M343.494 217.56H277.194V291.761H343.494V217.56Z" fill="#FAFAFA"/>
<path d="M283.232 248.592H337.449V225.824H283.232V248.592Z" fill="#F0F0F0"/>
<path d="M283.232 282.076H337.449V259.308H283.232V282.076Z" fill="#F0F0F0"/>
<path d="M316.52 224.481H304.16C303.384 224.481 302.755 225.114 302.755 225.894V226.608C302.755 227.388 303.384 228.02 304.16 228.02H316.52C317.296 228.02 317.925 227.388 317.925 226.608V225.894C317.925 225.114 317.296 224.481 316.52 224.481Z" fill="#FAFAFA"/>
<path d="M316.52 257.974H304.16C303.384 257.974 302.755 258.606 302.755 259.386V260.1C302.755 260.88 303.384 261.512 304.16 261.512H316.52C317.296 261.512 317.925 260.88 317.925 260.1V259.386C317.925 258.606 317.296 257.974 316.52 257.974Z" fill="#FAFAFA"/>
<path d="M147.892 296.519C156.966 295.038 163.127 286.444 161.654 277.323C160.181 268.203 151.632 262.009 142.558 263.49C133.485 264.97 127.323 273.564 128.796 282.685C130.269 291.805 138.818 297.999 147.892 296.519Z" fill="#EBEBEB"/>
<path d="M122.986 296.469C134.311 294.621 142.001 283.895 140.163 272.511C138.325 261.127 127.654 253.397 116.328 255.244C105.003 257.092 97.3125 267.819 99.1509 279.203C100.989 290.587 111.66 298.317 122.986 296.469Z" fill="#F5F5F5"/>
<path d="M193 331.786C275.668 331.786 342.684 327.854 342.684 323.002C342.684 318.151 275.668 314.218 193 314.218C110.333 314.218 43.3174 318.151 43.3174 323.002C43.3174 327.854 110.333 331.786 193 331.786Z" fill="#F5F5F5"/>
<path d="M97.7437 153.291C92.6407 153.291 90.2398 148.13 90.1395 147.913C90.0521 147.671 90.0583 147.406 90.1567 147.168C90.2552 146.931 90.4388 146.74 90.6711 146.632C90.9034 146.525 91.1674 146.509 91.4107 146.588C91.654 146.667 91.8588 146.835 91.9845 147.059C91.9845 147.129 94.0149 151.358 97.8981 151.25C98.1533 151.264 98.3938 151.375 98.5719 151.559C98.75 151.743 98.8526 151.988 98.8594 152.245C98.8662 152.502 98.7767 152.752 98.6086 152.946C98.4406 153.139 98.2062 153.262 97.9521 153.291H97.7437Z" fill="#3772FF"/>
<path d="M164.436 81.6273C163.992 81.6293 163.549 81.6008 163.108 81.5419C162.977 81.5221 162.85 81.4763 162.736 81.4072C162.622 81.3382 162.522 81.2472 162.443 81.1395C162.364 81.0317 162.306 80.9094 162.274 80.7794C162.242 80.6494 162.236 80.5143 162.255 80.3818C162.275 80.2493 162.321 80.1221 162.389 80.0073C162.458 79.8925 162.549 79.7924 162.656 79.7128C162.763 79.6332 162.885 79.5756 163.014 79.5432C163.143 79.5109 163.278 79.5045 163.41 79.5243C163.456 79.5243 168.103 80.1839 170.141 76.8549C170.211 76.7408 170.302 76.6415 170.41 76.5628C170.517 76.484 170.639 76.4274 170.769 76.396C170.898 76.3647 171.032 76.3593 171.164 76.3801C171.295 76.4009 171.421 76.4475 171.535 76.5173C171.648 76.5872 171.747 76.6788 171.825 76.7869C171.904 76.8951 171.96 77.0177 171.991 77.1478C172.022 77.2778 172.028 77.4128 172.007 77.545C171.986 77.6771 171.94 77.8039 171.871 77.918C169.84 81.1462 166.328 81.6273 164.436 81.6273Z" fill="#3772FF"/>
<path opacity="0.6" d="M164.436 81.6273C163.992 81.6293 163.549 81.6008 163.108 81.5419C162.977 81.5221 162.85 81.4763 162.736 81.4072C162.622 81.3382 162.522 81.2472 162.443 81.1395C162.364 81.0317 162.306 80.9094 162.274 80.7794C162.242 80.6494 162.236 80.5143 162.255 80.3818C162.275 80.2493 162.321 80.1221 162.389 80.0073C162.458 79.8925 162.549 79.7924 162.656 79.7128C162.763 79.6332 162.885 79.5756 163.014 79.5432C163.143 79.5109 163.278 79.5045 163.41 79.5243C163.456 79.5243 168.103 80.1839 170.141 76.8549C170.211 76.7408 170.302 76.6415 170.41 76.5628C170.517 76.484 170.639 76.4274 170.769 76.396C170.898 76.3647 171.032 76.3593 171.164 76.3801C171.295 76.4009 171.421 76.4475 171.535 76.5173C171.648 76.5872 171.747 76.6788 171.825 76.7869C171.904 76.8951 171.96 77.0177 171.991 77.1478C172.022 77.2778 172.028 77.4128 172.007 77.545C171.986 77.6771 171.94 77.8039 171.871 77.918C169.84 81.1462 166.328 81.6273 164.436 81.6273Z" fill="white"/>
<path d="M49.8715 120.489C47.9129 120.422 46.0107 119.813 44.3749 118.728C44.2595 118.654 44.1603 118.556 44.0834 118.442C44.0065 118.328 43.9534 118.2 43.9275 118.065C43.9015 117.929 43.9032 117.79 43.9324 117.656C43.9616 117.521 44.0177 117.394 44.0973 117.282C44.1769 117.169 44.2784 117.075 44.3955 117.003C44.5127 116.932 44.643 116.885 44.7787 116.866C44.9145 116.846 45.0526 116.855 45.1849 116.891C45.3172 116.927 45.4409 116.99 45.5483 117.075C45.5869 117.075 49.4778 119.721 52.7588 117.618C52.8712 117.536 52.9991 117.478 53.1346 117.447C53.2702 117.417 53.4105 117.414 53.5471 117.44C53.6836 117.466 53.8134 117.52 53.9286 117.598C54.0437 117.676 54.1417 117.777 54.2166 117.895C54.2914 118.012 54.3416 118.144 54.3639 118.282C54.3862 118.42 54.3803 118.561 54.3464 118.696C54.3126 118.832 54.2515 118.959 54.167 119.07C54.0825 119.181 53.9763 119.273 53.855 119.341C52.6657 120.103 51.2819 120.502 49.8715 120.489Z" fill="#3772FF"/>
<path opacity="0.6" d="M49.8715 120.489C47.9129 120.422 46.0107 119.813 44.3749 118.728C44.2595 118.654 44.1603 118.556 44.0834 118.442C44.0065 118.328 43.9534 118.2 43.9275 118.065C43.9015 117.929 43.9032 117.79 43.9324 117.656C43.9616 117.521 44.0177 117.394 44.0973 117.282C44.1769 117.169 44.2784 117.075 44.3955 117.003C44.5127 116.932 44.643 116.885 44.7787 116.866C44.9145 116.846 45.0526 116.855 45.1849 116.891C45.3172 116.927 45.4409 116.99 45.5483 117.075C45.5869 117.075 49.4778 119.721 52.7588 117.618C52.8712 117.536 52.9991 117.478 53.1346 117.447C53.2702 117.417 53.4105 117.414 53.5471 117.44C53.6836 117.466 53.8134 117.52 53.9286 117.598C54.0437 117.676 54.1417 117.777 54.2166 117.895C54.2914 118.012 54.3416 118.144 54.3639 118.282C54.3862 118.42 54.3803 118.561 54.3464 118.696C54.3126 118.832 54.2515 118.959 54.167 119.07C54.0825 119.181 53.9763 119.273 53.855 119.341C52.6657 120.103 51.2819 120.502 49.8715 120.489Z" fill="white"/>
<path d="M314.691 93.2748C312.736 93.2219 310.832 92.6314 309.187 91.5676C308.966 91.4143 308.814 91.179 308.766 90.9134C308.717 90.6478 308.776 90.3737 308.928 90.1514C309.081 89.9292 309.315 89.7769 309.579 89.7282C309.843 89.6794 310.116 89.7382 310.337 89.8915C310.376 89.8915 314.274 92.5299 317.555 90.4347C317.667 90.3628 317.792 90.3139 317.923 90.2906C318.054 90.2673 318.188 90.2702 318.318 90.299C318.448 90.3278 318.57 90.382 318.679 90.4586C318.788 90.5351 318.881 90.6325 318.953 90.7451C319.024 90.8577 319.073 90.9833 319.096 91.1149C319.119 91.2464 319.116 91.3812 319.088 91.5117C319.059 91.6421 319.005 91.7655 318.929 91.875C318.853 91.9845 318.756 92.0778 318.644 92.1496C317.463 92.902 316.089 93.293 314.691 93.2748Z" fill="#3772FF"/>
<path opacity="0.6" d="M314.691 93.2748C312.736 93.2219 310.832 92.6314 309.187 91.5676C308.966 91.4143 308.814 91.179 308.766 90.9134C308.717 90.6478 308.776 90.3737 308.928 90.1514C309.081 89.9292 309.315 89.7769 309.579 89.7282C309.843 89.6794 310.116 89.7382 310.337 89.8915C310.376 89.8915 314.274 92.5299 317.555 90.4347C317.667 90.3628 317.792 90.3139 317.923 90.2906C318.054 90.2673 318.188 90.2702 318.318 90.299C318.448 90.3278 318.57 90.382 318.679 90.4586C318.788 90.5351 318.881 90.6325 318.953 90.7451C319.024 90.8577 319.073 90.9833 319.096 91.1149C319.119 91.2464 319.116 91.3812 319.088 91.5117C319.059 91.6421 319.005 91.7655 318.929 91.875C318.853 91.9845 318.756 92.0778 318.644 92.1496C317.463 92.902 316.089 93.293 314.691 93.2748Z" fill="white"/>
<path d="M190.537 173.428C185.805 173.428 183.227 168.818 183.111 168.609C182.981 168.372 182.95 168.093 183.024 167.834C183.099 167.574 183.273 167.354 183.508 167.224C183.744 167.093 184.021 167.062 184.28 167.137C184.538 167.212 184.756 167.387 184.886 167.623C184.886 167.685 187.202 171.752 191.062 171.356C191.32 171.347 191.572 171.437 191.767 171.607C191.962 171.778 192.085 172.016 192.111 172.275C192.138 172.533 192.066 172.792 191.91 172.998C191.754 173.205 191.525 173.345 191.271 173.389C191.039 173.412 190.784 173.428 190.537 173.428Z" fill="#3772FF"/>
<path opacity="0.6" d="M190.537 173.428C185.805 173.428 183.227 168.818 183.111 168.609C182.981 168.372 182.95 168.093 183.024 167.834C183.099 167.574 183.273 167.354 183.508 167.224C183.744 167.093 184.021 167.062 184.28 167.137C184.538 167.212 184.756 167.387 184.886 167.623C184.886 167.685 187.202 171.752 191.062 171.356C191.32 171.347 191.572 171.437 191.767 171.607C191.962 171.778 192.085 172.016 192.111 172.275C192.138 172.533 192.066 172.792 191.91 172.998C191.754 173.205 191.525 173.345 191.271 173.389C191.039 173.412 190.784 173.428 190.537 173.428Z" fill="white"/>
<path d="M60.9881 194.155C60.7423 194.153 60.5056 194.061 60.3224 193.896C60.1391 193.731 60.0219 193.505 59.9926 193.26C59.9632 193.014 60.0238 192.767 60.163 192.563C60.3022 192.359 60.5105 192.213 60.7488 192.153C60.7951 192.153 65.3268 190.95 65.9444 187.086C65.9657 186.954 66.0126 186.827 66.0825 186.713C66.1524 186.6 66.2439 186.501 66.3518 186.423C66.4597 186.345 66.5819 186.288 66.7113 186.258C66.8407 186.227 66.9749 186.222 67.1062 186.244C67.2375 186.265 67.3633 186.312 67.4765 186.382C67.5896 186.453 67.6879 186.545 67.7657 186.653C67.8435 186.762 67.8992 186.884 67.9298 187.015C67.9604 187.145 67.9651 187.28 67.9439 187.411C67.1178 192.618 61.4745 194.07 61.2352 194.132C61.1537 194.147 61.071 194.155 60.9881 194.155Z" fill="#3772FF"/>
<path opacity="0.6" d="M60.9881 194.155C60.7423 194.153 60.5056 194.061 60.3224 193.896C60.1391 193.731 60.0219 193.505 59.9926 193.26C59.9632 193.014 60.0238 192.767 60.163 192.563C60.3022 192.359 60.5105 192.213 60.7488 192.153C60.7951 192.153 65.3268 190.95 65.9444 187.086C65.9657 186.954 66.0126 186.827 66.0825 186.713C66.1524 186.6 66.2439 186.501 66.3518 186.423C66.4597 186.345 66.5819 186.288 66.7113 186.258C66.8407 186.227 66.9749 186.222 67.1062 186.244C67.2375 186.265 67.3633 186.312 67.4765 186.382C67.5896 186.453 67.6879 186.545 67.7657 186.653C67.8435 186.762 67.8992 186.884 67.9298 187.015C67.9604 187.145 67.9651 187.28 67.9439 187.411C67.1178 192.618 61.4745 194.07 61.2352 194.132C61.1537 194.147 61.071 194.155 60.9881 194.155Z" fill="black"/>
<path d="M286.412 123.422C286.16 123.431 285.913 123.344 285.721 123.179C285.529 123.014 285.405 122.783 285.374 122.531C285.343 122.279 285.407 122.024 285.553 121.817C285.7 121.61 285.918 121.466 286.165 121.413C286.211 121.413 290.743 120.218 291.361 116.353C291.373 116.213 291.415 116.077 291.482 115.954C291.549 115.831 291.64 115.723 291.751 115.637C291.861 115.551 291.988 115.488 292.124 115.454C292.259 115.419 292.4 115.413 292.538 115.435C292.676 115.457 292.808 115.508 292.925 115.584C293.043 115.66 293.144 115.759 293.222 115.876C293.3 115.992 293.353 116.124 293.378 116.262C293.403 116.4 293.4 116.542 293.368 116.679C292.534 121.886 286.891 123.337 286.651 123.391C286.574 123.413 286.493 123.424 286.412 123.422Z" fill="#3772FF"/>
<path opacity="0.6" d="M286.412 123.422C286.16 123.431 285.913 123.344 285.721 123.179C285.529 123.014 285.405 122.783 285.374 122.531C285.343 122.279 285.407 122.024 285.553 121.817C285.7 121.61 285.918 121.466 286.165 121.413C286.211 121.413 290.743 120.218 291.361 116.353C291.373 116.213 291.415 116.077 291.482 115.954C291.549 115.831 291.64 115.723 291.751 115.637C291.861 115.551 291.988 115.488 292.124 115.454C292.259 115.419 292.4 115.413 292.538 115.435C292.676 115.457 292.808 115.508 292.925 115.584C293.043 115.66 293.144 115.759 293.222 115.876C293.3 115.992 293.353 116.124 293.378 116.262C293.403 116.4 293.4 116.542 293.368 116.679C292.534 121.886 286.891 123.337 286.651 123.391C286.574 123.413 286.493 123.424 286.412 123.422Z" fill="black"/>
<path d="M327.892 162.114H327.722C327.475 162.067 321.747 161.012 320.566 155.906C320.535 155.774 320.531 155.638 320.553 155.505C320.575 155.371 320.624 155.244 320.696 155.13C320.768 155.016 320.862 154.917 320.972 154.84C321.082 154.762 321.206 154.708 321.338 154.68C321.469 154.65 321.604 154.646 321.736 154.669C321.868 154.692 321.995 154.741 322.108 154.813C322.221 154.885 322.319 154.979 322.396 155.089C322.474 155.2 322.528 155.324 322.558 155.456C323.438 159.258 328.039 160.112 328.085 160.112C328.328 160.164 328.544 160.304 328.692 160.505C328.839 160.706 328.909 160.954 328.887 161.203C328.865 161.452 328.754 161.685 328.573 161.857C328.393 162.028 328.156 162.128 327.908 162.137L327.892 162.114Z" fill="#3772FF"/>
<path d="M309.796 199.525C308.028 199.553 306.309 198.945 304.948 197.81C304.834 197.729 304.739 197.624 304.667 197.504C304.596 197.384 304.55 197.25 304.532 197.111C304.515 196.971 304.526 196.83 304.566 196.696C304.605 196.561 304.672 196.436 304.761 196.329C304.851 196.222 304.962 196.134 305.087 196.072C305.212 196.01 305.348 195.974 305.488 195.967C305.627 195.961 305.766 195.983 305.896 196.033C306.027 196.083 306.145 196.16 306.245 196.258C309.232 198.757 313.424 196.662 313.471 196.638C313.71 196.515 313.989 196.492 314.245 196.575C314.501 196.658 314.714 196.84 314.837 197.081C314.96 197.321 314.983 197.601 314.9 197.859C314.818 198.117 314.637 198.331 314.397 198.454C312.959 199.142 311.389 199.507 309.796 199.525Z" fill="#3772FF"/>
<path d="M262.48 72.1678C262.304 72.1691 262.131 72.1236 261.978 72.0358C261.77 71.9194 256.729 68.9862 257.346 63.7482C257.377 63.4796 257.513 63.2343 257.723 63.0662C257.934 62.8981 258.202 62.821 258.47 62.8519C258.737 62.8828 258.981 63.0191 259.148 63.2308C259.315 63.4425 259.392 63.7124 259.361 63.981C258.921 67.861 262.966 70.2433 263.005 70.2666C263.202 70.3782 263.355 70.5528 263.442 70.7624C263.528 70.9721 263.542 71.2048 263.482 71.4234C263.422 71.6421 263.29 71.8342 263.109 71.9691C262.927 72.104 262.706 72.1739 262.48 72.1678Z" fill="#3772FF"/>
<path d="M60.8262 76.304C60.6933 76.3096 60.5607 76.2889 60.4359 76.2429C60.3111 76.197 60.1965 76.1269 60.0986 76.0364C60.0008 75.946 59.9216 75.8371 59.8656 75.7159C59.8096 75.5947 59.778 75.4636 59.7724 75.3301C59.7668 75.1966 59.7874 75.0633 59.8331 74.9378C59.8788 74.8124 59.9486 74.6972 60.0386 74.5988C60.1285 74.5004 60.2369 74.4209 60.3574 74.3646C60.478 74.3083 60.6084 74.2765 60.7412 74.2709C64.6012 73.9294 66.1452 69.4752 66.1452 69.4286C66.2349 69.181 66.4167 68.978 66.6524 68.8626C66.888 68.7471 67.1591 68.7281 67.4084 68.8096C67.6577 68.8911 67.8658 69.0668 67.9887 69.2995C68.1117 69.5323 68.1399 69.8039 68.0675 70.0572C67.998 70.2978 66.1452 75.8462 60.9188 76.2652L60.8262 76.304Z" fill="#3772FF"/>
<path d="M136.149 107.01C133.409 108.298 130.992 114.491 131.78 123.384C132.567 132.277 114.24 126.038 111.746 136.002C107.246 154.036 137.423 164.876 150.285 154.036C158.244 147.331 165.725 125.231 164.628 113.172C163.455 100.205 143.445 91.5057 136.149 107.01Z" fill="#263238"/>
<path d="M165.107 129.762C165.447 129.661 165.941 129.514 166.366 129.374L167.694 128.924C168.581 128.614 169.462 128.272 170.334 127.908C172.072 127.19 173.768 126.374 175.414 125.463C178.639 123.734 181.541 121.455 183.991 118.728C186.175 116.12 187.742 112.566 188.97 108.919C189.595 107.088 190.12 105.202 190.568 103.285C191.016 101.368 191.44 99.4052 191.765 97.5195L194.914 97.7135C194.92 101.91 194.466 106.094 193.563 110.192C193.104 112.291 192.482 114.351 191.703 116.353C190.895 118.466 189.813 120.462 188.484 122.289C185.764 125.794 182.392 128.733 178.556 130.942C176.707 132.04 174.788 133.015 172.812 133.86C171.824 134.279 170.828 134.636 169.809 135.016C169.307 135.194 168.798 135.365 168.265 135.52C167.732 135.675 167.261 135.823 166.628 135.978L165.107 129.762Z" fill="#7F3E3B"/>
<path d="M194.899 98.777L196.211 94.0356L191 94.4392C191 94.4392 190.63 97.5432 192.428 99.4133L194.899 98.777Z" fill="#7F3E3B"/>
<path d="M196.991 88.5181L192.235 89.7674L191 94.4389L196.211 94.0354L196.991 88.5181Z" fill="#7F3E3B"/>
<path d="M159.209 130.973C161.61 128.777 167.701 127.093 167.701 127.093L174.379 137.181C174.379 137.181 166.76 142.295 163.525 141.108C160.159 139.928 156.971 133.014 159.209 130.973Z" fill="#3772FF"/>
<path d="M137.215 274.463L141.376 279.057L153.319 270.506L149.158 265.912L137.215 274.463Z" fill="#7F3E3B"/>
<path d="M113.73 292.614L119.312 295.4L127.518 283.302L121.937 280.516L113.73 292.614Z" fill="#7F3E3B"/>
<path d="M120.2 294.709L115.892 289.161C115.82 289.064 115.715 288.997 115.597 288.973C115.479 288.949 115.356 288.969 115.251 289.029L110.396 291.822C110.275 291.896 110.172 291.995 110.093 292.112C110.013 292.229 109.959 292.361 109.935 292.5C109.91 292.64 109.915 292.783 109.949 292.92C109.983 293.057 110.046 293.186 110.133 293.297C111.677 295.206 112.503 296.052 114.402 298.496C115.56 299.994 117.923 303.486 119.528 305.558C121.134 307.63 123.265 306.147 122.778 305.139C120.601 300.615 120.462 297.93 120.54 295.772C120.555 295.389 120.435 295.012 120.2 294.709Z" fill="#263238"/>
<path d="M142.619 279.143L139.778 272.283C139.728 272.16 139.638 272.057 139.523 271.991C139.409 271.925 139.276 271.899 139.145 271.918L133.123 272.694C132.98 272.709 132.842 272.759 132.721 272.838C132.601 272.917 132.5 273.024 132.429 273.15C132.357 273.275 132.316 273.416 132.31 273.561C132.303 273.706 132.33 273.85 132.39 273.982C133.424 276.364 134.049 277.474 135.3 280.493C136.072 282.347 137.863 287.221 138.921 289.805C139.978 292.389 142.696 291.776 142.495 290.643C141.592 285.568 141.901 282.293 142.65 280.299C142.72 280.114 142.754 279.916 142.749 279.718C142.744 279.519 142.699 279.324 142.619 279.143Z" fill="#263238"/>
<path opacity="0.2" d="M153.311 270.506L147.158 274.913L142.503 270.676L149.15 265.912L153.311 270.506Z" fill="black"/>
<path opacity="0.2" d="M121.937 280.516L127.519 283.302L123.281 289.541L117.699 286.747L121.937 280.516Z" fill="black"/>
<path d="M167.616 131.757C167.616 131.757 167.801 131.477 164.42 168.555L139.176 170.332C138.882 159.98 139.654 152.67 134.845 131.4C138.391 130.682 141.986 130.225 145.599 130.034C149.424 129.777 153.263 129.798 157.086 130.096C162.019 130.569 167.616 131.757 167.616 131.757Z" fill="#3772FF"/>
<path d="M136.744 137.546C134.868 136.677 133.224 135.746 131.518 134.76C129.812 133.774 128.198 132.719 126.593 131.602C123.324 129.371 120.285 126.818 117.522 123.981L116.502 122.872L116.24 122.592C116.09 122.418 115.948 122.237 115.815 122.049C115.577 121.707 115.37 121.343 115.198 120.963C114.687 119.75 114.424 118.446 114.426 117.129C114.443 115.033 114.723 112.947 115.26 110.921C116.24 107.13 117.6 103.448 119.32 99.9331L122.269 101.082C121.814 102.843 121.382 104.674 120.996 106.467C120.61 108.26 120.285 110.068 120.069 111.837C119.818 113.501 119.751 115.187 119.868 116.865C119.907 117.446 120.054 118.015 120.301 118.542C120.301 118.596 120.378 118.658 120.401 118.666C120.401 118.666 120.424 118.674 120.401 118.666L120.64 118.891L121.59 119.799C124.24 122.211 127.08 124.404 130.082 126.356C131.587 127.357 133.17 128.273 134.714 129.196C136.258 130.12 137.918 130.996 139.423 131.765L136.744 137.546Z" fill="#7F3E3B"/>
<path d="M144.781 132.82C141.917 128.808 136.289 128.87 136.289 128.87L129.503 138.958C129.503 138.958 137.076 144.142 140.311 142.986C143.739 141.76 146.549 135.288 144.781 132.82Z" fill="#3772FF"/>
<path d="M157.086 130.096L145.599 130.034C143.839 130.748 142.82 135.35 154.477 139.245C162.56 134.628 158.26 130.523 157.086 130.096Z" fill="white"/>
<path d="M146.803 117.036C147.505 120.753 148.193 127.566 145.599 130.034C145.599 130.034 146.602 133.813 154.477 139.245C159.996 133.681 157.086 130.096 157.086 130.096C152.971 129.08 153.095 126.007 153.828 123.112L146.803 117.036Z" fill="#7F3E3B"/>
<path d="M170.611 153.942H170.488C170.081 153.909 169.704 153.714 169.439 153.402C169.174 153.089 169.043 152.683 169.075 152.274C169.353 148.813 166.759 146.198 163.779 143.164C160.359 139.695 156.476 135.761 156.322 129.638C156.312 129.227 156.464 128.828 156.747 128.529C157.029 128.231 157.418 128.058 157.827 128.047C158.237 128.037 158.633 128.191 158.93 128.474C159.227 128.758 159.4 129.149 159.41 129.561C159.533 134.449 162.807 137.771 165.972 140.983C169.137 144.196 172.541 147.641 172.148 152.522C172.115 152.909 171.939 153.27 171.654 153.533C171.37 153.796 170.998 153.942 170.611 153.942Z" fill="#263238"/>
<path d="M148.046 161.796C147.921 161.795 147.797 161.78 147.676 161.749C147.279 161.65 146.937 161.397 146.726 161.045C146.514 160.693 146.451 160.271 146.549 159.871C148.039 153.787 146.086 149.007 144.017 143.979C142.164 139.462 140.249 134.791 141.176 129.328C141.256 128.932 141.486 128.584 141.817 128.356C142.149 128.128 142.556 128.039 142.951 128.108C143.347 128.176 143.701 128.397 143.937 128.724C144.173 129.05 144.274 129.456 144.217 129.856C143.445 134.434 145.105 138.5 146.865 142.799C148.934 147.835 151.273 153.547 149.544 160.647C149.456 160.978 149.261 161.27 148.99 161.478C148.719 161.685 148.387 161.797 148.046 161.796Z" fill="#263238"/>
<path opacity="0.2" d="M152.377 121.832L149.289 122.197C149.439 123.032 149.737 123.834 150.169 124.564C150.779 125.487 152.138 125.891 153.481 125.929C153.48 124.969 153.609 124.014 153.867 123.089L152.377 121.832Z" fill="black"/>
<path d="M139.972 113.296C142.234 119.085 143.06 121.584 147.005 123.648C152.933 126.752 159.511 122.709 159.017 116.361C158.577 110.642 154.956 102.137 148.448 101.656C147.015 101.544 145.577 101.801 144.271 102.404C142.964 103.008 141.833 103.936 140.984 105.102C140.135 106.268 139.596 107.633 139.419 109.067C139.242 110.501 139.432 111.957 139.972 113.296Z" fill="#7F3E3B"/>
<path d="M146.171 100.818C150.563 103.534 146.804 119.512 139.369 118.666C131.935 117.82 139.678 96.8058 146.171 100.818Z" fill="#263238"/>
<path d="M146.008 100.88C142.696 103.091 144.958 106.94 156.121 104.659C156.121 104.651 151.505 97.2014 146.008 100.88Z" fill="#263238"/>
<path d="M140.774 118.922C141.262 120.019 142.161 120.877 143.275 121.312C144.765 121.871 145.638 120.536 145.344 119.085C145.074 117.758 143.978 115.857 142.434 115.934C142.097 115.957 141.77 116.064 141.484 116.246C141.199 116.428 140.963 116.679 140.798 116.976C140.633 117.272 140.544 117.606 140.54 117.946C140.536 118.286 140.616 118.621 140.774 118.922Z" fill="#7F3E3B"/>
<path d="M164.435 168.555C164.435 168.555 177.945 212.888 179.034 231.962C180.161 251.804 150.848 275.348 150.848 275.348L143.553 267.301C143.553 267.301 167.369 246.969 164.103 232.241C159.587 211.941 145.907 169.858 145.907 169.858L164.435 168.555Z" fill="#263238"/>
<path opacity="0.2" d="M156.013 183.066C154.778 179.186 152.03 181.793 151.072 185.906C152.979 192.114 155.187 199.378 157.287 206.649C158.097 200.208 158.429 190.671 156.013 183.066Z" fill="black"/>
<path d="M141.577 266.913L150.833 276.512L154.786 274.316L145.005 263.615L141.577 266.913Z" fill="#3772FF"/>
<path d="M157.758 169.028C157.758 169.028 153.898 212.484 150.038 236.688C146.911 256.243 125.673 288.183 125.673 288.183L117.892 284.544C117.892 284.544 132.166 250.345 134.389 237.052C141.523 194.504 131.888 182.228 139.183 170.316L157.758 169.028Z" fill="#263238"/>
<path d="M117.344 284.629L126.121 288.959L129.001 285.366L118.733 280.5L117.344 284.629Z" fill="#3772FF"/>
<path d="M138.697 168.873L137.717 171.201C137.64 171.38 137.856 171.55 138.149 171.527L164.629 169.665C164.853 169.665 165.038 169.525 165.038 169.377L165.108 167.049C165.108 166.894 164.907 166.778 164.66 166.793L139.091 168.594C139.006 168.597 138.923 168.625 138.853 168.674C138.783 168.724 138.729 168.793 138.697 168.873Z" fill="white"/>
<path d="M142.326 171.496L141.646 171.542C141.507 171.542 141.399 171.488 141.399 171.403L141.515 168.431C141.515 168.345 141.639 168.26 141.77 168.252L142.457 168.206C142.596 168.206 142.704 168.26 142.696 168.345L142.581 171.317C142.581 171.418 142.465 171.496 142.326 171.496Z" fill="#263238"/>
<path d="M162.722 170.068L162.035 170.115C161.896 170.115 161.788 170.06 161.795 169.975L161.911 167.003C161.911 166.918 162.027 166.84 162.166 166.824L162.845 166.778C162.984 166.778 163.092 166.832 163.092 166.918L162.976 169.897C162.969 169.983 162.892 170.06 162.722 170.068Z" fill="#263238"/>
<path d="M152.524 170.79L151.837 170.836C151.706 170.836 151.598 170.782 151.598 170.697L151.713 167.717C151.713 167.631 151.829 167.554 151.968 167.546L152.655 167.5C152.787 167.5 152.895 167.554 152.895 167.639L152.779 170.611C152.779 170.72 152.663 170.774 152.524 170.79Z" fill="#263238"/>
<path d="M149.274 111.123C148.903 111.247 148.749 111.806 148.934 112.38L150.285 111.945C150.1 111.371 149.644 110.968 149.274 111.123Z" fill="#263238"/>
<path d="M155.172 109.245C154.794 109.369 154.639 109.936 154.824 110.51L156.183 110.068C155.944 109.494 155.504 109.129 155.172 109.245Z" fill="#263238"/>
<path d="M154.979 109.33L156.221 108.492C156.221 108.492 155.866 109.796 154.979 109.33Z" fill="#263238"/>
<path d="M153.628 111.589C154.404 112.547 155.308 113.393 156.314 114.103C156.128 114.358 155.888 114.568 155.612 114.72C155.336 114.871 155.03 114.96 154.716 114.98L153.628 111.589Z" fill="#630F0F"/>
<path d="M153.721 117.393C153.743 117.373 153.76 117.348 153.768 117.319C153.776 117.29 153.776 117.259 153.767 117.23C153.755 117.193 153.728 117.163 153.694 117.145C153.659 117.128 153.619 117.125 153.582 117.137C152.991 117.343 152.361 117.406 151.742 117.323C151.122 117.239 150.531 117.011 150.015 116.656C150.002 116.642 149.985 116.631 149.967 116.624C149.95 116.616 149.93 116.612 149.911 116.612C149.892 116.612 149.872 116.616 149.855 116.624C149.837 116.631 149.82 116.642 149.807 116.656C149.792 116.669 149.78 116.685 149.772 116.703C149.764 116.721 149.76 116.741 149.76 116.761C149.76 116.781 149.764 116.8 149.772 116.818C149.78 116.836 149.792 116.852 149.807 116.866C150.359 117.263 150.998 117.52 151.67 117.614C152.343 117.709 153.028 117.638 153.667 117.409L153.721 117.393Z" fill="#263238"/>
<path d="M147.321 110.774C147.36 110.741 147.389 110.698 147.406 110.65C147.512 110.289 147.704 109.959 147.964 109.688C148.225 109.418 148.548 109.215 148.903 109.098C148.941 109.089 148.976 109.072 149.007 109.049C149.039 109.026 149.065 108.997 149.085 108.964C149.105 108.931 149.118 108.894 149.124 108.856C149.13 108.818 149.129 108.778 149.12 108.741C149.11 108.703 149.094 108.668 149.071 108.636C149.048 108.605 149.02 108.578 148.987 108.558C148.954 108.538 148.917 108.525 148.879 108.519C148.841 108.513 148.802 108.514 148.764 108.524C148.317 108.665 147.91 108.912 147.577 109.244C147.244 109.577 146.994 109.984 146.85 110.432C146.825 110.507 146.831 110.587 146.866 110.657C146.901 110.727 146.962 110.78 147.035 110.805C147.081 110.826 147.132 110.835 147.182 110.829C147.233 110.824 147.281 110.805 147.321 110.774Z" fill="#263238"/>
<path d="M156.569 106.94C156.586 106.932 156.599 106.918 156.608 106.901C156.633 106.871 156.651 106.836 156.662 106.798C156.673 106.761 156.677 106.721 156.673 106.682C156.668 106.643 156.656 106.605 156.637 106.571C156.618 106.537 156.592 106.507 156.562 106.482C156.2 106.182 155.773 105.973 155.315 105.871C154.858 105.77 154.382 105.78 153.929 105.9C153.892 105.913 153.857 105.932 153.828 105.958C153.798 105.984 153.774 106.016 153.756 106.051C153.739 106.087 153.729 106.125 153.727 106.165C153.725 106.204 153.731 106.244 153.744 106.281C153.77 106.354 153.823 106.413 153.892 106.448C153.961 106.483 154.041 106.489 154.114 106.467C154.474 106.374 154.85 106.369 155.211 106.453C155.572 106.537 155.909 106.707 156.191 106.948C156.245 106.992 156.312 107.015 156.382 107.014C156.451 107.012 156.517 106.986 156.569 106.94Z" fill="#263238"/>
<path d="M125.643 102.222C125.455 102.222 125.271 102.171 125.11 102.075L101.626 87.5326C101.42 87.3802 101.278 87.1555 101.23 86.9033C101.181 86.651 101.228 86.3895 101.362 86.1706C101.496 85.9518 101.708 85.7917 101.954 85.722C102.2 85.6523 102.463 85.6781 102.691 85.7944L126.175 100.337C126.365 100.452 126.511 100.627 126.592 100.834C126.673 101.041 126.684 101.269 126.624 101.483C126.563 101.698 126.434 101.886 126.257 102.019C126.08 102.153 125.864 102.224 125.643 102.222Z" fill="#3772FF"/>
<path d="M106.945 89.1389C108.265 89.0846 109.624 89.0225 109.801 87.8275C109.979 86.6325 108.705 86.1746 107.485 85.7245L107.153 85.6004C107.153 85.484 107.099 85.3676 107.069 85.2589L107.339 84.9563C108.203 83.9941 109.107 83.0008 108.404 82.0541C107.702 81.1073 106.497 81.6661 105.316 82.217L104.953 82.3877C104.853 82.3179 104.753 82.2636 104.644 82.2015C104.536 82.1394 104.644 81.9532 104.644 81.8445C104.583 80.5253 104.521 79.1596 103.34 78.9811C102.159 78.8026 101.695 80.083 101.248 81.3091C101.209 81.41 101.17 81.5264 101.124 81.6428L100.777 81.7281L100.483 81.4643C99.5261 80.5874 98.5379 79.6873 97.5961 80.3857C96.6542 81.0841 97.2101 82.3024 97.7582 83.4897L97.928 83.8544C97.8607 83.9517 97.7989 84.0528 97.7427 84.157H97.3876C96.0752 84.2191 94.7088 84.2812 94.5312 85.4762C94.3537 86.6713 95.6352 87.1291 96.8472 87.5792L97.1792 87.7033C97.1792 87.8197 97.2332 87.9361 97.2641 88.0448C97.1715 88.1534 97.0788 88.2621 96.9939 88.3474C96.1293 89.3097 95.2337 90.2952 95.9285 91.2497C96.6233 92.2041 97.8354 91.6299 99.0165 91.0867L99.3871 90.916L99.6882 91.1022C99.6882 91.2264 99.6882 91.3505 99.6882 91.4592C99.7499 92.7784 99.8117 94.1441 100.993 94.3226C102.174 94.5011 102.645 93.2207 103.093 91.9946C103.093 91.9015 103.17 91.7851 103.208 91.6609C103.326 91.6398 103.442 91.6113 103.556 91.5756L103.857 91.8472C104.807 92.7163 105.795 93.6242 106.744 92.9258C107.694 92.2274 107.123 91.0091 106.574 89.8218C106.528 89.7209 106.466 89.589 106.412 89.4571L106.598 89.1545L106.945 89.1389Z" fill="#3772FF"/>
<path opacity="0.7" d="M106.945 89.1389C108.265 89.0846 109.624 89.0225 109.801 87.8275C109.979 86.6325 108.705 86.1746 107.485 85.7245L107.153 85.6004C107.153 85.484 107.099 85.3676 107.069 85.2589L107.339 84.9563C108.203 83.9941 109.107 83.0008 108.404 82.0541C107.702 81.1073 106.497 81.6661 105.316 82.217L104.953 82.3877C104.853 82.3179 104.753 82.2636 104.644 82.2015C104.536 82.1394 104.644 81.9532 104.644 81.8445C104.583 80.5253 104.521 79.1596 103.34 78.9811C102.159 78.8026 101.695 80.083 101.248 81.3091C101.209 81.41 101.17 81.5264 101.124 81.6428L100.777 81.7281L100.483 81.4643C99.5261 80.5874 98.5379 79.6873 97.5961 80.3857C96.6542 81.0841 97.2101 82.3024 97.7582 83.4897L97.928 83.8544C97.8607 83.9517 97.7989 84.0528 97.7427 84.157H97.3876C96.0752 84.2191 94.7088 84.2812 94.5312 85.4762C94.3537 86.6713 95.6352 87.1291 96.8472 87.5792L97.1792 87.7033C97.1792 87.8197 97.2332 87.9361 97.2641 88.0448C97.1715 88.1534 97.0788 88.2621 96.9939 88.3474C96.1293 89.3097 95.2337 90.2952 95.9285 91.2497C96.6233 92.2041 97.8354 91.6299 99.0165 91.0867L99.3871 90.916L99.6882 91.1022C99.6882 91.2264 99.6882 91.3505 99.6882 91.4592C99.7499 92.7784 99.8117 94.1441 100.993 94.3226C102.174 94.5011 102.645 93.2207 103.093 91.9946C103.093 91.9015 103.17 91.7851 103.208 91.6609C103.326 91.6398 103.442 91.6113 103.556 91.5756L103.857 91.8472C104.807 92.7163 105.795 93.6242 106.744 92.9258C107.694 92.2274 107.123 91.0091 106.574 89.8218C106.528 89.7209 106.466 89.589 106.412 89.4571L106.598 89.1545L106.945 89.1389Z" fill="white"/>
<path d="M118.633 102.471L117.668 96.2627L123.967 99.3667C123.73 100.412 123.193 101.364 122.423 102.106C122.107 102.469 121.694 102.734 121.234 102.871C120.774 103.008 120.284 103.012 119.822 102.882L118.633 102.471Z" fill="#7F3E3B"/>
<path d="M121.204 93.2207L124.431 96.0686L123.967 99.3278L117.668 96.2549L121.204 93.2207Z" fill="#7F3E3B"/>
<path d="M122.223 297.681C122.288 297.634 122.35 297.582 122.408 297.526C122.474 297.465 122.523 297.388 122.548 297.302C122.574 297.216 122.576 297.124 122.554 297.037C122.369 296.261 120.238 295.485 119.999 295.431C119.973 295.419 119.943 295.417 119.915 295.424C119.888 295.431 119.863 295.447 119.845 295.469C119.829 295.494 119.82 295.522 119.82 295.551C119.82 295.58 119.829 295.608 119.845 295.632C120.192 296.408 120.887 297.681 121.667 297.813C121.862 297.842 122.061 297.795 122.223 297.681ZM120.238 295.834C121.08 296.152 122.168 296.696 122.269 297.107C122.276 297.146 122.273 297.185 122.259 297.222C122.245 297.259 122.222 297.292 122.192 297.316C122.133 297.392 122.056 297.45 121.968 297.487C121.88 297.524 121.784 297.537 121.69 297.526C121.265 297.448 120.74 296.827 120.238 295.834Z" fill="#3772FF"/>
<path d="M122.617 295.609C122.667 295.579 122.712 295.539 122.748 295.493C122.823 295.401 122.865 295.286 122.865 295.167C122.865 295.048 122.823 294.933 122.748 294.841C122.691 294.743 122.613 294.659 122.519 294.594C122.426 294.53 122.319 294.487 122.208 294.469C121.32 294.306 119.892 295.408 119.838 295.454C119.818 295.471 119.802 295.493 119.793 295.517C119.783 295.541 119.78 295.568 119.784 295.594C119.788 295.618 119.798 295.642 119.813 295.662C119.827 295.682 119.846 295.699 119.869 295.71C120.766 296.013 121.743 295.977 122.617 295.609ZM120.301 295.493C120.829 295.06 121.48 294.804 122.161 294.763C122.232 294.772 122.3 294.798 122.359 294.838C122.418 294.879 122.467 294.933 122.501 294.996C122.601 295.159 122.555 295.245 122.501 295.299C122.223 295.633 120.957 295.695 120.255 295.516L120.301 295.493Z" fill="#3772FF"/>
<path d="M142.758 282.658C142.915 283.144 143.22 283.567 143.63 283.869C143.746 283.937 143.875 283.979 144.008 283.991C144.142 284.003 144.276 283.985 144.402 283.938C144.477 283.917 144.545 283.875 144.598 283.818C144.651 283.76 144.688 283.689 144.703 283.613C144.865 282.837 142.843 280.92 142.433 280.509C142.408 280.492 142.379 280.483 142.349 280.483C142.318 280.483 142.289 280.492 142.264 280.509C142.237 280.523 142.215 280.546 142.203 280.574C142.19 280.602 142.187 280.634 142.194 280.664C142.308 281.347 142.497 282.016 142.758 282.658ZM144.363 283.24C144.407 283.329 144.426 283.428 144.418 283.527C144.418 283.566 144.418 283.605 144.309 283.636C144.219 283.671 144.122 283.685 144.026 283.676C143.93 283.668 143.837 283.639 143.754 283.589C143.283 283.31 142.85 282.379 142.572 281.059C143.276 281.691 143.879 282.426 144.363 283.24Z" fill="#3772FF"/>
<path d="M142.225 280.718C142.223 280.733 142.223 280.749 142.225 280.764C142.858 281.408 144.75 282.448 145.359 282.091C145.491 282.014 145.63 281.843 145.522 281.47C145.128 280.043 142.434 280.493 142.302 280.516C142.275 280.52 142.25 280.531 142.229 280.549C142.209 280.567 142.194 280.59 142.187 280.617C142.187 280.654 142.201 280.69 142.225 280.718ZM145.236 281.455L145.275 281.548C145.275 281.703 145.275 281.796 145.275 281.835C144.919 282.037 143.491 281.37 142.735 280.764C143.368 280.694 144.896 280.632 145.236 281.455Z" fill="#3772FF"/>
<path d="M149.119 111.208L150.362 110.362C150.362 110.362 150.007 111.674 149.119 111.208Z" fill="#263238"/>
<path d="M250.043 314.489L244.06 314.497L242.446 300.576L248.429 300.568L250.043 314.489Z" fill="#FFC3BD"/>
<path d="M301.542 288.649L297.011 292.583L286.751 283.093L291.275 279.158L301.542 288.649Z" fill="#FFC3BD"/>
<path d="M296.131 292.428L301.643 287.632C301.733 287.557 301.846 287.516 301.963 287.516C302.08 287.516 302.194 287.557 302.284 287.632L306.483 291C306.586 291.087 306.668 291.195 306.725 291.317C306.781 291.439 306.81 291.572 306.81 291.706C306.81 291.841 306.781 291.974 306.725 292.096C306.668 292.218 306.586 292.326 306.483 292.412C304.685 293.926 303.303 294.942 301.079 296.882C299.705 298.077 295.675 301.833 293.776 303.486C291.877 305.139 290.078 303.393 290.688 302.539C293.545 298.721 295.32 295.338 295.598 293.328C295.667 292.975 295.855 292.657 296.131 292.428Z" fill="#263238"/>
<path d="M244.098 313.799H250.637C250.755 313.799 250.87 313.84 250.963 313.915C251.055 313.99 251.12 314.094 251.146 314.21L252.335 319.557C252.364 319.686 252.364 319.819 252.334 319.948C252.305 320.077 252.247 320.197 252.164 320.3C252.082 320.403 251.977 320.486 251.858 320.543C251.74 320.6 251.61 320.629 251.478 320.628C249.116 320.589 245.711 320.457 242.747 320.457C239.288 320.457 237.258 320.55 233.197 320.558C230.742 320.558 230.055 318.067 231.082 317.842C235.76 316.802 238.617 316.794 242.662 314.28C243.087 313.988 243.584 313.822 244.098 313.799Z" fill="#263238"/>
<path d="M224.651 141.628C223.447 141.162 222.413 140.735 221.332 140.238C220.251 139.742 219.209 139.253 218.159 138.733C216.064 137.698 214.005 136.545 211.983 135.272C209.947 134.018 207.99 132.639 206.123 131.144C205.652 130.756 205.174 130.368 204.711 129.972L203.336 128.707C202.881 128.288 202.449 127.807 202.009 127.357C201.785 127.109 201.592 126.93 201.337 126.635C201.082 126.34 200.835 126.053 200.611 125.758C199.767 124.636 199.05 123.424 198.473 122.142C197.936 120.972 197.48 119.766 197.106 118.534C196.397 116.206 195.88 113.823 195.562 111.41C194.953 106.764 194.837 102.066 195.215 97.3955H199.708C200.017 99.4985 200.341 101.71 200.766 103.836C201.19 105.963 201.638 108.089 202.186 110.137C202.705 112.139 203.36 114.101 204.147 116.012C204.8 117.701 205.721 119.273 206.872 120.668L207.25 121.056C207.366 121.18 207.598 121.366 207.768 121.521C208.138 121.84 208.478 122.173 208.872 122.476C209.644 123.097 210.416 123.71 211.28 124.299C212.948 125.463 214.708 126.573 216.545 127.613C218.383 128.653 220.259 129.638 222.165 130.57C223.123 131.043 224.088 131.508 225.053 131.943C226.018 132.378 227.029 132.835 227.894 133.208L224.651 141.628Z" fill="#FFC3BD"/>
<path d="M225.608 146.75C222.201 144.621 218.983 142.201 215.989 139.517L218.375 127.264C222.81 128.532 227.32 129.522 231.877 130.228C239.404 131.206 230.974 149.962 225.608 146.75Z" fill="#263238"/>
<path d="M199.863 98.4511L200.287 90.792L193.957 92.8329C193.957 92.8329 192.482 98.3192 196.589 99.7626L199.863 98.4511Z" fill="#FFC3BD"/>
<path d="M199.523 86.6714L194.297 88.8597L193.957 92.8328L200.287 90.7919L199.523 86.6714Z" fill="#FFC3BD"/>
<path opacity="0.2" d="M242.454 300.576L243.28 307.754L249.263 307.746L248.437 300.568L242.454 300.576Z" fill="black"/>
<path opacity="0.2" d="M291.283 279.158L286.751 283.093L292.047 287.981L296.571 284.047L291.283 279.158Z" fill="black"/>
<path d="M254.883 129.98C254.896 129.554 254.826 129.13 254.675 128.731C254.525 128.333 254.297 127.969 254.006 127.659C253.714 127.35 253.365 127.101 252.977 126.928C252.59 126.755 252.172 126.661 251.749 126.651C234.672 126.333 223.563 131.144 222.799 131.454C222.514 131.57 222.263 131.757 222.069 131.997C221.876 132.237 221.747 132.523 221.695 132.828C220.984 137.127 218.97 155.146 228.843 183.345L260.495 178.79C260.071 174.095 254.173 152.554 254.883 129.98Z" fill="#263238"/>
<path d="M229.284 129.29C227.408 131.812 226.559 137.624 232.773 141.876C240.416 136.142 244.353 129.972 245.519 126.76C240.035 127.036 234.594 127.884 229.284 129.29Z" fill="white"/>
<path d="M227.863 131.648C227.454 131.648 227.061 131.485 226.772 131.194C226.482 130.903 226.319 130.508 226.319 130.096C226.319 128.816 227.423 127.714 228.357 126.992C231.492 124.664 237.621 122.887 245.341 125.13C245.721 125.256 246.037 125.525 246.223 125.88C246.41 126.235 246.452 126.649 246.341 127.035C246.23 127.421 245.975 127.748 245.628 127.949C245.282 128.149 244.872 128.207 244.484 128.11C235.529 125.51 230.01 129.204 229.415 130.267C229.373 130.65 229.191 131.003 228.904 131.258C228.617 131.514 228.246 131.653 227.863 131.648Z" fill="#3772FF"/>
<path d="M240.693 112.008C240.462 116.485 240.748 124.587 244.191 127.054C242.168 129.747 239.474 132.905 234.355 133.829C231.267 134.38 230.21 133.231 230.078 131.78C230.035 131.08 230.189 130.382 230.522 129.766C230.855 129.15 231.354 128.64 231.962 128.296C235.289 126.356 234.626 123.237 233.429 120.288L240.693 112.008Z" fill="#FFC3BD"/>
<path d="M227.392 167.251C227.219 167.25 227.046 167.219 226.883 167.158C226.497 167.021 226.181 166.736 226.005 166.365C225.828 165.994 225.805 165.567 225.941 165.179C226.156 164.636 226.255 164.054 226.234 163.471C226.213 162.887 226.071 162.314 225.818 161.788L225.655 161.346C225.392 160.825 225.042 160.352 224.621 159.949C223.718 159.221 223.093 158.201 222.852 157.062C222.612 155.924 222.77 154.737 223.301 153.702C223.491 153.259 223.603 152.787 223.633 152.305C223.486 151.753 223.248 151.228 222.93 150.753C222.293 149.838 221.917 148.764 221.842 147.649C221.929 146.483 222.35 145.368 223.054 144.437C223.319 144.084 223.528 143.691 223.671 143.273C223.677 142.841 223.593 142.413 223.424 142.016C223.053 141.134 222.962 140.158 223.162 139.222C223.475 138.166 224.12 137.241 224.999 136.584C225.248 136.395 225.464 136.167 225.64 135.909C225.75 135.534 225.75 135.135 225.64 134.76C225.405 133.861 225.53 132.906 225.987 132.098C226.528 131.245 226.474 131.028 226.427 130.849C226.349 130.577 226.316 130.294 226.327 130.011C226.327 129.599 226.49 129.205 226.779 128.914C227.069 128.623 227.462 128.459 227.871 128.459C228.281 128.459 228.673 128.623 228.963 128.914C229.252 129.205 229.415 129.599 229.415 130.011V130.058C229.631 130.934 229.693 131.982 228.643 133.697C228.656 133.879 228.679 134.061 228.713 134.24C228.945 135.094 228.911 135.998 228.614 136.832C228.317 137.665 227.772 138.386 227.053 138.896C226.559 139.331 226.281 139.595 226.173 139.975C226.157 140.333 226.228 140.69 226.381 141.015C226.709 141.845 226.839 142.74 226.759 143.63C226.589 144.521 226.219 145.362 225.679 146.09C225.32 146.544 225.072 147.075 224.953 147.642C225.078 148.185 225.306 148.699 225.625 149.155C226.18 149.989 226.556 150.93 226.729 151.917C226.771 152.852 226.611 153.784 226.258 154.649C226.006 155.201 225.887 155.804 225.91 156.411C226.154 156.949 226.503 157.432 226.937 157.831C227.652 158.533 228.219 159.372 228.605 160.298L228.743 160.702C229.503 162.437 229.551 164.403 228.875 166.173C228.774 166.488 228.576 166.762 228.31 166.956C228.043 167.15 227.722 167.254 227.392 167.251Z" fill="#3772FF"/>
<path d="M254.597 129.724C255.439 130.5 256.141 131.151 256.852 131.896C257.562 132.641 258.257 133.363 258.944 134.108C260.318 135.598 261.615 137.165 262.865 138.764C265.471 142.077 267.652 145.706 269.358 149.566C269.788 150.598 270.164 151.653 270.485 152.724C270.647 153.267 270.786 153.834 270.917 154.408L270.964 154.618L271.033 154.982C271.079 155.223 271.103 155.479 271.126 155.758C271.163 156.276 271.147 156.796 271.08 157.31C270.965 158.238 270.686 159.137 270.253 159.964C269.892 160.653 269.455 161.299 268.949 161.889C268.112 162.849 267.149 163.69 266.085 164.388C264.269 165.582 262.314 166.546 260.264 167.259C259.291 167.616 258.311 167.918 257.322 168.174C256.334 168.431 255.377 168.671 254.304 168.85L252.914 164.558C253.686 164.124 254.512 163.666 255.292 163.2C256.072 162.735 256.836 162.246 257.608 161.757C259.043 160.845 260.395 159.806 261.646 158.653C262.125 158.188 262.548 157.667 262.904 157.101C263.174 156.659 263.151 156.364 263.074 156.457C263.068 156.482 263.068 156.509 263.074 156.534L263.028 156.395C262.912 156.038 262.804 155.673 262.649 155.301C262.363 154.543 262.036 153.802 261.669 153.081C260.894 151.549 260.011 150.073 259.029 148.666C258.048 147.207 256.967 145.779 255.825 144.382C254.682 142.985 253.509 141.612 252.266 140.254C251.656 139.579 251.031 138.919 250.398 138.267C249.765 137.616 249.101 136.933 248.537 136.389L254.597 129.724Z" fill="#FFC3BD"/>
<path d="M252.606 126.783C256.095 127.303 261.569 136.095 261.569 136.095L252.683 148.069C252.683 148.069 247.943 143.529 246.561 139.533C243.952 131.866 245.75 125.774 252.606 126.783Z" fill="#263238"/>
<path d="M247.951 156.922C247.683 156.919 247.42 156.846 247.188 156.71C246.957 156.574 246.765 156.38 246.631 156.146C246.1 155.103 245.87 153.931 245.967 152.763C246.008 152.281 245.966 151.795 245.843 151.328C245.534 150.846 245.145 150.42 244.693 150.07C243.804 149.406 243.113 148.509 242.693 147.479C242.407 146.345 242.458 145.153 242.84 144.049C242.98 143.628 243.056 143.188 243.064 142.745C242.87 142.213 242.588 141.717 242.23 141.278C241.435 140.457 240.969 139.369 240.922 138.223C240.875 137.078 241.25 135.955 241.975 135.07C242.185 134.754 242.353 134.413 242.477 134.054C242.437 133.465 242.296 132.887 242.06 132.347C241.619 131.431 241.468 130.402 241.628 129.398C241.916 127.969 242.633 126.664 243.682 125.657L243.782 125.557C244.07 125.281 244.453 125.129 244.85 125.13C245.247 125.131 245.629 125.286 245.915 125.563C246.202 125.84 246.371 126.217 246.388 126.617C246.405 127.016 246.267 127.406 246.005 127.706L245.828 127.885C245.197 128.496 244.773 129.291 244.616 130.158C244.699 130.548 244.815 130.929 244.963 131.299C245.368 132.239 245.571 133.254 245.557 134.279C245.437 135.129 245.123 135.939 244.639 136.646C244.304 137.104 244.085 137.636 243.998 138.198C244.18 138.678 244.441 139.124 244.77 139.517C245.394 140.296 245.849 141.197 246.106 142.163C246.224 143.063 246.137 143.979 245.851 144.84C245.655 145.386 245.584 145.97 245.642 146.547C245.936 147.023 246.315 147.439 246.762 147.773C247.547 148.394 248.196 149.171 248.669 150.055C249.003 150.927 249.14 151.862 249.07 152.794C249.013 153.398 249.089 154.008 249.294 154.579C249.503 154.932 249.565 155.354 249.465 155.753C249.365 156.151 249.112 156.494 248.761 156.705C248.516 156.851 248.236 156.927 247.951 156.922Z" fill="#3772FF"/>
<path opacity="0.2" d="M237.729 115.383L233.437 120.28C233.76 121.032 234.018 121.811 234.209 122.608C236.015 122.072 238.262 119.675 238.184 117.704C238.172 116.909 238.018 116.123 237.729 115.383Z" fill="black"/>
<path d="M228.704 99.2737C226.797 102.611 228.017 107.36 228.017 107.36C228.529 107.694 229.12 107.885 229.729 107.912C230.339 107.939 230.944 107.802 231.483 107.515L230.943 98.6685L228.704 99.2737Z" fill="#263238"/>
<path d="M243.736 107.747C242.277 113.536 241.713 116.997 238.208 119.442C232.936 123.12 226.25 119.069 225.964 112.962C225.702 107.46 228.134 98.9244 234.279 97.6828C235.631 97.4013 237.031 97.4721 238.348 97.8886C239.665 98.3051 240.854 99.0533 241.802 100.062C242.75 101.071 243.425 102.307 243.764 103.652C244.102 104.997 244.092 106.407 243.736 107.747Z" fill="#FFC3BD"/>
<path d="M226.922 114.483H226.713L213.628 111.697C212.916 111.546 212.294 111.117 211.897 110.504C211.5 109.892 211.362 109.146 211.512 108.431C211.663 107.715 212.09 107.09 212.699 106.691C213.309 106.292 214.051 106.153 214.763 106.304C214.892 106.332 215.015 106.385 215.124 106.461C215.233 106.536 215.326 106.632 215.398 106.744C215.469 106.856 215.518 106.981 215.542 107.112C215.565 107.243 215.563 107.377 215.535 107.507C215.477 107.769 215.319 107.997 215.095 108.143C214.871 108.288 214.599 108.338 214.338 108.283C214.246 108.261 214.15 108.258 214.057 108.275C213.964 108.293 213.876 108.33 213.798 108.384C213.719 108.435 213.652 108.501 213.599 108.578C213.546 108.655 213.508 108.742 213.489 108.834C213.455 109.021 213.491 109.215 213.589 109.377C213.696 109.532 213.855 109.642 214.037 109.688L227.122 112.473C227.366 112.527 227.581 112.668 227.727 112.871C227.873 113.074 227.939 113.323 227.913 113.572C227.887 113.821 227.771 114.052 227.587 114.22C227.402 114.388 227.163 114.482 226.914 114.483H226.922Z" fill="#3772FF"/>
<path d="M226.867 114.716L225.284 114.374L225.786 112.046L227.33 112.38C227.642 112.447 227.915 112.636 228.089 112.905C228.262 113.174 228.323 113.502 228.256 113.816C228.179 114.114 227.994 114.372 227.736 114.538C227.479 114.705 227.169 114.769 226.867 114.716Z" fill="white"/>
<path d="M240.161 104.566C240.161 102.362 238.509 100.756 232.996 101.182C228.496 101.524 226.303 99.4132 227.592 96.4722C231.236 98.3811 230.634 95.8824 237.582 95.5798C244.53 95.2771 246.545 97.9078 247.278 101.997C251.532 108.337 244.19 110.968 244.19 110.968L241.319 113.49C240.724 113.626 240.103 113.599 239.522 113.412C238.941 113.225 238.42 112.885 238.014 112.427C238.014 112.427 237.451 107.282 240.161 104.566Z" fill="#263238"/>
<path d="M232.78 94.4857L232.603 94.5788C232.437 94.6673 232.298 94.7979 232.199 94.9575C232.1 95.1172 232.045 95.3002 232.039 95.4882C232.032 95.6762 232.076 95.8626 232.164 96.0285C232.252 96.1945 232.382 96.3341 232.541 96.4335L248.66 106.452C248.812 106.545 248.984 106.599 249.162 106.608C249.34 106.617 249.517 106.582 249.677 106.505C249.837 106.428 249.976 106.311 250.08 106.166C250.185 106.022 250.251 105.853 250.274 105.676C250.349 105.175 250.277 104.664 250.065 104.204C249.854 103.745 249.513 103.358 249.085 103.092L235.343 94.5556C234.959 94.3202 234.521 94.19 234.071 94.1777C233.621 94.1655 233.176 94.2716 232.78 94.4857Z" fill="#3772FF"/>
<path d="M235.684 95.5565L239.806 89.4882C239.924 89.3152 240.103 89.194 240.307 89.1493C240.51 89.1046 240.723 89.1398 240.902 89.2476L252.282 96.0997C252.381 96.1582 252.467 96.2374 252.534 96.332C252.601 96.4267 252.647 96.5345 252.668 96.6484C252.69 96.7622 252.688 96.8795 252.661 96.9923C252.634 97.1051 252.584 97.2108 252.513 97.3025L247.58 103.852L235.684 95.5565Z" fill="#3772FF"/>
<path d="M235.684 95.5567L237.328 92.6001L250.035 101.043L247.58 103.852L235.684 95.5567Z" fill="#3772FF"/>
<path opacity="0.6" d="M235.684 95.5567L237.328 92.6001L250.035 101.043L247.58 103.852L235.684 95.5567Z" fill="white"/>
<path d="M244.469 114.848C243.34 115.623 241.955 115.923 240.609 115.686C238.857 115.345 238.856 113.56 240.069 112.295C241.157 111.154 243.388 109.967 244.793 110.953C246.198 111.938 245.866 113.878 244.469 114.848Z" fill="#FFC3BD"/>
<path d="M241.033 306.372H251.162C251.162 306.372 249.572 270.164 247.387 251.556C246.723 245.891 247.441 238.131 247.511 229.463C247.603 218.545 248.105 206.649 248.599 197.313C249.124 187.481 249.564 180.396 249.564 180.396L228.844 183.369C228.844 183.369 226.79 234.918 230.009 252.984C233.36 271.747 241.033 306.372 241.033 306.372Z" fill="#3772FF"/>
<path opacity="0.2" d="M247.51 229.44C247.603 218.522 248.105 206.626 248.599 197.29L245.511 193.139C241.697 200.317 244.345 219.43 247.51 229.44Z" fill="black"/>
<path d="M238.718 181.926C238.718 181.926 251.587 233.01 257.701 249.531C264.394 267.611 289.044 288.75 289.044 288.75L295.275 281.859C295.275 281.859 282.235 261.427 272.624 241.771C268.031 216.248 260.527 178.791 260.527 178.791L238.718 181.926Z" fill="#3772FF"/>
<path d="M288.21 289.79L297.976 281.308L295.451 278.382L284.373 287.671L288.21 289.79Z" fill="#263238"/>
<path d="M239.759 306.605L251.833 306.59L251.826 302.671L238.339 302.485L239.759 306.605Z" fill="#263238"/>
<path d="M234.842 106.615C234.456 106.498 234.001 106.871 233.815 107.453L235.19 107.895C235.375 107.313 235.22 106.739 234.842 106.615Z" fill="#263238"/>
<path d="M228.82 105.474C228.426 105.474 228.048 105.924 228.048 106.537L229.484 106.63C229.507 106.017 229.221 105.536 228.82 105.474Z" fill="#263238"/>
<path d="M230.897 107.243C230.056 108.592 229.036 109.82 227.863 110.89C228.145 111.184 228.487 111.413 228.866 111.56C229.244 111.708 229.651 111.77 230.056 111.744L230.897 107.243Z" fill="#ED847E"/>
<path d="M236.803 105.994C236.851 106.005 236.901 106.005 236.949 105.994C237.021 105.97 237.08 105.92 237.115 105.853C237.149 105.786 237.157 105.709 237.135 105.637C237.015 105.201 236.792 104.801 236.486 104.47C236.179 104.139 235.798 103.887 235.375 103.735C235.339 103.724 235.302 103.719 235.264 103.723C235.227 103.726 235.191 103.738 235.159 103.756C235.126 103.774 235.097 103.799 235.075 103.829C235.052 103.859 235.036 103.893 235.027 103.929C235.017 103.965 235.013 104.002 235.017 104.039C235.021 104.076 235.033 104.112 235.051 104.145C235.069 104.177 235.093 104.206 235.122 104.229C235.151 104.252 235.184 104.269 235.22 104.279C235.556 104.408 235.856 104.617 236.095 104.887C236.334 105.157 236.505 105.48 236.594 105.831C236.614 105.872 236.644 105.908 236.68 105.936C236.716 105.965 236.758 105.984 236.803 105.994Z" fill="#263238"/>
<path d="M227.037 104.659C227.083 104.667 227.13 104.663 227.175 104.648C227.219 104.633 227.259 104.608 227.292 104.574C227.524 104.304 227.817 104.093 228.145 103.959C228.474 103.824 228.829 103.769 229.183 103.798C229.258 103.809 229.334 103.79 229.395 103.745C229.455 103.699 229.496 103.632 229.507 103.557C229.518 103.484 229.5 103.409 229.457 103.35C229.413 103.29 229.348 103.25 229.276 103.239C228.828 103.194 228.376 103.259 227.959 103.426C227.541 103.593 227.169 103.859 226.875 104.201C226.848 104.227 226.826 104.258 226.811 104.293C226.797 104.328 226.789 104.365 226.789 104.403C226.789 104.44 226.797 104.478 226.811 104.512C226.826 104.547 226.848 104.578 226.875 104.605C226.923 104.637 226.979 104.656 227.037 104.659Z" fill="#263238"/>
<path d="M295.281 294.554C295.674 294.193 296.027 293.79 296.331 293.351C296.347 293.328 296.355 293.301 296.355 293.273C296.355 293.246 296.347 293.219 296.331 293.196C296.32 293.17 296.299 293.149 296.274 293.136C296.249 293.123 296.22 293.12 296.192 293.126C295.945 293.126 293.745 293.491 293.46 294.197C293.428 294.274 293.417 294.359 293.428 294.442C293.439 294.525 293.471 294.604 293.521 294.67C293.594 294.79 293.696 294.889 293.818 294.958C293.939 295.027 294.076 295.064 294.216 295.066C294.619 295.024 294.996 294.843 295.281 294.554ZM295.899 293.467C295.258 294.298 294.641 294.779 294.224 294.779C294.129 294.776 294.037 294.749 293.956 294.7C293.874 294.652 293.807 294.582 293.761 294.499C293.743 294.472 293.733 294.439 293.733 294.406C293.733 294.373 293.743 294.341 293.761 294.313C293.869 293.949 295.019 293.623 295.899 293.467Z" fill="#3772FF"/>
<path d="M296.309 293.382C296.329 293.363 296.345 293.339 296.355 293.312C296.367 293.29 296.373 293.264 296.373 293.239C296.373 293.213 296.367 293.188 296.355 293.165C296.301 293.111 295.12 291.846 294.24 291.854C294.132 291.854 294.026 291.877 293.927 291.921C293.829 291.965 293.741 292.029 293.668 292.11C293.587 292.181 293.531 292.278 293.512 292.386C293.492 292.493 293.509 292.603 293.56 292.699C293.877 293.305 295.598 293.553 296.278 293.413L296.309 293.382ZM293.885 292.265C293.975 292.187 294.09 292.145 294.209 292.148C294.772 292.148 295.544 292.808 295.915 293.157C295.143 293.196 293.962 292.917 293.769 292.56C293.769 292.521 293.715 292.443 293.838 292.311L293.885 292.265Z" fill="#3772FF"/>
<path d="M243.511 314.637C243.536 314.628 243.558 314.613 243.574 314.592C243.591 314.571 243.601 314.547 243.604 314.52C243.611 314.491 243.607 314.461 243.595 314.435C243.582 314.408 243.561 314.386 243.535 314.373C243.257 314.233 240.856 313.007 240.13 313.418C240.06 313.455 240.002 313.51 239.96 313.576C239.918 313.643 239.894 313.72 239.891 313.799C239.875 313.927 239.891 314.058 239.938 314.179C239.986 314.299 240.062 314.406 240.161 314.489C240.817 315.071 242.531 314.831 243.496 314.637H243.511ZM240.315 313.643C240.771 313.488 242.075 313.985 243.025 314.419C241.705 314.644 240.709 314.59 240.346 314.257C240.282 314.201 240.232 314.13 240.202 314.05C240.173 313.97 240.164 313.883 240.176 313.799C240.176 313.768 240.185 313.738 240.201 313.711C240.218 313.685 240.241 313.664 240.269 313.651L240.315 313.643Z" fill="#3772FF"/>
<path d="M243.512 314.637H243.55C243.57 314.621 243.586 314.601 243.596 314.578C243.607 314.555 243.612 314.53 243.612 314.505C243.612 314.443 243.434 312.821 242.678 312.177C242.572 312.086 242.449 312.018 242.316 311.977C242.184 311.936 242.044 311.922 241.906 311.936C241.512 311.936 241.404 312.177 241.381 312.332C241.273 313.015 242.701 314.311 243.427 314.66C243.457 314.661 243.486 314.653 243.512 314.637ZM241.775 312.239H241.921C242.024 312.227 242.128 312.238 242.227 312.27C242.325 312.302 242.416 312.355 242.492 312.425C242.933 312.946 243.203 313.591 243.264 314.272C242.531 313.83 241.551 312.813 241.62 312.402C241.636 312.347 241.636 312.278 241.775 312.239Z" fill="#3772FF"/>
<path d="M253.64 164.155L247.881 165.986L252.351 170.456C252.351 170.456 257.569 168.182 255.933 165.87L253.64 164.155Z" fill="#FFC3BD"/>
<path d="M245.511 171.092L249.61 173.591L252.351 170.456L247.881 165.986L245.511 171.092Z" fill="#FFC3BD"/>
</svg>
