<svg width="40" height="40" viewBox="0 0 40 40" fill="none" xmlns="http://www.w3.org/2000/svg">
<circle cx="20" cy="20" r="20" fill="white"/>
<g clip-path="url(#clip0_32_12296)">
<path d="M28.4777 11.5163C26.2096 9.2482 23.2008 8 19.994 8C16.7872 8 13.7783 9.2482 11.5103 11.5163C7.12633 15.9002 6.82189 22.9175 10.7542 27.6516C10.3686 28.4279 9.74959 29.3311 8.8312 29.7827C8.38976 30.0008 8.14113 30.4727 8.21724 30.9598C8.29335 31.4469 8.66883 31.8275 9.15593 31.9036C9.38426 31.9391 9.709 31.9746 10.1048 31.9746C11.1652 31.9746 12.728 31.726 14.3263 30.5742C16.1073 31.5332 18.0557 32 19.9889 32C23.0942 32 26.169 30.7975 28.4828 28.4837C30.7509 26.2156 31.9991 23.2068 31.9991 20C31.9991 16.7932 30.7458 13.7844 28.4777 11.5163ZM27.5086 27.5146C24.0836 30.9395 18.7813 31.6195 14.6105 29.1687C14.3365 29.0063 13.9965 29.0571 13.7783 29.2753C13.758 29.2854 13.7378 29.3006 13.7225 29.3159C12.3475 30.3814 10.9978 30.6047 10.1048 30.6047H10.0997C11.1297 29.8537 11.7792 28.7374 12.1597 27.8698C12.2206 27.7226 12.2308 27.5704 12.1953 27.4283C12.18 27.2913 12.1242 27.1543 12.0278 27.0427C8.31365 22.8465 8.50646 16.4533 12.4743 12.4854C16.6198 8.33996 23.3631 8.33996 27.5035 12.4854C31.654 16.6309 31.654 23.3691 27.5086 27.5146Z" fill="#2B2A29"/>
<path d="M19.9936 20.8423C20.4588 20.8423 20.8359 20.4652 20.8359 20C20.8359 19.5348 20.4588 19.1577 19.9936 19.1577C19.5285 19.1577 19.1514 19.5348 19.1514 20C19.1514 20.4652 19.5285 20.8423 19.9936 20.8423Z" fill="#2B2A29"/>
<path d="M24.3374 20.8423C24.8026 20.8423 25.1797 20.4652 25.1797 20C25.1797 19.5348 24.8026 19.1577 24.3374 19.1577C23.8722 19.1577 23.4951 19.5348 23.4951 20C23.4951 20.4652 23.8722 20.8423 24.3374 20.8423Z" fill="#2B2A29"/>
<path d="M15.6509 20.8423C16.1161 20.8423 16.4932 20.4652 16.4932 20C16.4932 19.5348 16.1161 19.1577 15.6509 19.1577C15.1857 19.1577 14.8086 19.5348 14.8086 20C14.8086 20.4652 15.1857 20.8423 15.6509 20.8423Z" fill="#2B2A29"/>
</g>
<defs>
<clipPath id="clip0_32_12296">
<rect width="24" height="24" fill="white" transform="translate(8 8)"/>
</clipPath>
</defs>
</svg>
