<svg width="20" height="20" viewBox="0 0 20 20" fill="none" xmlns="http://www.w3.org/2000/svg">
<circle cx="10.334" cy="10.3335" r="5" fill="#FFF1F1"/>
<path d="M10.3335 11.3335C9.15584 11.3335 8.3335 12.1558 8.3335 13.3335V13.6668C8.3335 15.2868 9.24951 16.3335 10.6668 16.3335C12.0842 16.3335 13.0001 15.2868 13.0001 13.6668V13.3335C13.0001 12.1558 12.1775 11.3335 11.0001 11.3335H10.3335ZM12.3335 13.3335V13.6668C12.3335 14.2681 12.1708 15.6668 10.6668 15.6668C9.16248 15.6668 9.00014 14.2681 9.00014 13.6668V13.3335C9.00014 12.5235 9.52346 12.0002 10.3335 12.0002H11.0002C11.8098 12.0002 12.3335 12.5235 12.3335 13.3335Z" fill="#D12B2F"/>
<path d="M10.0098 13.3335H10.0061C9.82246 13.3335 9.6748 13.4828 9.6748 13.6668C9.6748 13.8508 9.82547 14.0001 10.0098 14.0001C10.1938 14.0001 10.3431 13.8508 10.3431 13.6668C10.3431 13.4828 10.1938 13.3335 10.0098 13.3335Z" fill="#D12B2F"/>
<path d="M11.6412 8.99898C11.8268 9.01098 11.9851 8.87566 11.9992 8.6923L12.3322 4.3643C12.4062 3.57098 13.4725 2.66664 14.3335 2.66664H15.0001C15.8775 2.66664 16.9435 3.5673 17.0012 4.35898L17.3345 8.6923C17.3478 8.86695 17.4938 8.99996 17.6665 8.99996C17.6748 8.99996 17.6838 8.99965 17.6925 8.99895C17.8758 8.98496 18.0131 8.82461 17.9992 8.64094L17.6658 4.30895C17.5768 3.08734 16.1008 2 15.0001 2H14.3335C13.1201 2 11.7751 3.16199 11.6678 4.30766L11.3345 8.64098C11.3205 8.82465 11.4578 8.985 11.6412 8.99898Z" fill="#D12B2F"/>
<path d="M14.6492 4.22801C14.6038 4.09168 14.4765 4 14.3331 4C14.1895 4 14.0621 4.09168 14.0168 4.22801C13.7665 4.97969 13.0288 4.99969 12.9998 5C12.8155 5 12.6665 5.14934 12.6665 5.33332V6.66664C12.6665 7.77996 13.4272 9.33332 14.6665 9.33332C15.9055 9.33332 16.6665 7.78 16.6665 6.66664V5.33332C16.6665 5.14934 16.5172 5 16.3332 5C16.3188 5 14.8998 4.97898 14.6492 4.22801ZM15.9998 6.66668C15.9998 7.5727 15.4052 8.66668 14.6665 8.66668C13.9278 8.66668 13.3332 7.5727 13.3332 6.66668V5.62602C13.6595 5.55203 14.0625 5.36602 14.3585 4.98734C14.8252 5.45434 15.5702 5.60035 15.9999 5.64602V6.66668H15.9998Z" fill="#D12B2F"/>
<path d="M6.66682 4.66664H7.00014C7.18412 4.66664 7.33346 4.5173 7.33346 4.33332C7.33346 4.14934 7.18412 4 7.00014 4H6.66682C6.48248 4 6.3335 4.14934 6.3335 4.33332C6.33346 4.5173 6.48248 4.66664 6.66682 4.66664Z" fill="#D12B2F"/>
<path d="M11.3433 14.0001C11.5273 14.0001 11.6766 13.8508 11.6766 13.6668C11.6766 13.4828 11.5273 13.3335 11.3433 13.3335H11.3396C11.156 13.3335 11.0083 13.4828 11.0083 13.6668C11.0083 13.8508 11.159 14.0001 11.3433 14.0001Z" fill="#D12B2F"/>
<path d="M3.34602 5.25115C3.40969 5.89182 3.68836 6.4558 3.70168 6.48248C4.00367 7.08682 4.46066 8.00014 6 8.00014C7.53934 8.00014 7.99602 7.08682 8.29801 6.48248C8.31133 6.4558 8.59 5.89182 8.65402 5.25115C8.86004 5.13783 9.00004 4.91814 9.00004 4.66682V4.00014C9.00004 3.75381 8.8657 3.53846 8.66672 3.42314V3.3335C8.66672 2.23049 7.76937 1.3335 6.66672 1.3335H5.3334C4.23039 1.3335 3.3334 2.23049 3.3334 3.3335V3.42314C3.13398 3.53846 3 3.75381 3 4.00014V4.66682C3 4.91814 3.14 5.13779 3.34602 5.25115ZM3.66668 4.00014C3.85066 4.00014 4 3.8508 4 3.66682V3.3335C4 2.59814 4.59801 2.00018 5.33332 2.00018H6.66664C7.40199 2.00018 7.99996 2.59818 7.99996 3.3335V3.66682C7.99996 3.8508 8.14894 4.00014 8.33328 4.00014V4.66682C8.14894 4.66682 7.99996 4.81615 7.99996 5.00014C7.99996 5.57682 7.70465 6.17881 7.70164 6.18447C7.35465 6.87846 7.04863 7.33346 5.99996 7.33346C4.95098 7.33346 4.64496 6.87846 4.29828 6.18478C4.29496 6.17877 3.99996 5.57678 3.99996 5.00014C3.99996 4.81615 3.85062 4.66682 3.66664 4.66682V4.00014H3.66668Z" fill="#D12B2F"/>
<path d="M11.6668 16.667C11.6008 16.667 11.5365 16.6867 11.4818 16.723L10.6668 17.2664L9.85147 16.723C9.79682 16.6867 9.73248 16.667 9.66682 16.667C7.7385 16.667 7.3335 17.5733 7.3335 18.3337C7.3335 18.5177 7.48248 18.667 7.66682 18.667C7.8508 18.667 8.00014 18.5177 8.00014 18.3337C8.00014 18.0657 8.00014 17.363 9.56713 17.3343L10.4818 17.9443C10.5938 18.019 10.7394 18.019 10.8514 17.9443L11.7664 17.3343C13.3334 17.363 13.3334 18.0657 13.3334 18.3337C13.3334 18.5177 13.4824 18.667 13.6667 18.667C13.8507 18.667 14.0001 18.5177 14.0001 18.3337C14.0001 17.5734 13.5951 16.667 11.6668 16.667Z" fill="#D12B2F"/>
<path d="M17.6888 12.667H17.6875C17.5038 12.667 17.3548 12.8153 17.3542 12.999L17.3335 18.3323C17.3328 18.5163 17.4812 18.6663 17.6655 18.667H17.6668C17.8505 18.667 17.9995 18.5187 18.0001 18.335L18.0208 13.0017C18.0215 12.8177 17.8731 12.6677 17.6888 12.667Z" fill="#D12B2F"/>
<path d="M4.99982 4.66664H5.33314C5.51713 4.66664 5.66646 4.5173 5.66646 4.33332C5.66646 4.14934 5.51713 4 5.33314 4H4.99982C4.81549 4 4.6665 4.14934 4.6665 4.33332C4.6665 4.5173 4.81549 4.66664 4.99982 4.66664Z" fill="#D12B2F"/>
<path d="M7.6602 10.7323L7.93918 9.3403C9.62219 9.3783 10.8335 9.79764 11.2048 10.4796C11.2925 10.6413 11.4942 10.701 11.6568 10.613C11.8185 10.5249 11.8782 10.3226 11.7902 10.161C11.2671 9.19963 9.81047 8.67096 7.68817 8.67096C7.5225 8.66795 7.37281 8.77596 7.33985 8.93862L7.00652 10.601C6.97051 10.7816 7.08719 10.9573 7.26785 10.9933C7.2902 10.998 7.31184 11 7.33387 11C7.48953 10.9999 7.6282 10.8906 7.6602 10.7323Z" fill="#D12B2F"/>
<path d="M19.1824 10.3337C18.5291 9.68174 17.5474 9.3374 16.3431 9.3374C16.1504 9.34107 16.0008 9.48307 15.9998 9.66975C15.9994 9.73775 15.9761 11.3334 14.6665 11.3334C13.3565 11.3334 13.3335 9.73807 13.3331 9.6701C13.3328 9.48643 13.1835 9.33775 12.9998 9.33775C12.8155 9.33775 12.6665 9.48674 12.6665 9.67107C12.6665 10.4164 13.0265 11.7741 14.3332 11.9731V13.6667C14.3332 13.8507 14.4822 14.0001 14.6665 14.0001C14.8505 14.0001 14.9998 13.8507 14.9998 13.6667V11.9727C16.1248 11.801 16.5485 10.7717 16.6438 10.0124C17.5281 10.062 18.2385 10.3334 18.7112 10.8057C19.1125 11.206 19.3331 11.7483 19.3331 12.3333V17.6667C19.3331 17.8506 19.4821 18 19.6665 18C19.8504 18 19.9998 17.8506 19.9998 17.6667V12.3334C19.9998 11.5701 19.7095 10.8601 19.1824 10.3337Z" fill="#D12B2F"/>
<path d="M6.00018 8.66699C5.63252 8.66699 5.3335 8.96598 5.3335 9.33367C5.3335 9.57934 5.4685 9.79199 5.66682 9.90766V12.3337C5.66682 12.5177 5.8158 12.667 6.00014 12.667C6.18412 12.667 6.33346 12.5177 6.33346 12.3337V9.90766C6.53146 9.79199 6.66678 9.57934 6.66678 9.33367C6.66685 8.96598 6.36752 8.66699 6.00018 8.66699Z" fill="#D12B2F"/>
<path d="M2.33332 12.667C2.14898 12.667 2 12.8163 2 13.0003V18.3336C2 18.5176 2.14898 18.667 2.33332 18.667C2.5173 18.667 2.66664 18.5176 2.66664 18.3336V13.0003C2.66668 12.8163 2.51734 12.667 2.33332 12.667Z" fill="#D12B2F"/>
<path d="M4.65934 8.93625C4.62602 8.77426 4.46898 8.67125 4.31066 8.6709C2.55965 8.6709 1.22031 9.0459 0.537344 9.72723C0.181016 10.0832 0 10.5116 0 10.9999V17.6666C0 17.8506 0.148984 17.9999 0.33332 17.9999C0.517305 17.9999 0.666641 17.8506 0.666641 17.6666V10.9999C0.666641 10.6906 0.778633 10.4286 1.00832 10.1989C1.52766 9.68059 2.6323 9.37223 4.06266 9.34023L5.67367 17.0679C5.71102 17.2479 5.88832 17.3636 6.06801 17.3262C6.24836 17.2886 6.36402 17.1119 6.32602 16.9319L4.65934 8.93625Z" fill="#D12B2F"/>
</svg>
