<svg width="24" height="24" viewBox="0 0 24 24" fill="none" xmlns="http://www.w3.org/2000/svg">
<g clip-path="url(#clip0_32_12682)">
<path d="M22.7998 1.6H19.9998V0.4C19.9998 0.1788 19.821 0 19.5998 0H16.7998C16.5786 0 16.3998 0.1788 16.3998 0.4V1.6H7.5998V0.4C7.5998 0.1788 7.421 0 7.1998 0H4.3998C4.1786 0 3.9998 0.1788 3.9998 0.4V1.6H1.1998C0.978605 1.6 0.799805 1.7788 0.799805 2V6.4V23.6C0.799805 23.8212 0.978605 24 1.1998 24H22.7998C23.021 24 23.1998 23.8212 23.1998 23.6V6.4V2C23.1998 1.7788 23.021 1.6 22.7998 1.6ZM17.1998 0.8H19.1998V2V3.2H17.1998V2V0.8ZM4.7998 0.8H6.7998V2V3.2H4.7998V2V0.8ZM1.5998 2.4H3.9998V3.6C3.9998 3.8212 4.1786 4 4.3998 4H7.1998C7.421 4 7.5998 3.8212 7.5998 3.6V2.4H16.3998V3.6C16.3998 3.8212 16.5786 4 16.7998 4H19.5998C19.821 4 19.9998 3.8212 19.9998 3.6V2.4H22.3998V6H1.5998V2.4ZM1.5998 23.2V6.8H22.3998V23.2H1.5998Z" fill="#2B2A29"/>
<path d="M15.1994 9.20001H12.3994H11.5994H8.79941H7.99941H4.39941V12.8V13.6V16.4V17.2V20.8H7.99941H8.79941H11.5994H12.3994H15.1994H15.9994H19.5994V17.2V16.4V13.6V12.8V9.20001H15.9994H15.1994ZM12.3994 10H15.1994V12.8H12.3994V10ZM15.1994 16.4H12.3994V13.6H15.1994V16.4ZM8.79941 13.6H11.5994V16.4H8.79941V13.6ZM8.79941 10H11.5994V12.8H8.79941V10ZM5.19941 10H7.99941V12.8H5.19941V10ZM5.19941 13.6H7.99941V16.4H5.19941V13.6ZM7.99941 20H5.19941V17.2H7.99941V20ZM11.5994 20H8.79941V17.2H11.5994V20ZM15.1994 20H12.3994V17.2H15.1994V20ZM18.7994 20H15.9994V17.2H18.7994V20ZM18.7994 16.4H15.9994V13.6H18.7994V16.4ZM18.7994 10V12.8H15.9994V10H18.7994Z" fill="#2B2A29"/>
</g>
<defs>
<clipPath id="clip0_32_12682">
<rect width="24" height="24" fill="white"/>
</clipPath>
</defs>
</svg>
