<svg width="40" height="40" viewBox="0 0 40 40" fill="none" xmlns="http://www.w3.org/2000/svg">
<circle cx="20" cy="20" r="20" fill="white"/>
<path d="M13.25 17.75C13.4489 17.75 13.6397 17.829 13.7803 17.9697C13.921 18.1103 14 18.3011 14 18.5V20C14 21.5913 14.6321 23.1174 15.7574 24.2426C16.8826 25.3679 18.4087 26 20 26C21.5913 26 23.1174 25.3679 24.2426 24.2426C25.3679 23.1174 26 21.5913 26 20V18.5C26 18.3011 26.079 18.1103 26.2197 17.9697C26.3603 17.829 26.5511 17.75 26.75 17.75C26.9489 17.75 27.1397 17.829 27.2803 17.9697C27.421 18.1103 27.5 18.3011 27.5 18.5V20C27.5 21.8593 26.8094 23.6523 25.5622 25.0312C24.3149 26.4101 22.6 27.2766 20.75 27.4625V30.5H25.25C25.4489 30.5 25.6397 30.579 25.7803 30.7197C25.921 30.8603 26 31.0511 26 31.25C26 31.4489 25.921 31.6397 25.7803 31.7803C25.6397 31.921 25.4489 32 25.25 32H14.75C14.5511 32 14.3603 31.921 14.2197 31.7803C14.079 31.6397 14 31.4489 14 31.25C14 31.0511 14.079 30.8603 14.2197 30.7197C14.3603 30.579 14.5511 30.5 14.75 30.5H19.25V27.4625C17.4 27.2766 15.6851 26.4101 14.4378 25.0312C13.1906 23.6523 12.5 21.8593 12.5 20V18.5C12.5 18.3011 12.579 18.1103 12.7197 17.9697C12.8603 17.829 13.0511 17.75 13.25 17.75Z" fill="#2B2A29"/>
<path d="M23 20C23 20.7956 22.6839 21.5587 22.1213 22.1213C21.5587 22.6839 20.7956 23 20 23C19.2044 23 18.4413 22.6839 17.8787 22.1213C17.3161 21.5587 17 20.7956 17 20V12.5C17 11.7044 17.3161 10.9413 17.8787 10.3787C18.4413 9.81607 19.2044 9.5 20 9.5C20.7956 9.5 21.5587 9.81607 22.1213 10.3787C22.6839 10.9413 23 11.7044 23 12.5V20ZM20 8C18.8065 8 17.6619 8.47411 16.818 9.31802C15.9741 10.1619 15.5 11.3065 15.5 12.5V20C15.5 21.1935 15.9741 22.3381 16.818 23.182C17.6619 24.0259 18.8065 24.5 20 24.5C21.1935 24.5 22.3381 24.0259 23.182 23.182C24.0259 22.3381 24.5 21.1935 24.5 20V12.5C24.5 11.3065 24.0259 10.1619 23.182 9.31802C22.3381 8.47411 21.1935 8 20 8V8Z" fill="#2B2A29"/>
</svg>
