<svg width="24" height="24" viewBox="0 0 24 24" fill="none" xmlns="http://www.w3.org/2000/svg">
<g clip-path="url(#clip0_32_8363)">
<path d="M7.55164 11.5308C6.29386 11.5308 5.27051 12.5541 5.27051 13.8119C5.27051 15.0698 6.29386 16.0931 7.55164 16.0931C8.80942 16.0931 9.83277 15.0698 9.83277 13.8119C9.83277 12.5541 8.80942 11.5308 7.55164 11.5308ZM7.55164 14.4959C7.17451 14.4959 6.86776 14.1891 6.86776 13.812C6.86776 13.4349 7.17451 13.1282 7.55164 13.1282C7.92877 13.1282 8.23552 13.4349 8.23552 13.812C8.23552 14.1891 7.92877 14.4959 7.55164 14.4959Z" fill="#D12B2F"/>
<path d="M9.52855 7.90674C8.63401 7.90674 7.90625 8.63458 7.90625 9.52904C7.90625 10.4235 8.63401 11.1513 9.52855 11.1513C10.423 11.1513 11.1509 10.4235 11.1509 9.52904C11.1509 8.63458 10.423 7.90674 9.52855 7.90674ZM9.52855 9.55393C9.51482 9.55393 9.50358 9.5427 9.50358 9.52896C9.50358 9.51522 9.51482 9.50399 9.52855 9.50399C9.54229 9.50399 9.55352 9.51522 9.55352 9.52896C9.55344 9.54278 9.54229 9.55393 9.52855 9.55393Z" fill="#D12B2F"/>
<path d="M21.8832 2.63556H12.6463V1.59733H13.4695C13.9106 1.59733 14.2682 1.23976 14.2682 0.798707C14.2682 0.357657 13.9106 0 13.4695 0H3.73807C3.29702 0 2.93936 0.357657 2.93936 0.798707C2.93936 1.23976 3.29702 1.59733 3.73807 1.59733H4.56126V2.63564H2.11609C1.67504 2.63564 1.31738 2.99329 1.31738 3.43434C1.31738 3.87539 1.67504 4.23305 2.11609 4.23305H4.56126V7.71346C2.54922 9.05875 1.31738 11.3398 1.31738 13.7741C1.31738 17.7918 4.58599 21.0604 8.60369 21.0604C12.6214 21.0604 15.8901 17.7918 15.8901 13.7741C15.8901 11.3398 14.6583 9.05883 12.6462 7.71346V4.23305H21.0844V22.4028H3.43391C2.99286 22.4028 2.6352 22.7604 2.6352 23.2015C2.6352 23.6425 2.99286 24.0002 3.43391 24.0002H21.8832C22.3242 24.0002 22.6819 23.6425 22.6819 23.2015V3.43426C22.6818 2.99321 22.3242 2.63556 21.8832 2.63556ZM6.1586 1.59733H11.049V2.63564H6.1586V1.59733ZM11.4476 8.84768C13.2026 9.86327 14.2928 11.751 14.2928 13.774C14.2928 16.9109 11.7407 19.4629 8.60377 19.4629C5.46696 19.4629 2.91488 16.9109 2.91488 13.774C2.91488 11.751 4.00506 9.86335 5.76005 8.84768C6.00676 8.70489 6.15868 8.44145 6.15868 8.15636V4.23297H11.0491V8.15644C11.0489 8.44145 11.2009 8.70489 11.4476 8.84768Z" fill="#D12B2F"/>
</g>
<defs>
<clipPath id="clip0_32_8363">
<rect width="24" height="24" fill="white"/>
</clipPath>
</defs>
</svg>
