<svg width="40" height="40" viewBox="0 0 40 40" fill="none" xmlns="http://www.w3.org/2000/svg">
<circle cx="20" cy="20" r="20" fill="#D12B2F"/>
<path d="M30.2403 22.55L30.4473 21.419C30.5446 20.8553 30.4979 20.2761 30.3118 19.7352C30.1256 19.1942 29.8059 18.709 29.3823 18.3245C27.3243 16.4345 24.1098 15.494 19.7373 15.5C15.3723 15.506 12.2553 16.454 10.3863 18.3425C9.59433 19.142 9.30633 20.3285 9.62883 21.455L9.95283 22.586C10.2558 23.642 11.2788 24.3485 12.3438 24.236L14.4798 24.0125C14.9239 23.9688 15.341 23.7797 15.6665 23.4746C15.992 23.1694 16.2076 22.7653 16.2798 22.325L16.6908 19.919C17.7234 19.4358 18.8451 19.1722 19.9848 19.145C21.1653 19.109 22.2468 19.2995 23.2278 19.718L23.8908 22.289C24.0069 22.7407 24.2579 23.1463 24.6103 23.4518C24.9626 23.7573 25.3997 23.9482 25.8633 23.999L28.0113 24.215C28.5247 24.2729 29.0409 24.1329 29.4548 23.8236C29.8686 23.5142 30.149 23.0588 30.2388 22.55H30.2403Z" fill="white"/>
</svg>
