<svg width="40" height="40" viewBox="0 0 40 40" fill="none" xmlns="http://www.w3.org/2000/svg">
<circle cx="20" cy="20" r="20" fill="white"/>
<path fill-rule="evenodd" clip-rule="evenodd" d="M24.4415 26.5474C24.8693 26.0915 25.1432 25.5128 25.2245 24.8929L29.8895 26.9659C30.1178 27.0677 30.368 27.1107 30.6172 27.0912C30.8664 27.0717 31.1068 26.9902 31.3165 26.8541C31.5262 26.718 31.6986 26.5317 31.8179 26.3121C31.9373 26.0924 31.9999 25.8464 32 25.5964V14.4034C31.9998 14.1537 31.9372 13.9079 31.8179 13.6884C31.6986 13.469 31.5264 13.2828 31.3169 13.1467C31.1074 13.0107 30.8673 12.9291 30.6183 12.9094C30.3693 12.8897 30.1193 12.9325 29.891 13.0339L25.2245 15.1069C25.1292 14.3856 24.7749 13.7234 24.2277 13.2438C23.6805 12.7642 22.9776 12.4999 22.25 12.4999H14.408L15.479 13.9999H22.25C22.6478 13.9999 23.0294 14.158 23.3107 14.4393C23.592 14.7206 23.75 15.1021 23.75 15.4999V24.4999C23.7503 24.7738 23.6756 25.0425 23.534 25.2769L24.4415 26.5474ZM10.142 14.2699C9.94376 14.408 9.78185 14.592 9.67007 14.8062C9.55828 15.0203 9.49994 15.2584 9.5 15.4999V24.4999C9.5 24.8978 9.65804 25.2793 9.93934 25.5606C10.2206 25.8419 10.6022 25.9999 11 25.9999H18.521L19.592 27.4999H11C10.2044 27.4999 9.44129 27.1839 8.87868 26.6213C8.31607 26.0587 8 25.2956 8 24.4999V15.4999C8 14.4874 8.501 13.5919 9.2705 13.0489L10.1405 14.2699H10.142ZM30.5 25.5949L25.25 23.2624V16.7374L30.5 14.4034V25.5964V25.5949ZM23.8895 30.9349L8.8895 9.93494L10.1105 9.06494L25.1105 30.0649L23.8895 30.9349Z" fill="#2B2A29"/>
</svg>
