<svg width="24" height="24" viewBox="0 0 24 24" fill="none" xmlns="http://www.w3.org/2000/svg">
<g clip-path="url(#clip0_32_13525)">
<path d="M12.5538 11.8898C10.1223 14.321 9.94876 18.1546 12.0319 20.7862L21.4498 11.3687C18.8179 9.28545 14.985 9.45898 12.5538 11.8898Z" fill="white"/>
<path d="M22.5575 12.4763L13.1396 21.894C15.7718 23.9778 19.6048 23.8043 22.036 21.3724C24.4672 18.9415 24.6407 15.108 22.5575 12.4763Z" fill="white"/>
<path d="M13.4957 1.22299C10.5198 -0.166433 6.98059 1.11963 5.59116 4.09591L3.64941 8.25508L10.751 11.5707C10.9648 11.2951 11.1968 11.0318 11.4467 10.7819C12.2358 9.99297 13.1566 9.38182 14.1838 8.96533C14.9773 8.64354 15.8064 8.44915 16.6566 8.38422C17.5348 5.58429 16.2273 2.49832 13.4957 1.22299ZM11.9021 4.63633C10.8128 4.12793 9.51291 4.60033 9.00451 5.68929L7.58495 5.02666C8.4587 3.15485 10.6926 2.34302 12.5646 3.21672L11.9021 4.63633Z" fill="white"/>
<path d="M9.62893 19.7431C9.22693 18.7517 9.02312 17.7047 9.02317 16.6311C9.02317 15.5574 9.22707 14.5104 9.62912 13.5191C9.71382 13.3103 9.80701 13.106 9.9077 12.9062L2.98632 9.67468L0.559558 14.8727C-0.829488 17.849 0.456574 21.3875 3.43243 22.7769C5.89984 23.9291 8.75406 23.2416 10.4494 21.2767C10.1235 20.7975 9.84882 20.2853 9.62893 19.7431Z" fill="white"/>
</g>
<defs>
<clipPath id="clip0_32_13525">
<rect width="24" height="24" fill="white"/>
</clipPath>
</defs>
</svg>
