<svg width="24" height="26" viewBox="0 0 24 26" fill="none" xmlns="http://www.w3.org/2000/svg">
<path d="M2 6.47393C2 5.87998 2.446 5.39941 2.995 5.39941H11.005C11.2689 5.39941 11.522 5.51262 11.7086 5.71413C11.8952 5.91564 12 6.18895 12 6.47393C12 6.75891 11.8952 7.03221 11.7086 7.23372C11.522 7.43523 11.2689 7.54844 11.005 7.54844H2.995C2.73111 7.54844 2.47803 7.43523 2.29143 7.23372C2.10483 7.03221 2 6.75891 2 6.47393ZM2 12.9588C2 12.3649 2.446 11.8843 2.995 11.8843H21.005C21.2689 11.8843 21.522 11.9975 21.7086 12.199C21.8952 12.4005 22 12.6738 22 12.9588C22 13.2438 21.8952 13.5171 21.7086 13.7186C21.522 13.9201 21.2689 14.0333 21.005 14.0333H2.995C2.73111 14.0333 2.47803 13.9201 2.29143 13.7186C2.10483 13.5171 2 13.2438 2 12.9588ZM2.995 18.3692C2.73111 18.3692 2.47803 18.4824 2.29143 18.6839C2.10483 18.8854 2 19.1587 2 19.4437C2 19.7287 2.10483 20.002 2.29143 20.2035C2.47803 20.405 2.73111 20.5182 2.995 20.5182H15.005C15.2689 20.5182 15.522 20.405 15.7086 20.2035C15.8952 20.002 16 19.7287 16 19.4437C16 19.1587 15.8952 18.8854 15.7086 18.6839C15.522 18.4824 15.2689 18.3692 15.005 18.3692H2.995Z" fill="#333333"/>
</svg>
