<svg width="24" height="24" viewBox="0 0 24 24" fill="none" xmlns="http://www.w3.org/2000/svg">
<g clip-path="url(#clip0_32_10392)">
<path d="M1.5 11.2725H10.71C10.8592 11.2725 11.0023 11.2132 11.1078 11.1078C11.2133 11.0023 11.2725 10.8592 11.2725 10.71V1.5C11.2725 1.35082 11.2133 1.20774 11.1078 1.10225C11.0023 0.996765 10.8592 0.9375 10.71 0.9375H1.5C1.35082 0.9375 1.20774 0.996765 1.10225 1.10225C0.996765 1.20774 0.9375 1.35082 0.9375 1.5V10.71C0.9375 10.8592 0.996765 11.0023 1.10225 11.1078C1.20774 11.2132 1.35082 11.2725 1.5 11.2725ZM2.0625 2.0625H10.1475V10.1475H2.0625V2.0625Z" fill="#828282"/>
<path d="M13.2334 3.2627H22.4996C22.5735 3.2627 22.6467 3.24815 22.7149 3.21987C22.7832 3.19161 22.8452 3.15017 22.8974 3.09794C22.9496 3.04571 22.9911 2.9837 23.0194 2.91545C23.0476 2.84721 23.0621 2.77406 23.0621 2.7002C23.0621 2.62632 23.0476 2.55318 23.0194 2.48493C22.9911 2.41669 22.9496 2.35468 22.8974 2.30245C22.8452 2.25021 22.7832 2.20878 22.7149 2.18051C22.6467 2.15224 22.5735 2.1377 22.4996 2.1377H13.2334C13.0842 2.1377 12.9412 2.19696 12.8357 2.30245C12.7302 2.40794 12.6709 2.55101 12.6709 2.7002C12.6709 2.84938 12.7302 2.99245 12.8357 3.09794C12.9412 3.20343 13.0842 3.2627 13.2334 3.2627Z" fill="#828282"/>
<path d="M22.4996 5.54248H13.2334C13.0842 5.54248 12.9412 5.60173 12.8357 5.70722C12.7302 5.81271 12.6709 5.95581 12.6709 6.10498C12.6709 6.25416 12.7302 6.39722 12.8357 6.50271C12.9412 6.60823 13.0842 6.66748 13.2334 6.66748H22.4996C22.6489 6.66748 22.7919 6.60823 22.8974 6.50271C23.0029 6.39722 23.0621 6.25416 23.0621 6.10498C23.0621 5.95581 23.0029 5.81271 22.8974 5.70722C22.7919 5.60173 22.6489 5.54248 22.4996 5.54248Z" fill="#828282"/>
<path d="M22.4996 8.94727H13.2334C13.0842 8.94727 12.9412 9.00652 12.8357 9.112C12.7302 9.21749 12.6709 9.36055 12.6709 9.50977C12.6709 9.65894 12.7302 9.802 12.8357 9.90749C12.9412 10.013 13.0842 10.0723 13.2334 10.0723H22.4996C22.6489 10.0723 22.7919 10.013 22.8974 9.90749C23.0029 9.802 23.0621 9.65894 23.0621 9.50977C23.0621 9.36055 23.0029 9.21749 22.8974 9.112C22.7919 9.00652 22.6489 8.94727 22.4996 8.94727Z" fill="#828282"/>
<path d="M22.5 12.7275H13.29C13.1409 12.7275 12.9978 12.7868 12.8923 12.8923C12.7868 12.9978 12.7275 13.1409 12.7275 13.29V22.5C12.7275 22.6493 12.7868 22.7923 12.8923 22.8978C12.9978 23.0033 13.1409 23.0625 13.29 23.0625H22.5C22.6493 23.0625 22.7923 23.0033 22.8978 22.8978C23.0033 22.7923 23.0625 22.6493 23.0625 22.5V13.29C23.0625 13.1409 23.0033 12.9978 22.8978 12.8923C22.7923 12.7868 22.6493 12.7275 22.5 12.7275ZM21.9375 21.9375H13.8525V13.8525H21.9375V21.9375Z" fill="#828282"/>
<path d="M10.7662 20.7373H1.5C1.35082 20.7373 1.20774 20.7966 1.10225 20.902C0.996765 21.0075 0.9375 21.1506 0.9375 21.2998C0.9375 21.449 0.996765 21.5921 1.10225 21.6976C1.20774 21.8031 1.35082 21.8623 1.5 21.8623H10.7662C10.9154 21.8623 11.0585 21.8031 11.164 21.6976C11.2695 21.5921 11.3287 21.449 11.3287 21.2998C11.3287 21.1506 11.2695 21.0075 11.164 20.902C11.0585 20.7966 10.9154 20.7373 10.7662 20.7373Z" fill="#828282"/>
<path d="M10.7662 17.3325H1.5C1.35082 17.3325 1.20774 17.3918 1.10225 17.4973C0.996765 17.6028 0.9375 17.7458 0.9375 17.895C0.9375 18.0442 0.996765 18.1873 1.10225 18.2928C1.20774 18.3983 1.35082 18.4575 1.5 18.4575H10.7662C10.9154 18.4575 11.0585 18.3983 11.164 18.2928C11.2695 18.1873 11.3287 18.0442 11.3287 17.895C11.3287 17.7458 11.2695 17.6028 11.164 17.4973C11.0585 17.3918 10.9154 17.3325 10.7662 17.3325Z" fill="#828282"/>
<path d="M10.7662 13.9277H1.5C1.35082 13.9277 1.20774 13.987 1.10225 14.0925C0.996765 14.198 0.9375 14.3411 0.9375 14.4902C0.9375 14.6394 0.996765 14.7825 1.10225 14.888C1.20774 14.9935 1.35082 15.0527 1.5 15.0527H10.7662C10.9154 15.0527 11.0585 14.9935 11.164 14.888C11.2695 14.7825 11.3287 14.6394 11.3287 14.4902C11.3287 14.3411 11.2695 14.198 11.164 14.0925C11.0585 13.987 10.9154 13.9277 10.7662 13.9277Z" fill="#828282"/>
</g>
<defs>
<clipPath id="clip0_32_10392">
<rect width="24" height="24" fill="white"/>
</clipPath>
</defs>
</svg>
