<svg width="16" height="16" viewBox="0 0 16 16" fill="none" xmlns="http://www.w3.org/2000/svg">
<g clip-path="url(#clip0_32_16279)">
<path d="M15.9508 0.757185C15.9245 0.814267 15.8884 0.866267 15.8441 0.910785L5.75984 10.9929L8.60784 15.7407C8.65829 15.8251 8.73111 15.8939 8.81825 15.9396C8.90539 15.9852 9.00344 16.0058 9.10158 15.9992C9.19972 15.9926 9.29412 15.959 9.37433 15.902C9.45455 15.8451 9.51746 15.7671 9.5561 15.6767L15.9508 0.757185ZM5.00677 10.2399L0.259039 7.38972C0.174602 7.33927 0.105763 7.26645 0.0601313 7.17931C0.0145 7.09217 -0.00614519 6.99411 0.000478329 6.89597C0.00710185 6.79784 0.0407361 6.70344 0.0976622 6.62323C0.154588 6.54301 0.232589 6.4801 0.323039 6.44145L15.2457 0.0478516C15.1878 0.0741856 15.135 0.110672 15.09 0.155585L5.00677 10.2399Z" fill="white"/>
</g>
<defs>
<clipPath id="clip0_32_16279">
<rect width="16" height="16" fill="white"/>
</clipPath>
</defs>
</svg>
