<svg width="32" height="32" viewBox="0 0 32 32" fill="none" xmlns="http://www.w3.org/2000/svg">
<path d="M8 10C9.10457 10 10 9.10457 10 8C10 6.89543 9.10457 6 8 6C6.89543 6 6 6.89543 6 8C6 9.10457 6.89543 10 8 10Z" stroke="#667499" stroke-width="1.5" stroke-miterlimit="10" stroke-linejoin="round"/>
<path d="M10 8H30" stroke="#667499" stroke-width="1.5" stroke-miterlimit="10" stroke-linejoin="round"/>
<path d="M8 26C9.10457 26 10 25.1046 10 24C10 22.8954 9.10457 22 8 22C6.89543 22 6 22.8954 6 24C6 25.1046 6.89543 26 8 26Z" stroke="#667499" stroke-width="1.5" stroke-miterlimit="10" stroke-linejoin="round"/>
<path d="M10 24H30" stroke="#667499" stroke-width="1.5" stroke-miterlimit="10" stroke-linejoin="round"/>
<path d="M25 18C26.1046 18 27 17.1046 27 16C27 14.8954 26.1046 14 25 14C23.8954 14 23 14.8954 23 16C23 17.1046 23.8954 18 25 18Z" stroke="#667499" stroke-width="1.5" stroke-miterlimit="10" stroke-linejoin="round"/>
<path d="M23 16L3 16" stroke="#667499" stroke-width="1.5" stroke-miterlimit="10" stroke-linejoin="round"/>
<path d="M6 8H3" stroke="#667499" stroke-width="1.5" stroke-miterlimit="10" stroke-linejoin="round"/>
<path d="M27 16H30" stroke="#667499" stroke-width="1.5" stroke-miterlimit="10" stroke-linejoin="round"/>
<path d="M6 24H3" stroke="#667499" stroke-width="1.5" stroke-miterlimit="10" stroke-linejoin="round"/>
</svg>
