<svg width="20" height="20" viewBox="0 0 20 20" fill="none" xmlns="http://www.w3.org/2000/svg">
<g clip-path="url(#clip0_32_7883)">
<path d="M16.8244 15.5833L13.0371 8.49396V2.37029H13.9544C14.6089 2.37029 15.1395 1.83967 15.1395 1.18514C15.1395 0.530612 14.6089 0 13.9544 0H6.01545V0.00077551C5.375 0.0169388 4.86064 0.540775 4.86064 1.18514C4.86064 1.82951 5.37496 2.35339 6.01545 2.36955V2.37033H6.96304V8.49396L3.1757 15.5835C2.68149 16.5084 2.70945 17.6419 3.24872 18.5416C3.78815 19.4412 4.77476 20 5.82353 20H14.1766C15.2253 20 16.2119 19.4412 16.7512 18.5417C17.2906 17.642 17.3186 16.5084 16.8244 15.5833ZM16.0512 18.1219C15.6585 18.7768 14.9402 19.1837 14.1766 19.1837H5.82353C5.05994 19.1837 4.34161 18.7769 3.94884 18.1218C3.55619 17.4667 3.53586 16.6415 3.89566 15.9681L7.77929 8.69829V2.37029H12.2207V8.69829L16.1043 15.968C16.4642 16.6416 16.4439 17.4669 16.0512 18.1219Z" fill="white"/>
<path d="M10.1582 9.86326C10.6658 9.71799 10.9596 9.18881 10.8143 8.68113C10.6691 8.17346 10.1398 7.87966 9.63237 8.02493C9.12466 8.17019 8.83086 8.69938 8.97608 9.20709C9.12131 9.71469 9.65057 10.0085 10.1582 9.86326Z" fill="white"/>
<path d="M11.4315 5.35415C11.8564 5.23256 12.1023 4.78966 11.9808 4.36488C11.8592 3.94003 11.4162 3.69419 10.9913 3.81574C10.5666 3.93729 10.3207 4.38015 10.4421 4.80505C10.5638 5.22986 11.0067 5.4757 11.4315 5.35415Z" fill="white"/>
<path d="M12.5794 11.1768H7.4207L4.61568 16.4275C4.3889 16.8518 4.4016 17.3641 4.64898 17.7768C4.89645 18.1895 5.34225 18.4421 5.82347 18.4421H14.1765C14.6577 18.4421 15.1036 18.1895 15.351 17.7768C15.5985 17.3641 15.611 16.8519 15.3843 16.4275L12.5794 11.1768ZM12.4 15.7227C11.587 15.9552 10.7394 15.4848 10.5069 14.6719C10.2743 13.859 10.7447 13.0115 11.5577 12.7789C12.3707 12.5463 13.2182 13.0168 13.4507 13.8297C13.6834 14.6426 13.2129 15.4901 12.4 15.7227Z" fill="white"/>
</g>
<defs>
<clipPath id="clip0_32_7883">
<rect width="20" height="20" fill="white"/>
</clipPath>
</defs>
</svg>
