<svg width="24" height="20" viewBox="0 0 24 20" fill="none" xmlns="http://www.w3.org/2000/svg">
<g clip-path="url(#clip0_32_7038)">
<path d="M4.36323 19.9007V18.577C4.36323 18.0695 4.07504 17.7386 3.58107 17.7386C3.33414 17.7386 3.06657 17.8268 2.88132 18.1137C2.73732 17.871 2.53154 17.7386 2.22282 17.7386C2.01695 17.7386 1.81126 17.8047 1.64654 18.0475V17.7827H1.21436V19.9007H1.64654V18.7314C1.64654 18.3564 1.83179 18.1798 2.11998 18.1798C2.40798 18.1798 2.55217 18.3784 2.55217 18.7314V19.9007H2.98436V18.7314C2.98436 18.3564 3.19004 18.1798 3.45761 18.1798C3.74579 18.1798 3.88979 18.3784 3.88979 18.7314V19.9007H4.36323ZM10.7636 17.7827H10.064V17.1429H9.63179V17.7827H9.24076V18.2018H9.6317V19.1727C9.6317 19.6581 9.81695 19.9448 10.3109 19.9448C10.4962 19.9448 10.7019 19.8787 10.846 19.7905L10.7225 19.3933C10.599 19.4815 10.455 19.5036 10.3521 19.5036C10.1463 19.5036 10.064 19.3713 10.064 19.1506V18.2018H10.7636V17.7827ZM14.427 17.7385C14.1801 17.7385 14.0154 17.871 13.9125 18.0475V17.7827H13.4803V19.9007H13.9125V18.7094C13.9125 18.3564 14.0565 18.1578 14.3241 18.1578C14.4064 18.1578 14.5093 18.1799 14.5916 18.2019L14.7151 17.7607C14.6328 17.7386 14.5093 17.7386 14.427 17.7386V17.7385ZM8.89089 17.9592C8.68501 17.8047 8.39692 17.7386 8.0882 17.7386C7.59432 17.7386 7.26507 18.0033 7.26507 18.4225C7.26507 18.7756 7.51201 18.9741 7.9442 19.0403L8.14998 19.0624C8.37639 19.1064 8.49986 19.1727 8.49986 19.283C8.49986 19.4374 8.33523 19.5478 8.04704 19.5478C7.75895 19.5478 7.53254 19.4374 7.38845 19.3272L7.18267 19.6801C7.40907 19.8566 7.71779 19.9448 8.02642 19.9448C8.6027 19.9448 8.93204 19.6581 8.93204 19.2609C8.93204 18.8858 8.66448 18.6873 8.25282 18.6211L8.04704 18.599C7.86179 18.5769 7.71779 18.5329 7.71779 18.4005C7.71779 18.246 7.86179 18.1578 8.0882 18.1578C8.33523 18.1578 8.58217 18.2681 8.70564 18.3343L8.89089 17.9592ZM20.3748 17.7386C20.1278 17.7386 19.9631 17.871 19.8602 18.0475V17.7827H19.428V19.9007H19.8602V18.7094C19.8602 18.3564 20.0043 18.1578 20.2718 18.1578C20.3542 18.1578 20.4571 18.1799 20.5394 18.2019L20.6629 17.7607C20.5806 17.7386 20.4571 17.7386 20.3748 17.7386ZM14.8592 18.8417C14.8592 19.4815 15.2708 19.9448 15.9088 19.9448C16.1969 19.9448 16.4027 19.8787 16.6085 19.7022L16.4027 19.3272C16.2381 19.4595 16.0734 19.5256 15.8882 19.5256C15.5383 19.5256 15.2914 19.2609 15.2914 18.8417C15.2914 18.4446 15.5383 18.1798 15.8882 18.1578C16.0734 18.1578 16.2381 18.2239 16.4027 18.3564L16.6085 17.9813C16.4027 17.8047 16.1969 17.7386 15.9088 17.7386C15.2708 17.7386 14.8592 18.2019 14.8592 18.8417ZM18.8518 18.8417V17.7827H18.4196V18.0475C18.2755 17.849 18.0698 17.7386 17.8022 17.7386C17.2465 17.7386 16.8144 18.2019 16.8144 18.8417C16.8144 19.4815 17.2465 19.9448 17.8022 19.9448C18.0903 19.9448 18.2962 19.8346 18.4196 19.636V19.9007H18.8518V18.8417ZM17.2671 18.8417C17.2671 18.4666 17.4935 18.1578 17.8639 18.1578C18.2138 18.1578 18.4608 18.4446 18.4608 18.8417C18.4608 19.2168 18.2138 19.5256 17.8639 19.5256C17.4935 19.5035 17.2671 19.2168 17.2671 18.8417ZM12.1014 17.7386C11.5252 17.7386 11.1135 18.1798 11.1135 18.8417C11.1135 19.5036 11.5251 19.9448 12.122 19.9448C12.4101 19.9448 12.6983 19.8566 12.9247 19.6581L12.7188 19.3272C12.5542 19.4595 12.3484 19.5478 12.1426 19.5478C11.875 19.5478 11.6075 19.4154 11.5457 19.0402H13.007V18.8638C13.0276 18.1798 12.6572 17.7386 12.1014 17.7386ZM12.1014 18.1357C12.3689 18.1357 12.5543 18.3123 12.5953 18.6432H11.5663C11.6075 18.3564 11.7927 18.1357 12.1014 18.1357ZM22.8238 18.8417V16.9443H22.3916V18.0475C22.2475 17.849 22.0418 17.7386 21.7742 17.7386C21.2185 17.7386 20.7864 18.2019 20.7864 18.8417C20.7864 19.4815 21.2185 19.9448 21.7742 19.9448C22.0624 19.9448 22.2682 19.8346 22.3916 19.636V19.9007H22.8238V18.8417ZM21.2392 18.8417C21.2392 18.4666 21.4655 18.1578 21.836 18.1578C22.1859 18.1578 22.4328 18.4446 22.4328 18.8417C22.4328 19.2168 22.1859 19.5256 21.836 19.5256C21.4655 19.5035 21.2392 19.2168 21.2392 18.8417ZM6.79164 18.8417V17.7827H6.35945V18.0475C6.21535 17.849 6.00957 17.7386 5.74201 17.7386C5.18636 17.7386 4.75417 18.2019 4.75417 18.8417C4.75417 19.4815 5.18636 19.9448 5.74201 19.9448C6.0302 19.9448 6.23598 19.8346 6.35945 19.636V19.9007H6.79164V18.8417ZM5.18636 18.8417C5.18636 18.4666 5.41276 18.1578 5.78317 18.1578C6.13304 18.1578 6.38007 18.4446 6.38007 18.8417C6.38007 19.2168 6.13304 19.5256 5.78317 19.5256C5.41276 19.5035 5.18636 19.2168 5.18636 18.8417Z" fill="black"/>
<path d="M8.74658 1.69873H15.2294V14.1863H8.74658V1.69873Z" fill="#FF5F00"/>
<path d="M9.15834 7.94261C9.15834 5.40543 10.2697 3.15497 11.9778 1.69879C10.7225 0.639799 9.13781 0 7.40906 0C3.31341 0 0 3.55206 0 7.94261C0 12.3331 3.31341 15.8852 7.40897 15.8852C9.13772 15.8852 10.7224 15.2454 11.9778 14.1863C10.2697 12.7523 9.15834 10.4798 9.15834 7.94261Z" fill="#EB001B"/>
<path d="M23.9763 7.94261C23.9763 12.3331 20.6629 15.8852 16.5673 15.8852C14.8386 15.8852 13.2539 15.2454 11.9985 14.1863C13.7273 12.7303 14.8181 10.4798 14.8181 7.94261C14.8181 5.40543 13.7067 3.15497 11.9985 1.69879C13.2538 0.639799 14.8386 0 16.5673 0C20.6629 0 23.9763 3.57417 23.9763 7.94261Z" fill="#F79E1B"/>
</g>
<defs>
<clipPath id="clip0_32_7038">
<rect width="24" height="20" fill="white"/>
</clipPath>
</defs>
</svg>
