<svg width="45" height="45" viewBox="0 0 45 45" fill="none" xmlns="http://www.w3.org/2000/svg">
<path d="M42.0001 10.5C42.0001 4.70101 37.2991 0 31.5 0C25.701 0 21 4.70101 21 10.5V34.5001C21 40.299 25.701 45 31.5 45C37.2991 45 42.0001 40.299 42.0001 34.5V10.5Z" fill="#FFD6A0"/>
<path d="M31.5 45C31.5 36.9499 31.5 22.5 31.5 22.5C31.5 22.5 31.5 8.05008 31.5 0C37.299 0 42 4.70101 42 10.5V22.5V34.5C42 40.299 37.299 45 31.5 45Z" fill="#FDC500"/>
<path d="M42.0001 22.5V34.5C42.0001 40.299 37.2991 45 31.5 45C25.701 45 21 40.299 21 34.5V22.5H42.0001Z" fill="#D80027"/>
<path d="M31.5 45C31.5 36.9499 31.5 22.5 31.5 22.5H42V34.5C42 40.299 37.299 45 31.5 45Z" fill="#D12B2F"/>
<path d="M14.25 45C20.4632 45 25.5 39.9632 25.5 33.75C25.5 27.5368 20.4632 22.5 14.25 22.5C8.0368 22.5 3 27.5368 3 33.75C3 39.9632 8.0368 45 14.25 45Z" fill="#C9E3F7"/>
<path d="M14.25 22.5C20.4632 22.5 25.5 27.5367 25.5 33.75C25.5 39.9632 20.4632 45 14.25 45" fill="#3772FF"/>
</svg>
