<svg width="35" height="35" viewBox="0 0 35 35" fill="none" xmlns="http://www.w3.org/2000/svg">
<g clip-path="url(#clip0_32_8930)">
<path d="M15.4058 25.7778C16.0961 25.7778 16.6558 25.2182 16.6558 24.5278C16.6558 23.8375 16.0961 23.2778 15.4058 23.2778C14.7154 23.2778 14.1558 23.8375 14.1558 24.5278C14.1558 25.2182 14.7154 25.7778 15.4058 25.7778Z" fill="#3772FF"/>
<path d="M23 25.7778C23.6904 25.7778 24.25 25.2182 24.25 24.5278C24.25 23.8375 23.6904 23.2778 23 23.2778C22.3096 23.2778 21.75 23.8375 21.75 24.5278C21.75 25.2182 22.3096 25.7778 23 25.7778Z" fill="#3772FF"/>
<path d="M26.3779 10.9835C26.3262 10.9198 26.261 10.8683 26.187 10.8328C26.1131 10.7972 26.0322 10.7785 25.9501 10.778H14.3834L14.7445 11.8891H25.2223L23.739 18.5558H15.4057L12.8668 10.5169C12.8393 10.4316 12.7916 10.3542 12.7278 10.2913C12.6639 10.2284 12.5858 10.1819 12.5001 10.1558L10.2223 9.45577C10.1523 9.43424 10.0787 9.42673 10.0058 9.43365C9.93281 9.44056 9.86194 9.46178 9.7972 9.49609C9.66644 9.56537 9.56857 9.68376 9.5251 9.82521C9.48164 9.96666 9.49614 10.1196 9.56542 10.2503C9.63471 10.3811 9.7531 10.479 9.89455 10.5224L11.889 11.1335L14.439 19.1891L13.5279 19.9335L13.4557 20.0058C13.2303 20.2655 13.1025 20.5957 13.0944 20.9394C13.0863 21.2832 13.1983 21.619 13.4112 21.8891C13.5626 22.0732 13.7551 22.2194 13.9731 22.3159C14.1911 22.4123 14.4287 22.4564 14.6668 22.4447H23.939C24.0863 22.4447 24.2276 22.3861 24.3318 22.2819C24.436 22.1777 24.4945 22.0364 24.4945 21.8891C24.4945 21.7418 24.436 21.6004 24.3318 21.4963C24.2276 21.3921 24.0863 21.3335 23.939 21.3335H14.5779C14.5139 21.3314 14.4516 21.3127 14.3969 21.2794C14.3422 21.2461 14.2971 21.1993 14.2658 21.1434C14.2345 21.0876 14.2182 21.0246 14.2184 20.9606C14.2185 20.8966 14.2352 20.8337 14.2668 20.778L15.6057 19.6669H24.1834C24.3119 19.67 24.4374 19.6286 24.5387 19.5495C24.64 19.4705 24.7108 19.3589 24.739 19.2335L26.5001 11.4558C26.517 11.3729 26.5148 11.2874 26.4936 11.2055C26.4724 11.1237 26.4328 11.0478 26.3779 10.9835Z" fill="#3772FF"/>
</g>
<circle cx="17.5" cy="17.5" r="17" stroke="#3772FF"/>
<defs>
<clipPath id="clip0_32_8930">
<rect width="20" height="20" fill="white" transform="translate(8 8)"/>
</clipPath>
</defs>
</svg>
