<svg width="24" height="24" viewBox="0 0 24 24" fill="none" xmlns="http://www.w3.org/2000/svg">
<g clip-path="url(#clip0_32_10430)">
<path d="M14.0004 8.7998C13.0529 8.7998 12.178 9.09545 11.462 9.59982H6.80038C6.56038 9.59982 6.40039 9.7598 6.40039 9.9998C6.40039 10.2398 6.56038 10.3998 6.80038 10.3998H10.5995C10.2187 10.8625 9.93106 11.4052 9.76437 11.9998H6.80038C6.56038 11.9998 6.40039 12.1598 6.40039 12.3998C6.40039 12.6398 6.56038 12.7997 6.80038 12.7997H9.61845C9.60673 12.9315 9.60041 13.0648 9.60041 13.1997C9.60041 13.6162 9.65759 14.0186 9.76442 14.3997H6.80042C6.56042 14.3997 6.40044 14.5597 6.40044 14.7997C6.40044 15.0397 6.56042 15.1997 6.80042 15.1997H10.0762C10.8014 16.6273 12.2818 17.5997 14.0004 17.5997C16.4404 17.5997 18.4004 15.6397 18.4004 13.1997C18.4003 10.7598 16.4404 8.7998 14.0004 8.7998ZM14.0004 16.7998C12.0004 16.7998 10.4004 15.1998 10.4004 13.1998C10.4004 12.9707 10.4223 12.7473 10.4625 12.5305C10.4698 12.5054 10.4748 12.4788 10.4776 12.4509C10.6556 11.5975 11.1326 10.8592 11.7954 10.3476C11.8271 10.3299 11.8566 10.308 11.8828 10.2821C12.4757 9.85276 13.2063 9.59982 14.0004 9.59982C16.0004 9.59982 17.6004 11.1998 17.6004 13.1998C17.6004 15.1998 16.0003 16.7998 14.0004 16.7998Z" fill="#828282"/>
<path d="M16.1996 11.2399C15.9996 11.1199 15.7596 11.1599 15.6396 11.3599L13.5196 14.5599L12.2796 13.3199C12.1196 13.1599 11.8796 13.1599 11.7196 13.3199C11.5596 13.4799 11.5596 13.7199 11.7196 13.8799L13.3196 15.4799C13.3996 15.5599 13.4796 15.5999 13.5996 15.5999C13.7596 15.5999 13.8796 15.5199 13.9196 15.3999L16.3196 11.7999C16.4396 11.5999 16.3996 11.3599 16.1996 11.2399Z" fill="#828282"/>
<path d="M21.6 0H6C4.88002 0 3.99998 0.879984 3.99998 2.00002V18.4H1.2C0.519984 18.4 0 18.92 0 19.6V21.6C0 22.92 1.08 24 2.4 24H17.36H17.6C18.2 24 18.76 23.76 19.2 23.36C19.72 22.92 20 22.28 20 21.6V5.60002H22.8C23.48 5.60002 24 5.08003 24 4.40002V2.4C24 1.08 22.92 0 21.6 0ZM2.4 23.2C1.52002 23.2 0.800016 22.48 0.800016 21.6V19.6C0.800016 19.4 0.96 19.2 1.2 19.2H4.40002H15.2V21.52V21.6C15.2 22.2 15.4 22.76 15.8 23.2H2.4ZM19.2 2.4V21.6C19.2 22.08 19 22.48 18.68 22.8C18.379 23.0341 18.022 23.1839 17.6558 23.2034C17.6377 23.2014 17.6192 23.2 17.6 23.2C17.3288 23.2 17.0728 23.1314 16.8484 23.011C16.3467 22.728 16 22.1675 16 21.52V18.8C16 18.56 15.84 18.4 15.6 18.4H4.8V2.00002C4.8 1.32 5.31998 0.800016 6 0.800016H19.8C19.723 0.894141 19.6519 0.994031 19.5871 1.09833C19.3622 1.44412 19.2235 1.85039 19.2029 2.28642C19.201 2.32411 19.2 2.36198 19.2 2.4ZM23.2 4.40002C23.2 4.60003 23.04 4.8 22.8 4.8H20V2.4C20 1.52002 20.72 0.800016 21.6 0.800016C22.48 0.800016 23.2 1.52002 23.2 2.4V4.40002Z" fill="#828282"/>
<path d="M9.60018 3.19992H14.4002C14.6402 3.19992 14.8002 3.03993 14.8002 2.79993C14.8002 2.55993 14.6402 2.3999 14.4002 2.3999H9.60018C9.36018 2.3999 9.2002 2.55989 9.2002 2.79989C9.2002 3.03989 9.36018 3.19992 9.60018 3.19992Z" fill="#828282"/>
<path d="M6.80038 5.59977H17.2004C17.4404 5.59977 17.6004 5.43979 17.6004 5.19979C17.6004 4.95979 17.4404 4.7998 17.2004 4.7998H6.80038C6.56038 4.7998 6.40039 4.95979 6.40039 5.19979C6.40039 5.43979 6.56038 5.59977 6.80038 5.59977Z" fill="#828282"/>
<path d="M6.80038 8.00016H17.2004C17.4404 8.00016 17.6004 7.84018 17.6004 7.60018C17.6004 7.36018 17.4404 7.2002 17.2004 7.2002H6.80038C6.56038 7.2002 6.40039 7.36018 6.40039 7.60018C6.40039 7.84018 6.56038 8.00016 6.80038 8.00016Z" fill="#828282"/>
</g>
<defs>
<clipPath id="clip0_32_10430">
<rect width="24" height="24" fill="white"/>
</clipPath>
</defs>
</svg>
