<svg width="24" height="24" viewBox="0 0 24 24" fill="none" xmlns="http://www.w3.org/2000/svg">
<g clip-path="url(#clip0_32_8530)">
<path d="M22.7998 1.6H19.9998V0.4C19.9998 0.1788 19.821 0 19.5998 0H16.7998C16.5786 0 16.3998 0.1788 16.3998 0.4V1.6H7.5998V0.4C7.5998 0.1788 7.421 0 7.1998 0H4.3998C4.1786 0 3.9998 0.1788 3.9998 0.4V1.6H1.1998C0.978605 1.6 0.799805 1.7788 0.799805 2V6.4V23.6C0.799805 23.8212 0.978605 24 1.1998 24H22.7998C23.021 24 23.1998 23.8212 23.1998 23.6V6.4V2C23.1998 1.7788 23.021 1.6 22.7998 1.6ZM17.1998 0.8H19.1998V2V3.2H17.1998V2V0.8ZM4.7998 0.8H6.7998V2V3.2H4.7998V2V0.8ZM1.5998 2.4H3.9998V3.6C3.9998 3.8212 4.1786 4 4.3998 4H7.1998C7.421 4 7.5998 3.8212 7.5998 3.6V2.4H16.3998V3.6C16.3998 3.8212 16.5786 4 16.7998 4H19.5998C19.821 4 19.9998 3.8212 19.9998 3.6V2.4H22.3998V6H1.5998V2.4ZM1.5998 23.2V6.8H22.3998V23.2H1.5998Z" fill="#828282"/>
<path d="M15.1999 9.2002H12.3999H11.5999H8.7999H7.9999H4.3999V12.8002V13.6002V16.4002V17.2002V20.8002H7.9999H8.7999H11.5999H12.3999H15.1999H15.9999H19.5999V17.2002V16.4002V13.6002V12.8002V9.2002H15.9999H15.1999ZM12.3999 10.0002H15.1999V12.8002H12.3999V10.0002ZM15.1999 16.4002H12.3999V13.6002H15.1999V16.4002ZM8.7999 13.6002H11.5999V16.4002H8.7999V13.6002ZM8.7999 10.0002H11.5999V12.8002H8.7999V10.0002ZM5.1999 10.0002H7.9999V12.8002H5.1999V10.0002ZM5.1999 13.6002H7.9999V16.4002H5.1999V13.6002ZM7.9999 20.0002H5.1999V17.2002H7.9999V20.0002ZM11.5999 20.0002H8.7999V17.2002H11.5999V20.0002ZM15.1999 20.0002H12.3999V17.2002H15.1999V20.0002ZM18.7999 20.0002H15.9999V17.2002H18.7999V20.0002ZM18.7999 16.4002H15.9999V13.6002H18.7999V16.4002ZM18.7999 10.0002V12.8002H15.9999V10.0002H18.7999Z" fill="#828282"/>
</g>
<defs>
<clipPath id="clip0_32_8530">
<rect width="24" height="24" fill="white"/>
</clipPath>
</defs>
</svg>
