<svg width="30" height="30" viewBox="0 0 30 30" fill="none" xmlns="http://www.w3.org/2000/svg">
<rect width="30" height="30" rx="5" fill="white"/>
<path d="M10.7885 7.29073C10.8804 7.19857 10.9896 7.12545 11.1098 7.07557C11.2301 7.02568 11.3589 7 11.4891 7C11.6193 7 11.7482 7.02568 11.8684 7.07557C11.9886 7.12545 12.0978 7.19857 12.1897 7.29073L18.7685 13.8695C18.8419 13.9427 18.9001 14.0297 18.9398 14.1255C18.9796 14.2213 19 14.3239 19 14.4276C19 14.5313 18.9796 14.634 18.9398 14.7297C18.9001 14.8255 18.8419 14.9125 18.7685 14.9857L12.1897 21.5645C11.8018 21.9524 11.1764 21.9524 10.7885 21.5645C10.4006 21.1766 10.4006 20.5511 10.7885 20.1632L16.5201 14.4236L10.7806 8.68406C10.4006 8.30406 10.4006 7.67073 10.7885 7.29073Z" fill="#333333"/>
</svg>
