<svg width="94" height="75" viewBox="0 0 94 75" fill="none" xmlns="http://www.w3.org/2000/svg">
<path d="M74.391 40.7783C75.834 38.8856 77.2773 37.2686 78.4074 35.4561C81.4279 30.6117 86.157 22.9096 87.2551 20.79C87.8156 19.6559 88.6326 18.8516 89.1486 18.8018C89.6652 18.7521 90.3244 18.7342 90.8824 19.0826C91.4404 19.4316 91.8691 20.2738 91.4785 21.9234C91.0877 23.573 90.8633 24.1732 90.3223 25.4441C87.1543 32.3768 82.5064 38.348 77.6207 44.1236C76.699 45.2133 76.6584 46.0111 77.1748 47.2441C79.3797 52.5098 81.4467 57.8322 83.6357 63.1045C84.3637 64.857 85.2631 66.544 86.1617 68.2189C87.0699 69.9129 87.7191 70.8082 90.4777 70.7711C91.6145 70.7672 93.775 70.4641 93.9578 72.1094C94.1578 73.9076 91.9742 74.1756 90.6727 74.441C89.2037 74.7404 88.4641 74.8549 86.9613 74.8584C83.4969 74.8658 79.4029 73.54 77.707 70.4625C75.9709 67.3121 75.034 65.0148 73.4412 60.7117C72.3957 57.8867 71.2215 55.1063 69.992 51.9635C69.2998 52.7065 68.6482 53.2246 68.2258 53.8887C62.9822 60.9975 59.9375 66.748 57.5891 70.7854C55.7375 73.9682 55.5824 75.3744 53.3834 74.915C51.3783 74.0955 51.957 71.4049 52.1148 70.7232C53.0451 66.7059 55.9893 62.7594 58.2834 59.2904C60.8477 55.4129 63.9998 51.9277 66.8096 48.2068C67.2256 47.6561 67.5113 46.607 67.2748 46.0248C64.7557 39.8264 62.1361 33.6678 59.507 27.5141C58.077 24.4633 57.1045 22.518 51.4803 22.7295C50.55 22.6449 49.9857 22.3998 50.001 21.3258C50.001 20.023 50.8805 19.5607 51.525 19.3695C57.8797 17.4838 64.2646 18.0391 67.5719 25.143C69.6207 29.5428 71.4346 34.0514 73.3588 38.5096C73.6418 39.1631 73.9484 39.8061 74.3912 40.7781L74.391 40.7783ZM0 57.1178C1.47812 56.0086 2.50781 54.9531 3.08984 53.949C3.67051 52.9463 3.96133 51.7311 3.96133 50.3051V7.28828C3.96133 6.07402 3.7123 4.88574 3.21523 3.72324C2.89509 3.21383 2.56303 2.712 2.21934 2.21816C1.88789 1.74277 1.28027 1.00391 0.396289 0H20.0428C26.4324 0 31.4369 1.29492 35.0553 3.88184C38.6719 6.47031 40.4816 10.0611 40.4816 14.6561C40.4816 18.248 39.2658 21.2586 36.8375 23.6871C35.4635 25.0609 34.1168 26.0637 32.7971 26.6973C31.4764 27.3311 29.3908 27.9922 26.5387 28.6777L31.8461 35.7281C32.9555 37.2074 34.4604 39.0293 36.3617 41.1945C38.4734 43.5713 40.7447 46.0008 43.1746 48.4828C45.3395 50.7543 47.0428 52.4047 48.2844 53.434C49.5246 54.4641 51.4137 55.692 53.9488 57.1176H41.1154C39.0021 57.1176 36.7309 55.9033 34.3021 53.4734C31.4502 50.5693 28.5453 47.0047 25.5881 42.7787C23.5805 40.0854 21.8115 37.6033 20.2803 35.332C19.0648 33.5371 17.3217 30.8164 15.0516 27.1721C24.9805 25.7994 29.9449 21.9436 29.9449 15.6059C29.9449 9.6916 25.7463 6.7334 17.3488 6.7334H14.1809V50.1356C14.1809 51.6703 14.458 52.9135 15.0125 53.8654C15.567 54.8184 16.6367 55.9029 18.2211 57.1184H0.000195205L0 57.1178Z" fill="#2B2A29"/>
</svg>
