<svg width="24" height="24" viewBox="0 0 24 24" fill="none" xmlns="http://www.w3.org/2000/svg">
<g clip-path="url(#clip0_32_13429)">
<path d="M15 6.375V0H5.625C5.00156 0 4.5 0.501562 4.5 1.125V12H1.875C1.66875 12 1.5 12.1687 1.5 12.375V13.125C1.5 13.3313 1.66875 13.5 1.875 13.5H8.47969C8.62031 13.5 8.75156 13.5797 8.81719 13.7062L9.75 15.5719L12.4125 10.2422C12.5484 9.96562 12.9469 9.96562 13.0828 10.2422L14.7094 13.5H18C18.4125 13.5 18.75 13.8375 18.75 14.25C18.75 14.6625 18.4125 15 18 15H13.7859L12.75 12.9281L10.0875 18.2578C9.95156 18.5344 9.55312 18.5344 9.41719 18.2578L7.78594 15H4.5V22.875C4.5 23.4984 5.00156 24 5.625 24H21.375C21.9984 24 22.5 23.4984 22.5 22.875V7.5H16.125C15.5063 7.5 15 6.99375 15 6.375ZM22.1719 4.92188L17.5828 0.328125C17.3719 0.117188 17.0859 0 16.7859 0H16.5V6H22.5V5.71406C22.5 5.41875 22.3828 5.13281 22.1719 4.92188Z" fill="white"/>
</g>
<defs>
<clipPath id="clip0_32_13429">
<rect width="24" height="24" fill="white"/>
</clipPath>
</defs>
</svg>
