<svg width="24" height="24" viewBox="0 0 24 24" fill="none" xmlns="http://www.w3.org/2000/svg">
<g clip-path="url(#clip0_32_8557)">
<path d="M7.55262 11.5308C6.29484 11.5308 5.27148 12.5541 5.27148 13.8119C5.27148 15.0698 6.29484 16.0931 7.55262 16.0931C8.81039 16.0931 9.83375 15.0698 9.83375 13.8119C9.83375 12.5541 8.81039 11.5308 7.55262 11.5308ZM7.55262 14.4959C7.17548 14.4959 6.86874 14.1891 6.86874 13.812C6.86874 13.4349 7.17548 13.1282 7.55262 13.1282C7.92975 13.1282 8.23649 13.4349 8.23649 13.812C8.23649 14.1891 7.92975 14.4959 7.55262 14.4959Z" fill="#828282"/>
<path d="M9.52904 7.90674C8.6345 7.90674 7.90674 8.63458 7.90674 9.52904C7.90674 10.4235 8.6345 11.1513 9.52904 11.1513C10.4235 11.1513 11.1513 10.4235 11.1513 9.52904C11.1513 8.63458 10.4235 7.90674 9.52904 7.90674ZM9.52904 9.55393C9.5153 9.55393 9.50407 9.5427 9.50407 9.52896C9.50407 9.51522 9.5153 9.50399 9.52904 9.50399C9.54278 9.50399 9.55401 9.51522 9.55401 9.52896C9.55393 9.54278 9.54278 9.55393 9.52904 9.55393Z" fill="#828282"/>
<path d="M21.8837 2.63556H12.6468V1.59733H13.47C13.9111 1.59733 14.2687 1.23976 14.2687 0.798707C14.2687 0.357657 13.9111 0 13.47 0H3.73856C3.29751 0 2.93985 0.357657 2.93985 0.798707C2.93985 1.23976 3.29751 1.59733 3.73856 1.59733H4.56175V2.63564H2.11658C1.67553 2.63564 1.31787 2.99329 1.31787 3.43434C1.31787 3.87539 1.67553 4.23305 2.11658 4.23305H4.56175V7.71346C2.54971 9.05875 1.31787 11.3398 1.31787 13.7741C1.31787 17.7918 4.58648 21.0604 8.60417 21.0604C12.6219 21.0604 15.8906 17.7918 15.8906 13.7741C15.8906 11.3398 14.6588 9.05883 12.6467 7.71346V4.23305H21.0849V22.4028H3.4344C2.99335 22.4028 2.63569 22.7604 2.63569 23.2015C2.63569 23.6425 2.99335 24.0002 3.4344 24.0002H21.8837C22.3247 24.0002 22.6824 23.6425 22.6824 23.2015V3.43426C22.6823 2.99321 22.3247 2.63556 21.8837 2.63556ZM6.15908 1.59733H11.0495V2.63564H6.15908V1.59733ZM11.4481 8.84768C13.203 9.86327 14.2933 11.751 14.2933 13.774C14.2933 16.9109 11.7412 19.4629 8.60425 19.4629C5.46745 19.4629 2.91537 16.9109 2.91537 13.774C2.91537 11.751 4.00555 9.86335 5.76054 8.84768C6.00725 8.70489 6.15916 8.44145 6.15916 8.15636V4.23297H11.0496V8.15644C11.0494 8.44145 11.2013 8.70489 11.4481 8.84768Z" fill="#828282"/>
</g>
<defs>
<clipPath id="clip0_32_8557">
<rect width="24" height="24" fill="white"/>
</clipPath>
</defs>
</svg>
