<svg width="24" height="24" viewBox="0 0 24 24" fill="none" xmlns="http://www.w3.org/2000/svg">
<path d="M17.9995 10.3637H15.0541L13.745 7.41822C13.6359 7.20002 13.4723 7.09094 13.2541 7.09094C13.0359 7.09094 12.8177 7.20002 12.7632 7.41822L10.3632 12.8728L9.32682 10.691C9.21774 10.5273 9.0541 10.3637 8.8359 10.3637H5.99954C5.67226 10.3637 5.4541 10.5819 5.4541 10.9091C5.4541 11.2364 5.6723 11.4546 5.99954 11.4546H8.4541L9.8723 14.4C9.98138 14.5637 10.145 14.7273 10.3632 14.7273C10.5814 14.7273 10.745 14.6182 10.8541 14.4L13.2541 9.00002L14.2359 11.1818C14.2905 11.3455 14.5087 11.4545 14.7269 11.4545H17.9995C18.3268 11.4545 18.545 11.2363 18.545 10.9091C18.545 10.5819 18.3268 10.3637 17.9995 10.3637Z" fill="#D12B2F"/>
<path d="M19.0907 1.63636H15.8179C15.8179 1.30908 15.5997 1.09092 15.2725 1.09092H13.9089C13.6907 1.09092 13.5271 0.981844 13.4725 0.872719C13.1452 0.327281 12.5997 0 11.9997 0C11.3997 0 10.8543 0.327281 10.5815 0.872719C10.4725 0.981797 10.3088 1.09092 10.0906 1.09092H8.72698C8.3997 1.09092 8.18154 1.30913 8.18154 1.63636V4.36364C8.18154 4.69092 8.39974 4.90908 8.72698 4.90908H15.2724C15.5997 4.90908 15.8179 4.69088 15.8179 4.36364C15.8179 4.03636 15.5996 3.8182 15.2724 3.8182H9.27241V2.1818H10.0906C10.6906 2.1818 11.2361 1.85452 11.5088 1.36359C11.727 0.981797 12.2725 1.03631 12.4906 1.36359C12.7633 1.85452 13.3088 2.1818 13.9088 2.1818H14.727C14.727 2.50908 14.9452 2.72723 15.2725 2.72723H19.0907C19.4179 2.72723 19.6361 2.94544 19.6361 3.27267V22.3636C19.6361 22.6909 19.4179 22.909 19.0907 22.909H4.90882C4.58154 22.909 4.36338 22.6908 4.36338 22.3636V3.27272C4.36338 2.94544 4.58159 2.72728 4.90882 2.72728H5.99974C6.32702 2.72728 6.54518 2.50908 6.54518 2.18184C6.54518 1.85461 6.32702 1.63636 5.99974 1.63636H4.90882C3.98154 1.63636 3.27246 2.34544 3.27246 3.27272V22.3636C3.27246 23.2909 3.98154 24 4.90882 24H19.0906C20.0179 24 20.727 23.2909 20.727 22.3636V3.27272C20.727 2.34544 20.0179 1.63636 19.0907 1.63636Z" fill="#D12B2F"/>
<path d="M13.0905 17.4546H5.99954C5.67226 17.4546 5.4541 17.6728 5.4541 18C5.4541 18.3273 5.6723 18.5455 5.99954 18.5455H13.0905C13.4177 18.5455 13.6359 18.3273 13.6359 18C13.6359 17.6728 13.4177 17.4546 13.0905 17.4546Z" fill="#D12B2F"/>
<path d="M9.81774 19.6364H5.99954C5.67226 19.6364 5.4541 19.8546 5.4541 20.1818C5.4541 20.509 5.6723 20.7272 5.99954 20.7272H9.81774C10.145 20.7272 10.3632 20.509 10.3632 20.1818C10.3632 19.8546 10.145 19.6364 9.81774 19.6364Z" fill="#D12B2F"/>
</svg>
