<svg width="16" height="16" viewBox="0 0 16 16" fill="none" xmlns="http://www.w3.org/2000/svg">
<path d="M9.33325 0C10.2173 0 11.0652 0.351189 11.6903 0.976311C12.3154 1.60143 12.6666 2.44928 12.6666 3.33333V11.3333C12.6666 11.9462 12.5459 12.553 12.3114 13.1192C12.0768 13.6854 11.7331 14.1998 11.2997 14.6332C10.8664 15.0665 10.352 15.4102 9.78577 15.6448C9.21959 15.8793 8.61275 16 7.99992 16C7.38708 16 6.78025 15.8793 6.21406 15.6448C5.64788 15.4102 5.13343 15.0665 4.70009 14.6332C4.26675 14.1998 3.923 13.6854 3.68848 13.1192C3.45396 12.553 3.33325 11.9462 3.33325 11.3333V6H4.66659V11.3333C4.66659 12.2174 5.01777 13.0652 5.6429 13.6904C6.26802 14.3155 7.11586 14.6667 7.99992 14.6667C8.88397 14.6667 9.73182 14.3155 10.3569 13.6904C10.9821 13.0652 11.3333 12.2174 11.3333 11.3333V3.33333C11.3333 3.07069 11.2815 2.81062 11.181 2.56797C11.0805 2.32532 10.9332 2.10484 10.7475 1.91912C10.5617 1.7334 10.3413 1.58608 10.0986 1.48557C9.85597 1.38506 9.5959 1.33333 9.33325 1.33333C9.07061 1.33333 8.81054 1.38506 8.56788 1.48557C8.32523 1.58608 8.10475 1.7334 7.91904 1.91912C7.73332 2.10484 7.586 2.32532 7.48549 2.56797C7.38498 2.81062 7.33325 3.07069 7.33325 3.33333V11.3333C7.33325 11.5101 7.40349 11.6797 7.52851 11.8047C7.65354 11.9298 7.82311 12 7.99992 12C8.17673 12 8.3463 11.9298 8.47132 11.8047C8.59635 11.6797 8.66658 11.5101 8.66658 11.3333V4H9.99992V11.3333C9.99992 11.8638 9.7892 12.3725 9.41413 12.7475C9.03906 13.1226 8.53035 13.3333 7.99992 13.3333C7.46949 13.3333 6.96078 13.1226 6.5857 12.7475C6.21063 12.3725 5.99992 11.8638 5.99992 11.3333V3.33333C5.99992 2.44928 6.35111 1.60143 6.97623 0.976311C7.60135 0.351189 8.4492 0 9.33325 0V0Z" fill="#667499"/>
</svg>
