<svg width="100" height="100" viewBox="0 0 100 100" fill="none" xmlns="http://www.w3.org/2000/svg">
<path d="M57.375 40.5H56.25V39.375C56.25 38.7562 55.7437 38.25 55.125 38.25C54.5063 38.25 54 38.7562 54 39.375V40.5H45V39.375C45 38.7562 44.4938 38.25 43.875 38.25C43.2562 38.25 42.75 38.7562 42.75 39.375V40.5H41.625C40.3763 40.5 39.3862 41.5125 39.3862 42.75L39.375 58.5C39.375 59.0967 39.6121 59.669 40.034 60.091C40.456 60.5129 41.0283 60.75 41.625 60.75H57.375C58.6125 60.75 59.625 59.7375 59.625 58.5V42.75C59.625 41.5125 58.6125 40.5 57.375 40.5ZM57.375 57.375C57.375 57.9937 56.8687 58.5 56.25 58.5H42.75C42.1312 58.5 41.625 57.9937 41.625 57.375V46.125H57.375V57.375ZM43.875 48.375H46.125V50.625H43.875V48.375ZM48.375 48.375H50.625V50.625H48.375V48.375ZM52.875 48.375H55.125V50.625H52.875V48.375Z" fill="#3772FF"/>
<circle cx="50" cy="50" r="50" fill="#3772FF" fill-opacity="0.2"/>
<circle cx="49.6556" cy="50.3448" r="34.4828" fill="#3772FF" fill-opacity="0.2"/>
</svg>
