<svg width="20" height="20" viewBox="0 0 20 20" fill="none" xmlns="http://www.w3.org/2000/svg">
<circle cx="10.334" cy="10.3335" r="5" fill="#FFF1F1"/>
<g clip-path="url(#clip0_32_6515)">
<path d="M17.905 9.29484C17.8158 9.00593 17.7102 8.72132 17.5887 8.44152L19.4172 5.93312C19.4935 5.82844 19.5083 5.69098 19.4557 5.5725C19.4032 5.45406 19.2915 5.37266 19.1626 5.35891L15.4313 4.96094C15.3321 4.20578 14.6849 3.62078 13.9031 3.62078C13.8091 3.62078 13.7171 3.62973 13.6277 3.64594L12.1062 0.215674C12.0537 0.0972366 11.942 0.0158305 11.8131 0.00208053C11.6839 -0.0117866 11.5579 0.0443851 11.4816 0.149111L9.02508 3.51993C6.11649 3.86184 3.59451 5.7291 2.41732 8.42726C2.2933 8.71144 2.18654 9.00085 2.09591 9.29445C1.03185 9.61183 0.280762 10.603 0.280762 11.7308C0.280762 12.8592 1.0326 13.8508 2.09744 14.1677C3.13998 17.5416 6.28817 20 10 20C13.7118 20 16.86 17.5416 17.9026 14.1676C18.9675 13.8509 19.7192 12.8595 19.7192 11.7308C19.7192 10.603 18.9686 9.6123 17.905 9.29484ZM1.00607 11.7308C1.00607 11.086 1.34943 10.5037 1.87591 10.1805C1.77978 10.6876 1.73084 11.2052 1.73084 11.7308C1.73084 12.261 1.78162 12.7794 1.8774 13.2821C1.35013 12.959 1.00607 12.3763 1.00607 11.7308ZM15.3545 5.68211L18.461 6.01344L16.1083 9.24093L14.8417 6.38441C15.0737 6.2057 15.2537 5.96273 15.3545 5.68211ZM13.9031 4.3461C14.3533 4.3461 14.7196 4.71235 14.7196 5.1625C14.7196 5.61266 14.3533 5.9789 13.9031 5.9789C13.4529 5.9789 13.0867 5.61266 13.0867 5.1625C13.0867 4.71235 13.4529 4.3461 13.9031 4.3461ZM11.6979 1.08391L12.9648 3.94028C12.7326 4.11895 12.5525 4.36203 12.4517 4.64266L9.34547 4.31172L11.6979 1.08391ZM8.41672 4.35469L8.38934 4.39227C8.31305 4.49699 8.2984 4.63449 8.3509 4.75289C8.40348 4.87137 8.51516 4.95273 8.64403 4.96649L12.375 5.36402C12.4211 5.7157 12.586 6.03035 12.8282 6.26629C12.4499 6.66457 11.7134 7.33496 10.6107 7.89015C9.62012 8.38878 8.53723 8.69245 7.39204 8.79273C6.08954 8.90671 4.70064 8.7557 3.25771 8.34554C4.2881 6.29527 6.19298 4.83027 8.41672 4.35469ZM10 19.2747C5.84032 19.2747 2.45619 15.8905 2.45619 11.7308C2.45619 10.7912 2.62595 9.87925 2.96025 9.01491C4.19071 9.37374 5.38829 9.55495 6.53524 9.55495C6.84567 9.55495 7.15255 9.54175 7.4552 9.51519C8.69235 9.40687 9.86375 9.07812 10.9367 8.538C12.2492 7.8773 13.0859 7.06754 13.4693 6.64179C13.607 6.68222 13.7525 6.70433 13.903 6.70433C13.9972 6.70433 14.0893 6.69539 14.1789 6.67914L15.6998 10.1092C15.7523 10.2276 15.864 10.309 15.9929 10.3228C16.0058 10.3242 16.0186 10.3248 16.0314 10.3248C16.1465 10.3248 16.2558 10.27 16.3245 10.1758L17.0847 9.13292C17.3896 9.96167 17.5439 10.8329 17.5439 11.7309C17.5438 15.8905 14.1596 19.2747 10 19.2747ZM18.1226 13.2822C18.2183 12.7795 18.2691 12.261 18.2691 11.7308C18.2691 11.205 18.2206 10.6875 18.1246 10.1809C18.6508 10.5041 18.9939 11.0861 18.9939 11.7308C18.9939 12.3765 18.6499 12.9592 18.1226 13.2822Z" fill="#D12B2F"/>
<path d="M6.89427 11.2866C6.02717 11.2866 5.32178 11.992 5.32178 12.8591C5.32178 13.0594 5.48412 13.2218 5.68443 13.2218C5.88474 13.2218 6.04709 13.0594 6.04709 12.8591C6.04709 12.392 6.42713 12.0119 6.89427 12.0119C7.36142 12.0119 7.7415 12.3919 7.7415 12.8591C7.7415 13.0594 7.90384 13.2218 8.10416 13.2218C8.30447 13.2218 8.46681 13.0594 8.46681 12.8591C8.46681 11.992 7.76138 11.2866 6.89427 11.2866Z" fill="#D12B2F"/>
<path d="M13.1053 11.2866C12.2381 11.2866 11.5327 11.992 11.5327 12.8591C11.5327 13.0594 11.6951 13.2218 11.8954 13.2218C12.0957 13.2218 12.258 13.0594 12.258 12.8591C12.258 12.392 12.6381 12.0119 13.1053 12.0119C13.5724 12.0119 13.9525 12.3919 13.9525 12.8591C13.9525 13.0594 14.1148 13.2218 14.3151 13.2218C14.5154 13.2218 14.6778 13.0594 14.6778 12.8591C14.6777 11.992 13.9723 11.2866 13.1053 11.2866Z" fill="#D12B2F"/>
<path d="M12.2196 15.2996C12.0779 15.1579 11.8483 15.1579 11.7067 15.2996C10.7849 16.2214 9.28506 16.2214 8.36326 15.2996C8.22158 15.1579 7.99201 15.1579 7.85037 15.2996C7.70873 15.4412 7.70873 15.6708 7.85037 15.8124C8.43432 16.3964 9.21013 16.718 10.035 16.718C10.8598 16.718 11.6357 16.3964 12.2196 15.8124C12.3612 15.6708 12.3612 15.4412 12.2196 15.2996Z" fill="#D12B2F"/>
<path d="M10.4838 13.3833H9.51598C9.31562 13.3833 9.15332 13.5457 9.15332 13.746C9.15332 13.9462 9.3157 14.1086 9.51598 14.1086H10.4838C10.6842 14.1086 10.8465 13.9462 10.8465 13.746C10.8465 13.5457 10.6842 13.3833 10.4838 13.3833Z" fill="#D12B2F"/>
</g>
<defs>
<clipPath id="clip0_32_6515">
<rect width="20" height="20" fill="white"/>
</clipPath>
</defs>
</svg>
