<svg width="24" height="24" viewBox="0 0 24 24" fill="none" xmlns="http://www.w3.org/2000/svg">
<path d="M14.7118 10.0171H12.3844V7.68994C12.3844 7.36412 12.1203 7.10001 11.7945 7.10001H9.00885C8.6831 7.10001 8.41893 7.36412 8.41893 7.68994V10.0171H6.09163C5.76587 10.0171 5.5017 10.2812 5.5017 10.607V13.3929C5.5017 13.7187 5.76587 13.9828 6.09163 13.9828H8.41893V16.3101C8.41893 16.6359 8.6831 16.9 9.00885 16.9H11.7945C12.1203 16.9 12.3844 16.6359 12.3844 16.3101V13.9828H14.7118C15.0375 13.9828 15.3017 13.7187 15.3017 13.3929V10.607C15.3017 10.2812 15.0376 10.0171 14.7118 10.0171ZM14.1218 12.803H11.7945C11.4688 12.803 11.2046 13.0671 11.2046 13.3929V15.7201H9.59877V13.3929C9.59877 13.0671 9.33461 12.803 9.00885 12.803H6.68155V11.197H9.00885C9.33461 11.197 9.59877 10.9329 9.59877 10.607V8.27986H11.2046V10.607C11.2046 10.9329 11.4688 11.197 11.7945 11.197H14.1218V12.803ZM22.7453 8.28835C22.7454 8.28452 22.7454 8.28063 22.7454 8.27679C22.7454 8.27296 22.7454 8.26906 22.7453 8.26523V0.589923C22.7453 0.264108 22.4812 0 22.1554 0C21.8296 0 21.5655 0.264108 21.5655 0.589923V7.68687H19.5495V5.0521C19.5495 3.83904 18.5626 2.85216 17.3496 2.85216H3.4539C2.24085 2.85216 1.25391 3.83904 1.25391 5.0521V18.9478C1.25391 20.1609 2.24079 21.1478 3.4539 21.1478H17.3496C18.5627 21.1478 19.5495 20.1609 19.5495 18.9478V16.313H21.5655V23.4101C21.5655 23.7359 21.8296 24 22.1554 24C22.4812 24 22.7453 23.7359 22.7453 23.4101V15.7347C22.7454 15.7309 22.7454 15.727 22.7454 15.7231C22.7454 15.7193 22.7454 15.7154 22.7453 15.7116V8.28835ZM18.3696 18.9478C18.3696 19.5103 17.912 19.9679 17.3496 19.9679H3.4539C2.89141 19.9679 2.43375 19.5103 2.43375 18.9478V5.0521C2.43375 4.48961 2.89141 4.032 3.4539 4.032H17.3496C17.912 4.032 18.3696 4.48961 18.3696 5.0521V18.9478ZM21.5655 15.1332H19.5495V8.86671H21.5655V15.1332Z" fill="#D12B2F"/>
</svg>
