<svg width="32" height="32" viewBox="0 0 32 32" fill="none" xmlns="http://www.w3.org/2000/svg">
<path d="M22.0312 9.71094H18.9141V8.96875C18.9121 8.5363 18.7395 8.12212 18.4337 7.81633C18.1279 7.51054 17.7137 7.33789 17.2812 7.33594H13.7188C13.2863 7.33789 12.8721 7.51054 12.5663 7.81633C12.2605 8.12212 12.0879 8.5363 12.0859 8.96875V9.71094H8.96875C8.85065 9.71094 8.73738 9.75785 8.65387 9.84137C8.57035 9.92488 8.52344 10.0381 8.52344 10.1562C8.52344 10.2744 8.57035 10.3876 8.65387 10.4711C8.73738 10.5546 8.85065 10.6016 8.96875 10.6016H9.71094V21.4375C9.71094 21.7131 9.82041 21.9774 10.0153 22.1722C10.2101 22.3671 10.4744 22.4766 10.75 22.4766H20.25C20.5256 22.4766 20.7899 22.3671 20.9847 22.1722C21.1796 21.9774 21.2891 21.7131 21.2891 21.4375V10.6016H22.0312C22.1494 10.6016 22.2626 10.5546 22.3461 10.4711C22.4296 10.3876 22.4766 10.2744 22.4766 10.1562C22.4766 10.0381 22.4296 9.92488 22.3461 9.84137C22.2626 9.75785 22.1494 9.71094 22.0312 9.71094ZM12.9766 8.96875C12.9766 8.77191 13.0548 8.58313 13.1939 8.44394C13.3331 8.30476 13.5219 8.22656 13.7188 8.22656H17.2812C17.4781 8.22656 17.6669 8.30476 17.8061 8.44394C17.9452 8.58313 18.0234 8.77191 18.0234 8.96875V9.71094H12.9766V8.96875ZM20.3984 21.4375C20.3984 21.4769 20.3828 21.5146 20.355 21.5425C20.3271 21.5703 20.2894 21.5859 20.25 21.5859H10.75C10.7106 21.5859 10.6729 21.5703 10.645 21.5425C10.6172 21.5146 10.6016 21.4769 10.6016 21.4375V10.6016H20.3984V21.4375ZM14.1641 13.7188V18.4688C14.1641 18.5869 14.1171 18.7001 14.0336 18.7836C13.9501 18.8671 13.8369 18.9141 13.7188 18.9141C13.6006 18.9141 13.4874 18.8671 13.4039 18.7836C13.3204 18.7001 13.2734 18.5869 13.2734 18.4688V13.7188C13.2734 13.6006 13.3204 13.4874 13.4039 13.4039C13.4874 13.3204 13.6006 13.2734 13.7188 13.2734C13.8369 13.2734 13.9501 13.3204 14.0336 13.4039C14.1171 13.4874 14.1641 13.6006 14.1641 13.7188ZM17.7266 13.7188V18.4688C17.7266 18.5869 17.6796 18.7001 17.5961 18.7836C17.5126 18.8671 17.3994 18.9141 17.2812 18.9141C17.1631 18.9141 17.0499 18.8671 16.9664 18.7836C16.8829 18.7001 16.8359 18.5869 16.8359 18.4688V13.7188C16.8359 13.6006 16.8829 13.4874 16.9664 13.4039C17.0499 13.3204 17.1631 13.2734 17.2812 13.2734C17.3994 13.2734 17.5126 13.3204 17.5961 13.4039C17.6796 13.4874 17.7266 13.6006 17.7266 13.7188Z" fill="#D12B2F"/>
<circle cx="16" cy="16" r="16" fill="#D12B2F" fill-opacity="0.05"/>
</svg>
