<svg width="20" height="20" viewBox="0 0 20 20" fill="none" xmlns="http://www.w3.org/2000/svg">
<path fill-rule="evenodd" clip-rule="evenodd" d="M6.17009 14.4638C9.02217 14.0472 10.9859 14.083 13.8418 14.4784C14.0486 14.5084 14.2376 14.6122 14.3738 14.7707C14.5101 14.9291 14.5844 15.1315 14.583 15.3405C14.583 15.5405 14.5143 15.7347 14.3901 15.8863C14.1737 16.1508 13.952 16.4108 13.7251 16.6663H14.8255C14.8947 16.5838 14.9643 16.4997 15.0347 16.4143C15.2818 16.1112 15.4167 15.732 15.4163 15.3409C15.4163 14.4972 14.8005 13.7701 13.9559 13.6534C11.0326 13.2488 8.98926 13.2101 6.04967 13.6397C5.19634 13.7643 4.58301 14.5026 4.58301 15.3522C4.58301 15.7293 4.70592 16.1022 4.93884 16.4043C5.00759 16.4934 5.07551 16.5809 5.14301 16.6668H6.21676C6.00568 16.4141 5.79981 16.1571 5.59926 15.8959C5.48008 15.7396 5.41578 15.5483 5.41634 15.3518C5.41634 14.903 5.73884 14.5268 6.17009 14.4638ZM9.99967 10.4163C10.328 10.4163 10.6531 10.3517 10.9564 10.226C11.2597 10.1004 11.5353 9.91625 11.7674 9.68411C11.9996 9.45196 12.1837 9.17636 12.3094 8.87305C12.435 8.56974 12.4997 8.24465 12.4997 7.91634C12.4997 7.58804 12.435 7.26295 12.3094 6.95963C12.1837 6.65632 11.9996 6.38072 11.7674 6.14857C11.5353 5.91643 11.2597 5.73228 10.9564 5.60664C10.6531 5.48101 10.328 5.41634 9.99967 5.41634C9.33663 5.41634 8.70075 5.67973 8.23191 6.14857C7.76307 6.61742 7.49967 7.2533 7.49967 7.91634C7.49967 8.57938 7.76307 9.21527 8.23191 9.68411C8.70075 10.1529 9.33663 10.4163 9.99967 10.4163ZM9.99967 11.2497C10.8837 11.2497 11.7316 10.8985 12.3567 10.2734C12.9818 9.64824 13.333 8.8004 13.333 7.91634C13.333 7.03229 12.9818 6.18444 12.3567 5.55932C11.7316 4.9342 10.8837 4.58301 9.99967 4.58301C9.11562 4.58301 8.26777 4.9342 7.64265 5.55932C7.01753 6.18444 6.66634 7.03229 6.66634 7.91634C6.66634 8.8004 7.01753 9.64824 7.64265 10.2734C8.26777 10.8985 9.11562 11.2497 9.99967 11.2497Z" fill="#3772FF"/>
<path fill-rule="evenodd" clip-rule="evenodd" d="M9.99984 17.4998C14.1419 17.4998 17.4998 14.1419 17.4998 9.99984C17.4998 5.85775 14.1419 2.49984 9.99984 2.49984C5.85775 2.49984 2.49984 5.85775 2.49984 9.99984C2.49984 14.1419 5.85775 17.4998 9.99984 17.4998ZM9.99984 18.3332C14.6023 18.3332 18.3332 14.6023 18.3332 9.99984C18.3332 5.39734 14.6023 1.6665 9.99984 1.6665C5.39734 1.6665 1.6665 5.39734 1.6665 9.99984C1.6665 14.6023 5.39734 18.3332 9.99984 18.3332Z" fill="#3772FF"/>
</svg>
