<svg width="35" height="35" viewBox="0 0 35 35" fill="none" xmlns="http://www.w3.org/2000/svg">
<path fill-rule="evenodd" clip-rule="evenodd" d="M14.9372 11.8861L14.9601 11.7861C15.0039 11.6002 15.0756 11.3269 15.2235 11.0577C15.3743 10.7836 15.6081 10.5057 15.9747 10.3227C16.3401 10.1407 16.7981 10.0727 17.3643 10.1477C17.9893 10.2311 19.2447 10.4377 20.3539 11.0019C21.4693 11.5694 22.5143 12.5457 22.5143 14.1715C22.5143 15.0115 22.1893 15.9127 21.8743 16.5002C21.7231 16.7827 21.5435 17.0527 21.3635 17.1982C21.3222 17.2315 21.2635 17.2732 21.1906 17.3023C20.9906 17.9596 20.5924 18.5391 20.0505 18.9616C19.5087 19.384 18.8496 19.6288 18.1633 19.6625C17.4771 19.6961 16.7972 19.517 16.2166 19.1496C15.636 18.7822 15.1831 18.2444 14.9197 17.6098L14.9097 17.6115L14.7618 17.4319L15.0835 17.1669L14.7618 17.4319L14.7614 17.4311L14.7606 17.4302L14.7585 17.4273L14.7514 17.419C14.7157 17.3746 14.6814 17.3292 14.6485 17.2827C14.5585 17.1579 14.4737 17.0295 14.3943 16.8977C14.1985 16.5736 13.9622 16.1119 13.811 15.5732C13.6601 15.0344 13.591 14.4027 13.7493 13.7511C13.9035 13.1169 14.2672 12.4927 14.926 11.9352L14.9372 11.8861ZM15.6372 17.1519C15.8179 17.6716 16.165 18.1172 16.6246 18.4197C17.0841 18.7222 17.6306 18.8647 18.1794 18.8252C18.7282 18.7856 19.2487 18.5663 19.6601 18.201C20.0716 17.8358 20.3512 17.345 20.4556 16.8048L20.5026 16.8207C20.501 16.7971 20.5002 16.7735 20.5001 16.7498C20.5001 16.0602 20.4043 15.579 20.3151 15.279C20.2977 15.2206 20.2784 15.1628 20.2572 15.1057L20.2401 15.1065H20.2235C19.9119 15.1132 19.6004 15.0895 19.2935 15.0357C18.5781 14.9148 17.6093 14.6132 16.4685 13.9144C16.4435 13.9702 16.4185 14.0332 16.3935 14.1032C16.3118 14.3344 16.2447 14.609 16.1868 14.899C16.1356 15.1544 16.0935 15.4115 16.0535 15.6523L16.0381 15.7473C15.9951 16.0057 15.9522 16.2594 15.9022 16.4432C15.8147 16.7623 15.7256 16.989 15.6372 17.1515V17.1519ZM15.0539 16.3757C14.8657 16.0526 14.7179 15.7077 14.6139 15.3486C14.4893 14.9044 14.4435 14.4236 14.5593 13.9482C14.6718 13.4857 14.9439 12.9994 15.5035 12.5386C15.6043 12.4702 15.6501 12.3786 15.6626 12.354V12.3536C15.6845 12.3085 15.7021 12.2615 15.7151 12.2132C15.7285 12.1657 15.7431 12.1007 15.7568 12.0423L15.7714 11.9769C15.811 11.809 15.8622 11.6261 15.9539 11.459C16.0431 11.2973 16.1651 11.159 16.3468 11.0686C16.5293 10.9773 16.8118 10.9148 17.2543 10.974C17.8597 11.0544 18.9985 11.2473 19.976 11.7448C20.9468 12.2386 21.681 12.9861 21.681 14.1715C21.681 14.7173 21.4976 15.3382 21.2768 15.8277C21.2351 15.5086 21.1751 15.2477 21.1135 15.0411C21.0705 14.8934 21.0169 14.749 20.9531 14.609C20.929 14.5571 20.9026 14.5064 20.8739 14.4569L20.8668 14.4457L20.8643 14.4415L20.8631 14.4394L20.8622 14.4382L20.5122 14.6632L20.8622 14.4382L20.7081 14.199L20.4322 14.2544L20.4264 14.2557L20.386 14.2611C20.324 14.268 20.2617 14.2721 20.1993 14.2736C19.9424 14.2785 19.6856 14.2584 19.4326 14.2136C18.7606 14.1002 17.7731 13.7915 16.5735 12.9927L16.2818 12.7982L16.0406 13.0523C15.8418 13.2615 15.7068 13.5469 15.6081 13.8248C15.5072 14.1102 15.431 14.429 15.3697 14.7348C15.3189 14.9951 15.2728 15.2562 15.2314 15.5182L15.2156 15.6115C15.171 15.8827 15.1347 16.0898 15.0981 16.224C15.0844 16.2748 15.0697 16.3254 15.0539 16.3757ZM20.8376 16.5515L20.8393 16.5507L20.8376 16.5515ZM20.8393 16.5507L20.8376 16.5515L20.8389 16.5507H20.8393Z" fill="#4C956C"/>
<path fill-rule="evenodd" clip-rule="evenodd" d="M15.4642 20.0231C15.3758 19.8473 15.2671 19.6302 15.0833 19.6723C12.8317 20.1848 10.5 21.6644 10.5 23.2377V25.5002H25.5V23.2377C25.5 21.9985 24.0533 20.8173 22.3387 20.121L22.3367 20.1169C22.3348 20.1131 22.3328 20.1094 22.3308 20.1056L22.3171 20.1123C21.8617 19.929 21.3875 19.779 20.9167 19.6723C20.7071 19.6244 20.4904 19.9127 20.3958 20.0931H15.5C15.4883 20.0715 15.4767 20.0473 15.4642 20.0231ZM21.0846 20.5731C21.2667 20.6235 21.4479 20.6802 21.6267 20.7427C21.6317 20.8852 21.6208 21.0535 21.5975 21.2252C21.5737 21.4029 21.5358 21.5785 21.4842 21.7502H20.9167C20.8393 21.7502 20.7635 21.7718 20.6977 21.8125C20.6319 21.8532 20.5787 21.9114 20.5442 21.9806L20.1275 22.814C20.0985 22.8718 20.0834 22.9355 20.0833 23.0002V23.8335C20.0833 23.944 20.1272 24.05 20.2054 24.1282C20.2835 24.2063 20.3895 24.2502 20.5 24.2502H21.3333V23.4169H20.9167V23.0985L21.1742 22.5835H22.3258L22.5833 23.0985V23.4169H22.1667V24.2502H23C23.1105 24.2502 23.2165 24.2063 23.2946 24.1282C23.3728 24.05 23.4167 23.944 23.4167 23.8335V23.0002C23.4166 22.9355 23.4015 22.8718 23.3725 22.814L22.9558 21.9806C22.9213 21.9114 22.8681 21.8532 22.8023 21.8125C22.7365 21.7718 22.6607 21.7502 22.5833 21.7502H22.3475C22.399 21.5297 22.4335 21.3056 22.4508 21.0798C22.8571 21.2719 23.2346 21.4923 23.5617 21.7306C24.3625 22.3148 24.6667 22.8615 24.6667 23.2377V24.6669H11.3333V23.2377C11.3333 22.8615 11.6375 22.3148 12.4383 21.7306C12.8408 21.4369 13.3212 21.171 13.8362 20.951C13.8506 21.2831 13.9038 21.6123 13.995 21.9319L13.9983 21.9435C13.7492 22.1011 13.5638 22.3417 13.4749 22.6227C13.3859 22.9037 13.3992 23.2071 13.5122 23.4793C13.6253 23.7516 13.8309 23.9751 14.0928 24.1104C14.3546 24.2457 14.6559 24.2841 14.9433 24.2189C15.2308 24.1536 15.4859 23.9889 15.6637 23.7538C15.8415 23.5187 15.9304 23.2283 15.9149 22.934C15.8993 22.6396 15.7803 22.3602 15.5787 22.1451C15.3771 21.9301 15.1061 21.7931 14.8133 21.7585C14.7601 21.5842 14.7211 21.4058 14.6967 21.2252C14.6735 21.0637 14.6639 20.9004 14.6679 20.7373C14.6691 20.7061 14.6712 20.675 14.6742 20.644C14.7242 20.6285 14.7742 20.6135 14.8242 20.5994L14.9971 20.9269H20.8988L21.0846 20.5735V20.5731ZM14.6667 23.4235C14.8908 23.4235 15.0833 23.2402 15.0833 23.0006C15.0833 22.7615 14.8908 22.5777 14.6667 22.5777C14.4425 22.5777 14.25 22.761 14.25 23.0006C14.25 23.2398 14.4425 23.4235 14.6667 23.4235Z" fill="#4C956C"/>
<circle cx="17.5" cy="17.5" r="17" stroke="#4C956C"/>
</svg>
