<svg width="16" height="16" viewBox="0 0 16 16" fill="none" xmlns="http://www.w3.org/2000/svg">
<g clip-path="url(#clip0_32_8707)">
<path d="M3.78164 13.0215V15.0054H3.78167C3.78167 15.2454 3.61402 15.4469 3.38986 15.4985H3.2602V15.5111C2.98917 15.5024 2.77133 15.2789 2.77133 15.0054V0.998195C2.77133 0.81332 2.72052 0.640195 2.63239 0.491758L9.2697 0.506164C9.5457 0.506164 9.74602 0.713102 9.74602 0.998195V12.7608H10.2349V0.998195C10.2349 0.448164 9.81092 0.0172578 9.27024 0.0172578L1.76633 0.000976562C1.2233 0.00688281 0.783203 0.453289 0.783203 0.998195V7.25273H1.98911V6.76385H1.27208V0.998227C1.27208 0.719227 1.4987 0.492258 1.77727 0.492258C2.05583 0.492258 2.28242 0.719195 2.28242 0.998195V15.0054C2.28242 15.554 2.72839 16.0002 3.27648 16.0002C3.33086 16.0002 3.38427 15.9958 3.43627 15.9874H10.7705C11.3198 15.9874 11.7667 15.5469 11.7667 15.0054V13.0215H3.78164ZM11.2778 15.0054C11.2778 15.2819 11.055 15.4985 10.7705 15.4985H4.13964C4.22289 15.3531 4.27052 15.1847 4.27052 15.0054V13.5104H11.2778V15.0054H11.2778Z" fill="#667499"/>
<path d="M8.50743 1.77686H8.01855V2.26573H8.50743V1.77686Z" fill="#667499"/>
<path d="M6.25823 1.77686H3.52051V2.26573H6.25823V1.77686Z" fill="#667499"/>
<path d="M4.75901 2.75488H3.52051V3.24376H4.75901V2.75488Z" fill="#667499"/>
<path d="M8.76782 3.73242H3.52051V4.2213H8.76782V3.73242Z" fill="#667499"/>
<path d="M4.49826 4.77539H3.52051V5.26427H4.49826V4.77539Z" fill="#667499"/>
<path d="M7.00814 4.77539H5.02002V5.26427H7.00814V4.77539Z" fill="#667499"/>
<path d="M8.7678 4.77539H7.5293V5.26427H8.7678V4.77539Z" fill="#667499"/>
<path d="M8.76813 5.75293H5.5415V6.2418H8.76813V5.75293Z" fill="#667499"/>
<path d="M5.01976 5.75293H3.52051V6.2418H5.01976V5.75293Z" fill="#667499"/>
<path d="M8.76782 6.76367H3.52051V7.25255H8.76782V6.76367Z" fill="#667499"/>
<path d="M8.76779 7.77393H7.79004V8.2628H8.76779V7.77393Z" fill="#667499"/>
<path d="M7.26877 7.77393H6.03027V8.2628H7.26877V7.77393Z" fill="#667499"/>
<path d="M5.54123 7.77393H3.52051V8.2628H5.54123V7.77393Z" fill="#667499"/>
<path d="M6.74713 8.75146H3.52051V9.24034H6.74713V8.75146Z" fill="#667499"/>
<path d="M6.25814 11.7827H4.27002V12.2716H6.25814V11.7827Z" fill="#667499"/>
<path d="M8.76779 11.7827H6.74707V12.2716H8.76779V11.7827Z" fill="#667499"/>
<path d="M8.76768 10.0229H8.27881V10.5118H8.76768V10.0229Z" fill="#667499"/>
<path d="M12.2734 9.75488V15.2526H13.7691V9.75488H12.2734ZM13.2739 14.7575H12.7686V10.25H13.2739V14.7575Z" fill="#667499"/>
<path d="M13.0204 5.95605L11.9956 7.98074L12.2555 8.79027V9.46877H13.7547V8.79252L14.0304 7.98393L13.0204 5.95605ZM13.2658 8.71146V8.9799H12.7443V8.71371L12.5224 8.02243L13.0169 7.04555L13.5019 8.01924L13.2658 8.71146Z" fill="#667499"/>
<path d="M13.7872 15.498H12.2554V15.9869H13.7872V15.498Z" fill="#667499"/>
<path d="M13.2657 7.77393H12.7769V8.2628H13.2657V7.77393Z" fill="#667499"/>
<path d="M13.0216 0.750488C12.3334 0.750488 11.7734 1.31039 11.7734 1.99858C11.7734 2.6868 12.3334 3.24668 13.0216 3.24668C13.7098 3.24668 14.2697 2.68677 14.2697 1.99858C14.2697 1.31039 13.7098 0.750488 13.0216 0.750488ZM13.0216 2.75152C12.6064 2.75152 12.2686 2.41374 12.2686 1.99858C12.2686 1.58343 12.6064 1.24564 13.0216 1.24564C13.4367 1.24564 13.7745 1.58339 13.7745 1.99858C13.7745 2.41371 13.4367 2.75152 13.0216 2.75152Z" fill="#667499"/>
<path d="M13.2657 1.77686H12.7769V2.26573H13.2657V1.77686Z" fill="#667499"/>
<path d="M14.3041 3.52934C14.7412 3.16247 15.0198 2.61247 15.0198 1.99844C15.0198 0.8965 14.1233 0 13.0213 0C11.9194 0 11.0228 0.8965 11.0228 1.99847C11.0228 2.61247 11.3014 3.16247 11.7385 3.52938L10.8257 5.65937L11.8642 5.31319L12.225 6.39572L13.0213 4.80325L13.8175 6.39572L14.1784 5.31319L15.2169 5.65937L14.3041 3.52934ZM12.3168 5.10506L12.1774 4.68684L11.7152 4.84091L12.1605 3.80175C12.3793 3.90663 12.6202 3.97231 12.8739 3.99091L12.3168 5.10506ZM13.0213 3.50178C12.1924 3.50178 11.518 2.82737 11.518 1.99844C11.518 1.1695 12.1924 0.495125 13.0213 0.495125C13.8502 0.495125 14.5246 1.16953 14.5246 1.99844C14.5246 2.82741 13.8502 3.50178 13.0213 3.50178ZM13.8652 4.68684L13.7258 5.10506L13.2981 4.24962L13.4476 3.95072C13.5995 3.91756 13.7452 3.86741 13.8821 3.80178L14.3275 4.84094L13.8652 4.68684Z" fill="#667499"/>
</g>
<defs>
<clipPath id="clip0_32_8707">
<rect width="16" height="16" fill="white"/>
</clipPath>
</defs>
</svg>
