<svg width="24" height="24" viewBox="0 0 24 24" fill="none" xmlns="http://www.w3.org/2000/svg">
<g clip-path="url(#clip0_32_2479)">
<path d="M22.1296 9.48983L16.6923 1.52709C16.1663 0.756583 15.3682 0.23634 14.4456 0.062341C13.523 -0.112096 12.5904 0.0825022 11.8199 0.608881C11.0494 1.13526 10.5291 1.93294 10.3551 2.85553C10.1811 3.77811 10.3753 4.71078 10.9017 5.48129L16.339 13.444C16.865 14.2145 17.6631 14.7348 18.5857 14.9088C18.8061 14.9504 19.0275 14.971 19.2466 14.971C19.9448 14.971 20.625 14.7628 21.2114 14.3622C22.8077 13.2727 23.2196 11.0865 22.1296 9.48983ZM11.2164 3.01813C11.347 2.32564 11.7366 1.72694 12.3138 1.33293C12.7525 1.03314 13.2627 0.87755 13.786 0.87755C13.9508 0.87755 14.1174 0.892889 14.283 0.924008C14.9755 1.05462 15.5742 1.44425 15.9682 2.02147L18.1925 5.2788L13.8491 8.24467L11.6248 4.9869C11.2308 4.41012 11.0857 3.71062 11.2164 3.01813ZM20.717 13.6391C20.1394 14.0331 19.4394 14.1777 18.7478 14.048C18.0553 13.9174 17.4566 13.5277 17.0626 12.9505L14.344 8.96915L18.6873 6.00328L21.406 9.98466C22.2234 11.1816 21.9144 12.8212 20.717 13.6391Z" fill="#828282"/>
<path d="M18.3304 17.0115L12.357 16.3002L13.6907 14.7377C14.9459 13.2672 14.7706 11.0495 13.3002 9.79428C12.5906 9.18858 11.6842 8.89668 10.748 8.96943C9.81186 9.0435 8.9629 9.47521 8.35676 10.1848L2.09675 17.5186C1.49104 18.2286 1.19826 19.135 1.27189 20.0707C1.34596 21.0069 1.77767 21.8559 2.48726 22.462C3.12496 23.0064 3.92132 23.2983 4.75538 23.2983C4.84961 23.2983 4.94428 23.2943 5.03939 23.2869C5.73757 23.2316 6.38711 22.9774 6.92357 22.5571C7.24308 22.6996 7.5788 22.7938 7.92636 22.835L17.5011 23.975C17.6414 23.9916 17.7803 23.9999 17.9179 23.9999C19.6676 23.9999 21.1853 22.6873 21.397 20.9079C21.6262 18.9877 20.25 17.2399 18.3304 17.0115ZM9.02383 10.7541C9.47745 10.2225 10.1143 9.89903 10.8173 9.84337C10.8887 9.83767 10.9602 9.83461 11.0307 9.83461C11.6566 9.83461 12.2535 10.0533 12.7308 10.4609C13.834 11.4023 13.965 13.0656 13.0236 14.1684L10.4627 17.1684L6.46249 13.7537L9.02383 10.7541ZM3.05659 21.7949C1.95343 20.8535 1.82238 19.1907 2.76381 18.0879L5.8936 14.4212L9.89382 17.8359L6.76403 21.5026L6.76359 21.503C6.69873 21.5789 6.62992 21.649 6.55892 21.7156L6.55541 21.7191C5.59118 22.6176 4.08217 22.6702 3.05659 21.7949ZM7.59809 21.8751L11.6728 17.1014L13.4391 17.3117L12.8176 22.5343L8.03024 21.9641C7.88341 21.947 7.73922 21.9172 7.59809 21.8751ZM20.527 20.804C20.3557 22.2437 19.0469 23.2777 17.605 23.1045L13.6885 22.6382L14.31 17.4156L18.2269 17.8819C18.9212 17.9643 19.5435 18.315 19.9796 18.8685C20.4157 19.4221 20.6099 20.1097 20.527 20.804Z" fill="#828282"/>
</g>
<defs>
<clipPath id="clip0_32_2479">
<rect width="24" height="24" fill="white"/>
</clipPath>
</defs>
</svg>
