<svg width="16" height="16" viewBox="0 0 16 16" fill="none" xmlns="http://www.w3.org/2000/svg">
<path d="M7.954 1.37179C8.03656 1.26849 8.13879 1.18258 8.25477 1.11905C8.37076 1.05552 8.49819 1.01562 8.62969 1.00167C8.7612 0.987723 8.89416 0.999995 9.0209 1.03778C9.14763 1.07556 9.2656 1.13811 9.368 1.22179L12.63 3.88579C12.8094 4.03226 12.9324 4.23646 12.978 4.46352C13.0236 4.69058 12.9889 4.92642 12.88 5.13079C12.5948 5.04363 12.2982 4.99948 12 4.99979H11.7L11.998 4.65979L10.28 3.25679L8.863 5.00079H7.574L9.505 2.62479L8.735 1.99579L6.337 4.99979H5.057L7.954 1.37179ZM10.5 9.99979C10.3674 9.99979 10.2402 10.0525 10.1464 10.1462C10.0527 10.24 10 10.3672 10 10.4998C10 10.6324 10.0527 10.7596 10.1464 10.8533C10.2402 10.9471 10.3674 10.9998 10.5 10.9998H11.5C11.6326 10.9998 11.7598 10.9471 11.8536 10.8533C11.9473 10.7596 12 10.6324 12 10.4998C12 10.3672 11.9473 10.24 11.8536 10.1462C11.7598 10.0525 11.6326 9.99979 11.5 9.99979H10.5ZM3 5.49979C3 5.36718 3.05268 5.24001 3.14645 5.14624C3.24021 5.05247 3.36739 4.99979 3.5 4.99979H4.058L4.853 3.99979H3.5C3.10218 3.99979 2.72064 4.15783 2.43934 4.43913C2.15804 4.72044 2 5.10197 2 5.49979V11.4998C2 12.1628 2.26339 12.7987 2.73223 13.2676C3.20107 13.7364 3.83696 13.9998 4.5 13.9998H12C12.5304 13.9998 13.0391 13.7891 13.4142 13.414C13.7893 13.0389 14 12.5302 14 11.9998V7.99979C14 7.46936 13.7893 6.96065 13.4142 6.58558C13.0391 6.21051 12.5304 5.99979 12 5.99979H3.5C3.36739 5.99979 3.24021 5.94711 3.14645 5.85334C3.05268 5.75958 3 5.6324 3 5.49979ZM3 11.4998V6.91479C3.156 6.96979 3.325 6.99979 3.5 6.99979H12C12.2652 6.99979 12.5196 7.10515 12.7071 7.29269C12.8946 7.48022 13 7.73458 13 7.99979V11.9998C13 12.265 12.8946 12.5194 12.7071 12.7069C12.5196 12.8944 12.2652 12.9998 12 12.9998H4.5C4.10218 12.9998 3.72064 12.8418 3.43934 12.5605C3.15804 12.2791 3 11.8976 3 11.4998Z" fill="#9B51E0"/>
</svg>
