<svg width="136" height="114" viewBox="0 0 136 114" fill="none" xmlns="http://www.w3.org/2000/svg">
<rect width="136" height="114" fill="white"/>
<path d="M16.4668 81.4918C14.8756 80.8078 13.0042 80.7144 11.2416 80.9583C10.2924 81.0906 9.305 81.3277 8.66036 81.925C8.01572 82.5224 7.8906 83.5712 8.63316 84.0842C9.0738 84.3897 9.68852 84.4353 10.2652 84.4308C11.6469 84.4171 13.1783 84.2142 14.2826 84.9096C14.9136 85.3086 15.3325 85.9675 16.0832 86.1636C16.834 86.3596 17.6527 85.9903 18.0416 85.434C18.4014 84.8542 18.4812 84.1807 18.2647 83.553C18.1746 83.1165 17.9655 82.7034 17.6537 82.3459C17.3418 81.9884 16.9356 81.6961 16.4668 81.4918Z" fill="#EBEBEB"/>
<path d="M20.106 75.598C19.135 76.7631 17.2446 76.3778 16.3687 75.6664C15.4929 74.9551 15.123 73.9268 14.7884 72.9464C14.0186 70.7029 13.2407 68.3499 13.8146 66.0676C13.9525 65.3757 14.3148 64.7289 14.8618 64.198C15.1389 63.9359 15.4934 63.7396 15.8897 63.6287C16.286 63.5179 16.7101 63.4964 17.1194 63.5665C18.0714 63.7785 18.6644 64.5606 19.0914 65.3038C20.3511 67.4998 21.0117 69.9033 21.0254 72.3399C21.0254 73.4799 20.8703 74.6632 20.106 75.598Z" fill="#EBEBEB"/>
<path d="M22.7743 77.2693C21.7189 76.2182 21.5203 74.6883 21.9882 73.3727C22.456 72.0572 23.5195 70.9377 24.7517 70.0257C26.1906 68.952 27.8657 68.1241 29.6831 67.5884C30.3859 67.3493 31.1423 67.2412 31.8999 67.2715C32.2781 67.2904 32.6451 67.3862 32.9693 67.5507C33.2934 67.7151 33.5649 67.9433 33.7603 68.2154C34.2771 69.0453 33.7821 70.0508 33.2435 70.8716C32.2919 72.3214 31.2051 73.7058 29.9931 75.0121C29.0248 76.0609 27.9123 77.096 26.4327 77.5702C24.953 78.0445 23.4189 77.9875 22.6247 77.1279" fill="#EBEBEB"/>
<path d="M20.1716 93.1494C20.1221 92.9759 20.0929 92.7987 20.0845 92.6205C20.041 92.2359 19.9848 91.7548 19.9159 91.1772C19.8312 90.4668 19.7022 89.7606 19.5297 89.0614C19.3036 88.2101 18.9971 87.3753 18.613 86.5648C18.2344 85.7547 17.7216 84.9933 17.0898 84.303C16.576 83.7422 15.9189 83.2849 15.1668 82.9647C14.6532 82.7514 14.1022 82.6082 13.5348 82.5406C13.3238 82.533 13.1142 82.5078 12.9092 82.4653C13.1216 82.4451 13.336 82.4451 13.5484 82.4653C14.1333 82.5027 14.7054 82.6278 15.2375 82.8347C16.0296 83.1477 16.7242 83.6105 17.2666 84.1867C17.9245 84.8861 18.4561 85.6628 18.8442 86.4918C19.2333 87.3145 19.5381 88.1635 19.7554 89.0295C19.9181 89.7376 20.0298 90.4533 20.09 91.1727C20.1444 91.786 20.1661 92.283 20.1743 92.625C20.1976 92.7993 20.1967 92.9753 20.1716 93.1494Z" fill="#E0E0E0"/>
<path d="M20.0543 92.0391C20.0348 91.9588 20.0293 91.8767 20.0379 91.7951V91.0929C20.0379 90.4841 20.0379 89.6017 20.0026 88.5142C19.9373 86.3391 19.7143 83.9975 19.2818 80.6961C18.8738 77.5907 18.3243 73.9792 17.745 71.6308C17.6226 71.095 17.4975 70.6162 17.3778 70.1944C17.2581 69.7726 17.1711 69.4078 17.0786 69.1137L16.8827 68.4297C16.8553 68.3509 16.838 68.2699 16.8311 68.188C16.8755 68.2605 16.9102 68.337 16.9344 68.416L17.1765 69.1C17.2853 69.3918 17.3941 69.7521 17.5192 70.1716C17.6443 70.5911 17.7912 71.0722 17.9245 71.6057C18.6427 74.383 19.182 77.1907 19.5402 80.0166C19.9727 83.3249 20.1685 86.3368 20.1848 88.5187C20.2011 89.6086 20.1848 90.4932 20.1413 91.102C20.1195 91.387 20.1032 91.6196 20.0896 91.802C20.0873 91.8818 20.0754 91.9612 20.0543 92.0391Z" fill="#E0E0E0"/>
<path d="M20.0356 86.2297C20.0142 85.986 20.0142 85.7414 20.0356 85.4978C20.0863 84.8324 20.1771 84.1696 20.3076 83.5119C20.4997 82.5362 20.7567 81.5703 21.0774 80.6186C21.4544 79.4495 21.9373 78.3062 22.5217 77.1986C23.523 75.1549 24.9589 73.2807 26.7594 71.6673C27.0726 71.3919 27.4051 71.1323 27.755 70.8898C27.91 70.7827 28.0433 70.6618 28.182 70.5889L28.5682 70.3609C28.8003 70.2123 29.0469 70.0804 29.3054 69.9664C29.3462 70.012 28.2609 70.5478 26.8927 71.7699C25.1501 73.3994 23.7536 75.2671 22.7638 77.2921C22.189 78.3935 21.7037 79.5262 21.3113 80.6824C20.9332 81.7472 20.683 82.723 20.4953 83.5461C20.3076 84.3692 20.2233 85.0464 20.1471 85.5138C20.1334 85.7545 20.0961 85.994 20.0356 86.2297Z" fill="#E0E0E0"/>
<path d="M27.771 95.785L27.0366 104.207H14.1275L13.3931 95.785H27.771Z" fill="#E0E0E0"/>
<path d="M29.0167 92.4655H11.8535V95.7851H29.0167V92.4655Z" fill="#E0E0E0"/>
<path d="M29.017 103.886V104.807H28.2119H12.1367V103.886H29.017Z" fill="#EBEBEB"/>
<path d="M27.521 106.426L28.3125 104.807H12.8521L13.7741 106.426H27.521Z" fill="#EBEBEB"/>
<path d="M13.6323 98.537C13.6484 98.5648 13.6685 98.5908 13.6922 98.6145L13.8853 98.8288L14.6387 99.636L14.6714 99.6724L14.704 99.6337L16.5509 97.4928H16.4448L18.2645 99.6519L18.3216 99.7203L18.3842 99.6565L20.5411 97.5042H20.4187L20.5357 97.6296L22.4669 99.6565L22.5294 99.7249L22.5893 99.6542L24.409 97.495H24.3029L26.5442 99.636L26.585 99.6747L26.6149 99.6314L27.3166 98.6442L27.4962 98.3797C27.5196 98.3505 27.5388 98.3192 27.5533 98.2862C27.5533 98.2862 27.5234 98.3136 27.4771 98.3683L27.2786 98.6236L26.5414 99.5926H26.6122C26.0355 99.0295 25.2875 98.293 24.4062 97.4266L24.3491 97.3719L24.3002 97.4312L22.4642 99.579H22.5757L20.6717 97.5429L20.552 97.4198L20.4813 97.356L20.4187 97.4198L18.2672 99.5767H18.3896L16.5509 97.4289L16.4965 97.3651L16.4448 97.4289L14.636 99.5949H14.7013L13.9206 98.8083L13.7112 98.6054C13.6622 98.5575 13.635 98.5347 13.6323 98.537Z" fill="#F5F5F5"/>
<path d="M13.2139 95.7281C13.2139 95.7669 16.4479 95.7965 20.4382 95.7965C24.4284 95.7965 27.6625 95.7669 27.6625 95.7281C27.6625 95.6893 24.4284 95.662 20.4382 95.662C16.4479 95.662 13.2139 95.6916 13.2139 95.7281Z" fill="#F5F5F5"/>
<path d="M12.561 104.896C12.561 104.935 16.078 104.964 20.4137 104.964C24.7494 104.964 28.2663 104.935 28.2663 104.896C28.2663 104.857 24.7494 104.83 20.4137 104.83C16.078 104.83 12.561 104.859 12.561 104.896Z" fill="#E0E0E0"/>
<path d="M122.569 11.6917H81.4204V61.6852H122.569V11.6917Z" fill="#E0E0E0"/>
<path d="M120.507 11.6917H79.3584V61.6852H120.507V11.6917Z" fill="#F5F5F5"/>
<path d="M115.393 17.1068H84.4697V56.2704H115.393V17.1068Z" fill="white"/>
<path d="M115.393 56.2704C115.393 56.2704 115.393 56.2043 115.393 56.0789C115.393 55.9535 115.393 55.7665 115.393 55.5248C115.393 55.0324 115.393 54.3119 115.38 53.3748C115.38 51.4984 115.363 48.7646 115.352 45.3082C115.339 38.402 115.322 28.6231 115.301 17.1068L115.404 17.1935H84.4857L84.5918 17.1C84.5918 31.8744 84.5755 45.4974 84.5673 56.2636L84.4776 56.1883L106.986 56.2294L113.206 56.2476H114.838H115.401C115.401 56.2476 115.219 56.2476 114.857 56.2476H113.244L107.045 56.2681L84.4694 56.3069H84.3824V56.2316C84.3824 45.4655 84.3661 31.8356 84.3579 17.0681V16.9746H84.4749H115.393H115.496V17.1C115.475 28.6391 115.458 38.4385 115.445 45.3583C115.445 48.8057 115.423 51.5326 115.418 53.4067C115.418 54.3347 115.418 55.0483 115.418 55.5362C115.418 55.7734 115.418 55.9558 115.418 56.0834C115.399 56.2111 115.393 56.2704 115.393 56.2704Z" fill="#E0E0E0"/>
<path d="M120.621 11.6917C120.409 12.0078 120.163 12.307 119.886 12.5854C119.41 13.1212 118.73 13.8508 117.958 14.6374C117.185 15.424 116.459 16.124 115.923 16.621C115.65 16.9013 115.347 17.16 115.018 17.3939C115.25 17.0895 115.513 16.8019 115.804 16.5344L117.776 14.5189L119.756 12.5033C120.016 12.2127 120.306 11.9412 120.621 11.6917Z" fill="#E0E0E0"/>
<path d="M115.551 56.145C117.089 58.194 118.898 60.0909 120.945 61.7994L115.551 56.145Z" fill="white"/>
<path d="M120.945 61.7994C120.602 61.5879 120.287 61.3472 120.003 61.0812C119.287 60.4697 118.608 59.8282 117.969 59.1592C117.33 58.4894 116.732 57.7923 116.179 57.0707C115.933 56.7807 115.722 56.4706 115.551 56.145C115.829 56.4131 116.082 56.6981 116.31 56.9977C116.764 57.5313 117.398 58.2609 118.143 59.0497C118.888 59.8386 119.598 60.5112 120.12 60.9991C120.417 61.2491 120.693 61.5166 120.945 61.7994Z" fill="#E0E0E0"/>
<path d="M79.353 61.6466L84.7413 56.072L79.353 61.6466Z" fill="white"/>
<path d="M84.7417 56.072C84.7907 56.1039 83.6238 57.3785 82.1359 58.9175C80.6481 60.4565 79.3996 61.6785 79.3534 61.6535C79.3071 61.6284 80.4713 60.347 81.9619 58.8057C83.4524 57.2645 84.6955 56.0401 84.7417 56.072Z" fill="#E0E0E0"/>
<path d="M79.3585 11.6917C79.4075 11.6598 80.5771 12.8317 81.9751 14.3137C83.3732 15.7957 84.4639 17.02 84.4231 17.0497C84.3823 17.0793 83.2046 15.9097 81.8065 14.4277C80.4084 12.9457 79.3095 11.7236 79.3585 11.6917Z" fill="#E0E0E0"/>
<path d="M84.5918 23.0053C86.7379 21.065 90.7852 20.1895 93.6902 21.22C95.1367 21.7593 96.3579 22.6487 97.1969 23.7741C98.0359 24.8995 98.4543 26.2094 98.3985 27.5356C101.344 27.9437 103.613 30.1713 104.298 32.6063C104.984 35.0414 104.315 37.6223 103.145 39.9251C102.666 40.8645 102.103 41.7856 101.877 42.7888C101.652 43.792 101.831 44.9229 102.674 45.6593C103.681 46.5349 105.288 46.6169 106.629 47.0775C108.593 47.7615 110.002 49.2754 110.783 50.9307C111.563 52.586 111.803 54.3758 112.031 56.1451H84.7414L84.5918 23.0053Z" fill="#EBEBEB"/>
<path d="M86.1505 51.2498C86.1206 51.2293 92.1155 45.6022 99.5383 38.687C106.961 31.7718 113.005 26.1789 113.035 26.2017C113.065 26.2245 107.07 31.847 99.6444 38.76C92.2188 45.6729 86.1804 51.2726 86.1505 51.2498Z" fill="#FAFAFA"/>
<path d="M110.179 24.8634C110.206 24.884 106.431 28.4111 101.747 32.7363C97.0629 37.0614 93.2386 40.5544 93.2087 40.5316C93.1788 40.5088 96.9541 36.9839 101.641 32.6565C106.327 28.329 110.16 24.852 110.179 24.8634Z" fill="#FAFAFA"/>
<path d="M108.449 35.5133C108.407 35.5621 108.358 35.6072 108.305 35.6478L107.875 36.024L106.287 37.3647C104.946 38.5047 103.113 40.0756 101.138 41.8608C99.1631 43.6461 97.4223 45.2968 96.1765 46.5029L94.7023 47.9325L94.2997 48.3201C94.2545 48.3663 94.2054 48.4097 94.1528 48.45C94.1907 48.3991 94.2325 48.3504 94.2779 48.3041L94.6615 47.9028C94.996 47.5563 95.4775 47.0569 96.1004 46.4482C97.3271 45.2284 99.0597 43.5663 101.034 41.781C103.009 39.9958 104.856 38.4226 106.216 37.3054C106.893 36.7445 107.448 36.2976 107.848 35.9921L108.297 35.641C108.344 35.5956 108.395 35.5529 108.449 35.5133Z" fill="#FAFAFA"/>
<path d="M33.6542 14.4165H32.8382V13.1214C32.8445 13.0265 32.8283 12.9314 32.7906 12.8417C32.753 12.752 32.6946 12.6695 32.6188 12.5987C32.543 12.528 32.4513 12.4705 32.3489 12.4295C32.2465 12.3885 32.1355 12.3649 32.0222 12.3599H25.8397C25.7264 12.3649 25.6154 12.3885 25.513 12.4295C25.4107 12.4705 25.319 12.528 25.2431 12.5987C25.1673 12.6695 25.1089 12.752 25.0713 12.8417C25.0336 12.9314 25.0174 13.0265 25.0237 13.1214V14.4165H24.2077V13.1214C24.2015 12.9367 24.2389 12.7527 24.3176 12.5801C24.3963 12.4074 24.5148 12.2494 24.6663 12.1152C24.8179 11.9809 24.9995 11.8731 25.2009 11.7977C25.4022 11.7223 25.6193 11.6809 25.8397 11.6759H32.0467C32.2671 11.6809 32.4842 11.7223 32.6855 11.7977C32.8869 11.8731 33.0685 11.9809 33.2201 12.1152C33.3716 12.2494 33.4901 12.4074 33.5688 12.5801C33.6475 12.7527 33.6849 12.9367 33.6787 13.1214L33.6542 14.4165Z" fill="#EBEBEB"/>
<path d="M42.448 14.4165H15.2861C13.9146 14.4165 12.8027 15.3485 12.8027 16.4981V30.3423C12.8027 31.492 13.9146 32.4239 15.2861 32.4239H42.448C43.8195 32.4239 44.9314 31.492 44.9314 30.3423V16.4981C44.9314 15.3485 43.8195 14.4165 42.448 14.4165Z" fill="#EBEBEB"/>
<path d="M29.8926 19.7836H27.9668V27.0203H29.8926V19.7836Z" fill="#F5F5F5"/>
<path d="M24.6133 22.5949V24.2091H33.2466V22.5949H24.6133Z" fill="#F5F5F5"/>
<path d="M36.0999 23.4201C36.0931 23.3877 36.0886 23.355 36.0862 23.3221C36.0862 23.2514 36.0863 23.1579 36.0618 23.0371C36.0618 22.9733 36.0563 22.9026 36.0455 22.8251C36.0455 22.7475 36.0155 22.6655 35.9992 22.5743C35.9665 22.364 35.9155 22.1559 35.8469 21.9518C35.6782 21.389 35.4086 20.8508 35.0472 20.3558C34.5231 19.6305 33.822 19.0061 32.99 18.5236C32.158 18.0411 31.2138 17.7114 30.2192 17.556C28.9658 17.3637 27.6738 17.455 26.4765 17.8205C25.8275 18.0096 25.2187 18.2843 24.6731 18.6344C24.3862 18.8105 24.1135 19.0024 23.8571 19.209C23.6065 19.4239 23.373 19.6524 23.1581 19.893C22.7173 20.3923 22.3739 20.9472 22.1408 21.5369C21.6517 22.7597 21.6517 24.0829 22.1408 25.3057C22.3717 25.8961 22.7152 26.4513 23.1581 26.9496C23.3723 27.1906 23.6059 27.4191 23.8571 27.6336C24.1129 27.8414 24.3856 28.0342 24.6731 28.2104C25.2204 28.5583 25.8288 28.8328 26.4765 29.0244C27.675 29.3893 28.9678 29.4798 30.2219 29.2866C31.217 29.129 32.1611 28.7972 32.9926 28.3127C33.8241 27.8283 34.5242 27.2022 35.0472 26.4753C35.4084 25.9803 35.6781 25.4421 35.8469 24.8793C35.9155 24.676 35.9664 24.4687 35.9992 24.2592C36.0155 24.168 36.0373 24.0836 36.0455 24.0061C36.0536 23.9286 36.0455 23.8602 36.0618 23.7963C36.0618 23.6755 36.0808 23.582 36.0862 23.5113C36.0883 23.4784 36.0929 23.4457 36.0999 23.4133C36.1047 23.4458 36.1047 23.4788 36.0999 23.5113C36.0999 23.582 36.0999 23.6778 36.0999 23.7986C36.0999 23.8625 36.0999 23.9331 36.0999 24.0107C36.0999 24.0882 36.0754 24.1725 36.0591 24.2637C36.0328 24.4755 35.9864 24.6852 35.9203 24.8907C35.7603 25.4617 35.496 26.0085 35.137 26.5118C34.6142 27.2543 33.9089 27.895 33.0681 28.3915C32.2273 28.888 31.2701 29.2288 30.26 29.3915C28.986 29.5918 27.6712 29.5028 26.452 29.1338C25.7899 28.9423 25.1683 28.6637 24.6106 28.3085C24.3232 28.1279 24.0506 27.9314 23.7946 27.7202C23.5368 27.4997 23.2977 27.2642 23.0792 27.0157C22.6277 26.5055 22.276 25.9383 22.0374 25.3353C21.537 24.0875 21.537 22.7368 22.0374 21.489C22.2753 20.8865 22.627 20.3199 23.0792 19.8109C23.2985 19.5621 23.5375 19.326 23.7946 19.1041C24.0505 18.8936 24.3231 18.6978 24.6106 18.5181C25.1691 18.1634 25.7904 17.8841 26.452 17.6905C27.6717 17.3234 28.9862 17.2352 30.26 17.4351C31.2701 17.5978 32.2273 17.9386 33.0681 18.4351C33.9089 18.9316 34.6142 19.5723 35.137 20.3148C35.4958 20.8174 35.76 21.3634 35.9203 21.9336C35.9865 22.1399 36.0328 22.3503 36.0591 22.5629C36.0754 22.6541 36.0917 22.7384 36.0999 22.8159C36.108 22.8935 36.0999 22.9641 36.0999 23.028C36.0999 23.1488 36.0999 23.256 36.0999 23.3153C36.1053 23.3501 36.1053 23.3853 36.0999 23.4201Z" fill="#F5F5F5"/>
<path d="M54.5466 15.732V13.0188H52.2591V15.732H49.9634V31.3067H56.6818V15.732H54.5466Z" fill="#EBEBEB"/>
<path d="M64.5265 31.3158H9.10107V33.687H64.5265V31.3158Z" fill="#E0E0E0"/>
<path d="M21.5475 33.687H19.9346V39.2913H21.5475V33.687Z" fill="#E0E0E0"/>
<path d="M53.8205 33.687H52.2075V39.2913H53.8205V33.687Z" fill="#E0E0E0"/>
<path d="M42.0459 19.9317V17.9413H40.3731V19.9317H38.6948V31.3158H43.6071V19.9317H42.0459Z" fill="#FAFAFA"/>
<path d="M47.6215 19.9317V17.9413H45.9487V19.9317H44.2705V31.3158H49.1801V19.9317H47.6215Z" fill="#F5F5F5"/>
<path d="M19.9345 23.9196H11.1108V31.3159H19.9345V23.9196Z" fill="#E0E0E0"/>
<path d="M19.891 25.8187C19.891 25.8666 17.9435 25.9054 15.539 25.9054C13.1345 25.9054 11.187 25.8666 11.187 25.8187C11.187 25.7709 13.1345 25.7344 15.539 25.7344C17.9435 25.7344 19.891 25.764 19.891 25.8187Z" fill="#EBEBEB"/>
<path d="M15.8576 26.7945C15.8576 26.7945 15.8903 26.7945 15.9474 26.7945C16.0312 26.8142 16.1103 26.8459 16.1813 26.888C16.4434 27.0541 16.6172 27.2997 16.6655 27.572C16.7758 27.9687 16.6947 28.3858 16.4397 28.7325C16.2807 28.9461 16.0371 29.1059 15.7516 29.184C15.3082 29.2805 14.8376 29.2304 14.437 29.0441C14.0365 28.8578 13.7368 28.5495 13.6 28.1831C13.5468 27.9824 13.5569 27.7736 13.6294 27.5773C13.7019 27.381 13.8343 27.2039 14.0135 27.0636C14.2557 26.8813 14.5667 26.7763 14.892 26.7672C15.0091 26.7538 15.1283 26.7697 15.2348 26.8128C15.2348 26.8287 15.1096 26.8128 14.8975 26.8333C14.6022 26.8663 14.3275 26.9782 14.1141 27.1525C13.9626 27.2814 13.8528 27.4405 13.7952 27.6149C13.7376 27.7892 13.7341 27.973 13.785 28.1489C13.9174 28.4656 14.1857 28.7298 14.5376 28.8899C14.8896 29.05 15.2999 29.0947 15.689 29.0153C15.9282 28.9537 16.1353 28.8259 16.2765 28.6527C16.5116 28.3402 16.598 27.9651 16.5186 27.6017C16.4848 27.3533 16.347 27.123 16.1296 26.9519C15.9719 26.8401 15.8495 26.8128 15.8576 26.7945Z" fill="#EBEBEB"/>
<path d="M116.741 102.928L121.773 102.886L121.802 105.394C121.806 105.663 121.681 105.922 121.456 106.114C121.232 106.306 120.925 106.416 120.604 106.418L117.99 106.44C117.669 106.443 117.36 106.339 117.131 106.15C116.902 105.962 116.771 105.705 116.768 105.436L116.738 102.928L116.741 102.928Z" fill="#EBEBEB"/>
<path d="M121.856 105.279C121.019 105.349 120.178 105.378 119.337 105.366C118.497 105.395 117.654 105.379 116.816 105.32C117.653 105.25 118.494 105.222 119.335 105.236C120.175 105.205 121.018 105.22 121.856 105.279Z" fill="#E0E0E0"/>
<path d="M118.396 105.279C118.393 105.213 118.406 105.148 118.434 105.086C118.462 105.025 118.504 104.968 118.558 104.92C118.612 104.873 118.676 104.834 118.748 104.807C118.819 104.78 118.897 104.766 118.975 104.764H119.982C120.06 104.764 120.138 104.778 120.21 104.804C120.282 104.83 120.347 104.867 120.402 104.914C120.457 104.961 120.5 105.017 120.529 105.078C120.558 105.139 120.573 105.204 120.572 105.27L118.396 105.279Z" fill="#E0E0E0"/>
<path d="M114.272 83.0445L115.646 102.112C115.666 102.516 115.869 102.898 116.215 103.18C116.56 103.461 117.022 103.621 117.504 103.626L121.165 103.596C121.635 103.585 122.083 103.427 122.421 103.153C122.759 102.878 122.962 102.508 122.99 102.114L124.772 82.9624L114.272 83.0445Z" fill="#E0E0E0"/>
<path d="M124.638 84.5288C124.638 84.5653 122.345 84.6132 119.517 84.6382C116.688 84.6633 114.392 84.6519 114.392 84.6154C114.392 84.579 116.685 84.5311 119.514 84.5083C122.343 84.4855 124.638 84.4946 124.638 84.5288Z" fill="#EBEBEB"/>
<path d="M115.208 84.6268C115.128 84.3673 115.099 84.0986 115.121 83.8311C115.092 83.5645 115.115 83.2958 115.189 83.0354C115.299 83.563 115.306 84.1021 115.208 84.6314V84.6268Z" fill="#EBEBEB"/>
<path d="M116.041 84.62C115.961 84.3604 115.931 84.0917 115.954 83.8243C115.924 83.5577 115.947 83.2889 116.022 83.0286C116.132 83.5561 116.138 84.0953 116.041 84.6246V84.62Z" fill="#EBEBEB"/>
<path d="M116.873 84.6132C116.794 84.3534 116.765 84.0849 116.786 83.8174C116.758 83.5509 116.781 83.2823 116.854 83.0217C116.964 83.5493 116.97 84.0884 116.873 84.6177V84.6132Z" fill="#EBEBEB"/>
<path d="M117.708 84.6039C117.598 84.0764 117.591 83.5372 117.689 83.0079C117.8 83.5355 117.806 84.0747 117.708 84.6039Z" fill="#EBEBEB"/>
<path d="M118.54 84.5881C118.43 84.0605 118.423 83.5214 118.521 82.9921C118.632 83.5196 118.638 84.0588 118.54 84.5881Z" fill="#EBEBEB"/>
<path d="M119.375 84.5881C119.265 84.0605 119.259 83.5214 119.356 82.9921C119.435 83.2519 119.464 83.5204 119.443 83.7878C119.472 84.0559 119.449 84.326 119.375 84.5881Z" fill="#EBEBEB"/>
<path d="M120.207 84.5881C120.097 84.0605 120.091 83.5214 120.188 82.9921C120.268 83.2516 120.298 83.5203 120.275 83.7878C120.305 84.0559 120.282 84.3262 120.207 84.5881Z" fill="#EBEBEB"/>
<path d="M121.04 84.5881C120.93 84.0605 120.923 83.5214 121.021 82.9921C121.101 83.2516 121.13 83.5203 121.108 83.7878C121.138 84.0559 121.115 84.3262 121.04 84.5881Z" fill="#EBEBEB"/>
<path d="M121.875 84.5698C121.765 84.0422 121.758 83.5031 121.856 82.9738C121.966 83.5013 121.973 84.0405 121.875 84.5698Z" fill="#EBEBEB"/>
<path d="M122.707 84.5629C122.597 84.0354 122.591 83.4962 122.688 82.9669C122.799 83.4945 122.805 84.0336 122.707 84.5629Z" fill="#EBEBEB"/>
<path d="M123.542 84.556C123.462 84.2965 123.433 84.0278 123.455 83.7603C123.426 83.4937 123.449 83.225 123.523 82.9646C123.633 83.4922 123.64 84.0313 123.542 84.5606V84.556Z" fill="#EBEBEB"/>
<path d="M124.375 84.5492C124.295 84.2896 124.265 84.0209 124.288 83.7535C124.258 83.4869 124.281 83.2181 124.356 82.9578C124.466 83.4853 124.472 84.0245 124.375 84.5538V84.5492Z" fill="#EBEBEB"/>
<path d="M118.91 92.0025L118.897 90.8945L120.205 90.8831L120.219 91.9205L121.285 91.9113L121.298 93.0012L120.118 93.0126L120.129 93.9611L119.035 93.9702L119.022 92.951L117.735 92.9624L117.722 91.9957L118.91 92.0025Z" fill="white"/>
<path d="M122.229 92.4062C122.21 92.4062 122.229 92.1987 122.109 91.843C121.952 91.3421 121.605 90.8978 121.119 90.5776C120.787 90.3588 120.397 90.211 119.982 90.1467C119.506 90.0743 119.016 90.1162 118.568 90.2675C118.072 90.4353 117.648 90.7245 117.352 91.0975C117.032 91.4975 116.865 91.969 116.871 92.4503C116.876 92.9316 117.056 93.4002 117.384 93.7947C117.689 94.1631 118.119 94.4454 118.619 94.6041C119.071 94.7484 119.562 94.7824 120.036 94.7021C120.45 94.6286 120.837 94.4721 121.162 94.2461C121.641 93.9187 121.979 93.4685 122.123 92.9648C122.223 92.6068 122.21 92.3993 122.229 92.4016C122.236 92.4508 122.236 92.5006 122.229 92.5498C122.228 92.6931 122.21 92.836 122.174 92.9762C122.046 93.4996 121.712 93.9717 121.225 94.3168C120.888 94.5559 120.487 94.7226 120.055 94.8025C119.557 94.8918 119.038 94.8602 118.559 94.7113C118.031 94.5466 117.574 94.2507 117.251 93.8631C116.904 93.4479 116.714 92.9541 116.709 92.4469C116.703 91.9397 116.881 91.443 117.218 91.0222C117.531 90.6286 117.98 90.3247 118.505 90.1513C118.947 90.0043 119.428 89.9592 119.899 90.0205C120.369 90.0818 120.811 90.2474 121.179 90.5001C121.674 90.8376 122.02 91.305 122.161 91.8271C122.201 91.9661 122.222 92.1082 122.226 92.2511C122.233 92.3026 122.234 92.3546 122.229 92.4062Z" fill="white"/>
<path d="M105.457 96.0587C105.457 98.8084 105.457 103.25 105.457 105.288C105.457 105.577 105.594 105.855 105.838 106.06C106.081 106.264 106.412 106.38 106.757 106.38L115.717 106.396C116.062 106.397 116.393 106.283 116.638 106.079C116.883 105.875 117.021 105.598 117.022 105.309L117.047 96.159C117.048 95.8409 116.974 95.5256 116.83 95.2314C116.686 94.9371 116.473 94.6696 116.206 94.4441C115.938 94.2185 115.62 94.0395 115.269 93.9171C114.919 93.7947 114.543 93.7314 114.164 93.7308V92.3856L108.297 92.3719V93.6465H108.256C107.507 93.666 106.797 93.9284 106.275 94.3784C105.753 94.8285 105.459 95.4309 105.457 96.0587Z" fill="#F5F5F5"/>
<path d="M108.289 92.5452V93.1562L114.156 93.3432L114.158 92.5566L108.289 92.5452Z" fill="#E0E0E0"/>
<path d="M108.432 90.4985L114.044 90.51C114.26 90.5104 114.468 90.5829 114.62 90.7115C114.773 90.8401 114.858 91.0142 114.858 91.1957L114.854 92.5158C114.854 92.5736 114.84 92.6307 114.813 92.6841C114.787 92.7374 114.748 92.7858 114.699 92.8266C114.65 92.8674 114.592 92.8997 114.529 92.9216C114.465 92.9436 114.397 92.9549 114.328 92.9547L108.137 92.9421C108.068 92.9419 108 92.9304 107.936 92.9081C107.873 92.8859 107.815 92.8534 107.766 92.8124C107.718 92.7714 107.679 92.7229 107.653 92.6694C107.627 92.616 107.613 92.5587 107.613 92.5009L107.617 91.1808C107.618 90.9998 107.704 90.8264 107.857 90.6985C108.009 90.5706 108.216 90.4987 108.432 90.4985Z" fill="#EBEBEB"/>
<path d="M108.542 92.9465C108.465 92.5448 108.44 92.1373 108.468 91.7312C108.444 91.3249 108.471 90.9175 108.55 90.516C108.623 90.918 108.648 91.3251 108.623 91.7312C108.648 92.1376 108.62 92.545 108.542 92.9465Z" fill="#E0E0E0"/>
<path d="M109.314 92.9488C109.239 92.547 109.214 92.1397 109.241 91.7335C109.216 91.3272 109.244 90.9198 109.322 90.5183C109.397 90.9201 109.422 91.3274 109.396 91.7335C109.42 92.1399 109.393 92.5473 109.314 92.9488Z" fill="#E0E0E0"/>
<path d="M110.089 92.9511C109.984 92.1433 109.984 91.3284 110.089 90.5206C110.166 90.9223 110.19 91.3298 110.163 91.7359C110.187 92.142 110.162 92.5491 110.089 92.9511Z" fill="#E0E0E0"/>
<path d="M110.862 92.9511C110.785 92.5494 110.761 92.142 110.788 91.7359C110.764 91.3296 110.791 90.9223 110.867 90.5206C110.944 90.9223 110.968 91.3298 110.941 91.7359C110.965 92.1422 110.939 92.5495 110.862 92.9511Z" fill="#E0E0E0"/>
<path d="M111.634 92.9533C111.558 92.5516 111.533 92.1442 111.561 91.7381C111.536 91.3317 111.564 90.9243 111.642 90.5228C111.716 90.9248 111.74 91.3319 111.716 91.7381C111.74 92.1444 111.713 92.5518 111.634 92.9533Z" fill="#E0E0E0"/>
<path d="M112.407 92.9556C112.334 92.5537 112.309 92.1465 112.333 91.7404C112.309 91.334 112.336 90.9266 112.415 90.5251C112.492 90.9268 112.516 91.3343 112.488 91.7404C112.513 92.1467 112.485 92.5541 112.407 92.9556Z" fill="#E0E0E0"/>
<path d="M113.182 92.9556C113.105 92.5539 113.08 92.1465 113.108 91.7404C113.084 91.3341 113.11 90.9268 113.187 90.5251C113.264 90.9276 113.288 91.3358 113.261 91.7427C113.285 92.1482 113.259 92.5547 113.182 92.9556Z" fill="#E0E0E0"/>
<path d="M113.968 92.9579C113.891 92.5563 113.867 92.1488 113.894 91.7427C113.87 91.3364 113.897 90.929 113.976 90.5275C114.049 90.9294 114.074 91.3366 114.049 91.7427C114.074 92.1491 114.046 92.5565 113.968 92.9579Z" fill="#E0E0E0"/>
<path d="M115.379 97.1691H107.777C107.555 97.1691 107.375 97.3201 107.375 97.5065V101.494C107.375 101.681 107.555 101.832 107.777 101.832H115.379C115.602 101.832 115.782 101.681 115.782 101.494V97.5065C115.782 97.3201 115.602 97.1691 115.379 97.1691Z" fill="#EBEBEB"/>
<path d="M114.925 101.745C114.922 101.719 114.922 101.693 114.925 101.667C114.925 101.608 114.925 101.538 114.925 101.439C114.925 101.241 114.925 100.968 114.912 100.623C114.912 99.9096 114.898 98.9087 114.89 97.6889L114.95 97.739H107.568C107.549 97.7527 107.712 97.6159 107.644 97.6752V98.7377C107.644 99.0865 107.644 99.4217 107.644 99.7705C107.644 100.455 107.644 101.1 107.644 101.718L107.576 101.658L112.864 101.699L114.387 101.718H114.797H114.944C114.901 101.721 114.857 101.721 114.814 101.718H114.417L112.91 101.729L107.573 101.747H107.502V101.688C107.502 101.068 107.502 100.416 107.502 99.7409V98.7468C107.502 98.5735 107.502 98.3957 107.502 98.2178V97.6866L107.581 97.6205L114.95 97.6478H115.012V97.698C114.993 98.9292 114.98 99.9438 114.972 100.662C114.972 101.002 114.958 101.271 114.953 101.467C114.953 101.551 114.953 101.62 114.953 101.674C114.949 101.699 114.94 101.723 114.925 101.745Z" fill="#E0E0E0"/>
<path d="M113.794 99.0045C112.961 99.0686 112.125 99.0884 111.289 99.0638C110.453 99.0844 109.616 99.0615 108.784 98.9954C109.616 98.9326 110.453 98.9128 111.289 98.9361C112.125 98.9169 112.961 98.9398 113.794 99.0045Z" fill="#E0E0E0"/>
<path d="M113.791 99.7181C112.959 99.7823 112.122 99.8021 111.286 99.7774C110.451 99.798 109.615 99.7751 108.784 99.709C109.616 99.6462 110.451 99.6264 111.286 99.6497C112.122 99.6305 112.959 99.6533 113.791 99.7181Z" fill="#E0E0E0"/>
<path d="M113.788 100.404C112.955 100.467 112.119 100.487 111.283 100.464C110.448 100.483 109.613 100.46 108.781 100.395C109.613 100.331 110.45 100.311 111.286 100.336C112.121 100.315 112.957 100.338 113.788 100.404Z" fill="#E0E0E0"/>
<path d="M113.818 93.6875C112.909 93.7503 111.997 93.7701 111.085 93.7468C110.177 93.7671 109.269 93.7434 108.365 93.6761C109.274 93.6146 110.187 93.5949 111.098 93.6168C112.006 93.598 112.914 93.6216 113.818 93.6875Z" fill="#E0E0E0"/>
<path d="M105.933 104.759C105.909 104.616 105.9 104.471 105.906 104.326C105.906 104.027 105.906 103.628 105.887 103.147C105.887 102.149 105.887 100.771 105.887 99.2507C105.887 98.4914 105.9 97.7687 105.908 97.1052C105.878 96.5132 105.995 95.9223 106.251 95.3701C106.441 94.9985 106.768 94.6877 107.184 94.4832C107.297 94.4302 107.418 94.3896 107.543 94.3623C107.586 94.3505 107.631 94.3451 107.676 94.3464C107.517 94.3964 107.362 94.4566 107.214 94.5265C106.827 94.7406 106.526 95.0483 106.352 95.4089C106.115 95.9521 106.013 96.53 106.05 97.1075C106.05 97.7687 106.05 98.4914 106.05 99.2507C106.05 100.774 106.023 102.151 106.001 103.147C106.001 103.628 105.979 104.027 105.971 104.326C105.972 104.471 105.959 104.616 105.933 104.759Z" fill="white"/>
<path d="M116.601 106.05C116.463 106.026 116.328 105.991 116.198 105.945C116.07 105.904 115.926 105.858 115.73 105.813C115.535 105.767 115.341 105.705 115.108 105.657C114.563 105.533 114.01 105.436 113.451 105.366C112.768 105.283 112.079 105.239 111.389 105.233C110.699 105.235 110.009 105.276 109.325 105.357C108.766 105.425 108.213 105.521 107.668 105.644C107.432 105.689 107.225 105.751 107.043 105.797C106.861 105.842 106.703 105.885 106.575 105.924C106.445 105.97 106.31 106.006 106.172 106.029C106.293 105.968 106.421 105.918 106.553 105.879C106.678 105.833 106.825 105.778 107.016 105.728C107.206 105.678 107.402 105.607 107.638 105.555C108.185 105.42 108.741 105.314 109.303 105.238C110.684 105.053 112.092 105.053 113.473 105.238C114.036 105.314 114.592 105.423 115.137 105.564C115.371 105.616 115.578 105.685 115.76 105.737C115.943 105.79 116.095 105.844 116.22 105.89C116.353 105.933 116.48 105.987 116.601 106.05Z" fill="white"/>
<path d="M25.0404 48.4294H22.5815V57.6657H25.0404V48.4294Z" fill="#EBEBEB"/>
<path d="M18.3027 52.0182V54.0793H29.3215V52.0182H18.3027Z" fill="#EBEBEB"/>
<path d="M32.9634 53.0693C32.9523 53.0289 32.9459 52.9877 32.9443 52.9462C32.9443 52.855 32.928 52.7342 32.9144 52.5814C32.9144 52.4993 32.9008 52.4104 32.8926 52.3124C32.8845 52.2143 32.8546 52.1072 32.8328 51.9909C32.7917 51.7228 32.7272 51.4576 32.6397 51.1974C32.4232 50.4794 32.0784 49.793 31.617 49.1614C30.5303 47.6354 28.842 46.4754 26.8436 45.8818C24.8452 45.2882 22.6622 45.2982 20.6717 45.9101C20.2647 46.0328 19.8684 46.179 19.4858 46.3479C19.0979 46.5259 18.7253 46.7263 18.3706 46.9475C18.0083 47.1732 17.6639 47.4184 17.3397 47.6817C17.0237 47.9597 16.7294 48.2544 16.4584 48.564C15.8927 49.2006 15.4536 49.9097 15.1582 50.6639C14.5344 52.2233 14.5344 53.9107 15.1582 55.4702C15.4536 56.2243 15.8927 56.9335 16.4584 57.57C16.7312 57.8811 17.0284 58.1766 17.3478 58.4547C17.6715 58.7185 18.0159 58.9637 18.3787 59.1888C18.7334 59.4108 19.106 59.6119 19.4939 59.7908C19.8739 59.9601 20.2674 60.1071 20.6717 60.2308C22.2008 60.6969 23.8505 60.8126 25.4507 60.566C26.7212 60.366 27.9268 59.9428 28.9881 59.3242C30.0495 58.7057 30.9426 57.9058 31.6088 56.9772C32.0728 56.3484 32.4204 55.6642 32.6397 54.948C32.7269 54.6886 32.7914 54.4242 32.8328 54.1569C32.8546 54.0406 32.879 53.9289 32.8926 53.8354C32.9062 53.7419 32.8926 53.6462 32.9144 53.5664C32.9144 53.4113 32.9362 53.2905 32.9443 53.2016C32.9461 53.1594 32.9525 53.1174 32.9634 53.0762C32.9663 53.1179 32.9663 53.1598 32.9634 53.2016C32.9634 53.2928 32.9634 53.4136 32.9634 53.5686C32.9634 53.6507 32.9634 53.7396 32.9634 53.84C32.9634 53.9403 32.9307 54.0452 32.9117 54.1637C32.8764 54.4338 32.8173 54.7013 32.7349 54.964C32.5279 55.6918 32.1904 56.389 31.7339 57.032C30.6418 58.5874 28.9349 59.7735 26.909 60.3848C24.8832 60.9961 22.666 60.9941 20.6418 60.379C20.2254 60.2504 19.8201 60.0981 19.4286 59.923C19.0326 59.7425 18.6526 59.5383 18.2917 59.312C17.9207 59.0823 17.5682 58.8325 17.2363 58.5641C16.9096 58.2808 16.6053 57.9799 16.3251 57.6635C15.7482 57.0135 15.3 56.2898 14.9978 55.5203C14.6903 54.7269 14.5288 53.8989 14.519 53.0648C14.5252 52.234 14.6792 51.4087 14.976 50.616C15.2825 49.8454 15.7363 49.1216 16.3197 48.4728C16.8608 47.8353 17.5244 47.2774 18.2835 46.8221C18.9965 46.3703 19.7895 46.0149 20.6336 45.7688C22.1924 45.2967 23.8736 45.1834 25.5024 45.4404C26.7915 45.6478 28.0132 46.0827 29.0862 46.7164C30.1592 47.3501 31.059 48.1681 31.7258 49.1158C32.1826 49.7578 32.5202 50.4543 32.7267 51.1815C32.8094 51.4449 32.8685 51.7132 32.9035 51.984C32.9226 52.1003 32.9443 52.212 32.9552 52.3078C32.9661 52.4036 32.9552 52.497 32.9552 52.5791C32.9552 52.7342 32.9552 52.855 32.9552 52.9462C32.9609 52.9871 32.9637 53.0282 32.9634 53.0693Z" fill="#EBEBEB"/>
<path d="M81.91 45.6274C83.9527 44.8339 85.2311 43.0806 85.99 41.2954C86.7488 39.5101 87.078 37.6291 87.9239 35.8758C88.544 34.5716 87.8613 32.4877 89.2594 31.7125C91.0084 30.7412 90.9893 28.1626 90.3148 26.8766C89.5804 25.4744 87.5948 24.4348 87.4479 23.9902C87.0916 22.8251 88.302 21.562 87.8532 20.4197C86.7978 17.7361 84.1866 18.0895 84.1866 18.0895C82.998 16.8811 81.3904 15.2874 78.7792 14.7197C75.9504 14.1064 71.7807 13.6526 69.2592 14.8952C66.7378 16.1378 64.8909 16.9678 64.0776 19.3207" fill="#263238"/>
<path d="M76.6088 57.741C76.7122 51.6352 76.704 49.3438 76.7068 49.378C76.7068 49.378 82.9628 48.4956 84.2439 41.6465C84.8804 38.2402 84.66 32.6565 84.3064 28.0942C83.9855 23.9902 80.7269 18.9537 75.8445 19.396L60.6125 22.6541C59.8971 22.7185 59.2366 23.0056 58.7617 23.4586C58.2867 23.9116 58.0319 24.4976 58.0476 25.1006L59.7612 57.6248" fill="#FFCCB0"/>
<path d="M81.1187 33.1467C81.121 33.3755 81.0169 33.596 80.8285 33.7616C80.6402 33.9271 80.3823 34.0247 80.1095 34.0336C79.9758 34.0435 79.8411 34.0309 79.7134 33.9963C79.5857 33.9617 79.4676 33.906 79.3661 33.8324C79.2646 33.7588 79.1818 33.6689 79.1226 33.5679C79.0634 33.4669 79.029 33.357 79.0215 33.2447C79.0191 33.0161 79.1227 32.7956 79.3105 32.6297C79.4982 32.4638 79.7554 32.3655 80.0279 32.3555C80.1619 32.3459 80.2968 32.3588 80.4247 32.3936C80.5526 32.4284 80.6708 32.4843 80.7725 32.5581C80.8742 32.6318 80.9572 32.7219 81.0167 32.823C81.0761 32.9241 81.1108 33.0342 81.1187 33.1467Z" fill="#263238"/>
<path d="M82.4 31.008C82.2694 31.122 81.4752 30.6318 80.3491 30.6364C79.223 30.6409 78.3961 31.1152 78.2737 30.9989C78.2139 30.9487 78.3445 30.7413 78.7035 30.5224C79.1904 30.237 79.7712 30.0856 80.3654 30.0892C80.9511 30.0861 81.5227 30.2395 81.9974 30.5269C82.3456 30.7435 82.4625 30.951 82.4 31.008Z" fill="#263238"/>
<path d="M70.8587 33.1467C70.8624 33.3754 70.7592 33.5963 70.5711 33.762C70.383 33.9278 70.125 34.0253 69.8523 34.0336C69.7186 34.0435 69.5839 34.0309 69.4562 33.9963C69.3284 33.9617 69.2103 33.906 69.1088 33.8324C69.0073 33.7588 68.9245 33.6689 68.8653 33.5679C68.8061 33.4669 68.7718 33.357 68.7643 33.2447C68.7605 33.0157 68.8636 32.7946 69.0517 32.6285C69.2397 32.4624 69.4977 32.3644 69.7707 32.3555C69.9045 32.3459 70.0392 32.3588 70.167 32.3937C70.2947 32.4285 70.4128 32.4844 70.5143 32.5582C70.6157 32.632 70.6985 32.7221 70.7576 32.8232C70.8168 32.9242 70.8511 33.0343 70.8587 33.1467Z" fill="#263238"/>
<path d="M71.3211 31.1973C71.1906 31.3136 70.3936 30.8234 69.2675 30.8279C68.1415 30.8325 67.3146 31.3045 67.1922 31.1905C67.1323 31.138 67.2629 30.9328 67.6247 30.7117C68.1115 30.4278 68.6908 30.2765 69.2839 30.2785C69.8697 30.2767 70.4411 30.4308 70.9159 30.7185C71.264 30.9397 71.3837 31.1471 71.3211 31.1973Z" fill="#263238"/>
<path d="M75.4283 38.1992C75.4283 38.1445 76.1246 38.0419 77.2588 37.9187C77.5472 37.8914 77.8192 37.8435 77.8681 37.6793C77.9171 37.5152 77.8137 37.2439 77.6723 36.9634C77.4003 36.382 77.1283 35.7687 76.8182 35.128C75.6296 32.5151 74.7673 30.3651 74.8924 30.3263C75.0176 30.2876 76.0838 32.3783 77.2752 34.9867C77.5599 35.6327 77.8319 36.2483 78.0912 36.8335C78.2 37.1093 78.3904 37.4194 78.2435 37.7819C78.2016 37.867 78.1372 37.943 78.0553 38.0042C77.9733 38.0654 77.8758 38.1102 77.7702 38.1353C77.6116 38.1721 77.4479 38.1913 77.2833 38.1923C76.1436 38.2471 75.4337 38.2516 75.4283 38.1992Z" fill="#263238"/>
<path d="M76.7043 49.3779C76.7043 49.3779 70.742 49.6857 65.2803 46.952C65.2803 46.952 68.5225 51.7628 76.7043 51.1085V49.3779Z" fill="#EB996E"/>
<path d="M74.9578 40.4769C74.7431 40.2506 74.463 40.0741 74.1441 39.964C73.8252 39.8539 73.478 39.8138 73.1354 39.8476C72.8871 39.867 72.646 39.9281 72.4263 40.0272C72.2067 40.1262 72.0131 40.2613 71.857 40.4244C71.7069 40.5822 71.6181 40.7747 71.6026 40.9761C71.587 41.1775 71.6454 41.378 71.77 41.5507C72.0746 41.911 72.7111 41.9908 73.2497 41.8631C73.7815 41.703 74.2704 41.4566 74.6886 41.1381C74.8148 41.0624 74.9235 40.9681 75.0095 40.8599C75.0514 40.8076 75.0737 40.7461 75.0737 40.6832C75.0737 40.6203 75.0514 40.5587 75.0095 40.5065" fill="#EB996E"/>
<path d="M72.1128 38.858C72.2978 38.858 72.3032 39.8749 73.3504 40.6C74.3976 41.325 75.7032 41.211 75.7114 41.3546C75.7304 41.4185 75.4231 41.5553 74.8736 41.569C74.1565 41.5786 73.4582 41.3759 72.9016 40.9967C72.3678 40.6322 72.0236 40.1082 71.9415 39.5352C71.8952 39.1066 72.0312 38.8512 72.1128 38.858Z" fill="#263238"/>
<path d="M71.8219 28.4566C71.7131 28.712 70.587 28.5934 69.2651 28.7302C67.9432 28.867 66.8742 29.1703 66.6974 28.94C66.6185 28.8283 66.8035 28.5866 67.2414 28.3381C67.8161 28.0317 68.4666 27.8391 69.1435 27.7751C69.8203 27.7111 70.5056 27.7773 71.1473 27.9687C71.6261 28.1329 71.8708 28.3335 71.8219 28.4566Z" fill="#263238"/>
<path d="M81.978 29.2797C81.7794 29.494 81.0042 29.2797 80.074 29.2637C79.1438 29.2478 78.3495 29.4119 78.17 29.1885C78.0911 29.0791 78.2135 28.8625 78.559 28.6595C79.0192 28.4092 79.5612 28.2857 80.1093 28.3061C80.6584 28.3105 81.1916 28.4606 81.6326 28.7348C81.9562 28.9559 82.065 29.1839 81.978 29.2797Z" fill="#263238"/>
<path d="M64.6218 18.8829C64.6184 19.571 64.7959 20.2513 65.1417 20.8754C65.4875 21.4994 65.9932 22.052 66.6227 22.4936C67.2521 22.9353 67.99 23.2553 68.7838 23.4308C69.5775 23.6063 70.4077 23.633 71.2151 23.509C72.4636 23.3175 73.829 22.7886 74.9089 23.3472C76.0458 23.9331 76.0921 25.3672 77.1012 26.1014C78.5401 27.1502 80.8303 26.1652 82.6582 26.6212C84.0698 26.9724 84.9511 28.1032 85.8895 29.054C86.8279 30.0048 88.2314 30.9099 89.6431 30.5588C89.5534 29.4963 89.4609 28.4202 89.0828 27.401C88.7047 26.3818 88.0111 25.4128 86.9449 24.8292C86.3601 24.51 85.6828 24.3162 85.1388 23.9491C83.9692 23.1556 83.6972 21.7762 82.9628 20.6682C82.4866 19.956 81.8148 19.3492 81.0031 18.898C80.1915 18.4468 79.2632 18.1641 78.2953 18.0735C76.6905 17.9367 75.0313 18.3403 73.4673 18.0097C72.3086 17.7657 71.2913 17.1342 70.1244 16.9472C67.8396 16.5847 65.718 17.9595 64.0615 19.3275" fill="#263238"/>
<path d="M71.9331 21.6099C70.9077 21.3636 68.816 20.8073 68.272 20.064C67.0779 18.4452 64.9754 17.3417 62.832 17.4398C61.7203 17.5129 60.6667 17.8855 59.8284 18.5019C58.9901 19.1183 58.4122 19.9454 58.1808 20.8598C55.5805 20.878 53.0427 22.246 51.797 24.3048C51.1833 25.3559 50.8837 26.5163 50.924 27.6861C50.9643 28.8558 51.3432 29.9998 52.0282 31.0194C52.3899 31.5393 52.8442 32.0591 52.8632 32.6747C52.8632 33.4362 52.2023 34.0427 51.7263 34.6697C50.4343 36.3888 50.5295 38.7486 51.5304 40.6182C52.5314 42.4878 53.2359 43.149 54.6611 43.523C57.4464 44.2571 54.6775 48.9539 59.3123 48.9539L60.248 35.0322C60.3839 35.094 60.5295 35.1393 60.6805 35.1668C63.425 35.6866 63.7867 31.195 63.1747 29.9091C64.1675 29.1704 65.1712 28.4225 65.9301 27.4832C66.689 26.5438 67.3527 23.9856 67.1922 22.832C68.1687 22.8821 72.3819 21.717 71.9331 21.6099Z" fill="#263238"/>
<path d="M60.4357 35.6022C60.3487 34.1453 58.4556 33.1717 56.9487 33.9036C56.1327 34.3026 55.4881 35.1097 55.5642 36.6555C55.7601 40.7801 60.6561 39.7586 60.6561 39.6401C60.6697 39.5671 60.5364 37.3076 60.4357 35.6022Z" fill="#FFCCB0"/>
<path d="M59.0893 38.1284C59.0648 38.1284 59.0049 38.1831 58.8635 38.2424C58.6627 38.3225 58.4328 38.3348 58.2216 38.2766C57.6939 38.1352 57.2233 37.4581 57.1635 36.7148C57.1325 36.3616 57.1966 36.007 57.3512 35.6774C57.3916 35.5471 57.4691 35.4269 57.5772 35.3272C57.6852 35.2275 57.8204 35.1513 57.9713 35.1051C58.0683 35.0798 58.1728 35.0837 58.2667 35.1162C58.3606 35.1487 58.4379 35.2077 58.4854 35.283C58.5561 35.397 58.5289 35.4813 58.5561 35.4859C58.5833 35.4904 58.6595 35.4129 58.6105 35.2442C58.578 35.1432 58.505 35.0546 58.4038 34.9934C58.3349 34.9529 58.2572 34.9242 58.175 34.9089C58.0929 34.8937 58.0079 34.8922 57.9251 34.9045C57.547 34.9387 57.2206 35.2442 57.0601 35.5748C56.8694 35.9397 56.7873 36.3379 56.8208 36.7353C56.8915 37.5652 57.4382 38.3313 58.159 38.4727C58.2926 38.5003 58.4319 38.5023 58.5666 38.4786C58.7013 38.455 58.8278 38.4062 58.9369 38.3359C59.0838 38.2287 59.1056 38.1352 59.0893 38.1284Z" fill="#EB996E"/>
<path d="M86.2923 17.9186C86.3013 17.9997 86.3013 18.0814 86.2923 18.1625C86.2682 18.4026 86.1838 18.6357 86.0448 18.8465C85.8288 19.1761 85.5208 19.4569 85.1472 19.6651C84.6542 19.9481 84.0745 20.1064 83.4771 20.1211C82.7563 20.1283 82.0429 19.9981 81.3909 19.7403C80.6501 19.447 79.9549 19.0787 79.321 18.6436C78.641 18.2013 77.961 17.7043 77.1831 17.2756C76.3823 16.8322 75.4975 16.5061 74.5664 16.3112C73.6356 16.1151 72.6675 16.0763 71.7186 16.1972C70.8376 16.3174 69.9968 16.5925 69.2515 17.0043C68.5751 17.3752 67.9995 17.8616 67.5624 18.4316C67.1011 19.0443 66.836 19.7464 66.7926 20.4701C66.7492 21.1937 66.9291 21.9145 67.3149 22.5629C67.4915 22.8401 67.7002 23.102 67.9378 23.345C67.9378 23.345 67.9187 23.345 67.8861 23.3017C67.8535 23.2583 67.7991 23.2219 67.7392 23.1671C67.5578 22.9828 67.3992 22.7834 67.2659 22.5721C66.779 21.7987 66.5953 20.9163 66.741 20.0504C66.8325 19.4522 67.0765 18.8776 67.4563 18.3655C67.8988 17.7808 68.4837 17.2812 69.1727 16.8994C69.9319 16.4751 70.7907 16.1921 71.6914 16.0695C72.6579 15.9432 73.6449 15.9812 74.5936 16.1812C75.539 16.3803 76.4369 16.7134 77.2483 17.1662C78.0344 17.6017 78.7144 18.1033 79.3917 18.5342C80.015 18.9673 80.6992 19.3348 81.429 19.6286C82.0645 19.8825 82.7596 20.0141 83.4635 20.0139C84.0447 20.006 84.611 19.8589 85.0955 19.5898C85.4638 19.3906 85.7705 19.121 85.9904 18.8032C86.129 18.6012 86.2213 18.3793 86.2624 18.1489C86.2869 18.0121 86.2842 17.9186 86.2923 17.9186Z" fill="white"/>
<path d="M52.4961 37.9028C52.4594 37.8659 52.4283 37.8253 52.4036 37.7819C52.327 37.663 52.2606 37.5395 52.2051 37.4126C52.0353 37.0144 51.9633 36.5916 51.9935 36.1695C52.0237 35.7474 52.1555 35.3348 52.3809 34.9565C52.6063 34.5782 52.9207 34.2421 53.3051 33.9683C53.6895 33.6945 54.136 33.4887 54.6177 33.3633C55.1564 33.2299 55.7129 33.1534 56.2742 33.1353C57.4166 33.0806 58.5128 33.1034 59.4539 32.8663C60.2861 32.6538 61.0318 32.2521 61.6081 31.7057C61.9988 31.3384 62.3074 30.9152 62.5193 30.4563C62.6662 30.128 62.707 29.9365 62.7233 29.9387C62.7207 29.9866 62.7115 30.034 62.6961 30.0801C62.6663 30.2125 62.6245 30.3429 62.571 30.47C62.3772 30.9439 62.0761 31.3821 61.6843 31.7605C61.1038 32.3288 60.344 32.7484 59.492 32.9711C58.5236 33.2197 57.4139 33.1991 56.2824 33.2539C55.7291 33.2724 55.1809 33.349 54.6504 33.4819C54.1621 33.6056 53.7107 33.8146 53.3257 34.0952C52.666 34.5725 52.231 35.2313 52.099 35.9534C52.0141 36.4398 52.0644 36.936 52.2459 37.4035C52.3737 37.7295 52.4961 37.8959 52.4961 37.9028Z" fill="white"/>
<path d="M68.5169 30.0184C67.433 30.1886 66.4249 30.6032 65.6011 31.2177C65.9516 30.85 66.3947 30.5518 66.8988 30.3444C67.4029 30.1371 67.9555 30.0258 68.5169 30.0184Z" fill="#EB996E"/>
<path d="M83.2051 30.8438C82.8868 30.6042 82.5352 30.3975 82.1579 30.2282C81.7623 30.0933 81.3485 29.9991 80.9258 29.9478C81.3679 29.9008 81.8169 29.9601 82.2205 30.1187C82.624 30.2774 82.9655 30.5288 83.2051 30.8438Z" fill="#EB996E"/>
<path d="M71.3402 39.3186C71.3239 39.3186 71.2831 39.2342 71.2967 39.0906C71.3206 38.8958 71.4156 38.7119 71.5687 38.5639C71.7192 38.414 71.9217 38.3073 72.148 38.2584C72.3221 38.2242 72.4336 38.2424 72.4336 38.2584C72.4336 38.2744 72.3303 38.2903 72.1807 38.3405C71.9862 38.4061 71.8136 38.5101 71.6775 38.6437C71.5439 38.7749 71.4505 38.9314 71.4055 39.0997C71.3592 39.2297 71.362 39.3163 71.3402 39.3186Z" fill="#EB996E"/>
<path d="M69.961 39.7746C69.8818 39.663 69.8413 39.5351 69.8441 39.4053C69.8198 39.0907 69.915 38.7778 70.1161 38.5115C70.319 38.2467 70.6158 38.0418 70.9647 37.9255C71.1042 37.8692 71.2593 37.8455 71.4135 37.8571C71.4135 37.8776 71.2476 37.9027 71.0055 38.003C70.6898 38.1292 70.423 38.3276 70.2358 38.5752C70.0487 38.8229 69.9487 39.1098 69.9474 39.403C69.9393 39.6287 69.9828 39.7678 69.961 39.7746Z" fill="#EB996E"/>
<path d="M50.3989 28.1626C50.4024 28.1033 50.4133 28.0444 50.4316 27.987C50.4776 27.821 50.5537 27.6618 50.6573 27.5151C51.0563 26.9744 51.6821 26.5783 52.4117 26.4047C52.911 26.2823 53.4339 26.2428 53.9512 26.2884C54.5407 26.3424 55.1199 26.4573 55.6757 26.6304C56.8535 26.9724 58.0421 27.5607 59.4184 27.8594C60.7178 28.1457 62.0979 28.0156 63.289 27.4946C64.2619 27.0734 65.0532 26.4077 65.552 25.5908C65.8904 25.0419 66.0948 24.4419 66.1532 23.826C66.1701 23.6585 66.1764 23.4903 66.1722 23.3222C66.1686 23.2637 66.1686 23.2051 66.1722 23.1466C66.1894 23.204 66.1985 23.263 66.1994 23.3222C66.2142 23.4914 66.2142 23.6614 66.1994 23.8306C66.1608 24.4565 65.9682 25.069 65.6336 25.6295C65.1374 26.4679 64.3377 27.1534 63.3488 27.588C62.1315 28.1268 60.7175 28.2634 59.3858 27.9711C57.9796 27.6656 56.7936 27.0591 55.6295 26.7285C55.0855 26.5555 54.5182 26.4391 53.9404 26.3819C53.4379 26.3327 52.9289 26.366 52.4416 26.48C51.7291 26.6416 51.1118 27.0163 50.7063 27.5333C50.5675 27.7293 50.4639 27.9413 50.3989 28.1626Z" fill="white"/>
<path d="M99.234 106.426C99.234 106.426 94.1775 93.024 91.8709 88.3774L92.9861 78.5437L97.4578 63.0078L92.0178 57.7912L75.2816 54.0497L59.0759 54.4259C59.0759 54.4259 46.1124 56.6717 43.0279 58.6256C40.6941 60.1076 46.776 82.3376 47.9076 90.9036C47.4152 91.7084 43.9173 99.7546 41.9834 106.426H99.234Z" fill="#667499"/>
<path d="M47.1157 66.4142C47.0776 66.4278 46.3867 65.1077 45.5735 63.4707C44.7602 61.8336 44.1237 60.4907 44.1618 60.477C44.1999 60.4634 44.8799 61.788 45.6959 63.4228C46.5119 65.0576 47.1511 66.4028 47.1157 66.4142Z" fill="#263238"/>
<path d="M92.396 83.1061C92.124 82.7162 99.6747 91.7108 102.523 92.7368C105.243 93.7172 112.611 93.5804 113.596 92.7368C114.58 91.8932 116.454 84.8069 116.022 82.6159C115.589 80.4248 112.894 76.9523 112.894 76.9523L92.1294 57.8528L92.4014 83.1061" fill="#667499"/>
<g opacity="0.3">
<path d="M46.7162 86.3345C47.4968 84.9984 48.9656 84.0545 50.2875 83.065C51.6095 82.0755 52.8933 80.8625 53.0701 79.3805C53.1299 78.8766 53.0701 78.3249 53.3992 77.9008C53.9432 77.2168 55.1019 77.2442 56.0213 76.9888C56.5113 76.8434 56.9528 76.6021 57.309 76.2848C57.6653 75.9676 57.926 75.5836 58.0695 75.1648C58.2435 74.645 58.2327 74.0681 58.5672 73.6053C59.0731 72.9076 60.1992 72.7161 61.1594 72.7799C64.4587 72.9965 66.9965 75.2469 70.0347 76.3458C73.8427 77.7252 78.5755 77.1165 81.641 74.7818L77.017 75.5159C75.4013 75.7736 73.7312 76.0289 72.121 75.7188C70.2714 75.3609 68.7509 74.2984 67.1216 73.4799C65.1306 72.4812 62.9247 71.8314 60.7351 71.1862L54.0411 69.2186C52.76 68.8401 51.4163 68.457 50.0727 68.6166C49.2791 68.7194 48.5348 69.0037 47.9215 69.4381C47.3082 69.8725 46.8497 70.4403 46.5965 71.079C47.8287 71.421 49.1696 71.2523 50.4562 71.1041C51.7427 70.9559 53.1027 70.8374 54.2968 71.2683C55.4909 71.6992 56.3967 72.878 55.9125 73.888C55.2543 75.256 52.8307 75.272 51.6938 76.396C51.041 77.0412 50.924 77.9373 50.7037 78.7626C49.9775 81.4986 47.9211 83.8539 45.9165 86.1111" fill="black"/>
</g>
<path d="M51.1173 68.7557C51.1173 68.7557 64.225 72.4174 64.9893 72.659C65.8978 72.944 67.1109 73.4753 67.285 73.7648C67.459 74.0544 70.4402 76.2181 74.0006 76.0266C77.5611 75.8351 81.4045 74.6791 81.4045 74.6791C81.4045 74.6791 81.059 74.2938 79.6256 74.1502C78.1922 74.0065 72.219 74.4397 69.752 74.1023C69.752 74.1023 69.208 74.2824 67.2333 73.1561C66.5136 72.7791 65.7488 72.4666 64.9512 72.2236C63.7381 71.8702 57.5392 69.9846 57.5392 69.9846L50.4155 67.415L51.1173 68.7557Z" fill="#E0E0E0"/>
<path d="M51.1169 68.7557L51.068 68.6736L50.932 68.4183L50.388 67.4242L50.3662 67.3809L50.4179 67.3991C51.9438 67.9326 54.4843 68.8606 57.8027 70.0211L63.4249 71.7106C64.4368 72.0275 65.5357 72.2943 66.5638 72.7708C66.8358 72.8893 67.0779 72.9988 67.3308 73.147C67.5838 73.2952 67.8259 73.4183 68.0843 73.5437C68.3423 73.6712 68.6094 73.7854 68.884 73.8857C69.022 73.9353 69.1637 73.9772 69.3083 74.0111C69.4415 74.0474 69.5822 74.0606 69.7217 74.0499H69.7462C70.584 74.1413 71.4283 74.184 72.2731 74.1775C73.138 74.1775 74.0193 74.1775 74.9142 74.1479L77.6342 74.0772C78.0966 74.0772 78.5617 74.0613 79.0296 74.0772C79.5051 74.082 79.9781 74.1348 80.4385 74.2345C80.809 74.3009 81.1528 74.4461 81.4368 74.6563L81.5075 74.7179L81.4041 74.7498C80.3352 75.0553 79.2662 75.3107 78.2027 75.525C77.1542 75.7404 76.0916 75.9041 75.0203 76.0152C74.4991 76.0732 73.9739 76.1029 73.4481 76.1041C73.1761 76.1041 72.9259 76.0791 72.6675 76.0677C72.4091 76.0563 72.1561 76.0061 71.9059 75.9582C70.9291 75.7751 69.9916 75.4675 69.1261 75.0462C68.7064 74.8476 68.3046 74.6235 67.9238 74.3759C67.7337 74.2547 67.5521 74.1246 67.3798 73.986C67.339 73.9473 67.2955 73.9153 67.2574 73.8743L67.2003 73.8059L67.1568 73.7535C67.0852 73.684 67.004 73.6219 66.9147 73.5688C66.5473 73.3539 66.1577 73.1669 65.7505 73.0102C65.3581 72.8516 64.9527 72.7168 64.5374 72.6066L60.0005 71.3207L53.4725 69.4602L51.7045 68.9518L51.2448 68.8173L51.0925 68.7694C51.0925 68.7694 51.1496 68.7808 51.2557 68.8104L51.7208 68.9358L53.5051 69.426L60.063 71.25L64.6163 72.504C65.0355 72.6143 65.4445 72.7499 65.8403 72.9099C66.2553 73.0677 66.6523 73.257 67.0262 73.4753C67.1265 73.5333 67.2178 73.6015 67.2982 73.6782L67.3526 73.7466L67.3988 73.7991C67.4315 73.8333 67.4723 73.8675 67.5104 73.9017C67.6775 74.0362 67.8537 74.1625 68.038 74.2801C68.4128 74.5248 68.8092 74.745 69.224 74.9391C70.0794 75.3542 71.006 75.6564 71.9712 75.8351C72.216 75.8853 72.4689 75.9058 72.7192 75.9423C72.9694 75.9787 73.2278 75.9833 73.4835 75.9787C74.0039 75.9753 74.5235 75.9448 75.0393 75.8875C76.1043 75.7772 77.1606 75.6142 78.2027 75.3996C79.2635 75.1876 80.3325 74.9299 81.3905 74.6267L81.3579 74.7179C81.0929 74.5245 80.7738 74.3903 80.4304 74.328C79.5273 74.1183 78.5889 74.1753 77.6696 74.1821L74.9496 74.2505C74.052 74.271 73.1707 74.287 72.303 74.2801C71.4509 74.2848 70.5993 74.2406 69.7544 74.1479H69.7897C69.7002 74.1647 69.6073 74.1647 69.5177 74.1479C69.4385 74.1399 69.3602 74.1262 69.2838 74.1069C69.1337 74.0717 68.9865 74.0283 68.8432 73.9769C68.5631 73.8744 68.2906 73.758 68.0272 73.6281C67.7552 73.5004 67.5131 73.3636 67.2656 73.2268C67.0181 73.09 66.7678 72.9714 66.5121 72.8551C65.4976 72.3809 64.4096 72.1164 63.3923 71.7949L57.7755 70.0872C54.4625 68.9153 51.9248 67.9714 50.4097 67.4219L50.4397 67.3968L50.9456 68.3955C51 68.5072 51.0435 68.5915 51.0734 68.6554C51.0906 68.6879 51.1052 68.7215 51.1169 68.7557Z" fill="#263238"/>
<path d="M78.8364 75.0257C79.2416 74.9801 78.0204 75.0576 77.6396 74.9367C77.3893 74.8592 77.2261 74.6358 76.9677 74.5742C76.7093 74.5127 76.3612 74.6495 76.1164 74.5218C76.0272 74.4566 75.9576 74.3748 75.9132 74.2829C75.8687 74.191 75.8508 74.0916 75.8607 73.9928C75.741 72.5633 75.6458 70.9627 75.9178 69.5491C75.9178 69.5491 75.7546 68.9791 75.6077 68.9768C75.4608 68.9745 75.1154 69.1706 75.0964 69.8569C75.231 71.0074 75.2419 72.1658 75.129 73.3179C75.1184 73.5221 75.0697 73.7237 74.9848 73.9153C74.9408 74.0113 74.873 74.0984 74.7857 74.1707C74.6985 74.243 74.5939 74.299 74.4789 74.3348C74.1607 74.4215 73.8071 74.2915 73.4861 74.3713C73.2692 74.4579 73.0601 74.5578 72.8605 74.67C72.5099 74.7669 72.1361 74.7896 71.7725 74.7361C71.4026 74.7179 70.9864 74.7521 70.7471 74.9892C70.7416 74.9892 73.6276 75.6071 78.8364 75.0257Z" fill="#667499"/>
<g opacity="0.3">
<path d="M75.7464 70.4361C76.3095 70.9035 77.2397 70.5341 78.0312 70.4954C79.5 70.4224 80.773 71.6034 82.2309 71.4575C83.1938 71.3618 83.9853 70.7028 84.9509 70.6322C85.9165 70.5615 86.8331 71.1224 87.6709 71.5989C88.5087 72.0754 89.5749 72.5109 90.4725 72.137C91.8842 73.0695 93.0211 74.1342 93.1626 75.6368C93.179 76.3262 93.2701 77.0131 93.4346 77.6888C93.6549 78.4138 94.2179 79.4763 95.1128 79.474C95.14 76.7562 94.9333 74.116 93.3802 71.722C92.7597 70.7222 91.8174 69.8881 90.6602 69.3143C89.0608 68.5619 87.1242 68.5004 85.2991 68.6303C83.4739 68.7603 81.6543 69.0863 79.8183 69.0156C78.9615 68.9837 78.0883 68.872 77.256 69.0453C76.4237 69.2186 75.624 69.7908 75.624 70.509" fill="black"/>
</g>
<path d="M105.536 75.997C103.801 74.4466 99.9764 70.8944 99.9764 70.8944C99.9764 70.8944 101.309 64.2185 101.595 63.0215C101.88 61.8245 100.327 61.5578 100.327 61.5578L97.8194 59.7474L97.5012 58.6302L95.0994 56.861C95.0994 56.861 93.1138 57.0388 92.7412 56.9544C92.5133 56.8914 92.2706 56.8754 92.0338 56.908C91.797 56.9405 91.5731 57.0206 91.3812 57.1414H89.8879L87.7554 57.912L85.3645 58.8742C85.3645 58.8742 83.3517 59.426 82.9927 60.3904C82.9143 60.5888 82.9289 60.8049 83.0335 60.9946C83.1566 61.2152 83.3716 61.3905 83.6381 61.4875C83.9046 61.5845 84.2042 61.5965 84.4805 61.5213L90.2279 60.0324L95.8528 66.3663L87.6113 68.856C87.6113 68.856 87.4698 69.0521 87.5949 69.6632C87.7201 70.2742 88.5796 70.5159 89.0882 70.6481C89.5969 70.7804 90.2306 70.2924 90.2306 70.2924C90.2306 70.2924 90.2306 70.541 90.8018 71.2364C91.373 71.9318 93.0948 72.6044 93.0948 72.6044L95.1157 79.4444C95.1157 79.4444 95.181 79.5059 95.3089 79.6108C95.9642 80.1402 96.7507 80.5421 97.6123 80.7878C98.474 81.0334 99.3897 81.1169 100.294 81.0322C101.199 80.9475 102.07 80.6968 102.846 80.2978C103.621 79.8988 104.283 79.3615 104.783 78.7239C105.599 77.7138 106.189 76.583 105.536 75.997Z" fill="#FFCCB0"/>
<path d="M42.9326 58.7009C42.9326 58.7009 27.3415 79.4489 26.2345 81.0449C25.1275 82.6409 22.7937 91.3414 25.5327 93.8882C27.7468 95.9402 30.407 99.0911 36.5623 97.3378C42.7177 95.5845 47.9863 84.0317 47.9863 84.0317L46.3299 80.9857L42.9326 58.7009Z" fill="#667499"/>
<path d="M58.2134 55.0073V50.7323L77.9143 50.9922L78.918 55.4063H58.4881" fill="#667499"/>
<path d="M50.951 66.8884L48.3207 66.6809L42.6087 68.0672C41.9505 68.2154 41.3766 68.5004 41.0964 69.0225C40.6395 69.8729 41.1236 71.1748 42.1219 71.7015L41.9886 74.1365L42.7447 75.3381L43.0439 76.8543L44.2516 77.2327L46.1747 78.8766L49.678 78.3066L55.6838 75.1922C55.6838 75.1922 57.1689 74.36 57.0111 73.3682C56.9377 72.8985 55.9231 73.1128 55.9231 73.1128V72.2464C55.9231 72.2464 56.8398 71.7539 56.7691 71.1862C56.6875 70.5318 56.2115 70.3061 55.5315 70.1784C54.8515 70.0507 49.6671 70.1602 49.6671 70.1602L46.3515 70.4771L48.7995 69.483C48.7995 69.483 50.6599 69.1433 51.3291 69.0681C52.0662 68.9837 52.7924 68.8606 52.6727 68.0124C52.6772 67.8501 52.6211 67.6907 52.5123 67.5564C52.3327 67.3503 52.0979 67.1824 51.8267 67.0664C51.5554 66.9503 51.2555 66.8893 50.951 66.8884Z" fill="#FFCCB0"/>
<path d="M47.0046 64.7521L48.1715 65.0348C48.1715 65.0348 49.5315 65.6663 48.3211 66.6764L45.0734 67.5405L42.8267 68.1196L42.9545 67.1233C42.953 66.7141 43.0752 66.3113 43.3097 65.9525C43.5442 65.5937 43.8833 65.2905 44.2955 65.0713C44.6939 64.8594 45.1417 64.7214 45.6089 64.6663C46.0761 64.6113 46.5519 64.6405 47.0046 64.7521Z" fill="#FFCCB0"/>
<path d="M55.934 72.2418L54.2204 72.4698C53.1623 72.6135 51.6962 72.8027 50.086 73.0512C48.7108 73.2536 47.3625 73.5682 46.0604 73.9906L44.8799 74.3622C44.7361 74.414 44.5879 74.4566 44.4365 74.4899C44.5716 74.4245 44.7125 74.3681 44.8581 74.3212C45.1301 74.2186 45.5327 74.075 46.0332 73.9085C47.332 73.4616 48.6843 73.1329 50.0669 72.9281C51.6799 72.6819 53.1514 72.504 54.2149 72.3832C55.2784 72.2624 55.9394 72.2076 55.934 72.2418Z" fill="#EB996E"/>
<path d="M55.8501 73.2063C55.8501 73.2063 55.8202 73.2314 55.7603 73.2656C55.7005 73.2998 55.6107 73.3568 55.4883 73.4183C55.1472 73.5925 54.7948 73.7508 54.433 73.8926C53.5272 74.2688 52.2053 74.6632 50.9459 75.4019C50.3439 75.7405 49.7067 76.0327 49.0419 76.2752C48.4898 76.4647 47.9098 76.5912 47.3175 76.6514C46.9195 76.6916 46.5179 76.7007 46.1179 76.6787C45.9765 76.6787 45.8677 76.6582 45.7943 76.6491C45.7208 76.64 45.68 76.6331 45.6827 76.6286C45.8286 76.6221 45.9748 76.6221 46.1207 76.6286C46.5165 76.635 46.9123 76.6137 47.3039 76.5647C47.8844 76.4942 48.4519 76.3625 48.993 76.1726C49.65 75.9274 50.2807 75.6352 50.8779 75.2993C51.2016 75.1261 51.5171 74.9482 51.8381 74.8023C52.1591 74.6564 52.4746 74.5264 52.7792 74.4101L54.4112 73.8128C54.8709 73.6418 55.2272 73.489 55.4802 73.375C55.5987 73.3116 55.7223 73.2553 55.8501 73.2063Z" fill="#EB996E"/>
<path d="M46.0007 70.4702C46.0007 70.5044 45.1384 70.7119 44.0967 71.0539C43.0549 71.3959 42.2471 71.7379 42.228 71.7014C42.383 71.5962 42.5541 71.5088 42.7367 71.4415C43.1609 71.254 43.5977 71.0873 44.045 70.9422C44.4894 70.7953 44.9435 70.6697 45.405 70.566C45.5974 70.5114 45.7978 70.4792 46.0007 70.4702Z" fill="#EB996E"/>
<path d="M48.321 66.6809C48.0953 66.7665 47.8603 66.8337 47.6193 66.8815L46.8441 67.0685C46.528 67.1524 46.2041 67.2142 45.8757 67.2531C45.7853 67.2599 45.6942 67.2599 45.6037 67.2531C45.5102 67.2429 45.4187 67.2222 45.3317 67.1916C45.1793 67.1428 45.0342 67.0793 44.8993 67.0023C44.6735 66.8721 44.4718 66.7146 44.3009 66.535C44.1848 66.4155 44.0836 66.2864 43.9989 66.1496C43.9625 66.1019 43.9384 66.0483 43.9282 65.9923C43.95 65.9923 44.0751 66.1975 44.377 66.4802C44.5517 66.6456 44.752 66.7905 44.9727 66.9111C45.1015 66.9802 45.2382 67.0382 45.3807 67.0844C45.4536 67.108 45.5293 67.1248 45.6065 67.1346C45.6879 67.1414 45.7699 67.1414 45.8513 67.1346C46.1734 67.097 46.4916 67.0391 46.8033 66.9613L47.6002 66.804C47.8355 66.7445 48.0768 66.7033 48.321 66.6809Z" fill="#EB996E"/>
<path d="M42.9895 75.5569L42.9596 77.7981L36.6655 81.8337L44.9398 88.6737C44.9398 88.6737 49.4713 82.1917 50.5865 80.883C51.7017 79.5742 51.9655 78.9062 52.0498 78.1356C52.1022 77.7004 52.1022 77.262 52.0498 76.8268L42.9895 75.5569Z" fill="#FFCCB0"/>
<path d="M48.7314 78.6143C48.6954 78.633 48.6571 78.6483 48.6172 78.66C48.541 78.6873 48.4268 78.7261 48.2772 78.7717C47.8556 78.9087 47.4151 79.0006 46.9661 79.0453C46.6518 79.0727 46.3341 79.0534 46.0277 78.9883C45.6741 78.9089 45.3467 78.7631 45.0703 78.5619C44.4577 78.0871 44.0438 77.4595 43.8898 76.7721C43.7865 76.4164 43.7457 76.0608 43.6477 75.7347C43.5734 75.4199 43.3932 75.1296 43.1282 74.898C42.8753 74.67 42.5842 74.4967 42.3639 74.271C42.1638 74.0613 42.0359 73.8098 41.994 73.5436C41.9464 73.1652 41.9824 72.7826 42.1001 72.415C42.1381 72.2851 42.1735 72.187 42.198 72.1186C42.2069 72.0833 42.2225 72.0495 42.2442 72.0183C42.2442 72.0183 42.2143 72.1642 42.1545 72.4242C42.0603 72.7873 42.0392 73.161 42.0919 73.53C42.1359 73.7817 42.2621 74.0184 42.4564 74.214C42.6631 74.4237 42.9541 74.597 43.2234 74.825C43.506 75.0652 43.7029 75.3669 43.7919 75.696C43.8925 76.0357 43.9361 76.38 44.0367 76.7356C44.1829 77.4 44.5784 78.0079 45.1655 78.4707C45.4247 78.6633 45.7325 78.8044 46.0658 78.8834C46.3589 78.95 46.6636 78.9731 46.9661 78.9518C47.4082 78.916 47.8442 78.8396 48.2663 78.7238C48.4185 78.6792 48.5738 78.6427 48.7314 78.6143Z" fill="#EB996E"/>
<path d="M47.5238 81.909C47.4383 81.941 47.3455 81.9573 47.2518 81.9569C46.9907 81.9664 46.73 81.9323 46.4848 81.8566C46.1226 81.7412 45.7901 81.5686 45.5056 81.3481C45.1622 81.0805 44.8473 80.7884 44.5645 80.4749C44.0414 79.913 43.6003 79.3006 43.2507 78.6509C43.1202 78.4024 43.0277 78.1949 42.9787 78.0512C42.9425 77.9782 42.9179 77.9016 42.9053 77.8232C42.927 77.8232 43.0685 78.131 43.3541 78.6167C43.724 79.2493 44.1707 79.8482 44.6869 80.4042C44.9647 80.7121 45.2712 81.0011 45.6035 81.2683C45.872 81.4856 46.1866 81.6588 46.531 81.779C46.8472 81.8808 47.1857 81.9251 47.5238 81.909Z" fill="#EB996E"/>
<g opacity="0.6">
<path d="M78.8364 75.0257C79.2416 74.9801 78.0204 75.0576 77.6396 74.9367C77.3893 74.8592 77.2261 74.6358 76.9677 74.5742C76.7093 74.5127 76.3612 74.6495 76.1164 74.5218C76.0272 74.4566 75.9576 74.3748 75.9132 74.2829C75.8687 74.191 75.8508 74.0916 75.8607 73.9928C75.741 72.5633 75.6458 70.9627 75.9178 69.5491C75.9178 69.5491 75.7546 68.9791 75.6077 68.9768C75.4608 68.9745 75.1154 69.1706 75.0964 69.8569C75.231 71.0074 75.2419 72.1658 75.129 73.3179C75.1184 73.5221 75.0697 73.7237 74.9848 73.9153C74.9408 74.0113 74.873 74.0984 74.7857 74.1707C74.6985 74.243 74.5939 74.299 74.4789 74.3348C74.1607 74.4215 73.8071 74.2915 73.4861 74.3713C73.2692 74.4579 73.0601 74.5578 72.8605 74.67C72.5099 74.7669 72.1361 74.7896 71.7725 74.7361C71.4026 74.7179 70.9864 74.7521 70.7471 74.9892C70.7416 74.9892 73.6276 75.6071 78.8364 75.0257Z" fill="white"/>
</g>
<path d="M79.5082 89.6747C79.5082 89.6747 79.4892 89.6861 79.4511 89.702L79.277 89.775L78.6079 90.0395L78.1156 90.2287C77.9361 90.2926 77.7348 90.3564 77.5199 90.4294C77.0902 90.5684 76.606 90.744 76.0511 90.8854L75.1889 91.1293C74.887 91.2137 74.566 91.2798 74.2396 91.3573C73.5841 91.526 72.8796 91.6537 72.1234 91.7996C70.4894 92.0791 68.8345 92.2649 67.1703 92.356C65.5058 92.4307 63.8371 92.4078 62.1764 92.2876C61.4121 92.2169 60.6831 92.1599 60.0004 92.0596C59.6631 92.0117 59.3367 91.9752 59.0266 91.9228L58.1345 91.7654C57.5633 91.6742 57.0465 91.5374 56.6113 91.4508C56.3882 91.4006 56.1815 91.3573 55.9911 91.3094L55.4879 91.1772L54.778 90.9811L54.5958 90.9264C54.5732 90.9226 54.5519 90.9148 54.5332 90.9036L54.5985 90.915L54.7862 90.9583L55.5042 91.1339L56.021 91.2616C56.2114 91.3072 56.4209 91.3459 56.6412 91.3938C57.09 91.4827 57.5932 91.6036 58.1644 91.6902L59.0566 91.8384C59.3666 91.8886 59.693 91.9228 60.0303 91.9684C60.6994 92.0664 61.4257 92.1188 62.1873 92.1964C65.4961 92.4345 68.8287 92.2671 72.0799 91.6993C72.8252 91.5557 73.5378 91.4326 74.1906 91.2707C74.5198 91.1909 74.838 91.127 75.1399 91.0427L76.0049 90.8147C76.5489 90.6733 77.0439 90.5046 77.4737 90.3724C77.6886 90.3017 77.8926 90.2424 78.0748 90.1808L78.5698 90.0007L79.258 89.7568L79.4375 89.6952L79.5082 89.6747Z" fill="#263238"/>
<path d="M86.175 92.6615C86.175 92.6615 86.1532 92.6615 86.1097 92.6615H85.9193L85.1903 92.6227C84.8748 92.6022 84.4886 92.5794 84.0371 92.5612C83.5855 92.5429 83.0769 92.5133 82.5084 92.4996C81.3769 92.4586 80.0251 92.4403 78.5263 92.4472C77.0276 92.454 75.3793 92.5087 73.6548 92.6091C71.9303 92.7094 70.2875 92.8553 68.8159 93.024C67.3444 93.1927 65.9953 93.3706 64.8801 93.5439C64.3361 93.6237 63.8193 93.7126 63.3759 93.7833C62.9326 93.8539 62.5599 93.9223 62.2444 93.9793L61.5291 94.1025L61.3441 94.1321H61.2788L61.3386 94.1139L61.5236 94.0728L62.2335 93.9269C62.5409 93.8631 62.919 93.7878 63.3623 93.7126C63.8057 93.6373 64.3035 93.5393 64.8611 93.4527C65.9763 93.2703 67.309 93.0833 68.7969 92.9077C70.2847 92.7322 71.9276 92.5908 73.6575 92.486C75.3874 92.3811 77.0385 92.3423 78.5399 92.3332C80.0414 92.3241 81.3932 92.3605 82.5275 92.4107C83.0932 92.4289 83.6155 92.4654 84.0561 92.4905C84.4967 92.5156 84.8938 92.5452 85.2094 92.5703L85.9356 92.6342L86.126 92.6524L86.175 92.6615Z" fill="#263238"/>
<path d="M34.9032 81.2205C34.9032 81.2387 34.5496 81.1658 33.9838 81.0791C32.5046 80.8528 30.9923 80.8205 29.5012 80.9834C28.93 81.0449 28.5792 81.1019 28.5737 81.0837C28.6496 81.0508 28.7314 81.0285 28.8158 81.0176C28.9709 80.9834 29.2021 80.9423 29.4877 80.899C30.9864 80.6897 32.5191 80.723 34.0029 80.997C34.2748 81.0518 34.5115 81.1019 34.6665 81.1452C34.7491 81.1611 34.8288 81.1865 34.9032 81.2205Z" fill="#263238"/>
<path d="M77.6725 69.6631L78.8312 69.3234C79.4966 69.6911 80.2461 69.9385 81.032 70.05C81.8178 70.1615 82.6227 70.1346 83.3954 69.9709C86.0446 69.4146 96.0923 66.4529 96.0923 66.4529C95.9934 65.576 95.7967 64.7089 95.5048 63.8628C94.988 62.2896 93.5518 59.1729 93.5518 59.1729L81.0398 62.4127C81.0398 62.4127 78.7578 63.2153 77.6534 65.0347L77.2862 65.4907L76.6606 65.5819" fill="#E0E0E0"/>
<path d="M76.6606 65.5887L76.8157 65.5591L77.2835 65.4839L77.6453 65.0165C77.9416 64.5286 78.3281 64.083 78.7904 63.6963C79.4387 63.1454 80.1984 62.6954 81.0344 62.3671L93.5464 59.1113L93.609 59.093L93.6307 59.1455C94.1747 60.3288 94.7187 61.56 95.2192 62.8368C95.6995 64.005 96.0207 65.215 96.1766 66.4437V66.4871L96.1277 66.5007C92.0477 67.6932 88.3566 68.7488 85.3565 69.5331C84.6085 69.7247 83.9013 69.9071 83.2322 70.0325C82.6114 70.1455 81.9725 70.1709 81.3418 70.1077C80.4411 70.0237 79.5784 69.7568 78.8285 69.3302H78.8502L77.9717 69.5787L77.7541 69.638L77.6834 69.654C77.705 69.6438 77.7278 69.6354 77.7514 69.6289L77.9635 69.5628L78.8339 69.296C79.5833 69.7059 80.4382 69.9607 81.3282 70.0393C81.9507 70.096 82.5801 70.0668 83.1914 69.9527C83.8523 69.825 84.5514 69.638 85.3048 69.4419C88.2968 68.6485 91.9824 67.5815 96.0597 66.3867L96.0134 66.446C95.8564 65.2275 95.5371 64.0276 95.0614 62.8687C94.5582 61.5942 94.0142 60.3607 93.4784 59.1819L93.5627 59.2161L81.0562 62.4492C80.2287 62.769 79.4747 63.2081 78.8285 63.7465C78.3658 64.1265 77.9759 64.5641 77.6725 65.0438C77.5256 65.2217 77.4005 65.3767 77.2998 65.4998L76.8293 65.5614C76.7042 65.5865 76.6606 65.5887 76.6606 65.5887Z" fill="#263238"/>
<path d="M76.095 65.5796L75.5156 65.7415C75.5156 65.7415 74.9988 65.4724 74.9499 65.9239L74.6779 66.0196C74.6779 66.0196 74.1339 65.6366 74.074 66.2476L73.7803 66.3844C73.7803 66.3844 74.6779 69.7223 75.5102 70.3493L75.7822 70.2673C75.7822 70.2673 76.1521 70.5568 76.3262 70.3927C76.3782 70.3374 76.4147 70.2731 76.4331 70.2044C76.4515 70.1358 76.4512 70.0645 76.4323 69.9959L76.6716 69.8979C76.6716 69.8979 76.8321 70.2011 77.0905 70.1099C77.3489 70.0187 77.2891 69.6927 77.2891 69.6927L77.7651 68.8856L76.095 65.5796Z" fill="#E0E0E0"/>
<path d="M76.095 65.5796C76.1452 65.6528 76.1888 65.729 76.2255 65.8076C76.3153 65.974 76.435 66.1952 76.5819 66.4711C76.8919 67.0684 77.319 67.8938 77.8303 68.8742V68.8947L77.8167 68.9175L77.3462 69.7246V69.6927C77.3584 69.7757 77.3529 69.8599 77.3299 69.9412C77.3191 69.9886 77.2964 70.0336 77.263 70.0729C77.2297 70.1123 77.1866 70.1451 77.1367 70.1692C77.0842 70.1935 77.0243 70.2045 76.9645 70.2009C76.9046 70.1973 76.8473 70.1791 76.7995 70.1487C76.7129 70.0942 76.6445 70.022 76.6009 69.9389L76.6934 69.9663L76.454 70.0666L76.4921 70.0005C76.5203 70.0876 76.5181 70.1796 76.4858 70.2657C76.4535 70.3518 76.3924 70.4283 76.3099 70.4861C76.2567 70.5074 76.198 70.5173 76.1392 70.5149C76.0803 70.5125 76.0231 70.4979 75.9726 70.4725C75.8802 70.4343 75.7942 70.386 75.7169 70.3288H75.7903L75.6027 70.3881L75.5292 70.4109L75.4857 70.4246L75.4585 70.3995C75.1463 70.0873 74.9056 69.7294 74.7486 69.3439C74.5772 68.9836 74.4385 68.6279 74.3134 68.2837C74.0631 67.5997 73.8727 66.9567 73.7231 66.4004V66.3662L73.7612 66.3502C73.8646 66.3024 73.9598 66.2568 74.055 66.2157L74.0278 66.2499C74.0351 66.1764 74.0553 66.1042 74.0876 66.0356C74.1021 65.999 74.1262 65.9657 74.1583 65.938C74.1903 65.9104 74.2294 65.8892 74.2726 65.876C74.3549 65.8561 74.4432 65.8626 74.5201 65.8942C74.5886 65.9196 74.6526 65.9525 74.7105 65.9923H74.6643L74.9363 65.8988L74.9145 65.9261C74.9193 65.8574 74.9446 65.7908 74.9879 65.7323C75.0113 65.7061 75.0411 65.6843 75.0754 65.6686C75.1096 65.6529 75.1475 65.6435 75.1865 65.6411C75.3094 65.6403 75.4298 65.6705 75.5319 65.7278H75.5102L75.9535 65.6161C76.0002 65.6018 76.0485 65.5919 76.0977 65.5864L75.9454 65.6389L75.5265 65.7688H75.5129C75.4179 65.7227 75.3098 65.6991 75.2001 65.7004C75.0804 65.7004 75.0097 65.8121 74.9988 65.9284V65.9467H74.9771L74.7051 66.0447H74.6806L74.6588 66.031C74.6126 65.9941 74.5571 65.9663 74.4964 65.9497C74.4356 65.9332 74.3712 65.9282 74.3079 65.9353C74.1937 65.9672 74.1502 66.1085 74.1366 66.2408V66.2636L74.1121 66.275L73.8211 66.4141L73.8483 66.3639C74.006 66.9157 74.2046 67.5518 74.4603 68.2335C74.5854 68.5755 74.7323 68.9289 74.8982 69.2846C75.0489 69.652 75.2764 69.994 75.57 70.2946L75.4993 70.2832L75.5727 70.2604L75.7604 70.2011L75.8012 70.1897L75.8339 70.2126C75.9563 70.306 76.1548 70.4063 76.2555 70.3585C76.3112 70.3133 76.3516 70.2567 76.3726 70.1942C76.3936 70.1317 76.3945 70.0656 76.3751 70.0028V69.9549L76.4241 69.9344L76.6635 69.8363L76.7287 69.809L76.7587 69.8637C76.8321 69.9937 76.979 70.1099 77.1068 70.0393C77.2347 69.9686 77.2646 69.8113 77.2483 69.6904V69.6722V69.6585L77.727 68.8537V68.897C77.2455 67.9211 76.8403 67.0981 76.5492 66.503C76.4132 66.2203 76.3017 65.99 76.2201 65.819C76.1385 65.648 76.0923 65.5841 76.095 65.5796Z" fill="#263238"/>
<path d="M75.6924 65.5796C75.6924 65.5796 76.3017 68.4798 77.5964 70.0689L78.494 69.6996C78.494 69.6996 77.0361 67.4196 76.7641 65.2832C76.385 65.314 76.0189 65.4153 75.6924 65.5796Z" fill="#EBEBEB"/>
<path d="M80.8602 74.6381C80.8194 74.659 80.7755 74.6751 80.7296 74.686C80.6453 74.7134 80.5174 74.7499 80.3488 74.7932C79.8744 74.909 79.3909 74.9966 78.9018 75.0554C78.2843 75.1352 77.5418 75.1876 76.7258 75.2264C75.9098 75.2651 74.9958 75.3062 74.0411 75.313C73.1429 75.3272 72.2449 75.2784 71.3565 75.1671C70.6295 75.0737 69.9176 74.9108 69.2349 74.6815C68.7731 74.5266 68.3319 74.3317 67.9184 74.1001C67.7742 74.018 67.6654 73.9496 67.5947 73.8994C67.524 73.8493 67.4886 73.8242 67.4914 73.8196C67.4941 73.8151 67.6518 73.9085 67.9483 74.0613C68.3659 74.277 68.8066 74.4594 69.2648 74.6062C69.9444 74.8203 70.6492 74.9732 71.3674 75.0622C72.2504 75.165 73.1416 75.21 74.033 75.1967C74.9822 75.1967 75.8853 75.1489 76.7094 75.1192C77.5336 75.0896 78.2707 75.0417 78.8854 74.9756C79.3725 74.9223 79.8556 74.8462 80.3325 74.7476C80.6725 74.6769 80.8547 74.629 80.8602 74.6381Z" fill="#263238"/>
<path d="M78.2654 54.4213C78.2069 54.4515 78.145 54.4767 78.0804 54.4965L77.5364 54.6926L77.142 54.8294L76.6606 54.9685C76.3179 55.0665 75.9262 55.1851 75.4801 55.2763L74.7865 55.4313L74.0222 55.5636C73.4945 55.6662 72.9342 55.7186 72.3222 55.7916C71.0148 55.9144 69.6989 55.9631 68.3836 55.9375C67.0715 55.9024 65.7628 55.8042 64.4641 55.6434C63.8657 55.559 63.2972 55.486 62.7723 55.388C62.2473 55.29 61.755 55.2056 61.3089 55.1121C60.8628 55.0186 60.4657 54.9274 60.1148 54.8454C59.764 54.7633 59.4648 54.688 59.2227 54.6174L58.6624 54.4623C58.5964 54.4456 58.5318 54.425 58.4692 54.4008C58.5378 54.4077 58.6052 54.4207 58.6705 54.4395L59.239 54.574C59.4838 54.6333 59.783 54.7063 60.1366 54.7792C60.4902 54.8522 60.8846 54.948 61.3334 55.0278C61.7822 55.1076 62.2664 55.2079 62.794 55.29C63.3217 55.372 63.882 55.4518 64.4832 55.5339C65.7797 55.6897 67.0854 55.7863 68.3945 55.8235C69.7023 55.8485 71.0106 55.8028 72.3113 55.6867C72.9097 55.6114 73.4809 55.5636 74.0032 55.4587L74.7648 55.3333L75.4611 55.1851C75.9044 55.1007 76.2961 54.9867 76.6416 54.8955L77.123 54.7678L77.5201 54.6402L78.0641 54.4646C78.129 54.4437 78.1965 54.4292 78.2654 54.4213Z" fill="#263238"/>
<path d="M93.5683 74.9323C93.5742 74.9785 93.5742 75.0251 93.5683 75.0713C93.5683 75.1739 93.5438 75.2993 93.5275 75.4635C93.484 75.8192 93.4268 76.3094 93.3561 76.9044C93.1984 78.1356 92.9835 79.8092 92.7441 81.6583C92.5048 83.5073 92.2817 85.1786 92.1212 86.4098C92.0451 87.0048 91.9825 87.4928 91.9363 87.8484C91.9172 88.008 91.9036 88.138 91.89 88.2406C91.8764 88.3432 91.89 88.3728 91.89 88.3774C91.8411 88.3774 91.89 87.6182 92.0315 86.4007C92.1729 85.1831 92.3715 83.5005 92.6163 81.6446C92.8611 79.7887 93.0896 78.1106 93.2664 76.8953C93.3561 76.3003 93.4296 75.8146 93.484 75.4589C93.5112 75.2993 93.5329 75.1694 93.5492 75.0691C93.5492 75.023 93.5556 74.9771 93.5683 74.9323Z" fill="#263238"/>
<path d="M102.471 73.2063C102.531 73.1956 102.592 73.1903 102.653 73.1903C102.827 73.1817 103.001 73.1817 103.175 73.1903C103.82 73.2349 104.447 73.3901 105.017 73.6463C105.401 73.8289 105.765 74.0403 106.105 74.2779C106.298 74.3964 106.488 74.5287 106.684 74.6632C106.88 74.7977 107.084 74.9345 107.285 75.0827C108.166 75.7184 109 76.3983 109.782 77.1187C110.56 77.8421 111.287 78.6034 111.958 79.3987C112.575 80.1329 113.079 80.8237 113.481 81.412C113.884 82.0002 114.169 82.4973 114.36 82.8415L114.572 83.2405C114.599 83.2858 114.621 83.3331 114.637 83.3819C114.601 83.3411 114.571 83.2966 114.548 83.2497C114.485 83.1516 114.406 83.0217 114.311 82.8621C114.104 82.5246 113.8 82.039 113.394 81.4553C112.989 80.8716 112.472 80.1899 111.852 79.4603C111.177 78.6743 110.45 77.92 109.676 77.2008C108.896 76.4837 108.068 75.8046 107.195 75.1671C107 75.0189 106.798 74.8798 106.602 74.7453C106.407 74.6107 106.219 74.4785 106.031 74.3577C105.696 74.1208 105.338 73.9087 104.96 73.7238C104.402 73.4678 103.79 73.3051 103.159 73.245C102.724 73.2017 102.473 73.2199 102.471 73.2063Z" fill="#263238"/>
<path d="M91.7128 68.2085C91.7395 68.258 91.7543 68.3115 91.7564 68.3658C91.7781 68.5104 91.7781 68.6567 91.7564 68.8013C91.6865 69.2873 91.416 69.7376 90.9918 70.074C90.5675 70.4105 90.0163 70.6119 89.4335 70.6435C89.2601 70.6555 89.0856 70.6494 88.914 70.6253C88.8494 70.62 88.7867 70.6045 88.729 70.5797C88.729 70.5569 89.001 70.6048 89.4226 70.5615C89.9757 70.5108 90.4939 70.3101 90.8985 69.9899C91.303 69.6697 91.5718 69.2476 91.6639 68.7876C91.7264 68.4365 91.6856 68.2108 91.7128 68.2085Z" fill="#EB996E"/>
<path d="M92.9859 67.6316C93.1716 67.7455 93.3318 67.8859 93.4592 68.0466C93.7797 68.4256 94.002 68.8566 94.112 69.312C94.2252 69.7688 94.2206 70.2407 94.0984 70.6959C94.0578 70.8855 93.9777 71.0677 93.8617 71.234C93.8373 71.234 93.9297 71.022 94.0005 70.68C94.1838 69.7802 93.9566 68.8556 93.364 68.0899C93.1491 67.8049 92.9696 67.6476 92.9859 67.6316Z" fill="#EB996E"/>
<path d="M94.0796 58.9676C94.0432 58.9882 94.0039 59.0051 93.9626 59.0178L93.6199 59.1386C93.1956 59.2876 92.7615 59.4162 92.3197 59.5239C91.6622 59.6925 90.9747 59.7642 90.2879 59.736C89.8798 59.7131 89.4786 59.6361 89.0993 59.508C88.8737 59.453 88.6801 59.3305 88.5553 59.1637C88.4983 59.0685 88.4829 58.9596 88.5117 58.8559C88.5316 58.8041 88.5652 58.7567 88.6099 58.7172C88.6546 58.6777 88.7094 58.6472 88.7701 58.6279C90.4593 58.1423 91.9743 57.7319 93.0786 57.4309L94.3897 57.0821L94.7487 56.9931C94.7897 56.9802 94.8328 56.9725 94.8765 56.9703C94.8382 56.9882 94.7981 57.0035 94.7569 57.0159L94.406 57.1254L93.1113 57.5084L88.8273 58.7351C88.7849 58.7468 88.7466 58.767 88.7158 58.7941C88.6849 58.8211 88.6625 58.8541 88.6505 58.8901C88.6261 58.9666 88.6368 59.0479 88.6804 59.1181C88.7891 59.2563 88.9515 59.3586 89.1401 59.4077C89.5063 59.5329 89.8935 59.6098 90.2879 59.6357C90.9608 59.668 91.6355 59.6064 92.2844 59.4533C92.842 59.3279 93.2826 59.1933 93.59 59.1044L93.9436 59.0041C93.9858 58.9849 94.0319 58.9725 94.0796 58.9676Z" fill="#EB996E"/>
<path d="M88.5688 60.42C88.5688 60.42 88.4273 60.4542 88.1771 60.5271C87.8253 60.6431 87.4609 60.7301 87.0891 60.787C86.8219 60.8232 86.5479 60.7881 86.3057 60.6867C86.0324 60.5706 85.7928 60.4056 85.604 60.2034C85.518 60.1161 85.4571 60.0133 85.4262 59.9032C85.3953 59.793 85.395 59.6783 85.4256 59.568C85.4561 59.4577 85.5165 59.3548 85.6022 59.2673C85.6879 59.1798 85.7964 59.11 85.9195 59.0634L86.4145 58.8901C87.7473 58.4341 88.9577 58.01 89.839 57.7136L90.8835 57.3693C91.0087 57.3225 91.1389 57.2859 91.2725 57.2599C91.1545 57.3194 91.0307 57.3705 90.9025 57.4126L89.8771 57.7911C89.0067 58.1058 87.8017 58.5344 86.4689 58.9995L85.9766 59.1728C85.8304 59.2263 85.7092 59.3184 85.6312 59.435C85.5561 59.5452 85.5231 59.6721 85.5367 59.7984C85.5503 59.9248 85.6099 60.0447 85.7073 60.1418C85.8832 60.3315 86.1059 60.487 86.3601 60.5978C86.5808 60.6942 86.8319 60.73 87.0782 60.7004C87.4474 60.6484 87.8112 60.5721 88.1662 60.4724C88.2964 60.4378 88.4322 60.4201 88.5688 60.42Z" fill="#EB996E"/>
<path d="M100.433 64.1888C100.332 64.2722 100.223 64.3485 100.107 64.4168C99.8008 64.6216 99.4782 64.8082 99.1412 64.9754C98.6383 65.2325 98.0674 65.3813 97.4793 65.4086C97.128 65.4203 96.7776 65.3698 96.4511 65.2604C96.2786 65.2039 96.1165 65.1271 95.9697 65.0324C95.8045 64.9341 95.6822 64.7932 95.6215 64.6311C95.607 64.5854 95.604 64.5376 95.6129 64.4909C95.6219 64.4441 95.6424 64.3995 95.6732 64.3598C95.7335 64.293 95.8061 64.2345 95.8881 64.1865L96.3124 63.9061L97.1121 63.3726L98.4721 62.4788L99.3969 61.8815C99.5077 61.8049 99.626 61.7363 99.7505 61.6763C99.653 61.7644 99.5465 61.8453 99.4323 61.9179L98.5347 62.5427L97.191 63.4547L96.394 63.9905L95.9724 64.2755C95.9034 64.3162 95.8412 64.3645 95.7875 64.4191C95.768 64.4458 95.7553 64.4756 95.7502 64.5066C95.745 64.5375 95.7475 64.5691 95.7575 64.5992C95.8118 64.7349 95.9155 64.853 96.054 64.9367C96.1902 65.0286 96.3402 65.1053 96.5001 65.1647C96.8086 65.268 97.139 65.3177 97.4711 65.3106C98.041 65.2883 98.596 65.1514 99.0895 64.9116C99.4283 64.754 99.7561 64.5804 100.071 64.3918C100.184 64.3148 100.305 64.2469 100.433 64.1888Z" fill="#EB996E"/>
<path d="M95.1485 60.5728C94.8544 60.3858 94.613 60.1468 94.4413 59.8729C94.2287 59.6204 94.0856 59.3315 94.0225 59.027C94.0605 59.0133 94.2509 59.3872 94.5665 59.8113C94.882 60.2354 95.1785 60.55 95.1485 60.5728Z" fill="#EB996E"/>
<path d="M96.6501 61.7196C96.1388 61.2926 95.465 61.0295 94.7461 60.9763C95.1159 60.9237 95.4961 60.9667 95.8362 61.0994C96.1762 61.2322 96.4601 61.4484 96.6501 61.7196Z" fill="#EB996E"/>
<path d="M99.2337 66.4711C99.2337 66.4916 98.9263 66.503 98.4449 66.5874C97.8194 66.6979 97.2184 66.8895 96.6633 67.1551C96.1108 67.4239 95.6108 67.7622 95.1809 68.1583C94.8517 68.4638 94.6831 68.6804 94.6641 68.669C94.6857 68.6109 94.7188 68.5562 94.762 68.5071C94.8627 68.3649 94.9773 68.2299 95.1047 68.1036C95.9463 67.2525 97.127 66.6856 98.4285 66.5076C98.6226 66.4794 98.8191 66.4641 99.0161 66.462C99.0887 66.4545 99.1623 66.4576 99.2337 66.4711Z" fill="#EB996E"/>
<path d="M99.843 71.1133C99.8093 71.1846 99.7635 71.2514 99.707 71.3116C99.5659 71.481 99.4095 71.6411 99.2391 71.7904C98.672 72.2864 97.9757 72.6656 97.2047 72.8986C96.4337 73.1316 95.6088 73.2119 94.7946 73.1334C94.5501 73.11 94.3081 73.0703 94.0711 73.0148C93.9815 72.9993 93.8953 72.9724 93.8154 72.935C93.8154 72.9145 94.1908 73.0102 94.8055 73.049C95.6011 73.1024 96.4011 73.0124 97.1517 72.7851C97.9024 72.5578 98.5863 72.1984 99.1575 71.7312C99.609 71.3641 99.8239 71.1019 99.843 71.1133Z" fill="#EB996E"/>
<path d="M32.4634 82.4767L38.5698 80.6117L46.4551 86.5215L44.1186 90.0213L32.4634 82.4767Z" fill="#667499"/>
<path d="M42.0135 93.4208C42.0372 93.3761 42.0673 93.334 42.1032 93.2954L42.3752 92.9351C42.62 92.6205 42.9736 92.1622 43.4061 91.5785C43.8386 90.9948 44.3554 90.2835 44.9021 89.4604C45.1741 89.0477 45.4461 88.6077 45.7181 88.1357C46.0111 87.6526 46.2322 87.1411 46.3763 86.6127L46.3981 86.6628L42.7043 83.863C41.1213 82.6683 39.6226 81.5328 38.2871 80.5228L38.3442 80.5365C37.7694 80.6409 37.2055 80.7835 36.6578 80.9628C36.1301 81.1293 35.6351 81.3048 35.1754 81.4758C34.2506 81.8224 33.4563 82.1598 32.8063 82.4403C32.1562 82.7207 31.6503 82.9647 31.3075 83.1243L30.9131 83.3135C30.8693 83.3376 30.8228 83.3582 30.7744 83.3751C30.8125 83.345 30.8555 83.3196 30.9023 83.2998L31.2858 83.0946C31.6231 82.9214 32.1235 82.6751 32.7709 82.381C33.4183 82.0869 34.2071 81.7449 35.1291 81.3915C35.5915 81.2159 36.0866 81.0358 36.617 80.8671C37.1693 80.6823 37.7388 80.5359 38.3197 80.4293H38.3496L38.3741 80.4476L42.7968 83.7786L46.5123 86.5785L46.5395 86.6013V86.6286C46.3902 87.1678 46.1618 87.6893 45.8595 88.1813C45.5875 88.6556 45.2992 89.0933 45.0245 89.506C44.4669 90.3291 43.9365 91.0336 43.4986 91.615C43.0607 92.1964 42.6826 92.6478 42.4351 92.9556C42.3099 93.1084 42.2093 93.227 42.1413 93.3045C42.1027 93.3462 42.0599 93.3851 42.0135 93.4208Z" fill="#263238"/>
<path d="M41.9805 87.9282C42.0604 87.7741 42.1637 87.6293 42.2878 87.4973C42.4973 87.2397 42.7965 86.8931 43.1446 86.5215C43.4928 86.1498 43.8246 85.8238 44.0721 85.5958C44.1968 85.4639 44.3391 85.3446 44.4965 85.2401C44.3999 85.3871 44.283 85.5241 44.1483 85.6482L43.248 86.5967L42.3694 87.552C42.2559 87.6885 42.1255 87.8146 41.9805 87.9282Z" fill="#263238"/>
<path d="M38.3521 84.8866C38.7442 84.4929 39.1716 84.1247 39.6304 83.7854C40.057 83.4171 40.5161 83.0764 41.0041 82.7662C40.6138 83.1614 40.1873 83.5304 39.7284 83.8698C39.3026 84.2389 38.8424 84.5789 38.3521 84.8866Z" fill="#263238"/>
<path d="M95.9561 66.3822C95.8416 66.3359 95.7339 66.2785 95.6352 66.2112C95.3551 66.0419 95.0922 65.8535 94.8491 65.648C94.0376 64.9673 93.4359 64.1313 93.0961 63.2121C92.7564 62.2929 92.6887 61.3181 92.8989 60.3721C92.9628 60.0868 93.0538 59.8062 93.1709 59.5331C93.2079 59.4315 93.258 59.3336 93.3205 59.2412C93.3477 59.2412 93.1382 59.6699 93.0049 60.3812C92.8242 61.3147 92.9038 62.2707 93.2374 63.1741C93.571 64.0776 94.1497 64.904 94.928 65.5887C95.5155 66.12 95.9725 66.3617 95.9561 66.3822Z" fill="#263238"/>
<path d="M75.7818 70.2719C75.6362 70.1039 75.5157 69.9217 75.4228 69.7292C75.1698 69.2755 74.949 68.8095 74.7618 68.3339C74.5388 67.7775 74.3729 67.2645 74.2613 66.8929C74.1885 66.6939 74.1402 66.4891 74.1172 66.2819C74.2182 66.4717 74.2992 66.6685 74.3593 66.8701C74.4926 67.2349 74.6748 67.7411 74.9033 68.2951C75.1318 68.8491 75.3493 69.3416 75.5207 69.695C75.6248 69.8816 75.7121 70.0744 75.7818 70.2719Z" fill="#263238"/>
<path d="M74.7188 66.0585C74.811 66.2495 74.8856 66.4461 74.9418 66.6467C75.0723 67.0115 75.2573 67.5131 75.4858 68.0557C75.7143 68.5984 75.9672 69.084 76.1522 69.4237C76.2607 69.6074 76.3516 69.798 76.4242 69.9937C76.2752 69.8289 76.1501 69.6498 76.0515 69.4602C75.7856 69.0159 75.5504 68.5592 75.3471 68.0922C75.1414 67.6246 74.9688 67.1473 74.8303 66.6627C74.7644 66.4657 74.727 66.2629 74.7188 66.0585Z" fill="#263238"/>
<path d="M74.9497 65.9513C75.0345 66.1438 75.1027 66.3411 75.1537 66.5418C75.2734 66.9043 75.4556 67.4036 75.6977 67.9417C75.9398 68.4798 76.19 68.9586 76.375 69.3097C76.484 69.4916 76.575 69.6808 76.647 69.8752C76.4983 69.7114 76.3723 69.5339 76.2716 69.3462C75.9995 68.9064 75.7588 68.4534 75.5508 67.9896C75.3414 67.526 75.1714 67.0506 75.0422 66.5669C74.9816 66.3656 74.9505 66.1589 74.9497 65.9513Z" fill="#263238"/>
<path d="M77.2972 69.6996C77.1428 69.5395 77.0139 69.3632 76.9136 69.1752C76.6533 68.7324 76.4289 68.2754 76.2418 67.8072C76.0133 67.26 75.842 66.7561 75.7277 66.3891C75.6552 66.1936 75.6051 65.9928 75.5781 65.7894C75.6827 65.9746 75.7656 66.1677 75.8256 66.3663C75.9616 66.7265 76.1493 67.2236 76.3696 67.7685C76.59 68.3134 76.8184 68.799 76.998 69.1365C77.112 69.3186 77.212 69.5067 77.2972 69.6996Z" fill="#263238"/>
<path d="M78.1537 68.4616C78.2597 67.9691 78.8636 67.643 79.4565 67.5815C80.055 67.5605 80.6532 67.6268 81.2245 67.7776C81.8066 67.8916 82.4295 67.9782 82.9925 67.8118C83.6018 67.6294 84.0452 67.1825 84.6246 66.9454C85.5684 66.5646 86.6809 66.8017 87.7199 66.9157C89.915 67.1551 92.1318 66.8086 94.305 66.4597C90.8555 67.7532 87.2523 68.7368 83.5556 69.3941C82.4921 69.5833 81.3497 69.7384 80.346 69.3941C79.9135 69.2413 79.5055 68.9974 79.035 68.9928C78.7968 69.0213 78.555 69.0213 78.3169 68.9928C78.0857 68.9358 77.9143 68.6622 78.0993 68.5368" fill="#667499"/>
<g opacity="0.6">
<path d="M78.1537 68.4616C78.2597 67.9691 78.8636 67.643 79.4565 67.5815C80.055 67.5605 80.6532 67.6268 81.2245 67.7776C81.8066 67.8916 82.4295 67.9782 82.9925 67.8118C83.6018 67.6294 84.0452 67.1825 84.6246 66.9454C85.5684 66.5646 86.6809 66.8017 87.7199 66.9157C89.915 67.1551 92.1318 66.8086 94.305 66.4597C90.8555 67.7532 87.2523 68.7368 83.5556 69.3941C82.4921 69.5833 81.3497 69.7384 80.346 69.3941C79.9135 69.2413 79.5055 68.9974 79.035 68.9928C78.7968 69.0213 78.555 69.0213 78.3169 68.9928C78.0857 68.9358 77.9143 68.6622 78.0993 68.5368" fill="white"/>
</g>
<g opacity="0.3">
<path d="M60.1663 92.0436C59.6386 92.0231 58.2949 91.8042 57.7835 91.7267C57.6122 92.7117 58.7328 93.7331 59.8943 93.9315C61.0557 94.1298 62.3423 93.9497 63.4955 93.7172C70.5376 92.2944 77.8 92.6456 85.0298 92.2808C85.4634 92.2836 85.893 92.2114 86.2919 92.0687C86.4899 91.9945 86.6577 91.8734 86.7746 91.7203C86.8916 91.5671 86.9526 91.3887 86.9501 91.2069C86.8984 90.7509 86.3245 90.459 85.7968 90.3154C83.6072 89.7226 81.2408 90.2766 78.9968 90.7235C72.5314 92.0094 66.7867 92.9009 60.1608 92.0436" fill="black"/>
</g>
<g opacity="0.3">
<path d="M59.2959 54.5604C60.7046 55.4063 62.1825 56.1682 63.7186 56.8404C65.2616 57.5161 66.9583 57.9094 68.6962 57.9941C70.3037 58.0374 71.8922 57.7274 73.4263 57.3261C74.3293 57.1187 75.1915 56.8023 75.9858 56.3867C76.7871 55.964 77.3851 55.3182 77.6749 54.5627C71.7368 56.3555 65.2321 56.3224 59.3204 54.4692" fill="black"/>
</g>
<g opacity="0.3">
<path d="M35.1971 81.4644C33.4478 81.3697 31.7003 81.6713 30.1379 82.3377C28.6337 82.992 27.0616 83.8789 26.7868 85.272C26.708 85.6642 26.7515 86.143 27.1595 86.3482C27.5104 86.526 27.9755 86.4075 28.3073 86.2068C29.0308 85.7713 29.3736 85.0303 29.8305 84.3828C30.962 82.7868 35.1971 81.4507 35.1971 81.4507" fill="black"/>
</g>
<g opacity="0.3">
<path d="M67.9184 81.2205C68.1904 81.4325 67.7878 82.3149 66.5584 83.4093C65.8246 84.059 64.976 84.6104 64.0424 85.044C62.8393 85.6169 61.4937 85.9471 60.112 86.0085C58.7885 86.0478 57.4665 85.9014 56.2006 85.5753C55.18 85.3191 54.2115 84.9347 53.3283 84.4353C52.7284 84.1068 52.1988 83.6959 51.7616 83.22C51.4651 82.8689 51.3781 82.609 51.4896 82.4836C51.7453 82.2168 52.7218 82.5497 54.2096 82.9396C56.0774 83.4488 58.0342 83.69 59.9978 83.6532C61.0011 83.6037 61.9875 83.4141 62.9163 83.0924C63.7442 82.809 64.5492 82.4807 65.3262 82.1097C66.7026 81.4462 67.6219 80.9902 67.9184 81.2205Z" fill="black"/>
</g>
<g opacity="0.3">
<path d="M91.3648 81.9957C91.4518 82.1416 91.3213 82.3628 90.9867 82.6478C90.9024 82.7185 90.8045 82.7937 90.6957 82.8758C90.5758 82.9577 90.4505 83.0338 90.3203 83.1038C90.0121 83.2805 89.6853 83.4332 89.3438 83.5598C89.1561 83.6305 88.9549 83.7034 88.7454 83.7741C88.536 83.8448 88.3075 83.8972 88.0763 83.9588C87.5775 84.0859 87.0685 84.1827 86.5531 84.2483C84.1689 84.547 81.7325 84.2579 79.5409 83.4161C79.0703 83.2321 78.6158 83.0203 78.1809 82.7823C77.9769 82.6683 77.7784 82.568 77.5989 82.4494C77.4193 82.3309 77.2534 82.2214 77.0957 82.1029C76.8106 81.901 76.5467 81.679 76.3069 81.4394C76.2008 81.3345 76.1029 81.2365 76.0213 81.1384C75.9397 81.0404 75.8744 80.9446 75.8173 80.8557C75.5888 80.5046 75.5453 80.2606 75.6704 80.1421C75.9424 79.8913 76.8373 80.2333 78.1592 80.6801C78.3278 80.7349 78.4992 80.7941 78.676 80.8557C78.8528 80.9173 79.0513 80.9651 79.2417 81.0267C79.6252 81.1544 80.0577 81.2547 80.4848 81.3733C82.3845 81.8476 84.3589 82.0782 86.3409 82.0573C86.7952 82.0413 87.2385 82.0573 87.6465 82.0139C87.8533 82.0003 88.0545 81.998 88.2477 81.982C88.4408 81.9661 88.623 81.9455 88.7917 81.9341C90.2115 81.811 91.1744 81.6902 91.3648 81.9957Z" fill="black"/>
</g>
<path d="M69.1696 79.0613C69.1373 79.1153 69.1 79.1671 69.0581 79.2163C68.9765 79.3121 68.8704 79.4626 68.7072 79.6381C68.2575 80.1469 67.7501 80.618 67.1922 81.0449C65.3505 82.4756 63.0435 83.4156 60.5636 83.7456C58.0837 84.0756 55.5428 83.7808 53.2631 82.8985C52.5759 82.636 51.9201 82.3192 51.3047 81.9523C51.0816 81.8269 50.9266 81.7106 50.8151 81.64C50.7565 81.6055 50.7019 81.5665 50.6519 81.5237C50.7143 81.5529 50.7743 81.5856 50.8314 81.6217C50.9483 81.6856 51.1034 81.7973 51.3346 81.9136C52.8881 82.7818 54.6442 83.3632 56.4863 83.619C59.1881 84.0095 61.9682 83.64 64.3933 82.5679C66.0517 81.8453 67.5075 80.8349 68.6637 79.6039C68.8351 79.4329 68.9357 79.287 69.0336 79.1958C69.074 79.1476 69.1196 79.1026 69.1696 79.0613Z" fill="#263238"/>
<path d="M60.7624 54.5148C60.6945 54.3413 60.6534 54.1613 60.64 53.979C60.5743 53.5433 60.538 53.1049 60.5312 52.6657C60.5238 52.2258 60.5456 51.7858 60.5965 51.3479C60.604 51.1655 60.6397 50.9846 60.7026 50.8098C60.7245 50.991 60.7245 51.1736 60.7026 51.3547C60.6862 51.6899 60.6699 52.1527 60.6781 52.6635C60.6862 53.1742 60.7189 53.637 60.7434 53.9722C60.7695 54.1522 60.7759 54.3338 60.7624 54.5148Z" fill="#263238"/>
<path d="M65.3455 55.119C65.3279 54.9118 65.3279 54.7038 65.3455 54.4966C65.3455 54.1158 65.3455 53.5846 65.2938 53.0078C65.2422 52.4309 65.1605 51.902 65.0925 51.5258C65.0394 51.3232 65.0067 51.1173 64.9946 50.9102C65.0866 51.1032 65.1523 51.3044 65.1905 51.5098C65.312 52.0009 65.3938 52.4983 65.4353 52.9986C65.4744 53.4989 65.4744 54.0009 65.4353 54.5012C65.4354 54.7094 65.4052 54.9169 65.3455 55.119Z" fill="#263238"/>
<path d="M70.3393 55.0187C70.2897 54.818 70.2569 54.6145 70.2414 54.4099C70.1897 54.0337 70.1027 53.5162 69.9694 52.953C69.8361 52.3899 69.6485 51.886 69.5125 51.5257C69.4243 51.3344 69.3534 51.1377 69.3003 50.9375C69.4285 51.1135 69.5308 51.3018 69.6049 51.4984C70.0246 52.4294 70.2767 53.4076 70.3529 54.4008C70.3788 54.6065 70.3742 54.814 70.3393 55.0187Z" fill="#263238"/>
<path d="M74.1798 54.5604C74.1362 54.5604 74.2994 53.7624 74.2532 52.7797C74.2069 51.7971 73.9812 51.015 74.022 51.0082C74.1096 51.1685 74.1709 51.338 74.2042 51.5121C74.311 51.9277 74.3747 52.3503 74.3946 52.7752C74.4136 53.1996 74.3872 53.6246 74.3158 54.0451C74.2997 54.2214 74.2539 54.3949 74.1798 54.5604Z" fill="#263238"/>
<path d="M77.1994 54.3119C77.1558 54.3119 77.2293 53.5914 77.1586 52.7159C77.0878 51.8404 76.911 51.1199 76.9518 51.1199C77.0335 51.2641 77.0886 51.4178 77.115 51.5759C77.3038 52.3249 77.3624 53.0928 77.2891 53.8559C77.2863 54.0108 77.256 54.1644 77.1994 54.3119Z" fill="#263238"/>
<path d="M82.96 61.9658C82.96 61.9658 82.1603 63.4501 83.2864 65.4383L89.4607 63.8423C89.4607 63.8423 88.3972 61.6489 89.439 60.2969L82.96 61.9658Z" fill="#667499"/>
<path d="M92.1839 60.192C92.1363 60.2126 92.0861 60.2286 92.0343 60.2399L91.5963 60.3607L89.9779 60.7825L84.6223 62.13C83.5778 62.3945 82.5714 62.6202 81.6819 62.8824C80.892 63.0997 80.155 63.4341 79.5059 63.8697C79.0706 64.1673 78.7116 64.5357 78.4506 64.9527C78.2738 65.2491 78.2248 65.4315 78.2085 65.4292C78.2151 65.3844 78.226 65.3402 78.2411 65.2969C78.2844 65.1723 78.338 65.0504 78.4016 64.9321C78.6477 64.4987 79.0021 64.1145 79.4407 63.8058C80.094 63.3537 80.8408 63.006 81.6439 62.7798C82.5387 62.5085 83.5479 62.2828 84.5869 62.016L89.9562 60.7027L91.5882 60.3174L92.0343 60.2171C92.0827 60.2038 92.133 60.1953 92.1839 60.192Z" fill="white"/>
<path d="M131.673 106.426C131.673 106.458 103.164 106.485 68.0028 106.485C32.8414 106.485 4.32764 106.458 4.32764 106.426C4.32764 106.394 32.8305 106.367 68.0028 106.367C103.175 106.367 131.673 106.394 131.673 106.426Z" fill="#263238"/>
</svg>
