<svg width="24" height="24" viewBox="0 0 24 24" fill="none" xmlns="http://www.w3.org/2000/svg">
<path d="M9.2999 11.1H7.4999V12.9H9.2999V11.1ZM12.8999 11.1H11.0999V12.9H12.8999V11.1ZM16.4999 11.1H14.6999V12.9H16.4999V11.1ZM18.2999 4.8H17.3999V3H15.5999V4.8H8.3999V3H6.5999V4.8H5.6999C5.22251 4.8 4.76468 4.98964 4.42711 5.32721C4.08954 5.66477 3.8999 6.12261 3.8999 6.6V19.2C3.8999 19.6774 4.08954 20.1352 4.42711 20.4728C4.76468 20.8104 5.22251 21 5.6999 21H18.2999C18.7773 21 19.2351 20.8104 19.5727 20.4728C19.9103 20.1352 20.0999 19.6774 20.0999 19.2V6.6C20.0999 6.12261 19.9103 5.66477 19.5727 5.32721C19.2351 4.98964 18.7773 4.8 18.2999 4.8ZM18.2999 19.2H5.6999V9.3H18.2999V19.2Z" fill="#D12B2F"/>
</svg>
