<svg width="24" height="24" viewBox="0 0 24 24" fill="none" xmlns="http://www.w3.org/2000/svg">
<g clip-path="url(#clip0_32_8524)">
<path d="M23.1634 8.72173L12.9936 0.356052C12.705 0.118684 12.3526 0 12.0002 0C11.6478 0 11.2953 0.118684 11.0068 0.356052L7.91033 2.90319V2.41538C7.91033 1.98359 7.56027 1.63353 7.12849 1.63353H3.37824C2.94646 1.63353 2.5964 1.98359 2.5964 2.41538V7.27443L0.836989 8.72173C0.327175 9.14111 0.135623 9.83554 0.358396 10.457C0.551825 10.9966 1.02156 11.3803 1.57416 11.4719V22.4363C1.57416 23.2999 2.27428 24 3.13785 24H8.5296C9.39318 24 10.0933 23.2999 10.0933 22.4363V18.4503C10.0933 18.1732 10.213 18.008 10.2688 17.9657H13.7315C13.7873 18.008 13.907 18.1732 13.907 18.4503V22.4363C13.907 23.2999 14.6071 24 15.4707 24H20.8625C21.7261 24 22.4261 23.2999 22.4261 22.4363V11.472C22.9788 11.3804 23.4485 10.9967 23.6419 10.457C23.8647 9.83554 23.6732 9.14116 23.1634 8.72173ZM4.16009 3.19727H6.34664V4.18954L4.16009 5.98819V3.19727ZM20.8625 9.92936V22.4364H15.4707V18.4503C15.4707 17.3191 14.7049 16.4021 13.7601 16.4021H10.2402C9.2955 16.4021 8.52965 17.3191 8.52965 18.4503V22.4364H3.13785V9.92936H1.83035L12.0002 1.56369L22.17 9.92936H20.8625Z" fill="#828282"/>
</g>
<defs>
<clipPath id="clip0_32_8524">
<rect width="24" height="24" fill="white"/>
</clipPath>
</defs>
</svg>
