<svg width="16" height="16" viewBox="0 0 16 16" fill="none" xmlns="http://www.w3.org/2000/svg">
<path d="M13.8545 2.14488C13.787 2.07772 13.7018 2.03122 13.6088 2.01085C13.5158 1.99048 13.4189 1.99708 13.3295 2.02988L2.32951 6.02988C2.23465 6.06587 2.15297 6.12986 2.09534 6.21336C2.0377 6.29686 2.00684 6.39592 2.00684 6.49738C2.00684 6.59885 2.0377 6.69791 2.09534 6.78141C2.15297 6.86491 2.23465 6.9289 2.32951 6.96488L6.62451 8.67988L9.79451 5.49988L10.4995 6.20488L7.31451 9.38988L9.03451 13.6849C9.07156 13.7779 9.1357 13.8577 9.2186 13.9138C9.30151 13.97 9.39937 14 9.49951 13.9999C9.60055 13.9978 9.6986 13.9652 9.78072 13.9063C9.86283 13.8473 9.92517 13.7649 9.95951 13.6699L13.9595 2.66988C13.9936 2.58142 14.0018 2.4851 13.9832 2.39215C13.9646 2.29919 13.92 2.21344 13.8545 2.14488Z" fill="white"/>
</svg>
