<svg width="24" height="260" viewBox="0 0 24 260" fill="none" xmlns="http://www.w3.org/2000/svg">
<g clip-path="url(#clip0_32_6015)">
<path fill-rule="evenodd" clip-rule="evenodd" d="M0 12C0 8.8174 1.26428 5.76516 3.51472 3.51472C5.76516 1.26428 8.8174 0 12 0C15.1826 0 18.2348 1.26428 20.4853 3.51472C22.7357 5.76516 24 8.8174 24 12C24 15.1826 22.7357 18.2348 20.4853 20.4853C18.2348 22.7357 15.1826 24 12 24C8.8174 24 5.76516 22.7357 3.51472 20.4853C1.26428 18.2348 0 15.1826 0 12H0ZM11.3152 17.136L18.224 8.4992L16.976 7.5008L11.0848 14.8624L6.912 11.3856L5.888 12.6144L11.3152 17.1376V17.136Z" fill="#4C956C"/>
</g>
<line x1="11.5" y1="59" x2="11.5" y2="24" stroke="#BDBDBD"/>
<g clip-path="url(#clip1_32_6015)">
<path fill-rule="evenodd" clip-rule="evenodd" d="M0 71C0 67.8174 1.26428 64.7652 3.51472 62.5147C5.76516 60.2643 8.8174 59 12 59C15.1826 59 18.2348 60.2643 20.4853 62.5147C22.7357 64.7652 24 67.8174 24 71C24 74.1826 22.7357 77.2348 20.4853 79.4853C18.2348 81.7357 15.1826 83 12 83C8.8174 83 5.76516 81.7357 3.51472 79.4853C1.26428 77.2348 0 74.1826 0 71H0ZM11.3152 76.136L18.224 67.4992L16.976 66.5008L11.0848 73.8624L6.912 70.3856L5.888 71.6144L11.3152 76.1376V76.136Z" fill="#4C956C"/>
</g>
<line x1="11.5" y1="118" x2="11.5" y2="83" stroke="#BDBDBD"/>
<g clip-path="url(#clip2_32_6015)">
<path fill-rule="evenodd" clip-rule="evenodd" d="M0 130C0 126.817 1.26428 123.765 3.51472 121.515C5.76516 119.264 8.8174 118 12 118C15.1826 118 18.2348 119.264 20.4853 121.515C22.7357 123.765 24 126.817 24 130C24 133.183 22.7357 136.235 20.4853 138.485C18.2348 140.736 15.1826 142 12 142C8.8174 142 5.76516 140.736 3.51472 138.485C1.26428 136.235 0 133.183 0 130H0ZM11.3152 135.136L18.224 126.499L16.976 125.501L11.0848 132.862L6.912 129.386L5.888 130.614L11.3152 135.138V135.136Z" fill="#4C956C"/>
</g>
<line x1="11.5" y1="177" x2="11.5" y2="142" stroke="#BDBDBD"/>
<g clip-path="url(#clip3_32_6015)">
<path fill-rule="evenodd" clip-rule="evenodd" d="M0 189C0 185.817 1.26428 182.765 3.51472 180.515C5.76516 178.264 8.8174 177 12 177C15.1826 177 18.2348 178.264 20.4853 180.515C22.7357 182.765 24 185.817 24 189C24 192.183 22.7357 195.235 20.4853 197.485C18.2348 199.736 15.1826 201 12 201C8.8174 201 5.76516 199.736 3.51472 197.485C1.26428 195.235 0 192.183 0 189H0ZM11.3152 194.136L18.224 185.499L16.976 184.501L11.0848 191.862L6.912 188.386L5.888 189.614L11.3152 194.138V194.136Z" fill="#E0E0E0"/>
</g>
<line x1="11.5" y1="236" x2="11.5" y2="201" stroke="#BDBDBD"/>
<g clip-path="url(#clip4_32_6015)">
<path fill-rule="evenodd" clip-rule="evenodd" d="M0 248C0 244.817 1.26428 241.765 3.51472 239.515C5.76516 237.264 8.8174 236 12 236C15.1826 236 18.2348 237.264 20.4853 239.515C22.7357 241.765 24 244.817 24 248C24 251.183 22.7357 254.235 20.4853 256.485C18.2348 258.736 15.1826 260 12 260C8.8174 260 5.76516 258.736 3.51472 256.485C1.26428 254.235 0 251.183 0 248H0ZM11.3152 253.136L18.224 244.499L16.976 243.501L11.0848 250.862L6.912 247.386L5.888 248.614L11.3152 253.138V253.136Z" fill="#E0E0E0"/>
</g>
<defs>
<clipPath id="clip0_32_6015">
<rect width="24" height="24" fill="white"/>
</clipPath>
<clipPath id="clip1_32_6015">
<rect width="24" height="24" fill="white" transform="translate(0 59)"/>
</clipPath>
<clipPath id="clip2_32_6015">
<rect width="24" height="24" fill="white" transform="translate(0 118)"/>
</clipPath>
<clipPath id="clip3_32_6015">
<rect width="24" height="24" fill="white" transform="translate(0 177)"/>
</clipPath>
<clipPath id="clip4_32_6015">
<rect width="24" height="24" fill="white" transform="translate(0 236)"/>
</clipPath>
</defs>
</svg>
